<svg xmlns="http://www.w3.org/2000/svg" viewBox="0 0 1200 1200" width="1200" height="1200">
  <rect width="1200" height="1200" fill="#0a0a0a"/>

  <!-- Generative Art -->
  <g>
    <path d="M 0.0 586.8 L 4.0 584.3 L 8.0 581.7 L 12.0 579.0 L 16.0 576.1 L 20.0 573.2 L 24.0 570.1 L 28.0 566.9 L 32.0 563.7 L 36.0 560.4 L 40.0 557.0 L 44.0 553.5 L 48.0 550.0 L 52.0 546.4 L 56.0 542.8 L 60.0 539.2 L 64.0 535.5 L 68.0 531.9 L 72.0 528.2 L 76.0 524.6 L 80.0 521.0 L 84.0 517.4 L 88.0 513.8 L 92.0 510.3 L 96.0 506.9 L 100.0 503.5 L 104.0 500.2 L 108.0 497.0 L 112.0 493.8 L 116.0 490.8 L 120.0 487.9 L 124.0 485.0 L 128.0 482.4 L 132.0 479.8 L 136.0 477.3 L 140.0 475.0 L 144.0 472.9 L 148.0 470.8 L 152.0 468.9 L 156.0 467.2 L 160.0 465.6 L 164.0 464.2 L 168.0 462.9 L 172.0 461.7 L 176.0 460.8 L 180.0 459.9 L 184.0 459.2 L 188.0 458.7 L 192.0 458.3 L 196.0 458.0 L 200.0 457.9 L 204.0 457.9 L 208.0 458.1 L 212.0 458.3 L 216.0 458.7 L 220.0 459.2 L 224.0 459.8 L 228.0 460.5 L 232.0 461.2 L 236.0 462.1 L 240.0 463.1 L 244.0 464.1 L 248.0 465.1 L 252.0 466.3 L 256.0 467.4 L 260.0 468.7 L 264.0 469.9 L 268.0 471.2 L 272.0 472.5 L 276.0 473.8 L 280.0 475.1 L 284.0 476.4 L 288.0 477.7 L 292.0 478.9 L 296.0 480.2 L 300.0 481.4 L 304.0 482.6 L 308.0 483.8 L 312.0 484.9 L 316.0 486.0 L 320.0 487.0 L 324.0 488.0 L 328.0 488.9 L 332.0 489.8 L 336.0 490.6 L 340.0 491.3 L 344.0 492.0 L 348.0 492.7 L 352.0 493.3 L 356.0 493.8 L 360.0 494.3 L 364.0 494.7 L 368.0 495.1 L 372.0 495.4 L 376.0 495.7 L 380.0 496.0 L 384.0 496.2 L 388.0 496.4 L 392.0 496.6 L 396.0 496.7 L 400.0 496.9 L 404.0 497.0 L 408.0 497.2 L 412.0 497.3 L 416.0 497.5 L 420.0 497.6 L 424.0 497.8 L 428.0 498.1 L 432.0 498.4 L 436.0 498.7 L 440.0 499.0 L 444.0 499.5 L 448.0 500.0 L 452.0 500.5 L 456.0 501.2 L 460.0 501.9 L 464.0 502.7 L 468.0 503.6 L 472.0 504.5 L 476.0 505.6 L 480.0 506.8 L 484.0 508.1 L 488.0 509.4 L 492.0 510.9 L 496.0 512.5 L 500.0 514.2 L 504.0 516.1 L 508.0 518.0 L 512.0 520.0 L 516.0 522.2 L 520.0 524.4 L 524.0 526.8 L 528.0 529.2 L 532.0 531.7 L 536.0 534.4 L 540.0 537.1 L 544.0 539.9 L 548.0 542.8 L 552.0 545.7 L 556.0 548.7 L 560.0 551.8 L 564.0 554.9 L 568.0 558.1 L 572.0 561.3 L 576.0 564.5 L 580.0 567.7 L 584.0 571.0 L 588.0 574.2 L 592.0 577.4 L 596.0 580.6 L 600.0 583.8 L 604.0 587.0 L 608.0 590.1 L 612.0 593.1 L 616.0 596.1 L 620.0 599.0 L 624.0 601.8 L 628.0 604.5 L 632.0 607.1 L 636.0 609.7 L 640.0 612.1 L 644.0 614.4 L 648.0 616.5 L 652.0 618.5 L 656.0 620.4 L 660.0 622.2 L 664.0 623.7 L 668.0 625.2 L 672.0 626.4 L 676.0 627.6 L 680.0 628.5 L 684.0 629.3 L 688.0 629.9 L 692.0 630.3 L 696.0 630.6 L 700.0 630.7 L 704.0 630.6 L 708.0 630.4 L 712.0 630.0 L 716.0 629.4 L 720.0 628.7 L 724.0 627.9 L 728.0 626.8 L 732.0 625.7 L 736.0 624.4 L 740.0 622.9 L 744.0 621.4 L 748.0 619.7 L 752.0 617.9 L 756.0 616.0 L 760.0 614.0 L 764.0 611.9 L 768.0 609.7 L 772.0 607.5 L 776.0 605.1 L 780.0 602.8 L 784.0 600.3 L 788.0 597.9 L 792.0 595.4 L 796.0 592.9 L 800.0 590.3 L 804.0 587.8 L 808.0 585.2 L 812.0 582.7 L 816.0 580.2 L 820.0 577.7 L 824.0 575.2 L 828.0 572.8 L 832.0 570.4 L 836.0 568.1 L 840.0 565.8 L 844.0 563.6 L 848.0 561.4 L 852.0 559.3 L 856.0 557.3 L 860.0 555.4 L 864.0 553.5 L 868.0 551.8 L 872.0 550.1 L 876.0 548.4 L 880.0 546.9 L 884.0 545.5 L 888.0 544.1 L 892.0 542.8 L 896.0 541.6 L 900.0 540.4 L 904.0 539.4 L 908.0 538.4 L 912.0 537.5 L 916.0 536.6 L 920.0 535.8 L 924.0 535.0 L 928.0 534.3 L 932.0 533.7 L 936.0 533.1 L 940.0 532.5 L 944.0 531.9 L 948.0 531.4 L 952.0 530.9 L 956.0 530.3 L 960.0 529.8 L 964.0 529.3 L 968.0 528.8 L 972.0 528.2 L 976.0 527.7 L 980.0 527.1 L 984.0 526.4 L 988.0 525.8 L 992.0 525.0 L 996.0 524.3 L 1000.0 523.5 L 1004.0 522.6 L 1008.0 521.7 L 1012.0 520.7 L 1016.0 519.6 L 1020.0 518.5 L 1024.0 517.3 L 1028.0 516.0 L 1032.0 514.6 L 1036.0 513.2 L 1040.0 511.7 L 1044.0 510.1 L 1048.0 508.5 L 1052.0 506.7 L 1056.0 505.0 L 1060.0 503.1 L 1064.0 501.2 L 1068.0 499.2 L 1072.0 497.2 L 1076.0 495.1 L 1080.0 493.0 L 1084.0 490.8 L 1088.0 488.6 L 1092.0 486.4 L 1096.0 484.2 L 1100.0 481.9 L 1104.0 479.7 L 1108.0 477.4 L 1112.0 475.2 L 1116.0 472.9 L 1120.0 470.7 L 1124.0 468.5 L 1128.0 466.4 L 1132.0 464.3 L 1136.0 462.3 L 1140.0 460.4 L 1144.0 458.5 L 1148.0 456.7 L 1152.0 455.0 L 1156.0 453.4 L 1160.0 451.9 L 1164.0 450.6 L 1168.0 449.3 L 1172.0 448.2 L 1176.0 447.2 L 1180.0 446.3 L 1184.0 445.6 L 1188.0 445.0 L 1192.0 444.6 L 1196.0 444.3 L 1200.0 444.2" stroke="#d7ee2b" stroke-width="7.7" fill="none" opacity="0.05" stroke-linecap="round"/>
<path d="M 0.0 586.8 L 4.0 584.3 L 8.0 581.7 L 12.0 579.0 L 16.0 576.1 L 20.0 573.2 L 24.0 570.1 L 28.0 566.9 L 32.0 563.7 L 36.0 560.4 L 40.0 557.0 L 44.0 553.5 L 48.0 550.0 L 52.0 546.4 L 56.0 542.8 L 60.0 539.2 L 64.0 535.5 L 68.0 531.9 L 72.0 528.2 L 76.0 524.6 L 80.0 521.0 L 84.0 517.4 L 88.0 513.8 L 92.0 510.3 L 96.0 506.9 L 100.0 503.5 L 104.0 500.2 L 108.0 497.0 L 112.0 493.8 L 116.0 490.8 L 120.0 487.9 L 124.0 485.0 L 128.0 482.4 L 132.0 479.8 L 136.0 477.3 L 140.0 475.0 L 144.0 472.9 L 148.0 470.8 L 152.0 468.9 L 156.0 467.2 L 160.0 465.6 L 164.0 464.2 L 168.0 462.9 L 172.0 461.7 L 176.0 460.8 L 180.0 459.9 L 184.0 459.2 L 188.0 458.7 L 192.0 458.3 L 196.0 458.0 L 200.0 457.9 L 204.0 457.9 L 208.0 458.1 L 212.0 458.3 L 216.0 458.7 L 220.0 459.2 L 224.0 459.8 L 228.0 460.5 L 232.0 461.2 L 236.0 462.1 L 240.0 463.1 L 244.0 464.1 L 248.0 465.1 L 252.0 466.3 L 256.0 467.4 L 260.0 468.7 L 264.0 469.9 L 268.0 471.2 L 272.0 472.5 L 276.0 473.8 L 280.0 475.1 L 284.0 476.4 L 288.0 477.7 L 292.0 478.9 L 296.0 480.2 L 300.0 481.4 L 304.0 482.6 L 308.0 483.8 L 312.0 484.9 L 316.0 486.0 L 320.0 487.0 L 324.0 488.0 L 328.0 488.9 L 332.0 489.8 L 336.0 490.6 L 340.0 491.3 L 344.0 492.0 L 348.0 492.7 L 352.0 493.3 L 356.0 493.8 L 360.0 494.3 L 364.0 494.7 L 368.0 495.1 L 372.0 495.4 L 376.0 495.7 L 380.0 496.0 L 384.0 496.2 L 388.0 496.4 L 392.0 496.6 L 396.0 496.7 L 400.0 496.9 L 404.0 497.0 L 408.0 497.2 L 412.0 497.3 L 416.0 497.5 L 420.0 497.6 L 424.0 497.8 L 428.0 498.1 L 432.0 498.4 L 436.0 498.7 L 440.0 499.0 L 444.0 499.5 L 448.0 500.0 L 452.0 500.5 L 456.0 501.2 L 460.0 501.9 L 464.0 502.7 L 468.0 503.6 L 472.0 504.5 L 476.0 505.6 L 480.0 506.8 L 484.0 508.1 L 488.0 509.4 L 492.0 510.9 L 496.0 512.5 L 500.0 514.2 L 504.0 516.1 L 508.0 518.0 L 512.0 520.0 L 516.0 522.2 L 520.0 524.4 L 524.0 526.8 L 528.0 529.2 L 532.0 531.7 L 536.0 534.4 L 540.0 537.1 L 544.0 539.9 L 548.0 542.8 L 552.0 545.7 L 556.0 548.7 L 560.0 551.8 L 564.0 554.9 L 568.0 558.1 L 572.0 561.3 L 576.0 564.5 L 580.0 567.7 L 584.0 571.0 L 588.0 574.2 L 592.0 577.4 L 596.0 580.6 L 600.0 583.8 L 604.0 587.0 L 608.0 590.1 L 612.0 593.1 L 616.0 596.1 L 620.0 599.0 L 624.0 601.8 L 628.0 604.5 L 632.0 607.1 L 636.0 609.7 L 640.0 612.1 L 644.0 614.4 L 648.0 616.5 L 652.0 618.5 L 656.0 620.4 L 660.0 622.2 L 664.0 623.7 L 668.0 625.2 L 672.0 626.4 L 676.0 627.6 L 680.0 628.5 L 684.0 629.3 L 688.0 629.9 L 692.0 630.3 L 696.0 630.6 L 700.0 630.7 L 704.0 630.6 L 708.0 630.4 L 712.0 630.0 L 716.0 629.4 L 720.0 628.7 L 724.0 627.9 L 728.0 626.8 L 732.0 625.7 L 736.0 624.4 L 740.0 622.9 L 744.0 621.4 L 748.0 619.7 L 752.0 617.9 L 756.0 616.0 L 760.0 614.0 L 764.0 611.9 L 768.0 609.7 L 772.0 607.5 L 776.0 605.1 L 780.0 602.8 L 784.0 600.3 L 788.0 597.9 L 792.0 595.4 L 796.0 592.9 L 800.0 590.3 L 804.0 587.8 L 808.0 585.2 L 812.0 582.7 L 816.0 580.2 L 820.0 577.7 L 824.0 575.2 L 828.0 572.8 L 832.0 570.4 L 836.0 568.1 L 840.0 565.8 L 844.0 563.6 L 848.0 561.4 L 852.0 559.3 L 856.0 557.3 L 860.0 555.4 L 864.0 553.5 L 868.0 551.8 L 872.0 550.1 L 876.0 548.4 L 880.0 546.9 L 884.0 545.5 L 888.0 544.1 L 892.0 542.8 L 896.0 541.6 L 900.0 540.4 L 904.0 539.4 L 908.0 538.4 L 912.0 537.5 L 916.0 536.6 L 920.0 535.8 L 924.0 535.0 L 928.0 534.3 L 932.0 533.7 L 936.0 533.1 L 940.0 532.5 L 944.0 531.9 L 948.0 531.4 L 952.0 530.9 L 956.0 530.3 L 960.0 529.8 L 964.0 529.3 L 968.0 528.8 L 972.0 528.2 L 976.0 527.7 L 980.0 527.1 L 984.0 526.4 L 988.0 525.8 L 992.0 525.0 L 996.0 524.3 L 1000.0 523.5 L 1004.0 522.6 L 1008.0 521.7 L 1012.0 520.7 L 1016.0 519.6 L 1020.0 518.5 L 1024.0 517.3 L 1028.0 516.0 L 1032.0 514.6 L 1036.0 513.2 L 1040.0 511.7 L 1044.0 510.1 L 1048.0 508.5 L 1052.0 506.7 L 1056.0 505.0 L 1060.0 503.1 L 1064.0 501.2 L 1068.0 499.2 L 1072.0 497.2 L 1076.0 495.1 L 1080.0 493.0 L 1084.0 490.8 L 1088.0 488.6 L 1092.0 486.4 L 1096.0 484.2 L 1100.0 481.9 L 1104.0 479.7 L 1108.0 477.4 L 1112.0 475.2 L 1116.0 472.9 L 1120.0 470.7 L 1124.0 468.5 L 1128.0 466.4 L 1132.0 464.3 L 1136.0 462.3 L 1140.0 460.4 L 1144.0 458.5 L 1148.0 456.7 L 1152.0 455.0 L 1156.0 453.4 L 1160.0 451.9 L 1164.0 450.6 L 1168.0 449.3 L 1172.0 448.2 L 1176.0 447.2 L 1180.0 446.3 L 1184.0 445.6 L 1188.0 445.0 L 1192.0 444.6 L 1196.0 444.3 L 1200.0 444.2" stroke="#d7ee2b" stroke-width="3.1" fill="none" opacity="0.31" stroke-linecap="round"/>
<path d="M 0.0 914.7 L 4.0 930.5 L 8.0 945.3 L 12.0 959.0 L 16.0 971.2 L 20.0 981.9 L 24.0 990.9 L 28.0 998.0 L 32.0 1003.3 L 36.0 1006.8 L 40.0 1008.3 L 44.0 1008.1 L 48.0 1006.2 L 52.0 1002.7 L 56.0 997.9 L 60.0 991.8 L 64.0 984.8 L 68.0 977.0 L 72.0 968.7 L 76.0 960.0 L 80.0 951.3 L 84.0 942.6 L 88.0 934.3 L 92.0 926.4 L 96.0 919.0 L 100.0 912.4 L 104.0 906.4 L 108.0 901.2 L 112.0 896.8 L 116.0 893.1 L 120.0 890.0 L 124.0 887.4 L 128.0 885.1 L 132.0 883.1 L 136.0 881.2 L 140.0 879.1 L 144.0 876.7 L 148.0 873.8 L 152.0 870.3 L 156.0 866.1 L 160.0 860.9 L 164.0 854.6 L 168.0 847.4 L 172.0 839.0 L 176.0 829.5 L 180.0 818.9 L 184.0 807.4 L 188.0 795.1 L 192.0 782.0 L 196.0 768.4 L 200.0 754.5 L 204.0 740.6 L 208.0 726.8 L 212.0 713.4 L 216.0 700.6 L 220.0 688.8 L 224.0 678.2 L 228.0 668.9 L 232.0 661.1 L 236.0 655.1 L 240.0 651.0 L 244.0 648.8 L 248.0 648.5 L 252.0 650.3 L 256.0 654.0 L 260.0 659.7 L 264.0 667.0 L 268.0 676.0 L 272.0 686.5 L 276.0 698.1 L 280.0 710.8 L 284.0 724.2 L 288.0 738.1 L 292.0 752.2 L 296.0 766.4 L 300.0 780.3 L 304.0 793.7 L 308.0 806.5 L 312.0 818.4 L 316.0 829.4 L 320.0 839.4 L 324.0 848.2 L 328.0 856.0 L 332.0 862.6 L 336.0 868.2 L 340.0 872.8 L 344.0 876.5 L 348.0 879.6 L 352.0 882.0 L 356.0 884.1 L 360.0 886.0 L 364.0 887.9 L 368.0 889.9 L 372.0 892.2 L 376.0 895.0 L 380.0 898.3 L 384.0 902.3 L 388.0 907.0 L 392.0 912.4 L 396.0 918.6 L 400.0 925.5 L 404.0 932.9 L 408.0 940.9 L 412.0 949.2 L 416.0 957.7 L 420.0 966.1 L 424.0 974.3 L 428.0 982.1 L 432.0 989.1 L 436.0 995.3 L 440.0 1000.3 L 444.0 1004.0 L 448.0 1006.3 L 452.0 1006.9 L 456.0 1005.7 L 460.0 1002.7 L 464.0 997.9 L 468.0 991.2 L 472.0 982.7 L 476.0 972.4 L 480.0 960.5 L 484.0 947.2 L 488.0 932.6 L 492.0 917.0 L 496.0 900.6 L 500.0 883.7 L 504.0 866.5 L 508.0 849.3 L 512.0 832.4 L 516.0 816.1 L 520.0 800.5 L 524.0 785.8 L 528.0 772.4 L 532.0 760.3 L 536.0 749.6 L 540.0 740.4 L 544.0 732.8 L 548.0 726.7 L 552.0 722.1 L 556.0 719.0 L 560.0 717.1 L 564.0 716.5 L 568.0 716.8 L 572.0 718.0 L 576.0 719.8 L 580.0 722.1 L 584.0 724.6 L 588.0 727.1 L 592.0 729.6 L 596.0 731.7 L 600.0 733.5 L 604.0 734.7 L 608.0 735.4 L 612.0 735.5 L 616.0 735.0 L 620.0 733.9 L 624.0 732.4 L 628.0 730.4 L 632.0 728.2 L 636.0 725.9 L 640.0 723.7 L 644.0 721.7 L 648.0 720.2 L 652.0 719.3 L 656.0 719.3 L 660.0 720.3 L 664.0 722.5 L 668.0 726.0 L 672.0 731.0 L 676.0 737.4 L 680.0 745.4 L 684.0 754.8 L 688.0 765.8 L 692.0 778.2 L 696.0 791.9 L 700.0 806.7 L 704.0 822.4 L 708.0 838.8 L 712.0 855.7 L 716.0 872.9 L 720.0 889.9 L 724.0 906.7 L 728.0 922.9 L 732.0 938.2 L 736.0 952.5 L 740.0 965.4 L 744.0 976.9 L 748.0 986.7 L 752.0 994.8 L 756.0 1001.0 L 760.0 1005.3 L 764.0 1007.8 L 768.0 1008.4 L 772.0 1007.3 L 776.0 1004.6 L 780.0 1000.4 L 784.0 994.9 L 788.0 988.3 L 792.0 980.9 L 796.0 972.8 L 800.0 964.2 L 804.0 955.5 L 808.0 946.8 L 812.0 938.3 L 816.0 930.1 L 820.0 922.5 L 824.0 915.5 L 828.0 909.2 L 832.0 903.7 L 836.0 898.9 L 840.0 894.8 L 844.0 891.4 L 848.0 888.6 L 852.0 886.2 L 856.0 884.1 L 860.0 882.1 L 864.0 880.1 L 868.0 877.9 L 872.0 875.3 L 876.0 872.1 L 880.0 868.3 L 884.0 863.5 L 888.0 857.8 L 892.0 851.0 L 896.0 843.2 L 900.0 834.2 L 904.0 824.2 L 908.0 813.2 L 912.0 801.2 L 916.0 788.4 L 920.0 775.1 L 924.0 761.3 L 928.0 747.4 L 932.0 733.4 L 936.0 719.8 L 940.0 706.7 L 944.0 694.5 L 948.0 683.2 L 952.0 673.2 L 956.0 664.7 L 960.0 657.8 L 964.0 652.8 L 968.0 649.6 L 972.0 648.4 L 976.0 649.2 L 980.0 652.0 L 984.0 656.7 L 988.0 663.2 L 992.0 671.5 L 996.0 681.2 L 1000.0 692.3 L 1004.0 704.5 L 1008.0 717.6 L 1012.0 731.3 L 1016.0 745.3 L 1020.0 759.5 L 1024.0 773.5 L 1028.0 787.2 L 1032.0 800.3 L 1036.0 812.7 L 1040.0 824.2 L 1044.0 834.7 L 1048.0 844.1 L 1052.0 852.3 L 1056.0 859.5 L 1060.0 865.6 L 1064.0 870.7 L 1068.0 874.8 L 1072.0 878.2 L 1076.0 880.9 L 1080.0 883.2 L 1084.0 885.1 L 1088.0 887.0 L 1092.0 888.9 L 1096.0 891.0 L 1100.0 893.5 L 1104.0 896.6 L 1108.0 900.2 L 1112.0 904.6 L 1116.0 909.7 L 1120.0 915.5 L 1124.0 922.0 L 1128.0 929.2 L 1132.0 937.0 L 1136.0 945.1 L 1140.0 953.5 L 1144.0 962.0 L 1148.0 970.4 L 1152.0 978.4 L 1156.0 985.8 L 1160.0 992.4 L 1164.0 998.0 L 1168.0 1002.4 L 1172.0 1005.4 L 1176.0 1006.8 L 1180.0 1006.5 L 1184.0 1004.4 L 1188.0 1000.5 L 1192.0 994.7 L 1196.0 987.0 L 1200.0 977.6" stroke="#d7ee2b" stroke-width="9.7" fill="none" opacity="0.06" stroke-linecap="round"/>
<path d="M 0.0 914.7 L 4.0 930.5 L 8.0 945.3 L 12.0 959.0 L 16.0 971.2 L 20.0 981.9 L 24.0 990.9 L 28.0 998.0 L 32.0 1003.3 L 36.0 1006.8 L 40.0 1008.3 L 44.0 1008.1 L 48.0 1006.2 L 52.0 1002.7 L 56.0 997.9 L 60.0 991.8 L 64.0 984.8 L 68.0 977.0 L 72.0 968.7 L 76.0 960.0 L 80.0 951.3 L 84.0 942.6 L 88.0 934.3 L 92.0 926.4 L 96.0 919.0 L 100.0 912.4 L 104.0 906.4 L 108.0 901.2 L 112.0 896.8 L 116.0 893.1 L 120.0 890.0 L 124.0 887.4 L 128.0 885.1 L 132.0 883.1 L 136.0 881.2 L 140.0 879.1 L 144.0 876.7 L 148.0 873.8 L 152.0 870.3 L 156.0 866.1 L 160.0 860.9 L 164.0 854.6 L 168.0 847.4 L 172.0 839.0 L 176.0 829.5 L 180.0 818.9 L 184.0 807.4 L 188.0 795.1 L 192.0 782.0 L 196.0 768.4 L 200.0 754.5 L 204.0 740.6 L 208.0 726.8 L 212.0 713.4 L 216.0 700.6 L 220.0 688.8 L 224.0 678.2 L 228.0 668.9 L 232.0 661.1 L 236.0 655.1 L 240.0 651.0 L 244.0 648.8 L 248.0 648.5 L 252.0 650.3 L 256.0 654.0 L 260.0 659.7 L 264.0 667.0 L 268.0 676.0 L 272.0 686.5 L 276.0 698.1 L 280.0 710.8 L 284.0 724.2 L 288.0 738.1 L 292.0 752.2 L 296.0 766.4 L 300.0 780.3 L 304.0 793.7 L 308.0 806.5 L 312.0 818.4 L 316.0 829.4 L 320.0 839.4 L 324.0 848.2 L 328.0 856.0 L 332.0 862.6 L 336.0 868.2 L 340.0 872.8 L 344.0 876.5 L 348.0 879.6 L 352.0 882.0 L 356.0 884.1 L 360.0 886.0 L 364.0 887.9 L 368.0 889.9 L 372.0 892.2 L 376.0 895.0 L 380.0 898.3 L 384.0 902.3 L 388.0 907.0 L 392.0 912.4 L 396.0 918.6 L 400.0 925.5 L 404.0 932.9 L 408.0 940.9 L 412.0 949.2 L 416.0 957.7 L 420.0 966.1 L 424.0 974.3 L 428.0 982.1 L 432.0 989.1 L 436.0 995.3 L 440.0 1000.3 L 444.0 1004.0 L 448.0 1006.3 L 452.0 1006.9 L 456.0 1005.7 L 460.0 1002.7 L 464.0 997.9 L 468.0 991.2 L 472.0 982.7 L 476.0 972.4 L 480.0 960.5 L 484.0 947.2 L 488.0 932.6 L 492.0 917.0 L 496.0 900.6 L 500.0 883.7 L 504.0 866.5 L 508.0 849.3 L 512.0 832.4 L 516.0 816.1 L 520.0 800.5 L 524.0 785.8 L 528.0 772.4 L 532.0 760.3 L 536.0 749.6 L 540.0 740.4 L 544.0 732.8 L 548.0 726.7 L 552.0 722.1 L 556.0 719.0 L 560.0 717.1 L 564.0 716.5 L 568.0 716.8 L 572.0 718.0 L 576.0 719.8 L 580.0 722.1 L 584.0 724.6 L 588.0 727.1 L 592.0 729.6 L 596.0 731.7 L 600.0 733.5 L 604.0 734.7 L 608.0 735.4 L 612.0 735.5 L 616.0 735.0 L 620.0 733.9 L 624.0 732.4 L 628.0 730.4 L 632.0 728.2 L 636.0 725.9 L 640.0 723.7 L 644.0 721.7 L 648.0 720.2 L 652.0 719.3 L 656.0 719.3 L 660.0 720.3 L 664.0 722.5 L 668.0 726.0 L 672.0 731.0 L 676.0 737.4 L 680.0 745.4 L 684.0 754.8 L 688.0 765.8 L 692.0 778.2 L 696.0 791.9 L 700.0 806.7 L 704.0 822.4 L 708.0 838.8 L 712.0 855.7 L 716.0 872.9 L 720.0 889.9 L 724.0 906.7 L 728.0 922.9 L 732.0 938.2 L 736.0 952.5 L 740.0 965.4 L 744.0 976.9 L 748.0 986.7 L 752.0 994.8 L 756.0 1001.0 L 760.0 1005.3 L 764.0 1007.8 L 768.0 1008.4 L 772.0 1007.3 L 776.0 1004.6 L 780.0 1000.4 L 784.0 994.9 L 788.0 988.3 L 792.0 980.9 L 796.0 972.8 L 800.0 964.2 L 804.0 955.5 L 808.0 946.8 L 812.0 938.3 L 816.0 930.1 L 820.0 922.5 L 824.0 915.5 L 828.0 909.2 L 832.0 903.7 L 836.0 898.9 L 840.0 894.8 L 844.0 891.4 L 848.0 888.6 L 852.0 886.2 L 856.0 884.1 L 860.0 882.1 L 864.0 880.1 L 868.0 877.9 L 872.0 875.3 L 876.0 872.1 L 880.0 868.3 L 884.0 863.5 L 888.0 857.8 L 892.0 851.0 L 896.0 843.2 L 900.0 834.2 L 904.0 824.2 L 908.0 813.2 L 912.0 801.2 L 916.0 788.4 L 920.0 775.1 L 924.0 761.3 L 928.0 747.4 L 932.0 733.4 L 936.0 719.8 L 940.0 706.7 L 944.0 694.5 L 948.0 683.2 L 952.0 673.2 L 956.0 664.7 L 960.0 657.8 L 964.0 652.8 L 968.0 649.6 L 972.0 648.4 L 976.0 649.2 L 980.0 652.0 L 984.0 656.7 L 988.0 663.2 L 992.0 671.5 L 996.0 681.2 L 1000.0 692.3 L 1004.0 704.5 L 1008.0 717.6 L 1012.0 731.3 L 1016.0 745.3 L 1020.0 759.5 L 1024.0 773.5 L 1028.0 787.2 L 1032.0 800.3 L 1036.0 812.7 L 1040.0 824.2 L 1044.0 834.7 L 1048.0 844.1 L 1052.0 852.3 L 1056.0 859.5 L 1060.0 865.6 L 1064.0 870.7 L 1068.0 874.8 L 1072.0 878.2 L 1076.0 880.9 L 1080.0 883.2 L 1084.0 885.1 L 1088.0 887.0 L 1092.0 888.9 L 1096.0 891.0 L 1100.0 893.5 L 1104.0 896.6 L 1108.0 900.2 L 1112.0 904.6 L 1116.0 909.7 L 1120.0 915.5 L 1124.0 922.0 L 1128.0 929.2 L 1132.0 937.0 L 1136.0 945.1 L 1140.0 953.5 L 1144.0 962.0 L 1148.0 970.4 L 1152.0 978.4 L 1156.0 985.8 L 1160.0 992.4 L 1164.0 998.0 L 1168.0 1002.4 L 1172.0 1005.4 L 1176.0 1006.8 L 1180.0 1006.5 L 1184.0 1004.4 L 1188.0 1000.5 L 1192.0 994.7 L 1196.0 987.0 L 1200.0 977.6" stroke="#d7ee2b" stroke-width="3.9" fill="none" opacity="0.40" stroke-linecap="round"/>
<path d="M 0.0 639.2 L 4.0 656.3 L 8.0 672.1 L 12.0 686.5 L 16.0 699.2 L 20.0 709.9 L 24.0 718.6 L 28.0 725.0 L 32.0 729.3 L 36.0 731.3 L 40.0 731.3 L 44.0 729.2 L 48.0 725.3 L 52.0 719.7 L 56.0 712.8 L 60.0 704.7 L 64.0 695.9 L 68.0 686.5 L 72.0 676.8 L 76.0 667.2 L 80.0 657.8 L 84.0 648.8 L 88.0 640.6 L 92.0 633.1 L 96.0 626.5 L 100.0 620.7 L 104.0 615.9 L 108.0 611.8 L 112.0 608.5 L 116.0 605.8 L 120.0 603.4 L 124.0 601.2 L 128.0 599.0 L 132.0 596.4 L 136.0 593.4 L 140.0 589.7 L 144.0 585.1 L 148.0 579.5 L 152.0 572.6 L 156.0 564.5 L 160.0 555.1 L 164.0 544.5 L 168.0 532.6 L 172.0 519.7 L 176.0 505.8 L 180.0 491.3 L 184.0 476.3 L 188.0 461.2 L 192.0 446.2 L 196.0 431.7 L 200.0 418.0 L 204.0 405.4 L 208.0 394.2 L 212.0 384.6 L 216.0 377.0 L 220.0 371.5 L 224.0 368.2 L 228.0 367.2 L 232.0 368.6 L 236.0 372.3 L 240.0 378.2 L 244.0 386.3 L 248.0 396.2 L 252.0 407.8 L 256.0 420.9 L 260.0 435.0 L 264.0 449.9 L 268.0 465.3 L 272.0 480.9 L 276.0 496.3 L 280.0 511.2 L 284.0 525.5 L 288.0 538.8 L 292.0 551.0 L 296.0 562.0 L 300.0 571.6 L 304.0 579.9 L 308.0 587.0 L 312.0 592.7 L 316.0 597.4 L 320.0 601.1 L 324.0 604.1 L 328.0 606.5 L 332.0 608.5 L 336.0 610.5 L 340.0 612.5 L 344.0 614.9 L 348.0 617.9 L 352.0 621.4 L 356.0 625.8 L 360.0 631.0 L 364.0 637.0 L 368.0 644.0 L 372.0 651.6 L 376.0 659.9 L 380.0 668.7 L 384.0 677.8 L 388.0 686.9 L 392.0 695.7 L 396.0 704.0 L 400.0 711.6 L 404.0 718.0 L 408.0 723.1 L 412.0 726.6 L 416.0 728.3 L 420.0 728.0 L 424.0 725.6 L 428.0 721.0 L 432.0 714.2 L 436.0 705.3 L 440.0 694.3 L 444.0 681.4 L 448.0 666.8 L 452.0 650.7 L 456.0 633.5 L 460.0 615.4 L 464.0 596.8 L 468.0 578.0 L 472.0 559.3 L 476.0 541.2 L 480.0 523.8 L 484.0 507.5 L 488.0 492.6 L 492.0 479.2 L 496.0 467.5 L 500.0 457.6 L 504.0 449.5 L 508.0 443.3 L 512.0 438.8 L 516.0 436.0 L 520.0 434.6 L 524.0 434.6 L 528.0 435.7 L 532.0 437.6 L 536.0 440.0 L 540.0 442.9 L 544.0 445.8 L 548.0 448.6 L 552.0 451.1 L 556.0 453.1 L 560.0 454.5 L 564.0 455.2 L 568.0 455.2 L 572.0 454.5 L 576.0 453.2 L 580.0 451.3 L 584.0 449.1 L 588.0 446.8 L 592.0 444.4 L 596.0 442.4 L 600.0 440.9 L 604.0 440.1 L 608.0 440.4 L 612.0 442.0 L 616.0 444.9 L 620.0 449.5 L 624.0 455.8 L 628.0 463.8 L 632.0 473.7 L 636.0 485.3 L 640.0 498.5 L 644.0 513.3 L 648.0 529.4 L 652.0 546.6 L 656.0 564.6 L 660.0 583.1 L 664.0 601.8 L 668.0 620.3 L 672.0 638.2 L 676.0 655.3 L 680.0 671.3 L 684.0 685.7 L 688.0 698.5 L 692.0 709.3 L 696.0 718.1 L 700.0 724.7 L 704.0 729.1 L 708.0 731.3 L 712.0 731.3 L 716.0 729.4 L 720.0 725.5 L 724.0 720.1 L 728.0 713.2 L 732.0 705.2 L 736.0 696.4 L 740.0 687.0 L 744.0 677.4 L 748.0 667.7 L 752.0 658.3 L 756.0 649.3 L 760.0 641.0 L 764.0 633.5 L 768.0 626.8 L 772.0 621.0 L 776.0 616.1 L 780.0 612.1 L 784.0 608.7 L 788.0 605.9 L 792.0 603.5 L 796.0 601.3 L 800.0 599.1 L 804.0 596.6 L 808.0 593.6 L 812.0 590.0 L 816.0 585.4 L 820.0 579.8 L 824.0 573.1 L 828.0 565.0 L 832.0 555.7 L 836.0 545.1 L 840.0 533.3 L 844.0 520.4 L 848.0 506.6 L 852.0 492.1 L 856.0 477.2 L 860.0 462.1 L 864.0 447.1 L 868.0 432.5 L 872.0 418.8 L 876.0 406.1 L 880.0 394.8 L 884.0 385.1 L 888.0 377.4 L 892.0 371.7 L 896.0 368.3 L 900.0 367.2 L 904.0 368.4 L 908.0 372.0 L 912.0 377.8 L 916.0 385.7 L 920.0 395.6 L 924.0 407.1 L 928.0 420.1 L 932.0 434.2 L 936.0 449.1 L 940.0 464.5 L 944.0 480.0 L 948.0 495.4 L 952.0 510.4 L 956.0 524.7 L 960.0 538.1 L 964.0 550.3 L 968.0 561.4 L 972.0 571.1 L 976.0 579.5 L 980.0 586.6 L 984.0 592.4 L 988.0 597.2 L 992.0 600.9 L 996.0 603.9 L 1000.0 606.3 L 1004.0 608.4 L 1008.0 610.4 L 1012.0 612.4 L 1016.0 614.8 L 1020.0 617.7 L 1024.0 621.2 L 1028.0 625.5 L 1032.0 630.7 L 1036.0 636.7 L 1040.0 643.5 L 1044.0 651.2 L 1048.0 659.5 L 1052.0 668.2 L 1056.0 677.3 L 1060.0 686.4 L 1064.0 695.2 L 1068.0 703.6 L 1072.0 711.2 L 1076.0 717.7 L 1080.0 722.8 L 1084.0 726.4 L 1088.0 728.2 L 1092.0 728.0 L 1096.0 725.8 L 1100.0 721.3 L 1104.0 714.7 L 1108.0 705.8 L 1112.0 695.0 L 1116.0 682.2 L 1120.0 667.7 L 1124.0 651.7 L 1128.0 634.5 L 1132.0 616.5 L 1136.0 597.8 L 1140.0 579.0 L 1144.0 560.4 L 1148.0 542.2 L 1152.0 524.8 L 1156.0 508.4 L 1160.0 493.4 L 1164.0 479.9 L 1168.0 468.1 L 1172.0 458.1 L 1176.0 449.9 L 1180.0 443.6 L 1184.0 439.0 L 1188.0 436.1 L 1192.0 434.7 L 1196.0 434.6 L 1200.0 435.6" stroke="#d7ee2b" stroke-width="8.3" fill="none" opacity="0.07" stroke-linecap="round"/>
<path d="M 0.0 639.2 L 4.0 656.3 L 8.0 672.1 L 12.0 686.5 L 16.0 699.2 L 20.0 709.9 L 24.0 718.6 L 28.0 725.0 L 32.0 729.3 L 36.0 731.3 L 40.0 731.3 L 44.0 729.2 L 48.0 725.3 L 52.0 719.7 L 56.0 712.8 L 60.0 704.7 L 64.0 695.9 L 68.0 686.5 L 72.0 676.8 L 76.0 667.2 L 80.0 657.8 L 84.0 648.8 L 88.0 640.6 L 92.0 633.1 L 96.0 626.5 L 100.0 620.7 L 104.0 615.9 L 108.0 611.8 L 112.0 608.5 L 116.0 605.8 L 120.0 603.4 L 124.0 601.2 L 128.0 599.0 L 132.0 596.4 L 136.0 593.4 L 140.0 589.7 L 144.0 585.1 L 148.0 579.5 L 152.0 572.6 L 156.0 564.5 L 160.0 555.1 L 164.0 544.5 L 168.0 532.6 L 172.0 519.7 L 176.0 505.8 L 180.0 491.3 L 184.0 476.3 L 188.0 461.2 L 192.0 446.2 L 196.0 431.7 L 200.0 418.0 L 204.0 405.4 L 208.0 394.2 L 212.0 384.6 L 216.0 377.0 L 220.0 371.5 L 224.0 368.2 L 228.0 367.2 L 232.0 368.6 L 236.0 372.3 L 240.0 378.2 L 244.0 386.3 L 248.0 396.2 L 252.0 407.8 L 256.0 420.9 L 260.0 435.0 L 264.0 449.9 L 268.0 465.3 L 272.0 480.9 L 276.0 496.3 L 280.0 511.2 L 284.0 525.5 L 288.0 538.8 L 292.0 551.0 L 296.0 562.0 L 300.0 571.6 L 304.0 579.9 L 308.0 587.0 L 312.0 592.7 L 316.0 597.4 L 320.0 601.1 L 324.0 604.1 L 328.0 606.5 L 332.0 608.5 L 336.0 610.5 L 340.0 612.5 L 344.0 614.9 L 348.0 617.9 L 352.0 621.4 L 356.0 625.8 L 360.0 631.0 L 364.0 637.0 L 368.0 644.0 L 372.0 651.6 L 376.0 659.9 L 380.0 668.7 L 384.0 677.8 L 388.0 686.9 L 392.0 695.7 L 396.0 704.0 L 400.0 711.6 L 404.0 718.0 L 408.0 723.1 L 412.0 726.6 L 416.0 728.3 L 420.0 728.0 L 424.0 725.6 L 428.0 721.0 L 432.0 714.2 L 436.0 705.3 L 440.0 694.3 L 444.0 681.4 L 448.0 666.8 L 452.0 650.7 L 456.0 633.5 L 460.0 615.4 L 464.0 596.8 L 468.0 578.0 L 472.0 559.3 L 476.0 541.2 L 480.0 523.8 L 484.0 507.5 L 488.0 492.6 L 492.0 479.2 L 496.0 467.5 L 500.0 457.6 L 504.0 449.5 L 508.0 443.3 L 512.0 438.8 L 516.0 436.0 L 520.0 434.6 L 524.0 434.6 L 528.0 435.7 L 532.0 437.6 L 536.0 440.0 L 540.0 442.9 L 544.0 445.8 L 548.0 448.6 L 552.0 451.1 L 556.0 453.1 L 560.0 454.5 L 564.0 455.2 L 568.0 455.2 L 572.0 454.5 L 576.0 453.2 L 580.0 451.3 L 584.0 449.1 L 588.0 446.8 L 592.0 444.4 L 596.0 442.4 L 600.0 440.9 L 604.0 440.1 L 608.0 440.4 L 612.0 442.0 L 616.0 444.9 L 620.0 449.5 L 624.0 455.8 L 628.0 463.8 L 632.0 473.7 L 636.0 485.3 L 640.0 498.5 L 644.0 513.3 L 648.0 529.4 L 652.0 546.6 L 656.0 564.6 L 660.0 583.1 L 664.0 601.8 L 668.0 620.3 L 672.0 638.2 L 676.0 655.3 L 680.0 671.3 L 684.0 685.7 L 688.0 698.5 L 692.0 709.3 L 696.0 718.1 L 700.0 724.7 L 704.0 729.1 L 708.0 731.3 L 712.0 731.3 L 716.0 729.4 L 720.0 725.5 L 724.0 720.1 L 728.0 713.2 L 732.0 705.2 L 736.0 696.4 L 740.0 687.0 L 744.0 677.4 L 748.0 667.7 L 752.0 658.3 L 756.0 649.3 L 760.0 641.0 L 764.0 633.5 L 768.0 626.8 L 772.0 621.0 L 776.0 616.1 L 780.0 612.1 L 784.0 608.7 L 788.0 605.9 L 792.0 603.5 L 796.0 601.3 L 800.0 599.1 L 804.0 596.6 L 808.0 593.6 L 812.0 590.0 L 816.0 585.4 L 820.0 579.8 L 824.0 573.1 L 828.0 565.0 L 832.0 555.7 L 836.0 545.1 L 840.0 533.3 L 844.0 520.4 L 848.0 506.6 L 852.0 492.1 L 856.0 477.2 L 860.0 462.1 L 864.0 447.1 L 868.0 432.5 L 872.0 418.8 L 876.0 406.1 L 880.0 394.8 L 884.0 385.1 L 888.0 377.4 L 892.0 371.7 L 896.0 368.3 L 900.0 367.2 L 904.0 368.4 L 908.0 372.0 L 912.0 377.8 L 916.0 385.7 L 920.0 395.6 L 924.0 407.1 L 928.0 420.1 L 932.0 434.2 L 936.0 449.1 L 940.0 464.5 L 944.0 480.0 L 948.0 495.4 L 952.0 510.4 L 956.0 524.7 L 960.0 538.1 L 964.0 550.3 L 968.0 561.4 L 972.0 571.1 L 976.0 579.5 L 980.0 586.6 L 984.0 592.4 L 988.0 597.2 L 992.0 600.9 L 996.0 603.9 L 1000.0 606.3 L 1004.0 608.4 L 1008.0 610.4 L 1012.0 612.4 L 1016.0 614.8 L 1020.0 617.7 L 1024.0 621.2 L 1028.0 625.5 L 1032.0 630.7 L 1036.0 636.7 L 1040.0 643.5 L 1044.0 651.2 L 1048.0 659.5 L 1052.0 668.2 L 1056.0 677.3 L 1060.0 686.4 L 1064.0 695.2 L 1068.0 703.6 L 1072.0 711.2 L 1076.0 717.7 L 1080.0 722.8 L 1084.0 726.4 L 1088.0 728.2 L 1092.0 728.0 L 1096.0 725.8 L 1100.0 721.3 L 1104.0 714.7 L 1108.0 705.8 L 1112.0 695.0 L 1116.0 682.2 L 1120.0 667.7 L 1124.0 651.7 L 1128.0 634.5 L 1132.0 616.5 L 1136.0 597.8 L 1140.0 579.0 L 1144.0 560.4 L 1148.0 542.2 L 1152.0 524.8 L 1156.0 508.4 L 1160.0 493.4 L 1164.0 479.9 L 1168.0 468.1 L 1172.0 458.1 L 1176.0 449.9 L 1180.0 443.6 L 1184.0 439.0 L 1188.0 436.1 L 1192.0 434.7 L 1196.0 434.6 L 1200.0 435.6" stroke="#d7ee2b" stroke-width="3.3" fill="none" opacity="0.46" stroke-linecap="round"/>
<path d="M 0.0 604.7 L 4.0 596.2 L 8.0 587.1 L 12.0 577.4 L 16.0 567.2 L 20.0 556.6 L 24.0 545.6 L 28.0 534.4 L 32.0 522.9 L 36.0 511.3 L 40.0 499.7 L 44.0 488.2 L 48.0 476.8 L 52.0 465.6 L 56.0 454.7 L 60.0 444.2 L 64.0 434.1 L 68.0 424.6 L 72.0 415.7 L 76.0 407.4 L 80.0 399.8 L 84.0 392.9 L 88.0 386.8 L 92.0 381.5 L 96.0 377.1 L 100.0 373.4 L 104.0 370.5 L 108.0 368.5 L 112.0 367.3 L 116.0 366.8 L 120.0 367.0 L 124.0 367.9 L 128.0 369.5 L 132.0 371.7 L 136.0 374.3 L 140.0 377.5 L 144.0 381.0 L 148.0 384.9 L 152.0 389.0 L 156.0 393.3 L 160.0 397.8 L 164.0 402.3 L 168.0 406.9 L 172.0 411.3 L 176.0 415.7 L 180.0 419.9 L 184.0 423.9 L 188.0 427.6 L 192.0 431.1 L 196.0 434.3 L 200.0 437.2 L 204.0 439.8 L 208.0 442.1 L 212.0 444.0 L 216.0 445.7 L 220.0 447.1 L 224.0 448.3 L 228.0 449.3 L 232.0 450.2 L 236.0 450.9 L 240.0 451.6 L 244.0 452.3 L 248.0 453.0 L 252.0 453.9 L 256.0 454.9 L 260.0 456.1 L 264.0 457.6 L 268.0 459.5 L 272.0 461.7 L 276.0 464.4 L 280.0 467.5 L 284.0 471.1 L 288.0 475.3 L 292.0 480.0 L 296.0 485.2 L 300.0 491.0 L 304.0 497.4 L 308.0 504.3 L 312.0 511.8 L 316.0 519.8 L 320.0 528.2 L 324.0 537.0 L 328.0 546.3 L 332.0 555.8 L 336.0 565.6 L 340.0 575.5 L 344.0 585.6 L 348.0 595.7 L 352.0 605.7 L 356.0 615.7 L 360.0 625.4 L 364.0 634.8 L 368.0 643.8 L 372.0 652.4 L 376.0 660.5 L 380.0 668.0 L 384.0 674.8 L 388.0 680.9 L 392.0 686.2 L 396.0 690.8 L 400.0 694.4 L 404.0 697.2 L 408.0 699.2 L 412.0 700.2 L 416.0 700.3 L 420.0 699.5 L 424.0 697.8 L 428.0 695.2 L 432.0 691.9 L 436.0 687.8 L 440.0 682.9 L 444.0 677.4 L 448.0 671.2 L 452.0 664.5 L 456.0 657.4 L 460.0 649.8 L 464.0 641.9 L 468.0 633.8 L 472.0 625.5 L 476.0 617.1 L 480.0 608.7 L 484.0 600.3 L 488.0 592.1 L 492.0 584.0 L 496.0 576.2 L 500.0 568.7 L 504.0 561.5 L 508.0 554.7 L 512.0 548.3 L 516.0 542.4 L 520.0 536.8 L 524.0 531.8 L 528.0 527.2 L 532.0 523.0 L 536.0 519.3 L 540.0 516.0 L 544.0 513.0 L 548.0 510.4 L 552.0 508.1 L 556.0 506.0 L 560.0 504.2 L 564.0 502.4 L 568.0 500.8 L 572.0 499.2 L 576.0 497.6 L 580.0 495.9 L 584.0 494.1 L 588.0 492.1 L 592.0 489.9 L 596.0 487.5 L 600.0 484.7 L 604.0 481.6 L 608.0 478.1 L 612.0 474.3 L 616.0 470.1 L 620.0 465.5 L 624.0 460.6 L 628.0 455.2 L 632.0 449.6 L 636.0 443.6 L 640.0 437.4 L 644.0 430.9 L 648.0 424.2 L 652.0 417.5 L 656.0 410.6 L 660.0 403.8 L 664.0 397.0 L 668.0 390.4 L 672.0 384.0 L 676.0 377.9 L 680.0 372.1 L 684.0 366.8 L 688.0 362.0 L 692.0 357.8 L 696.0 354.2 L 700.0 351.2 L 704.0 349.0 L 708.0 347.6 L 712.0 347.1 L 716.0 347.3 L 720.0 348.5 L 724.0 350.5 L 728.0 353.4 L 732.0 357.1 L 736.0 361.7 L 740.0 367.2 L 744.0 373.5 L 748.0 380.5 L 752.0 388.2 L 756.0 396.6 L 760.0 405.6 L 764.0 415.1 L 768.0 425.1 L 772.0 435.4 L 776.0 446.0 L 780.0 456.8 L 784.0 467.8 L 788.0 478.8 L 792.0 489.7 L 796.0 500.6 L 800.0 511.2 L 804.0 521.6 L 808.0 531.6 L 812.0 541.2 L 816.0 550.3 L 820.0 558.9 L 824.0 567.0 L 828.0 574.5 L 832.0 581.3 L 836.0 587.6 L 840.0 593.1 L 844.0 598.1 L 848.0 602.3 L 852.0 606.0 L 856.0 609.0 L 860.0 611.5 L 864.0 613.4 L 868.0 614.9 L 872.0 615.9 L 876.0 616.4 L 880.0 616.7 L 884.0 616.6 L 888.0 616.4 L 892.0 616.0 L 896.0 615.4 L 900.0 614.8 L 904.0 614.3 L 908.0 613.7 L 912.0 613.3 L 916.0 613.1 L 920.0 613.0 L 924.0 613.2 L 928.0 613.6 L 932.0 614.3 L 936.0 615.2 L 940.0 616.5 L 944.0 618.0 L 948.0 619.8 L 952.0 621.8 L 956.0 624.1 L 960.0 626.5 L 964.0 629.1 L 968.0 631.8 L 972.0 634.5 L 976.0 637.2 L 980.0 639.9 L 984.0 642.4 L 988.0 644.8 L 992.0 646.9 L 996.0 648.7 L 1000.0 650.1 L 1004.0 651.0 L 1008.0 651.5 L 1012.0 651.4 L 1016.0 650.7 L 1020.0 649.4 L 1024.0 647.4 L 1028.0 644.7 L 1032.0 641.2 L 1036.0 637.0 L 1040.0 632.0 L 1044.0 626.3 L 1048.0 619.9 L 1052.0 612.7 L 1056.0 604.8 L 1060.0 596.3 L 1064.0 587.2 L 1068.0 577.5 L 1072.0 567.3 L 1076.0 556.7 L 1080.0 545.8 L 1084.0 534.5 L 1088.0 523.1 L 1092.0 511.5 L 1096.0 499.9 L 1100.0 488.3 L 1104.0 476.9 L 1108.0 465.7 L 1112.0 454.8 L 1116.0 444.3 L 1120.0 434.3 L 1124.0 424.7 L 1128.0 415.8 L 1132.0 407.5 L 1136.0 399.9 L 1140.0 393.0 L 1144.0 386.9 L 1148.0 381.6 L 1152.0 377.1 L 1156.0 373.4 L 1160.0 370.6 L 1164.0 368.5 L 1168.0 367.3 L 1172.0 366.8 L 1176.0 367.0 L 1180.0 367.9 L 1184.0 369.5 L 1188.0 371.6 L 1192.0 374.3 L 1196.0 377.4 L 1200.0 381.0" stroke="#d7ee2b" stroke-width="16.8" fill="none" opacity="0.06" stroke-linecap="round"/>
<path d="M 0.0 604.7 L 4.0 596.2 L 8.0 587.1 L 12.0 577.4 L 16.0 567.2 L 20.0 556.6 L 24.0 545.6 L 28.0 534.4 L 32.0 522.9 L 36.0 511.3 L 40.0 499.7 L 44.0 488.2 L 48.0 476.8 L 52.0 465.6 L 56.0 454.7 L 60.0 444.2 L 64.0 434.1 L 68.0 424.6 L 72.0 415.7 L 76.0 407.4 L 80.0 399.8 L 84.0 392.9 L 88.0 386.8 L 92.0 381.5 L 96.0 377.1 L 100.0 373.4 L 104.0 370.5 L 108.0 368.5 L 112.0 367.3 L 116.0 366.8 L 120.0 367.0 L 124.0 367.9 L 128.0 369.5 L 132.0 371.7 L 136.0 374.3 L 140.0 377.5 L 144.0 381.0 L 148.0 384.9 L 152.0 389.0 L 156.0 393.3 L 160.0 397.8 L 164.0 402.3 L 168.0 406.9 L 172.0 411.3 L 176.0 415.7 L 180.0 419.9 L 184.0 423.9 L 188.0 427.6 L 192.0 431.1 L 196.0 434.3 L 200.0 437.2 L 204.0 439.8 L 208.0 442.1 L 212.0 444.0 L 216.0 445.7 L 220.0 447.1 L 224.0 448.3 L 228.0 449.3 L 232.0 450.2 L 236.0 450.9 L 240.0 451.6 L 244.0 452.3 L 248.0 453.0 L 252.0 453.9 L 256.0 454.9 L 260.0 456.1 L 264.0 457.6 L 268.0 459.5 L 272.0 461.7 L 276.0 464.4 L 280.0 467.5 L 284.0 471.1 L 288.0 475.3 L 292.0 480.0 L 296.0 485.2 L 300.0 491.0 L 304.0 497.4 L 308.0 504.3 L 312.0 511.8 L 316.0 519.8 L 320.0 528.2 L 324.0 537.0 L 328.0 546.3 L 332.0 555.8 L 336.0 565.6 L 340.0 575.5 L 344.0 585.6 L 348.0 595.7 L 352.0 605.7 L 356.0 615.7 L 360.0 625.4 L 364.0 634.8 L 368.0 643.8 L 372.0 652.4 L 376.0 660.5 L 380.0 668.0 L 384.0 674.8 L 388.0 680.9 L 392.0 686.2 L 396.0 690.8 L 400.0 694.4 L 404.0 697.2 L 408.0 699.2 L 412.0 700.2 L 416.0 700.3 L 420.0 699.5 L 424.0 697.8 L 428.0 695.2 L 432.0 691.9 L 436.0 687.8 L 440.0 682.9 L 444.0 677.4 L 448.0 671.2 L 452.0 664.5 L 456.0 657.4 L 460.0 649.8 L 464.0 641.9 L 468.0 633.8 L 472.0 625.5 L 476.0 617.1 L 480.0 608.7 L 484.0 600.3 L 488.0 592.1 L 492.0 584.0 L 496.0 576.2 L 500.0 568.7 L 504.0 561.5 L 508.0 554.7 L 512.0 548.3 L 516.0 542.4 L 520.0 536.8 L 524.0 531.8 L 528.0 527.2 L 532.0 523.0 L 536.0 519.3 L 540.0 516.0 L 544.0 513.0 L 548.0 510.4 L 552.0 508.1 L 556.0 506.0 L 560.0 504.2 L 564.0 502.4 L 568.0 500.8 L 572.0 499.2 L 576.0 497.6 L 580.0 495.9 L 584.0 494.1 L 588.0 492.1 L 592.0 489.9 L 596.0 487.5 L 600.0 484.7 L 604.0 481.6 L 608.0 478.1 L 612.0 474.3 L 616.0 470.1 L 620.0 465.5 L 624.0 460.6 L 628.0 455.2 L 632.0 449.6 L 636.0 443.6 L 640.0 437.4 L 644.0 430.9 L 648.0 424.2 L 652.0 417.5 L 656.0 410.6 L 660.0 403.8 L 664.0 397.0 L 668.0 390.4 L 672.0 384.0 L 676.0 377.9 L 680.0 372.1 L 684.0 366.8 L 688.0 362.0 L 692.0 357.8 L 696.0 354.2 L 700.0 351.2 L 704.0 349.0 L 708.0 347.6 L 712.0 347.1 L 716.0 347.3 L 720.0 348.5 L 724.0 350.5 L 728.0 353.4 L 732.0 357.1 L 736.0 361.7 L 740.0 367.2 L 744.0 373.5 L 748.0 380.5 L 752.0 388.2 L 756.0 396.6 L 760.0 405.6 L 764.0 415.1 L 768.0 425.1 L 772.0 435.4 L 776.0 446.0 L 780.0 456.8 L 784.0 467.8 L 788.0 478.8 L 792.0 489.7 L 796.0 500.6 L 800.0 511.2 L 804.0 521.6 L 808.0 531.6 L 812.0 541.2 L 816.0 550.3 L 820.0 558.9 L 824.0 567.0 L 828.0 574.5 L 832.0 581.3 L 836.0 587.6 L 840.0 593.1 L 844.0 598.1 L 848.0 602.3 L 852.0 606.0 L 856.0 609.0 L 860.0 611.5 L 864.0 613.4 L 868.0 614.9 L 872.0 615.9 L 876.0 616.4 L 880.0 616.7 L 884.0 616.6 L 888.0 616.4 L 892.0 616.0 L 896.0 615.4 L 900.0 614.8 L 904.0 614.3 L 908.0 613.7 L 912.0 613.3 L 916.0 613.1 L 920.0 613.0 L 924.0 613.2 L 928.0 613.6 L 932.0 614.3 L 936.0 615.2 L 940.0 616.5 L 944.0 618.0 L 948.0 619.8 L 952.0 621.8 L 956.0 624.1 L 960.0 626.5 L 964.0 629.1 L 968.0 631.8 L 972.0 634.5 L 976.0 637.2 L 980.0 639.9 L 984.0 642.4 L 988.0 644.8 L 992.0 646.9 L 996.0 648.7 L 1000.0 650.1 L 1004.0 651.0 L 1008.0 651.5 L 1012.0 651.4 L 1016.0 650.7 L 1020.0 649.4 L 1024.0 647.4 L 1028.0 644.7 L 1032.0 641.2 L 1036.0 637.0 L 1040.0 632.0 L 1044.0 626.3 L 1048.0 619.9 L 1052.0 612.7 L 1056.0 604.8 L 1060.0 596.3 L 1064.0 587.2 L 1068.0 577.5 L 1072.0 567.3 L 1076.0 556.7 L 1080.0 545.8 L 1084.0 534.5 L 1088.0 523.1 L 1092.0 511.5 L 1096.0 499.9 L 1100.0 488.3 L 1104.0 476.9 L 1108.0 465.7 L 1112.0 454.8 L 1116.0 444.3 L 1120.0 434.3 L 1124.0 424.7 L 1128.0 415.8 L 1132.0 407.5 L 1136.0 399.9 L 1140.0 393.0 L 1144.0 386.9 L 1148.0 381.6 L 1152.0 377.1 L 1156.0 373.4 L 1160.0 370.6 L 1164.0 368.5 L 1168.0 367.3 L 1172.0 366.8 L 1176.0 367.0 L 1180.0 367.9 L 1184.0 369.5 L 1188.0 371.6 L 1192.0 374.3 L 1196.0 377.4 L 1200.0 381.0" stroke="#d7ee2b" stroke-width="6.7" fill="none" opacity="0.38" stroke-linecap="round"/>
<path d="M 0.0 224.4 L 4.0 224.6 L 8.0 225.5 L 12.0 226.9 L 16.0 229.0 L 20.0 231.8 L 24.0 235.4 L 28.0 239.6 L 32.0 244.6 L 36.0 250.3 L 40.0 256.7 L 44.0 263.8 L 48.0 271.6 L 52.0 280.0 L 56.0 289.1 L 60.0 298.6 L 64.0 308.7 L 68.0 319.2 L 72.0 330.1 L 76.0 341.3 L 80.0 352.7 L 84.0 364.3 L 88.0 376.1 L 92.0 387.8 L 96.0 399.5 L 100.0 411.0 L 104.0 422.3 L 108.0 433.4 L 112.0 444.1 L 116.0 454.4 L 120.0 464.2 L 124.0 473.5 L 128.0 482.2 L 132.0 490.2 L 136.0 497.6 L 140.0 504.2 L 144.0 510.2 L 148.0 515.3 L 152.0 519.7 L 156.0 523.4 L 160.0 526.2 L 164.0 528.4 L 168.0 529.8 L 172.0 530.4 L 176.0 530.4 L 180.0 529.8 L 184.0 528.5 L 188.0 526.7 L 192.0 524.4 L 196.0 521.6 L 200.0 518.5 L 204.0 515.0 L 208.0 511.3 L 212.0 507.3 L 216.0 503.2 L 220.0 498.9 L 224.0 494.7 L 228.0 490.4 L 232.0 486.3 L 236.0 482.2 L 240.0 478.3 L 244.0 474.6 L 248.0 471.1 L 252.0 467.8 L 256.0 464.9 L 260.0 462.2 L 264.0 459.8 L 268.0 457.7 L 272.0 455.8 L 276.0 454.3 L 280.0 452.9 L 284.0 451.9 L 288.0 451.0 L 292.0 450.2 L 296.0 449.6 L 300.0 449.1 L 304.0 448.6 L 308.0 448.1 L 312.0 447.5 L 316.0 446.8 L 320.0 446.0 L 324.0 444.9 L 328.0 443.5 L 332.0 441.9 L 336.0 439.8 L 340.0 437.4 L 344.0 434.5 L 348.0 431.2 L 352.0 427.3 L 356.0 423.0 L 360.0 418.0 L 364.0 412.6 L 368.0 406.6 L 372.0 400.0 L 376.0 393.0 L 380.0 385.4 L 384.0 377.3 L 388.0 368.7 L 392.0 359.8 L 396.0 350.4 L 400.0 340.8 L 404.0 330.8 L 408.0 320.7 L 412.0 310.4 L 416.0 300.0 L 420.0 289.7 L 424.0 279.4 L 428.0 269.2 L 432.0 259.3 L 436.0 249.6 L 440.0 240.3 L 444.0 231.5 L 448.0 223.1 L 452.0 215.3 L 456.0 208.0 L 460.0 201.5 L 464.0 195.7 L 468.0 190.6 L 472.0 186.3 L 476.0 182.8 L 480.0 180.2 L 484.0 178.4 L 488.0 177.5 L 492.0 177.4 L 496.0 178.2 L 500.0 179.8 L 504.0 182.2 L 508.0 185.4 L 512.0 189.3 L 516.0 194.0 L 520.0 199.2 L 524.0 205.0 L 528.0 211.4 L 532.0 218.2 L 536.0 225.5 L 540.0 233.0 L 544.0 240.9 L 548.0 248.9 L 552.0 257.1 L 556.0 265.3 L 560.0 273.5 L 564.0 281.7 L 568.0 289.7 L 572.0 297.6 L 576.0 305.2 L 580.0 312.6 L 584.0 319.6 L 588.0 326.3 L 592.0 332.6 L 596.0 338.5 L 600.0 344.1 L 604.0 349.1 L 608.0 353.8 L 612.0 358.1 L 616.0 361.9 L 620.0 365.4 L 624.0 368.5 L 628.0 371.3 L 632.0 373.8 L 636.0 376.1 L 640.0 378.1 L 644.0 380.0 L 648.0 381.7 L 652.0 383.4 L 656.0 385.0 L 660.0 386.7 L 664.0 388.5 L 668.0 390.3 L 672.0 392.4 L 676.0 394.6 L 680.0 397.1 L 684.0 399.9 L 688.0 403.0 L 692.0 406.5 L 696.0 410.2 L 700.0 414.4 L 704.0 418.9 L 708.0 423.8 L 712.0 429.1 L 716.0 434.7 L 720.0 440.7 L 724.0 446.9 L 728.0 453.4 L 732.0 460.2 L 736.0 467.1 L 740.0 474.2 L 744.0 481.4 L 748.0 488.6 L 752.0 495.7 L 756.0 502.8 L 760.0 509.7 L 764.0 516.4 L 768.0 522.7 L 772.0 528.7 L 776.0 534.3 L 780.0 539.4 L 784.0 544.0 L 788.0 547.9 L 792.0 551.2 L 796.0 553.9 L 800.0 555.7 L 804.0 556.8 L 808.0 557.1 L 812.0 556.6 L 816.0 555.2 L 820.0 553.0 L 824.0 549.9 L 828.0 546.0 L 832.0 541.3 L 836.0 535.9 L 840.0 529.6 L 844.0 522.6 L 848.0 515.0 L 852.0 506.7 L 856.0 497.9 L 860.0 488.5 L 864.0 478.7 L 868.0 468.6 L 872.0 458.1 L 876.0 447.4 L 880.0 436.5 L 884.0 425.6 L 888.0 414.6 L 892.0 403.7 L 896.0 393.0 L 900.0 382.4 L 904.0 372.1 L 908.0 362.2 L 912.0 352.6 L 916.0 343.5 L 920.0 334.8 L 924.0 326.7 L 928.0 319.1 L 932.0 312.0 L 936.0 305.6 L 940.0 299.8 L 944.0 294.5 L 948.0 289.9 L 952.0 285.9 L 956.0 282.4 L 960.0 279.5 L 964.0 277.1 L 968.0 275.2 L 972.0 273.7 L 976.0 272.6 L 980.0 271.9 L 984.0 271.5 L 988.0 271.3 L 992.0 271.4 L 996.0 271.6 L 1000.0 271.9 L 1004.0 272.2 L 1008.0 272.5 L 1012.0 272.8 L 1016.0 273.0 L 1020.0 273.1 L 1024.0 273.0 L 1028.0 272.6 L 1032.0 272.1 L 1036.0 271.3 L 1040.0 270.2 L 1044.0 268.9 L 1048.0 267.3 L 1052.0 265.4 L 1056.0 263.3 L 1060.0 260.9 L 1064.0 258.4 L 1068.0 255.6 L 1072.0 252.7 L 1076.0 249.7 L 1080.0 246.7 L 1084.0 243.6 L 1088.0 240.6 L 1092.0 237.6 L 1096.0 234.9 L 1100.0 232.3 L 1104.0 230.0 L 1108.0 228.0 L 1112.0 226.4 L 1116.0 225.3 L 1120.0 224.6 L 1124.0 224.4 L 1128.0 224.9 L 1132.0 226.0 L 1136.0 227.7 L 1140.0 230.1 L 1144.0 233.2 L 1148.0 237.0 L 1152.0 241.5 L 1156.0 246.8 L 1160.0 252.8 L 1164.0 259.5 L 1168.0 266.9 L 1172.0 274.9 L 1176.0 283.6 L 1180.0 292.8 L 1184.0 302.6 L 1188.0 312.8 L 1192.0 323.5 L 1196.0 334.5 L 1200.0 345.8" stroke="#d7ee2b" stroke-width="14.0" fill="none" opacity="0.06" stroke-linecap="round"/>
<path d="M 0.0 224.4 L 4.0 224.6 L 8.0 225.5 L 12.0 226.9 L 16.0 229.0 L 20.0 231.8 L 24.0 235.4 L 28.0 239.6 L 32.0 244.6 L 36.0 250.3 L 40.0 256.7 L 44.0 263.8 L 48.0 271.6 L 52.0 280.0 L 56.0 289.1 L 60.0 298.6 L 64.0 308.7 L 68.0 319.2 L 72.0 330.1 L 76.0 341.3 L 80.0 352.7 L 84.0 364.3 L 88.0 376.1 L 92.0 387.8 L 96.0 399.5 L 100.0 411.0 L 104.0 422.3 L 108.0 433.4 L 112.0 444.1 L 116.0 454.4 L 120.0 464.2 L 124.0 473.5 L 128.0 482.2 L 132.0 490.2 L 136.0 497.6 L 140.0 504.2 L 144.0 510.2 L 148.0 515.3 L 152.0 519.7 L 156.0 523.4 L 160.0 526.2 L 164.0 528.4 L 168.0 529.8 L 172.0 530.4 L 176.0 530.4 L 180.0 529.8 L 184.0 528.5 L 188.0 526.7 L 192.0 524.4 L 196.0 521.6 L 200.0 518.5 L 204.0 515.0 L 208.0 511.3 L 212.0 507.3 L 216.0 503.2 L 220.0 498.9 L 224.0 494.7 L 228.0 490.4 L 232.0 486.3 L 236.0 482.2 L 240.0 478.3 L 244.0 474.6 L 248.0 471.1 L 252.0 467.8 L 256.0 464.9 L 260.0 462.2 L 264.0 459.8 L 268.0 457.7 L 272.0 455.8 L 276.0 454.3 L 280.0 452.9 L 284.0 451.9 L 288.0 451.0 L 292.0 450.2 L 296.0 449.6 L 300.0 449.1 L 304.0 448.6 L 308.0 448.1 L 312.0 447.5 L 316.0 446.8 L 320.0 446.0 L 324.0 444.9 L 328.0 443.5 L 332.0 441.9 L 336.0 439.8 L 340.0 437.4 L 344.0 434.5 L 348.0 431.2 L 352.0 427.3 L 356.0 423.0 L 360.0 418.0 L 364.0 412.6 L 368.0 406.6 L 372.0 400.0 L 376.0 393.0 L 380.0 385.4 L 384.0 377.3 L 388.0 368.7 L 392.0 359.8 L 396.0 350.4 L 400.0 340.8 L 404.0 330.8 L 408.0 320.7 L 412.0 310.4 L 416.0 300.0 L 420.0 289.7 L 424.0 279.4 L 428.0 269.2 L 432.0 259.3 L 436.0 249.6 L 440.0 240.3 L 444.0 231.5 L 448.0 223.1 L 452.0 215.3 L 456.0 208.0 L 460.0 201.5 L 464.0 195.7 L 468.0 190.6 L 472.0 186.3 L 476.0 182.8 L 480.0 180.2 L 484.0 178.4 L 488.0 177.5 L 492.0 177.4 L 496.0 178.2 L 500.0 179.8 L 504.0 182.2 L 508.0 185.4 L 512.0 189.3 L 516.0 194.0 L 520.0 199.2 L 524.0 205.0 L 528.0 211.4 L 532.0 218.2 L 536.0 225.5 L 540.0 233.0 L 544.0 240.9 L 548.0 248.9 L 552.0 257.1 L 556.0 265.3 L 560.0 273.5 L 564.0 281.7 L 568.0 289.7 L 572.0 297.6 L 576.0 305.2 L 580.0 312.6 L 584.0 319.6 L 588.0 326.3 L 592.0 332.6 L 596.0 338.5 L 600.0 344.1 L 604.0 349.1 L 608.0 353.8 L 612.0 358.1 L 616.0 361.9 L 620.0 365.4 L 624.0 368.5 L 628.0 371.3 L 632.0 373.8 L 636.0 376.1 L 640.0 378.1 L 644.0 380.0 L 648.0 381.7 L 652.0 383.4 L 656.0 385.0 L 660.0 386.7 L 664.0 388.5 L 668.0 390.3 L 672.0 392.4 L 676.0 394.6 L 680.0 397.1 L 684.0 399.9 L 688.0 403.0 L 692.0 406.5 L 696.0 410.2 L 700.0 414.4 L 704.0 418.9 L 708.0 423.8 L 712.0 429.1 L 716.0 434.7 L 720.0 440.7 L 724.0 446.9 L 728.0 453.4 L 732.0 460.2 L 736.0 467.1 L 740.0 474.2 L 744.0 481.4 L 748.0 488.6 L 752.0 495.7 L 756.0 502.8 L 760.0 509.7 L 764.0 516.4 L 768.0 522.7 L 772.0 528.7 L 776.0 534.3 L 780.0 539.4 L 784.0 544.0 L 788.0 547.9 L 792.0 551.2 L 796.0 553.9 L 800.0 555.7 L 804.0 556.8 L 808.0 557.1 L 812.0 556.6 L 816.0 555.2 L 820.0 553.0 L 824.0 549.9 L 828.0 546.0 L 832.0 541.3 L 836.0 535.9 L 840.0 529.6 L 844.0 522.6 L 848.0 515.0 L 852.0 506.7 L 856.0 497.9 L 860.0 488.5 L 864.0 478.7 L 868.0 468.6 L 872.0 458.1 L 876.0 447.4 L 880.0 436.5 L 884.0 425.6 L 888.0 414.6 L 892.0 403.7 L 896.0 393.0 L 900.0 382.4 L 904.0 372.1 L 908.0 362.2 L 912.0 352.6 L 916.0 343.5 L 920.0 334.8 L 924.0 326.7 L 928.0 319.1 L 932.0 312.0 L 936.0 305.6 L 940.0 299.8 L 944.0 294.5 L 948.0 289.9 L 952.0 285.9 L 956.0 282.4 L 960.0 279.5 L 964.0 277.1 L 968.0 275.2 L 972.0 273.7 L 976.0 272.6 L 980.0 271.9 L 984.0 271.5 L 988.0 271.3 L 992.0 271.4 L 996.0 271.6 L 1000.0 271.9 L 1004.0 272.2 L 1008.0 272.5 L 1012.0 272.8 L 1016.0 273.0 L 1020.0 273.1 L 1024.0 273.0 L 1028.0 272.6 L 1032.0 272.1 L 1036.0 271.3 L 1040.0 270.2 L 1044.0 268.9 L 1048.0 267.3 L 1052.0 265.4 L 1056.0 263.3 L 1060.0 260.9 L 1064.0 258.4 L 1068.0 255.6 L 1072.0 252.7 L 1076.0 249.7 L 1080.0 246.7 L 1084.0 243.6 L 1088.0 240.6 L 1092.0 237.6 L 1096.0 234.9 L 1100.0 232.3 L 1104.0 230.0 L 1108.0 228.0 L 1112.0 226.4 L 1116.0 225.3 L 1120.0 224.6 L 1124.0 224.4 L 1128.0 224.9 L 1132.0 226.0 L 1136.0 227.7 L 1140.0 230.1 L 1144.0 233.2 L 1148.0 237.0 L 1152.0 241.5 L 1156.0 246.8 L 1160.0 252.8 L 1164.0 259.5 L 1168.0 266.9 L 1172.0 274.9 L 1176.0 283.6 L 1180.0 292.8 L 1184.0 302.6 L 1188.0 312.8 L 1192.0 323.5 L 1196.0 334.5 L 1200.0 345.8" stroke="#d7ee2b" stroke-width="5.6" fill="none" opacity="0.37" stroke-linecap="round"/>
<path d="M 0.0 337.3 L 4.0 335.1 L 8.0 333.1 L 12.0 331.3 L 16.0 329.9 L 20.0 328.7 L 24.0 327.8 L 28.0 327.2 L 32.0 326.9 L 36.0 327.0 L 40.0 327.4 L 44.0 328.2 L 48.0 329.4 L 52.0 330.9 L 56.0 332.7 L 60.0 335.0 L 64.0 337.6 L 68.0 340.6 L 72.0 343.9 L 76.0 347.6 L 80.0 351.7 L 84.0 356.1 L 88.0 360.8 L 92.0 365.8 L 96.0 371.1 L 100.0 376.7 L 104.0 382.5 L 108.0 388.6 L 112.0 394.9 L 116.0 401.3 L 120.0 408.0 L 124.0 414.8 L 128.0 421.7 L 132.0 428.7 L 136.0 435.7 L 140.0 442.8 L 144.0 449.9 L 148.0 457.0 L 152.0 464.1 L 156.0 471.1 L 160.0 478.0 L 164.0 484.8 L 168.0 491.4 L 172.0 497.9 L 176.0 504.2 L 180.0 510.3 L 184.0 516.2 L 188.0 521.8 L 192.0 527.2 L 196.0 532.3 L 200.0 537.2 L 204.0 541.7 L 208.0 546.0 L 212.0 549.9 L 216.0 553.5 L 220.0 556.9 L 224.0 559.9 L 228.0 562.5 L 232.0 564.9 L 236.0 567.0 L 240.0 568.8 L 244.0 570.2 L 248.0 571.4 L 252.0 572.3 L 256.0 573.0 L 260.0 573.4 L 264.0 573.6 L 268.0 573.5 L 272.0 573.3 L 276.0 572.9 L 280.0 572.3 L 284.0 571.5 L 288.0 570.7 L 292.0 569.7 L 296.0 568.7 L 300.0 567.6 L 304.0 566.4 L 308.0 565.2 L 312.0 564.0 L 316.0 562.8 L 320.0 561.6 L 324.0 560.5 L 328.0 559.4 L 332.0 558.4 L 336.0 557.4 L 340.0 556.6 L 344.0 555.8 L 348.0 555.2 L 352.0 554.6 L 356.0 554.2 L 360.0 553.9 L 364.0 553.7 L 368.0 553.7 L 372.0 553.8 L 376.0 553.9 L 380.0 554.2 L 384.0 554.6 L 388.0 555.1 L 392.0 555.7 L 396.0 556.3 L 400.0 557.0 L 404.0 557.8 L 408.0 558.6 L 412.0 559.4 L 416.0 560.2 L 420.0 561.0 L 424.0 561.7 L 428.0 562.4 L 432.0 563.0 L 436.0 563.5 L 440.0 563.9 L 444.0 564.2 L 448.0 564.4 L 452.0 564.3 L 456.0 564.1 L 460.0 563.7 L 464.0 563.0 L 468.0 562.2 L 472.0 561.1 L 476.0 559.7 L 480.0 558.0 L 484.0 556.1 L 488.0 553.9 L 492.0 551.4 L 496.0 548.6 L 500.0 545.5 L 504.0 542.1 L 508.0 538.4 L 512.0 534.4 L 516.0 530.1 L 520.0 525.5 L 524.0 520.7 L 528.0 515.6 L 532.0 510.2 L 536.0 504.5 L 540.0 498.7 L 544.0 492.6 L 548.0 486.4 L 552.0 479.9 L 556.0 473.3 L 560.0 466.6 L 564.0 459.8 L 568.0 452.9 L 572.0 446.0 L 576.0 439.0 L 580.0 432.0 L 584.0 425.0 L 588.0 418.1 L 592.0 411.2 L 596.0 404.5 L 600.0 397.8 L 604.0 391.3 L 608.0 385.0 L 612.0 378.9 L 616.0 373.0 L 620.0 367.4 L 624.0 362.0 L 628.0 356.9 L 632.0 352.1 L 636.0 347.6 L 640.0 343.4 L 644.0 339.6 L 648.0 336.2 L 652.0 333.1 L 656.0 330.3 L 660.0 328.0 L 664.0 326.0 L 668.0 324.4 L 672.0 323.2 L 676.0 322.3 L 680.0 321.8 L 684.0 321.7 L 688.0 322.0 L 692.0 322.5 L 696.0 323.5 L 700.0 324.7 L 704.0 326.3 L 708.0 328.1 L 712.0 330.2 L 716.0 332.6 L 720.0 335.2 L 724.0 338.0 L 728.0 341.0 L 732.0 344.1 L 736.0 347.5 L 740.0 350.9 L 744.0 354.5 L 748.0 358.1 L 752.0 361.8 L 756.0 365.5 L 760.0 369.3 L 764.0 373.0 L 768.0 376.8 L 772.0 380.5 L 776.0 384.1 L 780.0 387.6 L 784.0 391.1 L 788.0 394.5 L 792.0 397.7 L 796.0 400.9 L 800.0 403.8 L 804.0 406.7 L 808.0 409.4 L 812.0 411.9 L 816.0 414.3 L 820.0 416.6 L 824.0 418.7 L 828.0 420.6 L 832.0 422.4 L 836.0 424.0 L 840.0 425.5 L 844.0 426.9 L 848.0 428.2 L 852.0 429.4 L 856.0 430.4 L 860.0 431.4 L 864.0 432.4 L 868.0 433.3 L 872.0 434.2 L 876.0 435.0 L 880.0 435.9 L 884.0 436.8 L 888.0 437.7 L 892.0 438.7 L 896.0 439.7 L 900.0 440.9 L 904.0 442.1 L 908.0 443.5 L 912.0 445.0 L 916.0 446.7 L 920.0 448.5 L 924.0 450.5 L 928.0 452.7 L 932.0 455.0 L 936.0 457.6 L 940.0 460.4 L 944.0 463.4 L 948.0 466.6 L 952.0 470.0 L 956.0 473.7 L 960.0 477.6 L 964.0 481.6 L 968.0 485.9 L 972.0 490.4 L 976.0 495.0 L 980.0 499.8 L 984.0 504.8 L 988.0 509.9 L 992.0 515.2 L 996.0 520.5 L 1000.0 526.0 L 1004.0 531.5 L 1008.0 537.1 L 1012.0 542.7 L 1016.0 548.3 L 1020.0 553.9 L 1024.0 559.5 L 1028.0 565.0 L 1032.0 570.4 L 1036.0 575.7 L 1040.0 580.9 L 1044.0 585.9 L 1048.0 590.7 L 1052.0 595.3 L 1056.0 599.7 L 1060.0 603.8 L 1064.0 607.6 L 1068.0 611.2 L 1072.0 614.4 L 1076.0 617.3 L 1080.0 619.9 L 1084.0 622.1 L 1088.0 624.0 L 1092.0 625.5 L 1096.0 626.6 L 1100.0 627.3 L 1104.0 627.6 L 1108.0 627.5 L 1112.0 627.0 L 1116.0 626.1 L 1120.0 624.8 L 1124.0 623.1 L 1128.0 621.0 L 1132.0 618.6 L 1136.0 615.8 L 1140.0 612.7 L 1144.0 609.2 L 1148.0 605.4 L 1152.0 601.4 L 1156.0 597.0 L 1160.0 592.4 L 1164.0 587.5 L 1168.0 582.4 L 1172.0 577.2 L 1176.0 571.7 L 1180.0 566.1 L 1184.0 560.4 L 1188.0 554.6 L 1192.0 548.8 L 1196.0 542.9 L 1200.0 536.9" stroke="#d7ee2b" stroke-width="11.3" fill="none" opacity="0.05" stroke-linecap="round"/>
<path d="M 0.0 337.3 L 4.0 335.1 L 8.0 333.1 L 12.0 331.3 L 16.0 329.9 L 20.0 328.7 L 24.0 327.8 L 28.0 327.2 L 32.0 326.9 L 36.0 327.0 L 40.0 327.4 L 44.0 328.2 L 48.0 329.4 L 52.0 330.9 L 56.0 332.7 L 60.0 335.0 L 64.0 337.6 L 68.0 340.6 L 72.0 343.9 L 76.0 347.6 L 80.0 351.7 L 84.0 356.1 L 88.0 360.8 L 92.0 365.8 L 96.0 371.1 L 100.0 376.7 L 104.0 382.5 L 108.0 388.6 L 112.0 394.9 L 116.0 401.3 L 120.0 408.0 L 124.0 414.8 L 128.0 421.7 L 132.0 428.7 L 136.0 435.7 L 140.0 442.8 L 144.0 449.9 L 148.0 457.0 L 152.0 464.1 L 156.0 471.1 L 160.0 478.0 L 164.0 484.8 L 168.0 491.4 L 172.0 497.9 L 176.0 504.2 L 180.0 510.3 L 184.0 516.2 L 188.0 521.8 L 192.0 527.2 L 196.0 532.3 L 200.0 537.2 L 204.0 541.7 L 208.0 546.0 L 212.0 549.9 L 216.0 553.5 L 220.0 556.9 L 224.0 559.9 L 228.0 562.5 L 232.0 564.9 L 236.0 567.0 L 240.0 568.8 L 244.0 570.2 L 248.0 571.4 L 252.0 572.3 L 256.0 573.0 L 260.0 573.4 L 264.0 573.6 L 268.0 573.5 L 272.0 573.3 L 276.0 572.9 L 280.0 572.3 L 284.0 571.5 L 288.0 570.7 L 292.0 569.7 L 296.0 568.7 L 300.0 567.6 L 304.0 566.4 L 308.0 565.2 L 312.0 564.0 L 316.0 562.8 L 320.0 561.6 L 324.0 560.5 L 328.0 559.4 L 332.0 558.4 L 336.0 557.4 L 340.0 556.6 L 344.0 555.8 L 348.0 555.2 L 352.0 554.6 L 356.0 554.2 L 360.0 553.9 L 364.0 553.7 L 368.0 553.7 L 372.0 553.8 L 376.0 553.9 L 380.0 554.2 L 384.0 554.6 L 388.0 555.1 L 392.0 555.7 L 396.0 556.3 L 400.0 557.0 L 404.0 557.8 L 408.0 558.6 L 412.0 559.4 L 416.0 560.2 L 420.0 561.0 L 424.0 561.7 L 428.0 562.4 L 432.0 563.0 L 436.0 563.5 L 440.0 563.9 L 444.0 564.2 L 448.0 564.4 L 452.0 564.3 L 456.0 564.1 L 460.0 563.7 L 464.0 563.0 L 468.0 562.2 L 472.0 561.1 L 476.0 559.7 L 480.0 558.0 L 484.0 556.1 L 488.0 553.9 L 492.0 551.4 L 496.0 548.6 L 500.0 545.5 L 504.0 542.1 L 508.0 538.4 L 512.0 534.4 L 516.0 530.1 L 520.0 525.5 L 524.0 520.7 L 528.0 515.6 L 532.0 510.2 L 536.0 504.5 L 540.0 498.7 L 544.0 492.6 L 548.0 486.4 L 552.0 479.9 L 556.0 473.3 L 560.0 466.6 L 564.0 459.8 L 568.0 452.9 L 572.0 446.0 L 576.0 439.0 L 580.0 432.0 L 584.0 425.0 L 588.0 418.1 L 592.0 411.2 L 596.0 404.5 L 600.0 397.8 L 604.0 391.3 L 608.0 385.0 L 612.0 378.9 L 616.0 373.0 L 620.0 367.4 L 624.0 362.0 L 628.0 356.9 L 632.0 352.1 L 636.0 347.6 L 640.0 343.4 L 644.0 339.6 L 648.0 336.2 L 652.0 333.1 L 656.0 330.3 L 660.0 328.0 L 664.0 326.0 L 668.0 324.4 L 672.0 323.2 L 676.0 322.3 L 680.0 321.8 L 684.0 321.7 L 688.0 322.0 L 692.0 322.5 L 696.0 323.5 L 700.0 324.7 L 704.0 326.3 L 708.0 328.1 L 712.0 330.2 L 716.0 332.6 L 720.0 335.2 L 724.0 338.0 L 728.0 341.0 L 732.0 344.1 L 736.0 347.5 L 740.0 350.9 L 744.0 354.5 L 748.0 358.1 L 752.0 361.8 L 756.0 365.5 L 760.0 369.3 L 764.0 373.0 L 768.0 376.8 L 772.0 380.5 L 776.0 384.1 L 780.0 387.6 L 784.0 391.1 L 788.0 394.5 L 792.0 397.7 L 796.0 400.9 L 800.0 403.8 L 804.0 406.7 L 808.0 409.4 L 812.0 411.9 L 816.0 414.3 L 820.0 416.6 L 824.0 418.7 L 828.0 420.6 L 832.0 422.4 L 836.0 424.0 L 840.0 425.5 L 844.0 426.9 L 848.0 428.2 L 852.0 429.4 L 856.0 430.4 L 860.0 431.4 L 864.0 432.4 L 868.0 433.3 L 872.0 434.2 L 876.0 435.0 L 880.0 435.9 L 884.0 436.8 L 888.0 437.7 L 892.0 438.7 L 896.0 439.7 L 900.0 440.9 L 904.0 442.1 L 908.0 443.5 L 912.0 445.0 L 916.0 446.7 L 920.0 448.5 L 924.0 450.5 L 928.0 452.7 L 932.0 455.0 L 936.0 457.6 L 940.0 460.4 L 944.0 463.4 L 948.0 466.6 L 952.0 470.0 L 956.0 473.7 L 960.0 477.6 L 964.0 481.6 L 968.0 485.9 L 972.0 490.4 L 976.0 495.0 L 980.0 499.8 L 984.0 504.8 L 988.0 509.9 L 992.0 515.2 L 996.0 520.5 L 1000.0 526.0 L 1004.0 531.5 L 1008.0 537.1 L 1012.0 542.7 L 1016.0 548.3 L 1020.0 553.9 L 1024.0 559.5 L 1028.0 565.0 L 1032.0 570.4 L 1036.0 575.7 L 1040.0 580.9 L 1044.0 585.9 L 1048.0 590.7 L 1052.0 595.3 L 1056.0 599.7 L 1060.0 603.8 L 1064.0 607.6 L 1068.0 611.2 L 1072.0 614.4 L 1076.0 617.3 L 1080.0 619.9 L 1084.0 622.1 L 1088.0 624.0 L 1092.0 625.5 L 1096.0 626.6 L 1100.0 627.3 L 1104.0 627.6 L 1108.0 627.5 L 1112.0 627.0 L 1116.0 626.1 L 1120.0 624.8 L 1124.0 623.1 L 1128.0 621.0 L 1132.0 618.6 L 1136.0 615.8 L 1140.0 612.7 L 1144.0 609.2 L 1148.0 605.4 L 1152.0 601.4 L 1156.0 597.0 L 1160.0 592.4 L 1164.0 587.5 L 1168.0 582.4 L 1172.0 577.2 L 1176.0 571.7 L 1180.0 566.1 L 1184.0 560.4 L 1188.0 554.6 L 1192.0 548.8 L 1196.0 542.9 L 1200.0 536.9" stroke="#d7ee2b" stroke-width="4.5" fill="none" opacity="0.37" stroke-linecap="round"/>
<path d="M 0.0 850.7 L 4.0 847.7 L 8.0 844.9 L 12.0 842.1 L 16.0 839.5 L 20.0 837.1 L 24.0 834.8 L 28.0 832.6 L 32.0 830.7 L 36.0 828.9 L 40.0 827.4 L 44.0 826.1 L 48.0 825.0 L 52.0 824.1 L 56.0 823.5 L 60.0 823.2 L 64.0 823.1 L 68.0 823.3 L 72.0 823.7 L 76.0 824.4 L 80.0 825.4 L 84.0 826.6 L 88.0 828.1 L 92.0 829.9 L 96.0 831.9 L 100.0 834.2 L 104.0 836.7 L 108.0 839.4 L 112.0 842.4 L 116.0 845.6 L 120.0 849.0 L 124.0 852.5 L 128.0 856.3 L 132.0 860.1 L 136.0 864.2 L 140.0 868.3 L 144.0 872.6 L 148.0 877.0 L 152.0 881.4 L 156.0 885.9 L 160.0 890.5 L 164.0 895.0 L 168.0 899.6 L 172.0 904.1 L 176.0 908.7 L 180.0 913.1 L 184.0 917.6 L 188.0 921.9 L 192.0 926.2 L 196.0 930.3 L 200.0 934.4 L 204.0 938.3 L 208.0 942.0 L 212.0 945.7 L 216.0 949.1 L 220.0 952.4 L 224.0 955.5 L 228.0 958.5 L 232.0 961.2 L 236.0 963.8 L 240.0 966.2 L 244.0 968.4 L 248.0 970.5 L 252.0 972.3 L 256.0 974.0 L 260.0 975.5 L 264.0 976.8 L 268.0 978.0 L 272.0 979.0 L 276.0 979.8 L 280.0 980.6 L 284.0 981.2 L 288.0 981.6 L 292.0 982.0 L 296.0 982.3 L 300.0 982.5 L 304.0 982.7 L 308.0 982.7 L 312.0 982.8 L 316.0 982.8 L 320.0 982.8 L 324.0 982.7 L 328.0 982.7 L 332.0 982.7 L 336.0 982.7 L 340.0 982.8 L 344.0 982.9 L 348.0 983.0 L 352.0 983.2 L 356.0 983.5 L 360.0 983.9 L 364.0 984.3 L 368.0 984.8 L 372.0 985.4 L 376.0 986.1 L 380.0 986.9 L 384.0 987.8 L 388.0 988.7 L 392.0 989.7 L 396.0 990.8 L 400.0 992.0 L 404.0 993.3 L 408.0 994.6 L 412.0 995.9 L 416.0 997.3 L 420.0 998.7 L 424.0 1000.2 L 428.0 1001.6 L 432.0 1003.1 L 436.0 1004.5 L 440.0 1006.0 L 444.0 1007.3 L 448.0 1008.6 L 452.0 1009.9 L 456.0 1011.1 L 460.0 1012.1 L 464.0 1013.1 L 468.0 1013.9 L 472.0 1014.6 L 476.0 1015.2 L 480.0 1015.6 L 484.0 1015.8 L 488.0 1015.8 L 492.0 1015.6 L 496.0 1015.3 L 500.0 1014.7 L 504.0 1013.9 L 508.0 1012.9 L 512.0 1011.7 L 516.0 1010.2 L 520.0 1008.5 L 524.0 1006.6 L 528.0 1004.4 L 532.0 1002.0 L 536.0 999.4 L 540.0 996.5 L 544.0 993.4 L 548.0 990.1 L 552.0 986.6 L 556.0 983.0 L 560.0 979.1 L 564.0 975.0 L 568.0 970.8 L 572.0 966.5 L 576.0 962.0 L 580.0 957.4 L 584.0 952.6 L 588.0 947.8 L 592.0 943.0 L 596.0 938.1 L 600.0 933.1 L 604.0 928.1 L 608.0 923.1 L 612.0 918.2 L 616.0 913.3 L 620.0 908.4 L 624.0 903.6 L 628.0 898.9 L 632.0 894.3 L 636.0 889.9 L 640.0 885.5 L 644.0 881.4 L 648.0 877.3 L 652.0 873.5 L 656.0 869.9 L 660.0 866.4 L 664.0 863.2 L 668.0 860.1 L 672.0 857.3 L 676.0 854.8 L 680.0 852.4 L 684.0 850.3 L 688.0 848.5 L 692.0 846.8 L 696.0 845.5 L 700.0 844.3 L 704.0 843.4 L 708.0 842.7 L 712.0 842.2 L 716.0 842.0 L 720.0 841.9 L 724.0 842.1 L 728.0 842.4 L 732.0 842.9 L 736.0 843.6 L 740.0 844.5 L 744.0 845.4 L 748.0 846.5 L 752.0 847.8 L 756.0 849.1 L 760.0 850.5 L 764.0 852.0 L 768.0 853.5 L 772.0 855.1 L 776.0 856.7 L 780.0 858.4 L 784.0 860.0 L 788.0 861.6 L 792.0 863.3 L 796.0 864.8 L 800.0 866.4 L 804.0 867.9 L 808.0 869.3 L 812.0 870.7 L 816.0 872.0 L 820.0 873.2 L 824.0 874.4 L 828.0 875.4 L 832.0 876.4 L 836.0 877.3 L 840.0 878.0 L 844.0 878.7 L 848.0 879.4 L 852.0 879.9 L 856.0 880.3 L 860.0 880.7 L 864.0 881.0 L 868.0 881.3 L 872.0 881.5 L 876.0 881.7 L 880.0 881.8 L 884.0 881.9 L 888.0 882.0 L 892.0 882.1 L 896.0 882.3 L 900.0 882.4 L 904.0 882.6 L 908.0 882.8 L 912.0 883.1 L 916.0 883.5 L 920.0 883.9 L 924.0 884.5 L 928.0 885.1 L 932.0 885.9 L 936.0 886.8 L 940.0 887.9 L 944.0 889.1 L 948.0 890.4 L 952.0 891.9 L 956.0 893.6 L 960.0 895.4 L 964.0 897.5 L 968.0 899.7 L 972.0 902.0 L 976.0 904.6 L 980.0 907.3 L 984.0 910.3 L 988.0 913.3 L 992.0 916.6 L 996.0 920.0 L 1000.0 923.6 L 1004.0 927.3 L 1008.0 931.1 L 1012.0 935.1 L 1016.0 939.2 L 1020.0 943.4 L 1024.0 947.6 L 1028.0 952.0 L 1032.0 956.4 L 1036.0 960.8 L 1040.0 965.3 L 1044.0 969.7 L 1048.0 974.2 L 1052.0 978.7 L 1056.0 983.1 L 1060.0 987.4 L 1064.0 991.7 L 1068.0 995.8 L 1072.0 999.9 L 1076.0 1003.8 L 1080.0 1007.6 L 1084.0 1011.2 L 1088.0 1014.7 L 1092.0 1017.9 L 1096.0 1021.0 L 1100.0 1023.9 L 1104.0 1026.5 L 1108.0 1028.9 L 1112.0 1031.0 L 1116.0 1032.9 L 1120.0 1034.6 L 1124.0 1036.0 L 1128.0 1037.1 L 1132.0 1037.9 L 1136.0 1038.5 L 1140.0 1038.8 L 1144.0 1038.8 L 1148.0 1038.6 L 1152.0 1038.1 L 1156.0 1037.4 L 1160.0 1036.4 L 1164.0 1035.2 L 1168.0 1033.7 L 1172.0 1032.0 L 1176.0 1030.1 L 1180.0 1028.0 L 1184.0 1025.7 L 1188.0 1023.3 L 1192.0 1020.7 L 1196.0 1017.9 L 1200.0 1015.0" stroke="#d7ee2b" stroke-width="13.5" fill="none" opacity="0.10" stroke-linecap="round"/>
<path d="M 0.0 850.7 L 4.0 847.7 L 8.0 844.9 L 12.0 842.1 L 16.0 839.5 L 20.0 837.1 L 24.0 834.8 L 28.0 832.6 L 32.0 830.7 L 36.0 828.9 L 40.0 827.4 L 44.0 826.1 L 48.0 825.0 L 52.0 824.1 L 56.0 823.5 L 60.0 823.2 L 64.0 823.1 L 68.0 823.3 L 72.0 823.7 L 76.0 824.4 L 80.0 825.4 L 84.0 826.6 L 88.0 828.1 L 92.0 829.9 L 96.0 831.9 L 100.0 834.2 L 104.0 836.7 L 108.0 839.4 L 112.0 842.4 L 116.0 845.6 L 120.0 849.0 L 124.0 852.5 L 128.0 856.3 L 132.0 860.1 L 136.0 864.2 L 140.0 868.3 L 144.0 872.6 L 148.0 877.0 L 152.0 881.4 L 156.0 885.9 L 160.0 890.5 L 164.0 895.0 L 168.0 899.6 L 172.0 904.1 L 176.0 908.7 L 180.0 913.1 L 184.0 917.6 L 188.0 921.9 L 192.0 926.2 L 196.0 930.3 L 200.0 934.4 L 204.0 938.3 L 208.0 942.0 L 212.0 945.7 L 216.0 949.1 L 220.0 952.4 L 224.0 955.5 L 228.0 958.5 L 232.0 961.2 L 236.0 963.8 L 240.0 966.2 L 244.0 968.4 L 248.0 970.5 L 252.0 972.3 L 256.0 974.0 L 260.0 975.5 L 264.0 976.8 L 268.0 978.0 L 272.0 979.0 L 276.0 979.8 L 280.0 980.6 L 284.0 981.2 L 288.0 981.6 L 292.0 982.0 L 296.0 982.3 L 300.0 982.5 L 304.0 982.7 L 308.0 982.7 L 312.0 982.8 L 316.0 982.8 L 320.0 982.8 L 324.0 982.7 L 328.0 982.7 L 332.0 982.7 L 336.0 982.7 L 340.0 982.8 L 344.0 982.9 L 348.0 983.0 L 352.0 983.2 L 356.0 983.5 L 360.0 983.9 L 364.0 984.3 L 368.0 984.8 L 372.0 985.4 L 376.0 986.1 L 380.0 986.9 L 384.0 987.8 L 388.0 988.7 L 392.0 989.7 L 396.0 990.8 L 400.0 992.0 L 404.0 993.3 L 408.0 994.6 L 412.0 995.9 L 416.0 997.3 L 420.0 998.7 L 424.0 1000.2 L 428.0 1001.6 L 432.0 1003.1 L 436.0 1004.5 L 440.0 1006.0 L 444.0 1007.3 L 448.0 1008.6 L 452.0 1009.9 L 456.0 1011.1 L 460.0 1012.1 L 464.0 1013.1 L 468.0 1013.9 L 472.0 1014.6 L 476.0 1015.2 L 480.0 1015.6 L 484.0 1015.8 L 488.0 1015.8 L 492.0 1015.6 L 496.0 1015.3 L 500.0 1014.7 L 504.0 1013.9 L 508.0 1012.9 L 512.0 1011.7 L 516.0 1010.2 L 520.0 1008.5 L 524.0 1006.6 L 528.0 1004.4 L 532.0 1002.0 L 536.0 999.4 L 540.0 996.5 L 544.0 993.4 L 548.0 990.1 L 552.0 986.6 L 556.0 983.0 L 560.0 979.1 L 564.0 975.0 L 568.0 970.8 L 572.0 966.5 L 576.0 962.0 L 580.0 957.4 L 584.0 952.6 L 588.0 947.8 L 592.0 943.0 L 596.0 938.1 L 600.0 933.1 L 604.0 928.1 L 608.0 923.1 L 612.0 918.2 L 616.0 913.3 L 620.0 908.4 L 624.0 903.6 L 628.0 898.9 L 632.0 894.3 L 636.0 889.9 L 640.0 885.5 L 644.0 881.4 L 648.0 877.3 L 652.0 873.5 L 656.0 869.9 L 660.0 866.4 L 664.0 863.2 L 668.0 860.1 L 672.0 857.3 L 676.0 854.8 L 680.0 852.4 L 684.0 850.3 L 688.0 848.5 L 692.0 846.8 L 696.0 845.5 L 700.0 844.3 L 704.0 843.4 L 708.0 842.7 L 712.0 842.2 L 716.0 842.0 L 720.0 841.9 L 724.0 842.1 L 728.0 842.4 L 732.0 842.9 L 736.0 843.6 L 740.0 844.5 L 744.0 845.4 L 748.0 846.5 L 752.0 847.8 L 756.0 849.1 L 760.0 850.5 L 764.0 852.0 L 768.0 853.5 L 772.0 855.1 L 776.0 856.7 L 780.0 858.4 L 784.0 860.0 L 788.0 861.6 L 792.0 863.3 L 796.0 864.8 L 800.0 866.4 L 804.0 867.9 L 808.0 869.3 L 812.0 870.7 L 816.0 872.0 L 820.0 873.2 L 824.0 874.4 L 828.0 875.4 L 832.0 876.4 L 836.0 877.3 L 840.0 878.0 L 844.0 878.7 L 848.0 879.4 L 852.0 879.9 L 856.0 880.3 L 860.0 880.7 L 864.0 881.0 L 868.0 881.3 L 872.0 881.5 L 876.0 881.7 L 880.0 881.8 L 884.0 881.9 L 888.0 882.0 L 892.0 882.1 L 896.0 882.3 L 900.0 882.4 L 904.0 882.6 L 908.0 882.8 L 912.0 883.1 L 916.0 883.5 L 920.0 883.9 L 924.0 884.5 L 928.0 885.1 L 932.0 885.9 L 936.0 886.8 L 940.0 887.9 L 944.0 889.1 L 948.0 890.4 L 952.0 891.9 L 956.0 893.6 L 960.0 895.4 L 964.0 897.5 L 968.0 899.7 L 972.0 902.0 L 976.0 904.6 L 980.0 907.3 L 984.0 910.3 L 988.0 913.3 L 992.0 916.6 L 996.0 920.0 L 1000.0 923.6 L 1004.0 927.3 L 1008.0 931.1 L 1012.0 935.1 L 1016.0 939.2 L 1020.0 943.4 L 1024.0 947.6 L 1028.0 952.0 L 1032.0 956.4 L 1036.0 960.8 L 1040.0 965.3 L 1044.0 969.7 L 1048.0 974.2 L 1052.0 978.7 L 1056.0 983.1 L 1060.0 987.4 L 1064.0 991.7 L 1068.0 995.8 L 1072.0 999.9 L 1076.0 1003.8 L 1080.0 1007.6 L 1084.0 1011.2 L 1088.0 1014.7 L 1092.0 1017.9 L 1096.0 1021.0 L 1100.0 1023.9 L 1104.0 1026.5 L 1108.0 1028.9 L 1112.0 1031.0 L 1116.0 1032.9 L 1120.0 1034.6 L 1124.0 1036.0 L 1128.0 1037.1 L 1132.0 1037.9 L 1136.0 1038.5 L 1140.0 1038.8 L 1144.0 1038.8 L 1148.0 1038.6 L 1152.0 1038.1 L 1156.0 1037.4 L 1160.0 1036.4 L 1164.0 1035.2 L 1168.0 1033.7 L 1172.0 1032.0 L 1176.0 1030.1 L 1180.0 1028.0 L 1184.0 1025.7 L 1188.0 1023.3 L 1192.0 1020.7 L 1196.0 1017.9 L 1200.0 1015.0" stroke="#d7ee2b" stroke-width="5.4" fill="none" opacity="0.67" stroke-linecap="round"/>
<path d="M 0.0 609.3 L 4.0 611.0 L 8.0 612.7 L 12.0 614.2 L 16.0 615.7 L 20.0 617.0 L 24.0 618.3 L 28.0 619.4 L 32.0 620.4 L 36.0 621.3 L 40.0 622.1 L 44.0 622.7 L 48.0 623.3 L 52.0 623.7 L 56.0 624.0 L 60.0 624.1 L 64.0 624.1 L 68.0 624.0 L 72.0 623.8 L 76.0 623.5 L 80.0 623.0 L 84.0 622.5 L 88.0 621.8 L 92.0 621.0 L 96.0 620.1 L 100.0 619.1 L 104.0 618.0 L 108.0 616.9 L 112.0 615.6 L 116.0 614.3 L 120.0 612.9 L 124.0 611.4 L 128.0 609.9 L 132.0 608.3 L 136.0 606.6 L 140.0 605.0 L 144.0 603.2 L 148.0 601.5 L 152.0 599.7 L 156.0 598.0 L 160.0 596.2 L 164.0 594.4 L 168.0 592.6 L 172.0 590.8 L 176.0 589.0 L 180.0 587.3 L 184.0 585.6 L 188.0 583.9 L 192.0 582.2 L 196.0 580.6 L 200.0 579.0 L 204.0 577.5 L 208.0 576.0 L 212.0 574.6 L 216.0 573.2 L 220.0 571.9 L 224.0 570.6 L 228.0 569.4 L 232.0 568.3 L 236.0 567.2 L 240.0 566.1 L 244.0 565.2 L 248.0 564.3 L 252.0 563.4 L 256.0 562.6 L 260.0 561.9 L 264.0 561.2 L 268.0 560.5 L 272.0 559.9 L 276.0 559.4 L 280.0 558.8 L 284.0 558.4 L 288.0 557.9 L 292.0 557.5 L 296.0 557.0 L 300.0 556.7 L 304.0 556.3 L 308.0 555.9 L 312.0 555.5 L 316.0 555.1 L 320.0 554.8 L 324.0 554.4 L 328.0 553.9 L 332.0 553.5 L 336.0 553.1 L 340.0 552.6 L 344.0 552.0 L 348.0 551.5 L 352.0 550.9 L 356.0 550.3 L 360.0 549.6 L 364.0 548.8 L 368.0 548.1 L 372.0 547.2 L 376.0 546.3 L 380.0 545.4 L 384.0 544.4 L 388.0 543.3 L 392.0 542.2 L 396.0 541.0 L 400.0 539.8 L 404.0 538.5 L 408.0 537.2 L 412.0 535.8 L 416.0 534.4 L 420.0 532.9 L 424.0 531.4 L 428.0 529.9 L 432.0 528.3 L 436.0 526.7 L 440.0 525.1 L 444.0 523.4 L 448.0 521.7 L 452.0 520.1 L 456.0 518.4 L 460.0 516.7 L 464.0 515.1 L 468.0 513.4 L 472.0 511.8 L 476.0 510.2 L 480.0 508.7 L 484.0 507.2 L 488.0 505.7 L 492.0 504.3 L 496.0 502.9 L 500.0 501.6 L 504.0 500.4 L 508.0 499.3 L 512.0 498.2 L 516.0 497.3 L 520.0 496.4 L 524.0 495.6 L 528.0 495.0 L 532.0 494.4 L 536.0 494.0 L 540.0 493.6 L 544.0 493.4 L 548.0 493.3 L 552.0 493.3 L 556.0 493.4 L 560.0 493.7 L 564.0 494.1 L 568.0 494.6 L 572.0 495.2 L 576.0 496.0 L 580.0 496.9 L 584.0 497.9 L 588.0 499.0 L 592.0 500.2 L 596.0 501.6 L 600.0 503.0 L 604.0 504.6 L 608.0 506.2 L 612.0 508.0 L 616.0 509.8 L 620.0 511.7 L 624.0 513.7 L 628.0 515.8 L 632.0 517.9 L 636.0 520.1 L 640.0 522.4 L 644.0 524.7 L 648.0 527.0 L 652.0 529.4 L 656.0 531.8 L 660.0 534.2 L 664.0 536.6 L 668.0 539.1 L 672.0 541.5 L 676.0 543.9 L 680.0 546.3 L 684.0 548.7 L 688.0 551.0 L 692.0 553.3 L 696.0 555.6 L 700.0 557.8 L 704.0 560.0 L 708.0 562.1 L 712.0 564.2 L 716.0 566.2 L 720.0 568.1 L 724.0 569.9 L 728.0 571.7 L 732.0 573.4 L 736.0 575.0 L 740.0 576.5 L 744.0 578.0 L 748.0 579.3 L 752.0 580.6 L 756.0 581.8 L 760.0 582.9 L 764.0 583.9 L 768.0 584.8 L 772.0 585.6 L 776.0 586.4 L 780.0 587.1 L 784.0 587.7 L 788.0 588.2 L 792.0 588.7 L 796.0 589.1 L 800.0 589.4 L 804.0 589.7 L 808.0 590.0 L 812.0 590.1 L 816.0 590.3 L 820.0 590.4 L 824.0 590.5 L 828.0 590.5 L 832.0 590.5 L 836.0 590.5 L 840.0 590.5 L 844.0 590.5 L 848.0 590.4 L 852.0 590.4 L 856.0 590.4 L 860.0 590.4 L 864.0 590.4 L 868.0 590.4 L 872.0 590.4 L 876.0 590.5 L 880.0 590.6 L 884.0 590.7 L 888.0 590.9 L 892.0 591.1 L 896.0 591.3 L 900.0 591.6 L 904.0 591.9 L 908.0 592.2 L 912.0 592.6 L 916.0 593.1 L 920.0 593.5 L 924.0 594.0 L 928.0 594.6 L 932.0 595.1 L 936.0 595.8 L 940.0 596.4 L 944.0 597.1 L 948.0 597.8 L 952.0 598.5 L 956.0 599.2 L 960.0 599.9 L 964.0 600.7 L 968.0 601.5 L 972.0 602.2 L 976.0 602.9 L 980.0 603.7 L 984.0 604.4 L 988.0 605.1 L 992.0 605.7 L 996.0 606.4 L 1000.0 607.0 L 1004.0 607.5 L 1008.0 608.0 L 1012.0 608.4 L 1016.0 608.8 L 1020.0 609.1 L 1024.0 609.4 L 1028.0 609.5 L 1032.0 609.6 L 1036.0 609.6 L 1040.0 609.5 L 1044.0 609.3 L 1048.0 609.0 L 1052.0 608.7 L 1056.0 608.2 L 1060.0 607.6 L 1064.0 606.9 L 1068.0 606.1 L 1072.0 605.2 L 1076.0 604.2 L 1080.0 603.1 L 1084.0 601.8 L 1088.0 600.5 L 1092.0 599.1 L 1096.0 597.5 L 1100.0 595.9 L 1104.0 594.1 L 1108.0 592.3 L 1112.0 590.4 L 1116.0 588.4 L 1120.0 586.3 L 1124.0 584.1 L 1128.0 581.8 L 1132.0 579.5 L 1136.0 577.2 L 1140.0 574.7 L 1144.0 572.2 L 1148.0 569.7 L 1152.0 567.1 L 1156.0 564.6 L 1160.0 561.9 L 1164.0 559.3 L 1168.0 556.7 L 1172.0 554.0 L 1176.0 551.4 L 1180.0 548.8 L 1184.0 546.2 L 1188.0 543.6 L 1192.0 541.1 L 1196.0 538.6 L 1200.0 536.2" stroke="#d7ee2b" stroke-width="14.9" fill="none" opacity="0.08" stroke-linecap="round"/>
<path d="M 0.0 609.3 L 4.0 611.0 L 8.0 612.7 L 12.0 614.2 L 16.0 615.7 L 20.0 617.0 L 24.0 618.3 L 28.0 619.4 L 32.0 620.4 L 36.0 621.3 L 40.0 622.1 L 44.0 622.7 L 48.0 623.3 L 52.0 623.7 L 56.0 624.0 L 60.0 624.1 L 64.0 624.1 L 68.0 624.0 L 72.0 623.8 L 76.0 623.5 L 80.0 623.0 L 84.0 622.5 L 88.0 621.8 L 92.0 621.0 L 96.0 620.1 L 100.0 619.1 L 104.0 618.0 L 108.0 616.9 L 112.0 615.6 L 116.0 614.3 L 120.0 612.9 L 124.0 611.4 L 128.0 609.9 L 132.0 608.3 L 136.0 606.6 L 140.0 605.0 L 144.0 603.2 L 148.0 601.5 L 152.0 599.7 L 156.0 598.0 L 160.0 596.2 L 164.0 594.4 L 168.0 592.6 L 172.0 590.8 L 176.0 589.0 L 180.0 587.3 L 184.0 585.6 L 188.0 583.9 L 192.0 582.2 L 196.0 580.6 L 200.0 579.0 L 204.0 577.5 L 208.0 576.0 L 212.0 574.6 L 216.0 573.2 L 220.0 571.9 L 224.0 570.6 L 228.0 569.4 L 232.0 568.3 L 236.0 567.2 L 240.0 566.1 L 244.0 565.2 L 248.0 564.3 L 252.0 563.4 L 256.0 562.6 L 260.0 561.9 L 264.0 561.2 L 268.0 560.5 L 272.0 559.9 L 276.0 559.4 L 280.0 558.8 L 284.0 558.4 L 288.0 557.9 L 292.0 557.5 L 296.0 557.0 L 300.0 556.7 L 304.0 556.3 L 308.0 555.9 L 312.0 555.5 L 316.0 555.1 L 320.0 554.8 L 324.0 554.4 L 328.0 553.9 L 332.0 553.5 L 336.0 553.1 L 340.0 552.6 L 344.0 552.0 L 348.0 551.5 L 352.0 550.9 L 356.0 550.3 L 360.0 549.6 L 364.0 548.8 L 368.0 548.1 L 372.0 547.2 L 376.0 546.3 L 380.0 545.4 L 384.0 544.4 L 388.0 543.3 L 392.0 542.2 L 396.0 541.0 L 400.0 539.8 L 404.0 538.5 L 408.0 537.2 L 412.0 535.8 L 416.0 534.4 L 420.0 532.9 L 424.0 531.4 L 428.0 529.9 L 432.0 528.3 L 436.0 526.7 L 440.0 525.1 L 444.0 523.4 L 448.0 521.7 L 452.0 520.1 L 456.0 518.4 L 460.0 516.7 L 464.0 515.1 L 468.0 513.4 L 472.0 511.8 L 476.0 510.2 L 480.0 508.7 L 484.0 507.2 L 488.0 505.7 L 492.0 504.3 L 496.0 502.9 L 500.0 501.6 L 504.0 500.4 L 508.0 499.3 L 512.0 498.2 L 516.0 497.3 L 520.0 496.4 L 524.0 495.6 L 528.0 495.0 L 532.0 494.4 L 536.0 494.0 L 540.0 493.6 L 544.0 493.4 L 548.0 493.3 L 552.0 493.3 L 556.0 493.4 L 560.0 493.7 L 564.0 494.1 L 568.0 494.6 L 572.0 495.2 L 576.0 496.0 L 580.0 496.9 L 584.0 497.9 L 588.0 499.0 L 592.0 500.2 L 596.0 501.6 L 600.0 503.0 L 604.0 504.6 L 608.0 506.2 L 612.0 508.0 L 616.0 509.8 L 620.0 511.7 L 624.0 513.7 L 628.0 515.8 L 632.0 517.9 L 636.0 520.1 L 640.0 522.4 L 644.0 524.7 L 648.0 527.0 L 652.0 529.4 L 656.0 531.8 L 660.0 534.2 L 664.0 536.6 L 668.0 539.1 L 672.0 541.5 L 676.0 543.9 L 680.0 546.3 L 684.0 548.7 L 688.0 551.0 L 692.0 553.3 L 696.0 555.6 L 700.0 557.8 L 704.0 560.0 L 708.0 562.1 L 712.0 564.2 L 716.0 566.2 L 720.0 568.1 L 724.0 569.9 L 728.0 571.7 L 732.0 573.4 L 736.0 575.0 L 740.0 576.5 L 744.0 578.0 L 748.0 579.3 L 752.0 580.6 L 756.0 581.8 L 760.0 582.9 L 764.0 583.9 L 768.0 584.8 L 772.0 585.6 L 776.0 586.4 L 780.0 587.1 L 784.0 587.7 L 788.0 588.2 L 792.0 588.7 L 796.0 589.1 L 800.0 589.4 L 804.0 589.7 L 808.0 590.0 L 812.0 590.1 L 816.0 590.3 L 820.0 590.4 L 824.0 590.5 L 828.0 590.5 L 832.0 590.5 L 836.0 590.5 L 840.0 590.5 L 844.0 590.5 L 848.0 590.4 L 852.0 590.4 L 856.0 590.4 L 860.0 590.4 L 864.0 590.4 L 868.0 590.4 L 872.0 590.4 L 876.0 590.5 L 880.0 590.6 L 884.0 590.7 L 888.0 590.9 L 892.0 591.1 L 896.0 591.3 L 900.0 591.6 L 904.0 591.9 L 908.0 592.2 L 912.0 592.6 L 916.0 593.1 L 920.0 593.5 L 924.0 594.0 L 928.0 594.6 L 932.0 595.1 L 936.0 595.8 L 940.0 596.4 L 944.0 597.1 L 948.0 597.8 L 952.0 598.5 L 956.0 599.2 L 960.0 599.9 L 964.0 600.7 L 968.0 601.5 L 972.0 602.2 L 976.0 602.9 L 980.0 603.7 L 984.0 604.4 L 988.0 605.1 L 992.0 605.7 L 996.0 606.4 L 1000.0 607.0 L 1004.0 607.5 L 1008.0 608.0 L 1012.0 608.4 L 1016.0 608.8 L 1020.0 609.1 L 1024.0 609.4 L 1028.0 609.5 L 1032.0 609.6 L 1036.0 609.6 L 1040.0 609.5 L 1044.0 609.3 L 1048.0 609.0 L 1052.0 608.7 L 1056.0 608.2 L 1060.0 607.6 L 1064.0 606.9 L 1068.0 606.1 L 1072.0 605.2 L 1076.0 604.2 L 1080.0 603.1 L 1084.0 601.8 L 1088.0 600.5 L 1092.0 599.1 L 1096.0 597.5 L 1100.0 595.9 L 1104.0 594.1 L 1108.0 592.3 L 1112.0 590.4 L 1116.0 588.4 L 1120.0 586.3 L 1124.0 584.1 L 1128.0 581.8 L 1132.0 579.5 L 1136.0 577.2 L 1140.0 574.7 L 1144.0 572.2 L 1148.0 569.7 L 1152.0 567.1 L 1156.0 564.6 L 1160.0 561.9 L 1164.0 559.3 L 1168.0 556.7 L 1172.0 554.0 L 1176.0 551.4 L 1180.0 548.8 L 1184.0 546.2 L 1188.0 543.6 L 1192.0 541.1 L 1196.0 538.6 L 1200.0 536.2" stroke="#d7ee2b" stroke-width="5.9" fill="none" opacity="0.50" stroke-linecap="round"/>
<path d="M 0 1200 L 0.0 576.6 L 4.0 578.4 L 8.0 580.6 L 12.0 583.1 L 16.0 586.0 L 20.0 589.2 L 24.0 592.8 L 28.0 596.7 L 32.0 600.8 L 36.0 605.2 L 40.0 609.9 L 44.0 614.8 L 48.0 619.9 L 52.0 625.2 L 56.0 630.6 L 60.0 636.2 L 64.0 641.9 L 68.0 647.7 L 72.0 653.5 L 76.0 659.4 L 80.0 665.2 L 84.0 671.1 L 88.0 676.8 L 92.0 682.6 L 96.0 688.2 L 100.0 693.6 L 104.0 699.0 L 108.0 704.1 L 112.0 709.1 L 116.0 713.8 L 120.0 718.3 L 124.0 722.5 L 128.0 726.4 L 132.0 730.0 L 136.0 733.3 L 140.0 736.3 L 144.0 738.9 L 148.0 741.2 L 152.0 743.1 L 156.0 744.6 L 160.0 745.7 L 164.0 746.5 L 168.0 746.8 L 172.0 746.8 L 176.0 746.3 L 180.0 745.5 L 184.0 744.3 L 188.0 742.7 L 192.0 740.7 L 196.0 738.3 L 200.0 735.6 L 204.0 732.6 L 208.0 729.2 L 212.0 725.5 L 216.0 721.5 L 220.0 717.2 L 224.0 712.7 L 228.0 707.9 L 232.0 702.9 L 236.0 697.7 L 240.0 692.3 L 244.0 686.8 L 248.0 681.2 L 252.0 675.4 L 256.0 669.7 L 260.0 663.8 L 264.0 657.9 L 268.0 652.1 L 272.0 646.3 L 276.0 640.5 L 280.0 634.9 L 284.0 629.3 L 288.0 623.9 L 292.0 618.7 L 296.0 613.6 L 300.0 608.8 L 304.0 604.1 L 308.0 599.8 L 312.0 595.7 L 316.0 591.9 L 320.0 588.4 L 324.0 585.3 L 328.0 582.5 L 332.0 580.0 L 336.0 577.9 L 340.0 576.2 L 344.0 574.8 L 348.0 573.9 L 352.0 573.3 L 356.0 573.2 L 360.0 573.4 L 364.0 574.0 L 368.0 575.0 L 372.0 576.4 L 376.0 578.2 L 380.0 580.4 L 384.0 582.9 L 388.0 585.7 L 392.0 589.0 L 396.0 592.5 L 400.0 596.3 L 404.0 600.5 L 408.0 604.9 L 412.0 609.5 L 416.0 614.4 L 420.0 619.5 L 424.0 624.7 L 428.0 630.2 L 432.0 635.8 L 436.0 641.4 L 440.0 647.2 L 444.0 653.0 L 448.0 658.9 L 452.0 664.7 L 456.0 670.6 L 460.0 676.4 L 464.0 682.1 L 468.0 687.7 L 472.0 693.2 L 476.0 698.5 L 480.0 703.7 L 484.0 708.6 L 488.0 713.4 L 492.0 717.9 L 496.0 722.1 L 500.0 726.1 L 504.0 729.7 L 508.0 733.1 L 512.0 736.1 L 516.0 738.7 L 520.0 741.0 L 524.0 742.9 L 528.0 744.5 L 532.0 745.7 L 536.0 746.4 L 540.0 746.8 L 544.0 746.8 L 548.0 746.4 L 552.0 745.6 L 556.0 744.4 L 560.0 742.8 L 564.0 740.9 L 568.0 738.5 L 572.0 735.8 L 576.0 732.8 L 580.0 729.5 L 584.0 725.8 L 588.0 721.8 L 592.0 717.6 L 596.0 713.0 L 600.0 708.3 L 604.0 703.3 L 608.0 698.1 L 612.0 692.8 L 616.0 687.3 L 620.0 681.7 L 624.0 675.9 L 628.0 670.1 L 632.0 664.3 L 636.0 658.4 L 640.0 652.6 L 644.0 646.8 L 648.0 641.0 L 652.0 635.3 L 656.0 629.8 L 660.0 624.4 L 664.0 619.1 L 668.0 614.0 L 672.0 609.2 L 676.0 604.5 L 680.0 600.1 L 684.0 596.0 L 688.0 592.2 L 692.0 588.7 L 696.0 585.5 L 700.0 582.7 L 704.0 580.2 L 708.0 578.1 L 712.0 576.3 L 716.0 574.9 L 720.0 573.9 L 724.0 573.4 L 728.0 573.2 L 732.0 573.3 L 736.0 573.9 L 740.0 574.9 L 744.0 576.3 L 748.0 578.0 L 752.0 580.2 L 756.0 582.7 L 760.0 585.5 L 764.0 588.7 L 768.0 592.2 L 772.0 596.0 L 776.0 600.1 L 780.0 604.5 L 784.0 609.1 L 788.0 614.0 L 792.0 619.0 L 796.0 624.3 L 800.0 629.7 L 804.0 635.3 L 808.0 640.9 L 812.0 646.7 L 816.0 652.5 L 820.0 658.4 L 824.0 664.2 L 828.0 670.1 L 832.0 675.9 L 836.0 681.6 L 840.0 687.2 L 844.0 692.7 L 848.0 698.1 L 852.0 703.3 L 856.0 708.2 L 860.0 713.0 L 864.0 717.5 L 868.0 721.8 L 872.0 725.8 L 876.0 729.4 L 880.0 732.8 L 884.0 735.8 L 888.0 738.5 L 892.0 740.8 L 896.0 742.8 L 900.0 744.4 L 904.0 745.6 L 908.0 746.4 L 912.0 746.8 L 916.0 746.8 L 920.0 746.4 L 924.0 745.7 L 928.0 744.5 L 932.0 743.0 L 936.0 741.0 L 940.0 738.7 L 944.0 736.1 L 948.0 733.1 L 952.0 729.8 L 956.0 726.1 L 960.0 722.2 L 964.0 717.9 L 968.0 713.4 L 972.0 708.7 L 976.0 703.7 L 980.0 698.6 L 984.0 693.2 L 988.0 687.8 L 992.0 682.1 L 996.0 676.4 L 1000.0 670.6 L 1004.0 664.8 L 1008.0 658.9 L 1012.0 653.1 L 1016.0 647.3 L 1020.0 641.5 L 1024.0 635.8 L 1028.0 630.2 L 1032.0 624.8 L 1036.0 619.5 L 1040.0 614.4 L 1044.0 609.6 L 1048.0 604.9 L 1052.0 600.5 L 1056.0 596.4 L 1060.0 592.5 L 1064.0 589.0 L 1068.0 585.8 L 1072.0 582.9 L 1076.0 580.4 L 1080.0 578.2 L 1084.0 576.4 L 1088.0 575.0 L 1092.0 574.0 L 1096.0 573.4 L 1100.0 573.2 L 1104.0 573.3 L 1108.0 573.9 L 1112.0 574.8 L 1116.0 576.2 L 1120.0 577.9 L 1124.0 580.0 L 1128.0 582.4 L 1132.0 585.2 L 1136.0 588.4 L 1140.0 591.9 L 1144.0 595.7 L 1148.0 599.7 L 1152.0 604.1 L 1156.0 608.7 L 1160.0 613.5 L 1164.0 618.6 L 1168.0 623.8 L 1172.0 629.3 L 1176.0 634.8 L 1180.0 640.5 L 1184.0 646.2 L 1188.0 652.0 L 1192.0 657.9 L 1196.0 663.7 L 1200.0 669.6 L 1200 1200 Z" fill="#3ead1f" opacity="0.08"/>

  </g>

  <!-- Vignette -->
  <defs>
    <radialGradient id="vignette-contradash" cx="50%" cy="50%" r="70%">
      <stop offset="0%" stop-color="transparent"/>
      <stop offset="100%" stop-color="rgba(10,10,10,0.7)"/>
    </radialGradient>
  </defs>
  <rect width="1200" height="1200" fill="url(#vignette-contradash)"/>

  <!-- Card number watermark -->
  <text x="40" y="1170" font-family="monospace" font-size="48" fill="rgba(255,255,255,0.06)">006</text>
</svg>