<svg xmlns="http://www.w3.org/2000/svg" viewBox="0 0 1200 1200" width="1200" height="1200">
  <rect width="1200" height="1200" fill="#0a0a0a"/>

  <!-- Generative Art -->
  <g>
    <rect x="6.3" y="6.3" width="50.5" height="50.5" fill="#adee2b" opacity="0.20"/>
<circle cx="94.7" cy="31.6" r="25.3" fill="#adee2b" opacity="0.46"/>
<rect x="132.6" y="6.3" width="50.5" height="50.5" fill="#adee2b" opacity="0.69"/>
<rect x="258.9" y="6.3" width="50.5" height="50.5" fill="#adee2b" opacity="0.28"/>
<rect x="322.1" y="6.3" width="50.5" height="50.5" fill="#adee2b" opacity="0.54"/>
<circle cx="410.5" cy="31.6" r="25.3" fill="#adee2b" opacity="0.43"/>
<rect x="448.4" y="6.3" width="50.5" height="50.5" fill="#adee2b" opacity="0.63"/>
<circle cx="663.2" cy="31.6" r="25.3" fill="#adee2b" opacity="0.16"/>
<rect x="701.1" y="6.3" width="50.5" height="50.5" fill="#adee2b" opacity="0.60"/>
<rect x="764.2" y="6.3" width="50.5" height="50.5" fill="#adee2b" opacity="0.41"/>
<rect x="953.7" y="6.3" width="50.5" height="50.5" fill="#adee2b" opacity="0.43"/>
<rect x="1016.8" y="6.3" width="50.5" height="50.5" fill="#adee2b" opacity="0.27"/>
<rect x="1080.0" y="6.3" width="50.5" height="50.5" fill="#adee2b" opacity="0.33"/>
<rect x="1143.2" y="6.3" width="50.5" height="50.5" fill="#adee2b" opacity="0.21"/>
<rect x="195.8" y="69.5" width="50.5" height="50.5" fill="#adee2b" opacity="0.48"/>
<rect x="322.1" y="69.5" width="50.5" height="50.5" fill="#adee2b" opacity="0.17"/>
<circle cx="536.8" cy="94.7" r="25.3" fill="#adee2b" opacity="0.77"/>
<rect x="637.9" y="69.5" width="50.5" height="50.5" fill="#adee2b" opacity="0.47"/>
<rect x="827.4" y="69.5" width="50.5" height="50.5" fill="#adee2b" opacity="0.17"/>
<rect x="953.7" y="69.5" width="50.5" height="50.5" fill="#adee2b" opacity="0.75"/>
<rect x="1080.0" y="69.5" width="50.5" height="50.5" fill="#adee2b" opacity="0.80"/>
<rect x="69.5" y="132.6" width="50.5" height="50.5" fill="#adee2b" opacity="0.36"/>
<rect x="195.8" y="132.6" width="50.5" height="50.5" fill="#adee2b" opacity="0.55"/>
<rect x="322.1" y="132.6" width="50.5" height="50.5" fill="#adee2b" opacity="0.21"/>
<rect x="448.4" y="132.6" width="50.5" height="50.5" fill="#adee2b" opacity="0.46"/>
<rect x="637.9" y="132.6" width="50.5" height="50.5" fill="#adee2b" opacity="0.58"/>
<rect x="764.2" y="132.6" width="50.5" height="50.5" fill="#adee2b" opacity="0.43"/>
<circle cx="852.6" cy="157.9" r="25.3" fill="#adee2b" opacity="0.18"/>
<rect x="1080.0" y="132.6" width="50.5" height="50.5" fill="#adee2b" opacity="0.64"/>
<rect x="1143.2" y="132.6" width="50.5" height="50.5" fill="#adee2b" opacity="0.60"/>
<circle cx="31.6" cy="221.1" r="25.3" fill="#adee2b" opacity="0.39"/>
<circle cx="410.5" cy="221.1" r="25.3" fill="#adee2b" opacity="0.33"/>
<rect x="448.4" y="195.8" width="50.5" height="50.5" fill="#adee2b" opacity="0.66"/>
<rect x="511.6" y="195.8" width="50.5" height="50.5" fill="#adee2b" opacity="0.79"/>
<rect x="764.2" y="195.8" width="50.5" height="50.5" fill="#adee2b" opacity="0.51"/>
<rect x="827.4" y="195.8" width="50.5" height="50.5" fill="#adee2b" opacity="0.39"/>
<rect x="1080.0" y="195.8" width="50.5" height="50.5" fill="#adee2b" opacity="0.62"/>
<rect x="1143.2" y="195.8" width="50.5" height="50.5" fill="#adee2b" opacity="0.20"/>
<circle cx="157.9" cy="284.2" r="25.3" fill="#adee2b" opacity="0.51"/>
<rect x="195.8" y="258.9" width="50.5" height="50.5" fill="#adee2b" opacity="0.57"/>
<circle cx="473.7" cy="284.2" r="25.3" fill="#adee2b" opacity="0.24"/>
<rect x="637.9" y="258.9" width="50.5" height="50.5" fill="#adee2b" opacity="0.72"/>
<rect x="701.1" y="258.9" width="50.5" height="50.5" fill="#adee2b" opacity="0.24"/>
<rect x="827.4" y="258.9" width="50.5" height="50.5" fill="#adee2b" opacity="0.71"/>
<rect x="1016.8" y="258.9" width="50.5" height="50.5" fill="#adee2b" opacity="0.67"/>
<rect x="1080.0" y="258.9" width="50.5" height="50.5" fill="#adee2b" opacity="0.70"/>
<rect x="1143.2" y="258.9" width="50.5" height="50.5" fill="#adee2b" opacity="0.76"/>
<circle cx="284.2" cy="347.4" r="25.3" fill="#adee2b" opacity="0.19"/>
<rect x="385.3" y="322.1" width="50.5" height="50.5" fill="#adee2b" opacity="0.33"/>
<circle cx="600.0" cy="347.4" r="25.3" fill="#adee2b" opacity="0.28"/>
<rect x="827.4" y="322.1" width="50.5" height="50.5" fill="#adee2b" opacity="0.45"/>
<rect x="953.7" y="322.1" width="50.5" height="50.5" fill="#adee2b" opacity="0.46"/>
<rect x="1080.0" y="322.1" width="50.5" height="50.5" fill="#adee2b" opacity="0.58"/>
<rect x="1143.2" y="322.1" width="50.5" height="50.5" fill="#adee2b" opacity="0.70"/>
<rect x="6.3" y="385.3" width="50.5" height="50.5" fill="#adee2b" opacity="0.31"/>
<circle cx="157.9" cy="410.5" r="25.3" fill="#adee2b" opacity="0.71"/>
<rect x="322.1" y="385.3" width="50.5" height="50.5" fill="#adee2b" opacity="0.62"/>
<rect x="385.3" y="385.3" width="50.5" height="50.5" fill="#adee2b" opacity="0.42"/>
<rect x="448.4" y="385.3" width="50.5" height="50.5" fill="#adee2b" opacity="0.56"/>
<rect x="511.6" y="385.3" width="50.5" height="50.5" fill="#adee2b" opacity="0.70"/>
<rect x="574.7" y="385.3" width="50.5" height="50.5" fill="#adee2b" opacity="0.49"/>
<rect x="827.4" y="385.3" width="50.5" height="50.5" fill="#adee2b" opacity="0.58"/>
<rect x="1080.0" y="385.3" width="50.5" height="50.5" fill="#adee2b" opacity="0.62"/>
<circle cx="1168.4" cy="410.5" r="25.3" fill="#adee2b" opacity="0.23"/>
<rect x="132.6" y="448.4" width="50.5" height="50.5" fill="#adee2b" opacity="0.42"/>
<rect x="322.1" y="448.4" width="50.5" height="50.5" fill="#adee2b" opacity="0.78"/>
<rect x="448.4" y="448.4" width="50.5" height="50.5" fill="#adee2b" opacity="0.64"/>
<rect x="511.6" y="448.4" width="50.5" height="50.5" fill="#adee2b" opacity="0.54"/>
<rect x="890.5" y="448.4" width="50.5" height="50.5" fill="#adee2b" opacity="0.71"/>
<circle cx="1105.3" cy="473.7" r="25.3" fill="#adee2b" opacity="0.29"/>
<rect x="1143.2" y="448.4" width="50.5" height="50.5" fill="#adee2b" opacity="0.30"/>
<circle cx="94.7" cy="536.8" r="25.3" fill="#adee2b" opacity="0.22"/>
<rect x="195.8" y="511.6" width="50.5" height="50.5" fill="#adee2b" opacity="0.68"/>
<rect x="258.9" y="511.6" width="50.5" height="50.5" fill="#adee2b" opacity="0.53"/>
<rect x="385.3" y="511.6" width="50.5" height="50.5" fill="#adee2b" opacity="0.44"/>
<circle cx="473.7" cy="536.8" r="25.3" fill="#adee2b" opacity="0.47"/>
<rect x="511.6" y="511.6" width="50.5" height="50.5" fill="#adee2b" opacity="0.19"/>
<rect x="574.7" y="511.6" width="50.5" height="50.5" fill="#adee2b" opacity="0.36"/>
<rect x="701.1" y="511.6" width="50.5" height="50.5" fill="#adee2b" opacity="0.77"/>
<rect x="827.4" y="511.6" width="50.5" height="50.5" fill="#adee2b" opacity="0.52"/>
<rect x="890.5" y="511.6" width="50.5" height="50.5" fill="#adee2b" opacity="0.71"/>
<rect x="69.5" y="574.7" width="50.5" height="50.5" fill="#adee2b" opacity="0.38"/>
<circle cx="157.9" cy="600.0" r="25.3" fill="#adee2b" opacity="0.39"/>
<rect x="448.4" y="574.7" width="50.5" height="50.5" fill="#adee2b" opacity="0.25"/>
<rect x="574.7" y="574.7" width="50.5" height="50.5" fill="#adee2b" opacity="0.69"/>
<rect x="701.1" y="574.7" width="50.5" height="50.5" fill="#adee2b" opacity="0.63"/>
<rect x="764.2" y="574.7" width="50.5" height="50.5" fill="#adee2b" opacity="0.63"/>
<rect x="827.4" y="574.7" width="50.5" height="50.5" fill="#adee2b" opacity="0.43"/>
<circle cx="915.8" cy="600.0" r="25.3" fill="#adee2b" opacity="0.35"/>
<rect x="1080.0" y="574.7" width="50.5" height="50.5" fill="#adee2b" opacity="0.29"/>
<circle cx="1168.4" cy="600.0" r="25.3" fill="#adee2b" opacity="0.55"/>
<rect x="69.5" y="637.9" width="50.5" height="50.5" fill="#adee2b" opacity="0.19"/>
<rect x="258.9" y="637.9" width="50.5" height="50.5" fill="#adee2b" opacity="0.33"/>
<rect x="322.1" y="637.9" width="50.5" height="50.5" fill="#adee2b" opacity="0.72"/>
<rect x="448.4" y="637.9" width="50.5" height="50.5" fill="#adee2b" opacity="0.34"/>
<rect x="511.6" y="637.9" width="50.5" height="50.5" fill="#adee2b" opacity="0.35"/>
<circle cx="663.2" cy="663.2" r="25.3" fill="#adee2b" opacity="0.74"/>
<circle cx="789.5" cy="663.2" r="25.3" fill="#adee2b" opacity="0.73"/>
<rect x="827.4" y="637.9" width="50.5" height="50.5" fill="#adee2b" opacity="0.79"/>
<rect x="1080.0" y="637.9" width="50.5" height="50.5" fill="#adee2b" opacity="0.20"/>
<rect x="1143.2" y="637.9" width="50.5" height="50.5" fill="#adee2b" opacity="0.27"/>
<rect x="6.3" y="701.1" width="50.5" height="50.5" fill="#adee2b" opacity="0.28"/>
<rect x="69.5" y="701.1" width="50.5" height="50.5" fill="#adee2b" opacity="0.38"/>
<circle cx="157.9" cy="726.3" r="25.3" fill="#adee2b" opacity="0.27"/>
<circle cx="284.2" cy="726.3" r="25.3" fill="#adee2b" opacity="0.63"/>
<rect x="385.3" y="701.1" width="50.5" height="50.5" fill="#adee2b" opacity="0.54"/>
<rect x="448.4" y="701.1" width="50.5" height="50.5" fill="#adee2b" opacity="0.24"/>
<rect x="701.1" y="701.1" width="50.5" height="50.5" fill="#adee2b" opacity="0.66"/>
<rect x="953.7" y="701.1" width="50.5" height="50.5" fill="#adee2b" opacity="0.76"/>
<rect x="1080.0" y="701.1" width="50.5" height="50.5" fill="#adee2b" opacity="0.38"/>
<rect x="1143.2" y="701.1" width="50.5" height="50.5" fill="#adee2b" opacity="0.59"/>
<rect x="6.3" y="764.2" width="50.5" height="50.5" fill="#adee2b" opacity="0.26"/>
<rect x="195.8" y="764.2" width="50.5" height="50.5" fill="#adee2b" opacity="0.64"/>
<circle cx="347.4" cy="789.5" r="25.3" fill="#adee2b" opacity="0.47"/>
<rect x="637.9" y="764.2" width="50.5" height="50.5" fill="#adee2b" opacity="0.63"/>
<rect x="827.4" y="764.2" width="50.5" height="50.5" fill="#adee2b" opacity="0.24"/>
<rect x="890.5" y="764.2" width="50.5" height="50.5" fill="#adee2b" opacity="0.66"/>
<circle cx="1042.1" cy="789.5" r="25.3" fill="#adee2b" opacity="0.44"/>
<circle cx="1105.3" cy="789.5" r="25.3" fill="#adee2b" opacity="0.44"/>
<circle cx="1168.4" cy="789.5" r="25.3" fill="#adee2b" opacity="0.52"/>
<rect x="448.4" y="827.4" width="50.5" height="50.5" fill="#adee2b" opacity="0.30"/>
<rect x="574.7" y="827.4" width="50.5" height="50.5" fill="#adee2b" opacity="0.25"/>
<rect x="701.1" y="827.4" width="50.5" height="50.5" fill="#adee2b" opacity="0.49"/>
<rect x="764.2" y="827.4" width="50.5" height="50.5" fill="#adee2b" opacity="0.44"/>
<rect x="890.5" y="827.4" width="50.5" height="50.5" fill="#adee2b" opacity="0.33"/>
<rect x="953.7" y="827.4" width="50.5" height="50.5" fill="#adee2b" opacity="0.76"/>
<rect x="1143.2" y="827.4" width="50.5" height="50.5" fill="#adee2b" opacity="0.68"/>
<circle cx="157.9" cy="915.8" r="25.3" fill="#adee2b" opacity="0.29"/>
<rect x="195.8" y="890.5" width="50.5" height="50.5" fill="#adee2b" opacity="0.16"/>
<circle cx="347.4" cy="915.8" r="25.3" fill="#adee2b" opacity="0.67"/>
<rect x="385.3" y="890.5" width="50.5" height="50.5" fill="#adee2b" opacity="0.57"/>
<rect x="511.6" y="890.5" width="50.5" height="50.5" fill="#adee2b" opacity="0.71"/>
<circle cx="663.2" cy="915.8" r="25.3" fill="#adee2b" opacity="0.16"/>
<rect x="701.1" y="890.5" width="50.5" height="50.5" fill="#adee2b" opacity="0.67"/>
<rect x="1016.8" y="890.5" width="50.5" height="50.5" fill="#adee2b" opacity="0.55"/>
<rect x="1143.2" y="890.5" width="50.5" height="50.5" fill="#adee2b" opacity="0.76"/>
<rect x="69.5" y="953.7" width="50.5" height="50.5" fill="#adee2b" opacity="0.26"/>
<rect x="258.9" y="953.7" width="50.5" height="50.5" fill="#adee2b" opacity="0.57"/>
<rect x="385.3" y="953.7" width="50.5" height="50.5" fill="#adee2b" opacity="0.65"/>
<rect x="637.9" y="953.7" width="50.5" height="50.5" fill="#adee2b" opacity="0.64"/>
<rect x="701.1" y="953.7" width="50.5" height="50.5" fill="#adee2b" opacity="0.54"/>
<rect x="764.2" y="953.7" width="50.5" height="50.5" fill="#adee2b" opacity="0.16"/>
<rect x="890.5" y="953.7" width="50.5" height="50.5" fill="#adee2b" opacity="0.18"/>
<rect x="1016.8" y="953.7" width="50.5" height="50.5" fill="#adee2b" opacity="0.39"/>
<rect x="132.6" y="1016.8" width="50.5" height="50.5" fill="#adee2b" opacity="0.67"/>
<rect x="385.3" y="1016.8" width="50.5" height="50.5" fill="#adee2b" opacity="0.64"/>
<rect x="701.1" y="1016.8" width="50.5" height="50.5" fill="#adee2b" opacity="0.63"/>
<rect x="1016.8" y="1016.8" width="50.5" height="50.5" fill="#adee2b" opacity="0.46"/>
<rect x="1080.0" y="1016.8" width="50.5" height="50.5" fill="#adee2b" opacity="0.25"/>
<rect x="1143.2" y="1016.8" width="50.5" height="50.5" fill="#adee2b" opacity="0.19"/>
<rect x="6.3" y="1080.0" width="50.5" height="50.5" fill="#adee2b" opacity="0.51"/>
<circle cx="94.7" cy="1105.3" r="25.3" fill="#adee2b" opacity="0.28"/>
<rect x="132.6" y="1080.0" width="50.5" height="50.5" fill="#adee2b" opacity="0.58"/>
<circle cx="221.1" cy="1105.3" r="25.3" fill="#adee2b" opacity="0.53"/>
<circle cx="347.4" cy="1105.3" r="25.3" fill="#adee2b" opacity="0.77"/>
<rect x="511.6" y="1080.0" width="50.5" height="50.5" fill="#adee2b" opacity="0.46"/>
<circle cx="600.0" cy="1105.3" r="25.3" fill="#adee2b" opacity="0.62"/>
<rect x="637.9" y="1080.0" width="50.5" height="50.5" fill="#adee2b" opacity="0.68"/>
<rect x="953.7" y="1080.0" width="50.5" height="50.5" fill="#adee2b" opacity="0.19"/>
<circle cx="1168.4" cy="1105.3" r="25.3" fill="#adee2b" opacity="0.62"/>
<rect x="6.3" y="1143.2" width="50.5" height="50.5" fill="#adee2b" opacity="0.25"/>
<rect x="69.5" y="1143.2" width="50.5" height="50.5" fill="#adee2b" opacity="0.18"/>
<rect x="258.9" y="1143.2" width="50.5" height="50.5" fill="#adee2b" opacity="0.78"/>
<circle cx="410.5" cy="1168.4" r="25.3" fill="#adee2b" opacity="0.24"/>
<rect x="448.4" y="1143.2" width="50.5" height="50.5" fill="#adee2b" opacity="0.64"/>
<rect x="511.6" y="1143.2" width="50.5" height="50.5" fill="#adee2b" opacity="0.36"/>
<circle cx="726.3" cy="1168.4" r="25.3" fill="#adee2b" opacity="0.28"/>
<rect x="764.2" y="1143.2" width="50.5" height="50.5" fill="#adee2b" opacity="0.22"/>
<circle cx="915.8" cy="1168.4" r="25.3" fill="#adee2b" opacity="0.74"/>
<rect x="953.7" y="1143.2" width="50.5" height="50.5" fill="#adee2b" opacity="0.20"/>
<rect x="1016.8" y="1143.2" width="50.5" height="50.5" fill="#adee2b" opacity="0.30"/>
<line x1="591.7" y1="424.2" x2="147.8" y2="347.6" stroke="#1fad1f" stroke-width="1.5" opacity="0.15"/>
<line x1="776.5" y1="546.0" x2="1117.1" y2="984.7" stroke="#1fad1f" stroke-width="1.5" opacity="0.15"/>
<line x1="430.9" y1="325.8" x2="-34.2" y2="-108.9" stroke="#1fad1f" stroke-width="1.5" opacity="0.15"/>
<line x1="1039.8" y1="1198.0" x2="1178.3" y2="1503.8" stroke="#1fad1f" stroke-width="1.5" opacity="0.15"/>

  </g>

  <!-- Vignette -->
  <defs>
    <radialGradient id="vignette-mk-gee" cx="50%" cy="50%" r="70%">
      <stop offset="0%" stop-color="transparent"/>
      <stop offset="100%" stop-color="rgba(10,10,10,0.7)"/>
    </radialGradient>
  </defs>
  <rect width="1200" height="1200" fill="url(#vignette-mk-gee)"/>

  <!-- Card number watermark -->
  <text x="40" y="1170" font-family="monospace" font-size="48" fill="rgba(255,255,255,0.06)">001</text>
</svg>