<svg xmlns="http://www.w3.org/2000/svg" viewBox="0 0 1200 1200" width="1200" height="1200">
  <rect width="1200" height="1200" fill="#0a0a0a"/>

  <!-- Generative Art -->
  <g>
    <path d="M 0.0 625.7 L 4.0 628.8 L 8.0 632.6 L 12.0 636.9 L 16.0 641.8 L 20.0 647.3 L 24.0 653.4 L 28.0 660.0 L 32.0 667.1 L 36.0 674.6 L 40.0 682.5 L 44.0 690.8 L 48.0 699.4 L 52.0 708.1 L 56.0 716.9 L 60.0 725.8 L 64.0 734.6 L 68.0 743.3 L 72.0 751.7 L 76.0 759.8 L 80.0 767.6 L 84.0 774.8 L 88.0 781.6 L 92.0 787.7 L 96.0 793.2 L 100.0 797.9 L 104.0 801.9 L 108.0 805.2 L 112.0 807.6 L 116.0 809.2 L 120.0 810.1 L 124.0 810.1 L 128.0 809.4 L 132.0 807.9 L 136.0 805.8 L 140.0 803.0 L 144.0 799.7 L 148.0 795.8 L 152.0 791.4 L 156.0 786.7 L 160.0 781.6 L 164.0 776.4 L 168.0 770.9 L 172.0 765.4 L 176.0 759.9 L 180.0 754.4 L 184.0 749.0 L 188.0 743.8 L 192.0 738.9 L 196.0 734.2 L 200.0 729.7 L 204.0 725.7 L 208.0 721.9 L 212.0 718.5 L 216.0 715.5 L 220.0 712.8 L 224.0 710.4 L 228.0 708.2 L 232.0 706.4 L 236.0 704.7 L 240.0 703.3 L 244.0 701.9 L 248.0 700.6 L 252.0 699.3 L 256.0 698.0 L 260.0 696.5 L 264.0 694.9 L 268.0 693.1 L 272.0 691.0 L 276.0 688.6 L 280.0 685.9 L 284.0 682.8 L 288.0 679.2 L 292.0 675.3 L 296.0 671.0 L 300.0 666.3 L 304.0 661.1 L 308.0 655.6 L 312.0 649.8 L 316.0 643.7 L 320.0 637.3 L 324.0 630.7 L 328.0 624.0 L 332.0 617.2 L 336.0 610.4 L 340.0 603.7 L 344.0 597.2 L 348.0 590.9 L 352.0 585.0 L 356.0 579.4 L 360.0 574.3 L 364.0 569.8 L 368.0 565.9 L 372.0 562.6 L 376.0 560.1 L 380.0 558.3 L 384.0 557.3 L 388.0 557.1 L 392.0 557.7 L 396.0 559.2 L 400.0 561.4 L 404.0 564.5 L 408.0 568.3 L 412.0 572.9 L 416.0 578.1 L 420.0 584.0 L 424.0 590.4 L 428.0 597.3 L 432.0 604.6 L 436.0 612.3 L 440.0 620.1 L 444.0 628.2 L 448.0 636.4 L 452.0 644.5 L 456.0 652.6 L 460.0 660.5 L 464.0 668.2 L 468.0 675.6 L 472.0 682.7 L 476.0 689.3 L 480.0 695.5 L 484.0 701.3 L 488.0 706.5 L 492.0 711.3 L 496.0 715.5 L 500.0 719.2 L 504.0 722.4 L 508.0 725.2 L 512.0 727.5 L 516.0 729.4 L 520.0 730.9 L 524.0 732.2 L 528.0 733.2 L 532.0 734.0 L 536.0 734.6 L 540.0 735.2 L 544.0 735.7 L 548.0 736.3 L 552.0 736.9 L 556.0 737.7 L 560.0 738.7 L 564.0 739.9 L 568.0 741.3 L 572.0 743.0 L 576.0 745.0 L 580.0 747.2 L 584.0 749.7 L 588.0 752.5 L 592.0 755.6 L 596.0 758.8 L 600.0 762.3 L 604.0 765.8 L 608.0 769.4 L 612.0 773.1 L 616.0 776.7 L 620.0 780.2 L 624.0 783.5 L 628.0 786.5 L 632.0 789.2 L 636.0 791.6 L 640.0 793.5 L 644.0 794.9 L 648.0 795.7 L 652.0 795.9 L 656.0 795.4 L 660.0 794.2 L 664.0 792.3 L 668.0 789.7 L 672.0 786.3 L 676.0 782.1 L 680.0 777.3 L 684.0 771.7 L 688.0 765.5 L 692.0 758.7 L 696.0 751.3 L 700.0 743.3 L 704.0 735.0 L 708.0 726.2 L 712.0 717.2 L 716.0 708.0 L 720.0 698.7 L 724.0 689.3 L 728.0 680.0 L 732.0 670.8 L 736.0 661.9 L 740.0 653.2 L 744.0 645.0 L 748.0 637.2 L 752.0 629.9 L 756.0 623.2 L 760.0 617.1 L 764.0 611.6 L 768.0 606.8 L 772.0 602.7 L 776.0 599.2 L 780.0 596.5 L 784.0 594.4 L 788.0 592.9 L 792.0 592.1 L 796.0 591.8 L 800.0 592.1 L 804.0 592.8 L 808.0 593.9 L 812.0 595.4 L 816.0 597.1 L 820.0 599.1 L 824.0 601.2 L 828.0 603.4 L 832.0 605.6 L 836.0 607.8 L 840.0 609.9 L 844.0 611.9 L 848.0 613.7 L 852.0 615.3 L 856.0 616.6 L 860.0 617.8 L 864.0 618.6 L 868.0 619.2 L 872.0 619.5 L 876.0 619.7 L 880.0 619.6 L 884.0 619.4 L 888.0 619.0 L 892.0 618.6 L 896.0 618.1 L 900.0 617.7 L 904.0 617.3 L 908.0 617.1 L 912.0 617.2 L 916.0 617.5 L 920.0 618.1 L 924.0 619.1 L 928.0 620.6 L 932.0 622.5 L 936.0 625.0 L 940.0 628.0 L 944.0 631.6 L 948.0 635.8 L 952.0 640.6 L 956.0 645.9 L 960.0 651.9 L 964.0 658.3 L 968.0 665.3 L 972.0 672.7 L 976.0 680.6 L 980.0 688.8 L 984.0 697.3 L 988.0 706.0 L 992.0 714.8 L 996.0 723.7 L 1000.0 732.5 L 1004.0 741.2 L 1008.0 749.7 L 1012.0 757.9 L 1016.0 765.8 L 1020.0 773.1 L 1024.0 780.0 L 1028.0 786.3 L 1032.0 791.9 L 1036.0 796.8 L 1040.0 801.0 L 1044.0 804.4 L 1048.0 807.1 L 1052.0 808.9 L 1056.0 809.9 L 1060.0 810.2 L 1064.0 809.6 L 1068.0 808.4 L 1072.0 806.4 L 1076.0 803.8 L 1080.0 800.5 L 1084.0 796.7 L 1088.0 792.5 L 1092.0 787.9 L 1096.0 782.9 L 1100.0 777.7 L 1104.0 772.3 L 1108.0 766.7 L 1112.0 761.2 L 1116.0 755.7 L 1120.0 750.3 L 1124.0 745.1 L 1128.0 740.0 L 1132.0 735.3 L 1136.0 730.8 L 1140.0 726.6 L 1144.0 722.8 L 1148.0 719.3 L 1152.0 716.2 L 1156.0 713.4 L 1160.0 710.9 L 1164.0 708.7 L 1168.0 706.8 L 1172.0 705.1 L 1176.0 703.6 L 1180.0 702.2 L 1184.0 700.9 L 1188.0 699.6 L 1192.0 698.3 L 1196.0 696.9 L 1200.0 695.3" stroke="#ee2be1" stroke-width="14.2" fill="none" opacity="0.10" stroke-linecap="round"/>
<path d="M 0.0 625.7 L 4.0 628.8 L 8.0 632.6 L 12.0 636.9 L 16.0 641.8 L 20.0 647.3 L 24.0 653.4 L 28.0 660.0 L 32.0 667.1 L 36.0 674.6 L 40.0 682.5 L 44.0 690.8 L 48.0 699.4 L 52.0 708.1 L 56.0 716.9 L 60.0 725.8 L 64.0 734.6 L 68.0 743.3 L 72.0 751.7 L 76.0 759.8 L 80.0 767.6 L 84.0 774.8 L 88.0 781.6 L 92.0 787.7 L 96.0 793.2 L 100.0 797.9 L 104.0 801.9 L 108.0 805.2 L 112.0 807.6 L 116.0 809.2 L 120.0 810.1 L 124.0 810.1 L 128.0 809.4 L 132.0 807.9 L 136.0 805.8 L 140.0 803.0 L 144.0 799.7 L 148.0 795.8 L 152.0 791.4 L 156.0 786.7 L 160.0 781.6 L 164.0 776.4 L 168.0 770.9 L 172.0 765.4 L 176.0 759.9 L 180.0 754.4 L 184.0 749.0 L 188.0 743.8 L 192.0 738.9 L 196.0 734.2 L 200.0 729.7 L 204.0 725.7 L 208.0 721.9 L 212.0 718.5 L 216.0 715.5 L 220.0 712.8 L 224.0 710.4 L 228.0 708.2 L 232.0 706.4 L 236.0 704.7 L 240.0 703.3 L 244.0 701.9 L 248.0 700.6 L 252.0 699.3 L 256.0 698.0 L 260.0 696.5 L 264.0 694.9 L 268.0 693.1 L 272.0 691.0 L 276.0 688.6 L 280.0 685.9 L 284.0 682.8 L 288.0 679.2 L 292.0 675.3 L 296.0 671.0 L 300.0 666.3 L 304.0 661.1 L 308.0 655.6 L 312.0 649.8 L 316.0 643.7 L 320.0 637.3 L 324.0 630.7 L 328.0 624.0 L 332.0 617.2 L 336.0 610.4 L 340.0 603.7 L 344.0 597.2 L 348.0 590.9 L 352.0 585.0 L 356.0 579.4 L 360.0 574.3 L 364.0 569.8 L 368.0 565.9 L 372.0 562.6 L 376.0 560.1 L 380.0 558.3 L 384.0 557.3 L 388.0 557.1 L 392.0 557.7 L 396.0 559.2 L 400.0 561.4 L 404.0 564.5 L 408.0 568.3 L 412.0 572.9 L 416.0 578.1 L 420.0 584.0 L 424.0 590.4 L 428.0 597.3 L 432.0 604.6 L 436.0 612.3 L 440.0 620.1 L 444.0 628.2 L 448.0 636.4 L 452.0 644.5 L 456.0 652.6 L 460.0 660.5 L 464.0 668.2 L 468.0 675.6 L 472.0 682.7 L 476.0 689.3 L 480.0 695.5 L 484.0 701.3 L 488.0 706.5 L 492.0 711.3 L 496.0 715.5 L 500.0 719.2 L 504.0 722.4 L 508.0 725.2 L 512.0 727.5 L 516.0 729.4 L 520.0 730.9 L 524.0 732.2 L 528.0 733.2 L 532.0 734.0 L 536.0 734.6 L 540.0 735.2 L 544.0 735.7 L 548.0 736.3 L 552.0 736.9 L 556.0 737.7 L 560.0 738.7 L 564.0 739.9 L 568.0 741.3 L 572.0 743.0 L 576.0 745.0 L 580.0 747.2 L 584.0 749.7 L 588.0 752.5 L 592.0 755.6 L 596.0 758.8 L 600.0 762.3 L 604.0 765.8 L 608.0 769.4 L 612.0 773.1 L 616.0 776.7 L 620.0 780.2 L 624.0 783.5 L 628.0 786.5 L 632.0 789.2 L 636.0 791.6 L 640.0 793.5 L 644.0 794.9 L 648.0 795.7 L 652.0 795.9 L 656.0 795.4 L 660.0 794.2 L 664.0 792.3 L 668.0 789.7 L 672.0 786.3 L 676.0 782.1 L 680.0 777.3 L 684.0 771.7 L 688.0 765.5 L 692.0 758.7 L 696.0 751.3 L 700.0 743.3 L 704.0 735.0 L 708.0 726.2 L 712.0 717.2 L 716.0 708.0 L 720.0 698.7 L 724.0 689.3 L 728.0 680.0 L 732.0 670.8 L 736.0 661.9 L 740.0 653.2 L 744.0 645.0 L 748.0 637.2 L 752.0 629.9 L 756.0 623.2 L 760.0 617.1 L 764.0 611.6 L 768.0 606.8 L 772.0 602.7 L 776.0 599.2 L 780.0 596.5 L 784.0 594.4 L 788.0 592.9 L 792.0 592.1 L 796.0 591.8 L 800.0 592.1 L 804.0 592.8 L 808.0 593.9 L 812.0 595.4 L 816.0 597.1 L 820.0 599.1 L 824.0 601.2 L 828.0 603.4 L 832.0 605.6 L 836.0 607.8 L 840.0 609.9 L 844.0 611.9 L 848.0 613.7 L 852.0 615.3 L 856.0 616.6 L 860.0 617.8 L 864.0 618.6 L 868.0 619.2 L 872.0 619.5 L 876.0 619.7 L 880.0 619.6 L 884.0 619.4 L 888.0 619.0 L 892.0 618.6 L 896.0 618.1 L 900.0 617.7 L 904.0 617.3 L 908.0 617.1 L 912.0 617.2 L 916.0 617.5 L 920.0 618.1 L 924.0 619.1 L 928.0 620.6 L 932.0 622.5 L 936.0 625.0 L 940.0 628.0 L 944.0 631.6 L 948.0 635.8 L 952.0 640.6 L 956.0 645.9 L 960.0 651.9 L 964.0 658.3 L 968.0 665.3 L 972.0 672.7 L 976.0 680.6 L 980.0 688.8 L 984.0 697.3 L 988.0 706.0 L 992.0 714.8 L 996.0 723.7 L 1000.0 732.5 L 1004.0 741.2 L 1008.0 749.7 L 1012.0 757.9 L 1016.0 765.8 L 1020.0 773.1 L 1024.0 780.0 L 1028.0 786.3 L 1032.0 791.9 L 1036.0 796.8 L 1040.0 801.0 L 1044.0 804.4 L 1048.0 807.1 L 1052.0 808.9 L 1056.0 809.9 L 1060.0 810.2 L 1064.0 809.6 L 1068.0 808.4 L 1072.0 806.4 L 1076.0 803.8 L 1080.0 800.5 L 1084.0 796.7 L 1088.0 792.5 L 1092.0 787.9 L 1096.0 782.9 L 1100.0 777.7 L 1104.0 772.3 L 1108.0 766.7 L 1112.0 761.2 L 1116.0 755.7 L 1120.0 750.3 L 1124.0 745.1 L 1128.0 740.0 L 1132.0 735.3 L 1136.0 730.8 L 1140.0 726.6 L 1144.0 722.8 L 1148.0 719.3 L 1152.0 716.2 L 1156.0 713.4 L 1160.0 710.9 L 1164.0 708.7 L 1168.0 706.8 L 1172.0 705.1 L 1176.0 703.6 L 1180.0 702.2 L 1184.0 700.9 L 1188.0 699.6 L 1192.0 698.3 L 1196.0 696.9 L 1200.0 695.3" stroke="#ee2be1" stroke-width="5.7" fill="none" opacity="0.66" stroke-linecap="round"/>
<path d="M 0.0 1023.2 L 4.0 1027.4 L 8.0 1030.7 L 12.0 1033.0 L 16.0 1034.3 L 20.0 1034.6 L 24.0 1033.9 L 28.0 1032.2 L 32.0 1029.4 L 36.0 1025.8 L 40.0 1021.2 L 44.0 1015.8 L 48.0 1009.7 L 52.0 1002.8 L 56.0 995.3 L 60.0 987.2 L 64.0 978.8 L 68.0 970.0 L 72.0 961.0 L 76.0 951.8 L 80.0 942.7 L 84.0 933.5 L 88.0 924.6 L 92.0 915.8 L 96.0 907.4 L 100.0 899.4 L 104.0 891.8 L 108.0 884.7 L 112.0 878.1 L 116.0 872.1 L 120.0 866.6 L 124.0 861.8 L 128.0 857.4 L 132.0 853.6 L 136.0 850.3 L 140.0 847.5 L 144.0 845.1 L 148.0 843.1 L 152.0 841.3 L 156.0 839.8 L 160.0 838.5 L 164.0 837.2 L 168.0 836.0 L 172.0 834.7 L 176.0 833.3 L 180.0 831.8 L 184.0 830.0 L 188.0 827.9 L 192.0 825.6 L 196.0 822.8 L 200.0 819.7 L 204.0 816.3 L 208.0 812.4 L 212.0 808.2 L 216.0 803.6 L 220.0 798.7 L 224.0 793.6 L 228.0 788.2 L 232.0 782.7 L 236.0 777.2 L 240.0 771.6 L 244.0 766.1 L 248.0 760.8 L 252.0 755.7 L 256.0 751.0 L 260.0 746.7 L 264.0 743.0 L 268.0 739.8 L 272.0 737.3 L 276.0 735.6 L 280.0 734.7 L 284.0 734.6 L 288.0 735.5 L 292.0 737.3 L 296.0 740.0 L 300.0 743.6 L 304.0 748.3 L 308.0 753.8 L 312.0 760.2 L 316.0 767.5 L 320.0 775.5 L 324.0 784.3 L 328.0 793.7 L 332.0 803.6 L 336.0 814.0 L 340.0 824.8 L 344.0 835.8 L 348.0 846.9 L 352.0 858.1 L 356.0 869.3 L 360.0 880.2 L 364.0 890.9 L 368.0 901.2 L 372.0 911.1 L 376.0 920.4 L 380.0 929.1 L 384.0 937.2 L 388.0 944.6 L 392.0 951.2 L 396.0 957.0 L 400.0 962.1 L 404.0 966.3 L 408.0 969.8 L 412.0 972.6 L 416.0 974.6 L 420.0 976.0 L 424.0 976.8 L 428.0 977.0 L 432.0 976.7 L 436.0 976.0 L 440.0 974.9 L 444.0 973.6 L 448.0 972.2 L 452.0 970.6 L 456.0 969.0 L 460.0 967.4 L 464.0 965.9 L 468.0 964.6 L 472.0 963.5 L 476.0 962.7 L 480.0 962.1 L 484.0 961.8 L 488.0 961.8 L 492.0 962.2 L 496.0 962.8 L 500.0 963.7 L 504.0 964.8 L 508.0 966.1 L 512.0 967.6 L 516.0 969.2 L 520.0 970.7 L 524.0 972.2 L 528.0 973.6 L 532.0 974.7 L 536.0 975.6 L 540.0 976.1 L 544.0 976.2 L 548.0 975.7 L 552.0 974.7 L 556.0 973.1 L 560.0 970.7 L 564.0 967.6 L 568.0 963.8 L 572.0 959.2 L 576.0 953.9 L 580.0 947.7 L 584.0 940.8 L 588.0 933.1 L 592.0 924.8 L 596.0 915.8 L 600.0 906.3 L 604.0 896.2 L 608.0 885.8 L 612.0 875.0 L 616.0 863.9 L 620.0 852.8 L 624.0 841.6 L 628.0 830.5 L 632.0 819.6 L 636.0 809.0 L 640.0 798.8 L 644.0 789.1 L 648.0 779.9 L 652.0 771.5 L 656.0 763.8 L 660.0 756.9 L 664.0 750.8 L 668.0 745.7 L 672.0 741.5 L 676.0 738.2 L 680.0 735.9 L 684.0 734.6 L 688.0 734.1 L 692.0 734.6 L 696.0 735.9 L 700.0 737.9 L 704.0 740.7 L 708.0 744.2 L 712.0 748.2 L 716.0 752.7 L 720.0 757.7 L 724.0 762.9 L 728.0 768.3 L 732.0 773.9 L 736.0 779.6 L 740.0 785.2 L 744.0 790.7 L 748.0 796.0 L 752.0 801.1 L 756.0 805.9 L 760.0 810.4 L 764.0 814.5 L 768.0 818.3 L 772.0 821.7 L 776.0 824.7 L 780.0 827.3 L 784.0 829.6 L 788.0 831.6 L 792.0 833.3 L 796.0 834.8 L 800.0 836.2 L 804.0 837.5 L 808.0 838.7 L 812.0 840.0 L 816.0 841.4 L 820.0 843.0 L 824.0 844.9 L 828.0 847.1 L 832.0 849.6 L 836.0 852.6 L 840.0 856.1 L 844.0 860.1 L 848.0 864.6 L 852.0 869.7 L 856.0 875.4 L 860.0 881.6 L 864.0 888.4 L 868.0 895.6 L 872.0 903.4 L 876.0 911.5 L 880.0 920.0 L 884.0 928.8 L 888.0 937.8 L 892.0 947.0 L 896.0 956.1 L 900.0 965.2 L 904.0 974.1 L 908.0 982.7 L 912.0 990.9 L 916.0 998.7 L 920.0 1005.9 L 924.0 1012.5 L 928.0 1018.3 L 932.0 1023.4 L 936.0 1027.5 L 940.0 1030.8 L 944.0 1033.0 L 948.0 1034.3 L 952.0 1034.6 L 956.0 1033.8 L 960.0 1032.1 L 964.0 1029.4 L 968.0 1025.7 L 972.0 1021.1 L 976.0 1015.7 L 980.0 1009.5 L 984.0 1002.6 L 988.0 995.1 L 992.0 987.0 L 996.0 978.6 L 1000.0 969.8 L 1004.0 960.7 L 1008.0 951.6 L 1012.0 942.4 L 1016.0 933.3 L 1020.0 924.3 L 1024.0 915.6 L 1028.0 907.2 L 1032.0 899.2 L 1036.0 891.6 L 1040.0 884.5 L 1044.0 878.0 L 1048.0 871.9 L 1052.0 866.5 L 1056.0 861.6 L 1060.0 857.3 L 1064.0 853.5 L 1068.0 850.3 L 1072.0 847.4 L 1076.0 845.1 L 1080.0 843.0 L 1084.0 841.3 L 1088.0 839.8 L 1092.0 838.4 L 1096.0 837.2 L 1100.0 836.0 L 1104.0 834.7 L 1108.0 833.3 L 1112.0 831.7 L 1116.0 830.0 L 1120.0 827.9 L 1124.0 825.5 L 1128.0 822.8 L 1132.0 819.6 L 1136.0 816.2 L 1140.0 812.3 L 1144.0 808.1 L 1148.0 803.5 L 1152.0 798.6 L 1156.0 793.5 L 1160.0 788.1 L 1164.0 782.6 L 1168.0 777.0 L 1172.0 771.4 L 1176.0 766.0 L 1180.0 760.6 L 1184.0 755.6 L 1188.0 750.9 L 1192.0 746.6 L 1196.0 742.9 L 1200.0 739.7" stroke="#ee2be1" stroke-width="9.0" fill="none" opacity="0.05" stroke-linecap="round"/>
<path d="M 0.0 1023.2 L 4.0 1027.4 L 8.0 1030.7 L 12.0 1033.0 L 16.0 1034.3 L 20.0 1034.6 L 24.0 1033.9 L 28.0 1032.2 L 32.0 1029.4 L 36.0 1025.8 L 40.0 1021.2 L 44.0 1015.8 L 48.0 1009.7 L 52.0 1002.8 L 56.0 995.3 L 60.0 987.2 L 64.0 978.8 L 68.0 970.0 L 72.0 961.0 L 76.0 951.8 L 80.0 942.7 L 84.0 933.5 L 88.0 924.6 L 92.0 915.8 L 96.0 907.4 L 100.0 899.4 L 104.0 891.8 L 108.0 884.7 L 112.0 878.1 L 116.0 872.1 L 120.0 866.6 L 124.0 861.8 L 128.0 857.4 L 132.0 853.6 L 136.0 850.3 L 140.0 847.5 L 144.0 845.1 L 148.0 843.1 L 152.0 841.3 L 156.0 839.8 L 160.0 838.5 L 164.0 837.2 L 168.0 836.0 L 172.0 834.7 L 176.0 833.3 L 180.0 831.8 L 184.0 830.0 L 188.0 827.9 L 192.0 825.6 L 196.0 822.8 L 200.0 819.7 L 204.0 816.3 L 208.0 812.4 L 212.0 808.2 L 216.0 803.6 L 220.0 798.7 L 224.0 793.6 L 228.0 788.2 L 232.0 782.7 L 236.0 777.2 L 240.0 771.6 L 244.0 766.1 L 248.0 760.8 L 252.0 755.7 L 256.0 751.0 L 260.0 746.7 L 264.0 743.0 L 268.0 739.8 L 272.0 737.3 L 276.0 735.6 L 280.0 734.7 L 284.0 734.6 L 288.0 735.5 L 292.0 737.3 L 296.0 740.0 L 300.0 743.6 L 304.0 748.3 L 308.0 753.8 L 312.0 760.2 L 316.0 767.5 L 320.0 775.5 L 324.0 784.3 L 328.0 793.7 L 332.0 803.6 L 336.0 814.0 L 340.0 824.8 L 344.0 835.8 L 348.0 846.9 L 352.0 858.1 L 356.0 869.3 L 360.0 880.2 L 364.0 890.9 L 368.0 901.2 L 372.0 911.1 L 376.0 920.4 L 380.0 929.1 L 384.0 937.2 L 388.0 944.6 L 392.0 951.2 L 396.0 957.0 L 400.0 962.1 L 404.0 966.3 L 408.0 969.8 L 412.0 972.6 L 416.0 974.6 L 420.0 976.0 L 424.0 976.8 L 428.0 977.0 L 432.0 976.7 L 436.0 976.0 L 440.0 974.9 L 444.0 973.6 L 448.0 972.2 L 452.0 970.6 L 456.0 969.0 L 460.0 967.4 L 464.0 965.9 L 468.0 964.6 L 472.0 963.5 L 476.0 962.7 L 480.0 962.1 L 484.0 961.8 L 488.0 961.8 L 492.0 962.2 L 496.0 962.8 L 500.0 963.7 L 504.0 964.8 L 508.0 966.1 L 512.0 967.6 L 516.0 969.2 L 520.0 970.7 L 524.0 972.2 L 528.0 973.6 L 532.0 974.7 L 536.0 975.6 L 540.0 976.1 L 544.0 976.2 L 548.0 975.7 L 552.0 974.7 L 556.0 973.1 L 560.0 970.7 L 564.0 967.6 L 568.0 963.8 L 572.0 959.2 L 576.0 953.9 L 580.0 947.7 L 584.0 940.8 L 588.0 933.1 L 592.0 924.8 L 596.0 915.8 L 600.0 906.3 L 604.0 896.2 L 608.0 885.8 L 612.0 875.0 L 616.0 863.9 L 620.0 852.8 L 624.0 841.6 L 628.0 830.5 L 632.0 819.6 L 636.0 809.0 L 640.0 798.8 L 644.0 789.1 L 648.0 779.9 L 652.0 771.5 L 656.0 763.8 L 660.0 756.9 L 664.0 750.8 L 668.0 745.7 L 672.0 741.5 L 676.0 738.2 L 680.0 735.9 L 684.0 734.6 L 688.0 734.1 L 692.0 734.6 L 696.0 735.9 L 700.0 737.9 L 704.0 740.7 L 708.0 744.2 L 712.0 748.2 L 716.0 752.7 L 720.0 757.7 L 724.0 762.9 L 728.0 768.3 L 732.0 773.9 L 736.0 779.6 L 740.0 785.2 L 744.0 790.7 L 748.0 796.0 L 752.0 801.1 L 756.0 805.9 L 760.0 810.4 L 764.0 814.5 L 768.0 818.3 L 772.0 821.7 L 776.0 824.7 L 780.0 827.3 L 784.0 829.6 L 788.0 831.6 L 792.0 833.3 L 796.0 834.8 L 800.0 836.2 L 804.0 837.5 L 808.0 838.7 L 812.0 840.0 L 816.0 841.4 L 820.0 843.0 L 824.0 844.9 L 828.0 847.1 L 832.0 849.6 L 836.0 852.6 L 840.0 856.1 L 844.0 860.1 L 848.0 864.6 L 852.0 869.7 L 856.0 875.4 L 860.0 881.6 L 864.0 888.4 L 868.0 895.6 L 872.0 903.4 L 876.0 911.5 L 880.0 920.0 L 884.0 928.8 L 888.0 937.8 L 892.0 947.0 L 896.0 956.1 L 900.0 965.2 L 904.0 974.1 L 908.0 982.7 L 912.0 990.9 L 916.0 998.7 L 920.0 1005.9 L 924.0 1012.5 L 928.0 1018.3 L 932.0 1023.4 L 936.0 1027.5 L 940.0 1030.8 L 944.0 1033.0 L 948.0 1034.3 L 952.0 1034.6 L 956.0 1033.8 L 960.0 1032.1 L 964.0 1029.4 L 968.0 1025.7 L 972.0 1021.1 L 976.0 1015.7 L 980.0 1009.5 L 984.0 1002.6 L 988.0 995.1 L 992.0 987.0 L 996.0 978.6 L 1000.0 969.8 L 1004.0 960.7 L 1008.0 951.6 L 1012.0 942.4 L 1016.0 933.3 L 1020.0 924.3 L 1024.0 915.6 L 1028.0 907.2 L 1032.0 899.2 L 1036.0 891.6 L 1040.0 884.5 L 1044.0 878.0 L 1048.0 871.9 L 1052.0 866.5 L 1056.0 861.6 L 1060.0 857.3 L 1064.0 853.5 L 1068.0 850.3 L 1072.0 847.4 L 1076.0 845.1 L 1080.0 843.0 L 1084.0 841.3 L 1088.0 839.8 L 1092.0 838.4 L 1096.0 837.2 L 1100.0 836.0 L 1104.0 834.7 L 1108.0 833.3 L 1112.0 831.7 L 1116.0 830.0 L 1120.0 827.9 L 1124.0 825.5 L 1128.0 822.8 L 1132.0 819.6 L 1136.0 816.2 L 1140.0 812.3 L 1144.0 808.1 L 1148.0 803.5 L 1152.0 798.6 L 1156.0 793.5 L 1160.0 788.1 L 1164.0 782.6 L 1168.0 777.0 L 1172.0 771.4 L 1176.0 766.0 L 1180.0 760.6 L 1184.0 755.6 L 1188.0 750.9 L 1192.0 746.6 L 1196.0 742.9 L 1200.0 739.7" stroke="#ee2be1" stroke-width="3.6" fill="none" opacity="0.36" stroke-linecap="round"/>
<path d="M 0.0 170.0 L 4.0 161.4 L 8.0 153.2 L 12.0 145.5 L 16.0 138.4 L 20.0 132.2 L 24.0 126.7 L 28.0 122.2 L 32.0 118.7 L 36.0 116.3 L 40.0 115.0 L 44.0 114.9 L 48.0 115.9 L 52.0 118.2 L 56.0 121.7 L 60.0 126.3 L 64.0 132.1 L 68.0 138.9 L 72.0 146.8 L 76.0 155.6 L 80.0 165.2 L 84.0 175.6 L 88.0 186.5 L 92.0 198.0 L 96.0 209.9 L 100.0 222.0 L 104.0 234.2 L 108.0 246.4 L 112.0 258.5 L 116.0 270.4 L 120.0 282.0 L 124.0 293.1 L 128.0 303.6 L 132.0 313.6 L 136.0 322.8 L 140.0 331.4 L 144.0 339.1 L 148.0 346.1 L 152.0 352.3 L 156.0 357.7 L 160.0 362.3 L 164.0 366.2 L 168.0 369.3 L 172.0 371.9 L 176.0 373.9 L 180.0 375.3 L 184.0 376.4 L 188.0 377.2 L 192.0 377.7 L 196.0 378.0 L 200.0 378.3 L 204.0 378.6 L 208.0 379.0 L 212.0 379.6 L 216.0 380.4 L 220.0 381.6 L 224.0 383.0 L 228.0 384.9 L 232.0 387.1 L 236.0 389.7 L 240.0 392.7 L 244.0 396.1 L 248.0 399.8 L 252.0 403.8 L 256.0 408.1 L 260.0 412.5 L 264.0 416.9 L 268.0 421.4 L 272.0 425.8 L 276.0 430.0 L 280.0 433.9 L 284.0 437.4 L 288.0 440.4 L 292.0 442.8 L 296.0 444.5 L 300.0 445.4 L 304.0 445.5 L 308.0 444.7 L 312.0 442.9 L 316.0 440.0 L 320.0 436.1 L 324.0 431.2 L 328.0 425.2 L 332.0 418.1 L 336.0 410.1 L 340.0 401.0 L 344.0 391.1 L 348.0 380.3 L 352.0 368.8 L 356.0 356.6 L 360.0 343.9 L 364.0 330.8 L 368.0 317.4 L 372.0 303.8 L 376.0 290.2 L 380.0 276.7 L 384.0 263.4 L 388.0 250.4 L 392.0 238.0 L 396.0 226.1 L 400.0 214.9 L 404.0 204.4 L 408.0 194.9 L 412.0 186.2 L 416.0 178.6 L 420.0 171.9 L 424.0 166.3 L 428.0 161.7 L 432.0 158.2 L 436.0 155.7 L 440.0 154.1 L 444.0 153.5 L 448.0 153.7 L 452.0 154.7 L 456.0 156.5 L 460.0 158.8 L 464.0 161.7 L 468.0 165.0 L 472.0 168.6 L 476.0 172.4 L 480.0 176.4 L 484.0 180.4 L 488.0 184.3 L 492.0 188.1 L 496.0 191.7 L 500.0 195.0 L 504.0 198.0 L 508.0 200.7 L 512.0 203.0 L 516.0 204.8 L 520.0 206.3 L 524.0 207.5 L 528.0 208.3 L 532.0 208.8 L 536.0 209.0 L 540.0 209.1 L 544.0 209.1 L 548.0 209.0 L 552.0 209.0 L 556.0 209.1 L 560.0 209.5 L 564.0 210.2 L 568.0 211.3 L 572.0 212.8 L 576.0 215.0 L 580.0 217.8 L 584.0 221.3 L 588.0 225.5 L 592.0 230.6 L 596.0 236.4 L 600.0 243.1 L 604.0 250.6 L 608.0 258.9 L 612.0 267.9 L 616.0 277.7 L 620.0 288.2 L 624.0 299.2 L 628.0 310.8 L 632.0 322.7 L 636.0 335.0 L 640.0 347.4 L 644.0 359.9 L 648.0 372.4 L 652.0 384.6 L 656.0 396.6 L 660.0 408.0 L 664.0 419.0 L 668.0 429.2 L 672.0 438.7 L 676.0 447.3 L 680.0 454.9 L 684.0 461.5 L 688.0 467.0 L 692.0 471.3 L 696.0 474.5 L 700.0 476.4 L 704.0 477.2 L 708.0 476.8 L 712.0 475.2 L 716.0 472.6 L 720.0 468.9 L 724.0 464.3 L 728.0 458.7 L 732.0 452.4 L 736.0 445.5 L 740.0 437.9 L 744.0 429.9 L 748.0 421.5 L 752.0 412.9 L 756.0 404.2 L 760.0 395.5 L 764.0 386.9 L 768.0 378.4 L 772.0 370.3 L 776.0 362.5 L 780.0 355.1 L 784.0 348.2 L 788.0 341.7 L 792.0 335.9 L 796.0 330.5 L 800.0 325.7 L 804.0 321.5 L 808.0 317.7 L 812.0 314.4 L 816.0 311.5 L 820.0 308.9 L 824.0 306.6 L 828.0 304.5 L 832.0 302.6 L 836.0 300.6 L 840.0 298.6 L 844.0 296.5 L 848.0 294.1 L 852.0 291.5 L 856.0 288.5 L 860.0 285.0 L 864.0 281.1 L 868.0 276.7 L 872.0 271.7 L 876.0 266.1 L 880.0 260.0 L 884.0 253.4 L 888.0 246.1 L 892.0 238.4 L 896.0 230.3 L 900.0 221.8 L 904.0 213.0 L 908.0 203.9 L 912.0 194.8 L 916.0 185.6 L 920.0 176.6 L 924.0 167.7 L 928.0 159.2 L 932.0 151.1 L 936.0 143.6 L 940.0 136.7 L 944.0 130.7 L 948.0 125.4 L 952.0 121.2 L 956.0 118.0 L 960.0 115.8 L 964.0 114.8 L 968.0 115.0 L 972.0 116.4 L 976.0 119.0 L 980.0 122.8 L 984.0 127.7 L 988.0 133.8 L 992.0 140.9 L 996.0 149.0 L 1000.0 158.0 L 1004.0 167.8 L 1008.0 178.3 L 1012.0 189.5 L 1016.0 201.0 L 1020.0 213.0 L 1024.0 225.1 L 1028.0 237.4 L 1032.0 249.6 L 1036.0 261.7 L 1040.0 273.5 L 1044.0 284.9 L 1048.0 295.8 L 1052.0 306.2 L 1056.0 316.0 L 1060.0 325.1 L 1064.0 333.4 L 1068.0 341.0 L 1072.0 347.8 L 1076.0 353.7 L 1080.0 358.9 L 1084.0 363.3 L 1088.0 367.0 L 1092.0 370.1 L 1096.0 372.4 L 1100.0 374.3 L 1104.0 375.7 L 1108.0 376.6 L 1112.0 377.3 L 1116.0 377.8 L 1120.0 378.1 L 1124.0 378.4 L 1128.0 378.7 L 1132.0 379.2 L 1136.0 379.8 L 1140.0 380.7 L 1144.0 381.9 L 1148.0 383.5 L 1152.0 385.4 L 1156.0 387.7 L 1160.0 390.5 L 1164.0 393.6 L 1168.0 397.0 L 1172.0 400.8 L 1176.0 404.9 L 1180.0 409.2 L 1184.0 413.6 L 1188.0 418.1 L 1192.0 422.6 L 1196.0 426.9 L 1200.0 431.0" stroke="#ee2be1" stroke-width="15.6" fill="none" opacity="0.08" stroke-linecap="round"/>
<path d="M 0.0 170.0 L 4.0 161.4 L 8.0 153.2 L 12.0 145.5 L 16.0 138.4 L 20.0 132.2 L 24.0 126.7 L 28.0 122.2 L 32.0 118.7 L 36.0 116.3 L 40.0 115.0 L 44.0 114.9 L 48.0 115.9 L 52.0 118.2 L 56.0 121.7 L 60.0 126.3 L 64.0 132.1 L 68.0 138.9 L 72.0 146.8 L 76.0 155.6 L 80.0 165.2 L 84.0 175.6 L 88.0 186.5 L 92.0 198.0 L 96.0 209.9 L 100.0 222.0 L 104.0 234.2 L 108.0 246.4 L 112.0 258.5 L 116.0 270.4 L 120.0 282.0 L 124.0 293.1 L 128.0 303.6 L 132.0 313.6 L 136.0 322.8 L 140.0 331.4 L 144.0 339.1 L 148.0 346.1 L 152.0 352.3 L 156.0 357.7 L 160.0 362.3 L 164.0 366.2 L 168.0 369.3 L 172.0 371.9 L 176.0 373.9 L 180.0 375.3 L 184.0 376.4 L 188.0 377.2 L 192.0 377.7 L 196.0 378.0 L 200.0 378.3 L 204.0 378.6 L 208.0 379.0 L 212.0 379.6 L 216.0 380.4 L 220.0 381.6 L 224.0 383.0 L 228.0 384.9 L 232.0 387.1 L 236.0 389.7 L 240.0 392.7 L 244.0 396.1 L 248.0 399.8 L 252.0 403.8 L 256.0 408.1 L 260.0 412.5 L 264.0 416.9 L 268.0 421.4 L 272.0 425.8 L 276.0 430.0 L 280.0 433.9 L 284.0 437.4 L 288.0 440.4 L 292.0 442.8 L 296.0 444.5 L 300.0 445.4 L 304.0 445.5 L 308.0 444.7 L 312.0 442.9 L 316.0 440.0 L 320.0 436.1 L 324.0 431.2 L 328.0 425.2 L 332.0 418.1 L 336.0 410.1 L 340.0 401.0 L 344.0 391.1 L 348.0 380.3 L 352.0 368.8 L 356.0 356.6 L 360.0 343.9 L 364.0 330.8 L 368.0 317.4 L 372.0 303.8 L 376.0 290.2 L 380.0 276.7 L 384.0 263.4 L 388.0 250.4 L 392.0 238.0 L 396.0 226.1 L 400.0 214.9 L 404.0 204.4 L 408.0 194.9 L 412.0 186.2 L 416.0 178.6 L 420.0 171.9 L 424.0 166.3 L 428.0 161.7 L 432.0 158.2 L 436.0 155.7 L 440.0 154.1 L 444.0 153.5 L 448.0 153.7 L 452.0 154.7 L 456.0 156.5 L 460.0 158.8 L 464.0 161.7 L 468.0 165.0 L 472.0 168.6 L 476.0 172.4 L 480.0 176.4 L 484.0 180.4 L 488.0 184.3 L 492.0 188.1 L 496.0 191.7 L 500.0 195.0 L 504.0 198.0 L 508.0 200.7 L 512.0 203.0 L 516.0 204.8 L 520.0 206.3 L 524.0 207.5 L 528.0 208.3 L 532.0 208.8 L 536.0 209.0 L 540.0 209.1 L 544.0 209.1 L 548.0 209.0 L 552.0 209.0 L 556.0 209.1 L 560.0 209.5 L 564.0 210.2 L 568.0 211.3 L 572.0 212.8 L 576.0 215.0 L 580.0 217.8 L 584.0 221.3 L 588.0 225.5 L 592.0 230.6 L 596.0 236.4 L 600.0 243.1 L 604.0 250.6 L 608.0 258.9 L 612.0 267.9 L 616.0 277.7 L 620.0 288.2 L 624.0 299.2 L 628.0 310.8 L 632.0 322.7 L 636.0 335.0 L 640.0 347.4 L 644.0 359.9 L 648.0 372.4 L 652.0 384.6 L 656.0 396.6 L 660.0 408.0 L 664.0 419.0 L 668.0 429.2 L 672.0 438.7 L 676.0 447.3 L 680.0 454.9 L 684.0 461.5 L 688.0 467.0 L 692.0 471.3 L 696.0 474.5 L 700.0 476.4 L 704.0 477.2 L 708.0 476.8 L 712.0 475.2 L 716.0 472.6 L 720.0 468.9 L 724.0 464.3 L 728.0 458.7 L 732.0 452.4 L 736.0 445.5 L 740.0 437.9 L 744.0 429.9 L 748.0 421.5 L 752.0 412.9 L 756.0 404.2 L 760.0 395.5 L 764.0 386.9 L 768.0 378.4 L 772.0 370.3 L 776.0 362.5 L 780.0 355.1 L 784.0 348.2 L 788.0 341.7 L 792.0 335.9 L 796.0 330.5 L 800.0 325.7 L 804.0 321.5 L 808.0 317.7 L 812.0 314.4 L 816.0 311.5 L 820.0 308.9 L 824.0 306.6 L 828.0 304.5 L 832.0 302.6 L 836.0 300.6 L 840.0 298.6 L 844.0 296.5 L 848.0 294.1 L 852.0 291.5 L 856.0 288.5 L 860.0 285.0 L 864.0 281.1 L 868.0 276.7 L 872.0 271.7 L 876.0 266.1 L 880.0 260.0 L 884.0 253.4 L 888.0 246.1 L 892.0 238.4 L 896.0 230.3 L 900.0 221.8 L 904.0 213.0 L 908.0 203.9 L 912.0 194.8 L 916.0 185.6 L 920.0 176.6 L 924.0 167.7 L 928.0 159.2 L 932.0 151.1 L 936.0 143.6 L 940.0 136.7 L 944.0 130.7 L 948.0 125.4 L 952.0 121.2 L 956.0 118.0 L 960.0 115.8 L 964.0 114.8 L 968.0 115.0 L 972.0 116.4 L 976.0 119.0 L 980.0 122.8 L 984.0 127.7 L 988.0 133.8 L 992.0 140.9 L 996.0 149.0 L 1000.0 158.0 L 1004.0 167.8 L 1008.0 178.3 L 1012.0 189.5 L 1016.0 201.0 L 1020.0 213.0 L 1024.0 225.1 L 1028.0 237.4 L 1032.0 249.6 L 1036.0 261.7 L 1040.0 273.5 L 1044.0 284.9 L 1048.0 295.8 L 1052.0 306.2 L 1056.0 316.0 L 1060.0 325.1 L 1064.0 333.4 L 1068.0 341.0 L 1072.0 347.8 L 1076.0 353.7 L 1080.0 358.9 L 1084.0 363.3 L 1088.0 367.0 L 1092.0 370.1 L 1096.0 372.4 L 1100.0 374.3 L 1104.0 375.7 L 1108.0 376.6 L 1112.0 377.3 L 1116.0 377.8 L 1120.0 378.1 L 1124.0 378.4 L 1128.0 378.7 L 1132.0 379.2 L 1136.0 379.8 L 1140.0 380.7 L 1144.0 381.9 L 1148.0 383.5 L 1152.0 385.4 L 1156.0 387.7 L 1160.0 390.5 L 1164.0 393.6 L 1168.0 397.0 L 1172.0 400.8 L 1176.0 404.9 L 1180.0 409.2 L 1184.0 413.6 L 1188.0 418.1 L 1192.0 422.6 L 1196.0 426.9 L 1200.0 431.0" stroke="#ee2be1" stroke-width="6.2" fill="none" opacity="0.52" stroke-linecap="round"/>
<path d="M 0.0 262.7 L 4.0 260.8 L 8.0 258.9 L 12.0 257.0 L 16.0 255.2 L 20.0 253.5 L 24.0 251.9 L 28.0 250.4 L 32.0 249.1 L 36.0 247.8 L 40.0 246.7 L 44.0 245.7 L 48.0 244.9 L 52.0 244.2 L 56.0 243.7 L 60.0 243.3 L 64.0 243.1 L 68.0 243.1 L 72.0 243.3 L 76.0 243.6 L 80.0 244.1 L 84.0 244.8 L 88.0 245.7 L 92.0 246.7 L 96.0 247.9 L 100.0 249.3 L 104.0 250.8 L 108.0 252.5 L 112.0 254.3 L 116.0 256.2 L 120.0 258.3 L 124.0 260.4 L 128.0 262.7 L 132.0 265.1 L 136.0 267.5 L 140.0 270.1 L 144.0 272.6 L 148.0 275.3 L 152.0 277.9 L 156.0 280.6 L 160.0 283.3 L 164.0 286.0 L 168.0 288.6 L 172.0 291.3 L 176.0 293.9 L 180.0 296.4 L 184.0 298.9 L 188.0 301.4 L 192.0 303.7 L 196.0 306.0 L 200.0 308.2 L 204.0 310.3 L 208.0 312.3 L 212.0 314.2 L 216.0 316.0 L 220.0 317.6 L 224.0 319.2 L 228.0 320.6 L 232.0 321.9 L 236.0 323.1 L 240.0 324.2 L 244.0 325.2 L 248.0 326.1 L 252.0 326.9 L 256.0 327.6 L 260.0 328.2 L 264.0 328.7 L 268.0 329.1 L 272.0 329.5 L 276.0 329.7 L 280.0 330.0 L 284.0 330.2 L 288.0 330.3 L 292.0 330.5 L 296.0 330.6 L 300.0 330.7 L 304.0 330.8 L 308.0 330.9 L 312.0 331.0 L 316.0 331.1 L 320.0 331.2 L 324.0 331.4 L 328.0 331.6 L 332.0 331.9 L 336.0 332.2 L 340.0 332.6 L 344.0 333.0 L 348.0 333.5 L 352.0 334.0 L 356.0 334.6 L 360.0 335.2 L 364.0 336.0 L 368.0 336.7 L 372.0 337.5 L 376.0 338.4 L 380.0 339.3 L 384.0 340.2 L 388.0 341.2 L 392.0 342.2 L 396.0 343.2 L 400.0 344.3 L 404.0 345.3 L 408.0 346.3 L 412.0 347.3 L 416.0 348.3 L 420.0 349.3 L 424.0 350.2 L 428.0 351.0 L 432.0 351.8 L 436.0 352.5 L 440.0 353.2 L 444.0 353.7 L 448.0 354.1 L 452.0 354.4 L 456.0 354.6 L 460.0 354.7 L 464.0 354.7 L 468.0 354.5 L 472.0 354.1 L 476.0 353.7 L 480.0 353.0 L 484.0 352.2 L 488.0 351.3 L 492.0 350.2 L 496.0 348.9 L 500.0 347.5 L 504.0 345.9 L 508.0 344.2 L 512.0 342.4 L 516.0 340.4 L 520.0 338.2 L 524.0 336.0 L 528.0 333.6 L 532.0 331.1 L 536.0 328.5 L 540.0 325.8 L 544.0 323.0 L 548.0 320.2 L 552.0 317.3 L 556.0 314.4 L 560.0 311.4 L 564.0 308.4 L 568.0 305.4 L 572.0 302.4 L 576.0 299.4 L 580.0 296.4 L 584.0 293.5 L 588.0 290.6 L 592.0 287.8 L 596.0 285.1 L 600.0 282.5 L 604.0 279.9 L 608.0 277.5 L 612.0 275.2 L 616.0 272.9 L 620.0 270.9 L 624.0 268.9 L 628.0 267.1 L 632.0 265.5 L 636.0 263.9 L 640.0 262.6 L 644.0 261.4 L 648.0 260.3 L 652.0 259.4 L 656.0 258.6 L 660.0 258.0 L 664.0 257.5 L 668.0 257.2 L 672.0 257.0 L 676.0 256.9 L 680.0 257.0 L 684.0 257.1 L 688.0 257.4 L 692.0 257.8 L 696.0 258.2 L 700.0 258.8 L 704.0 259.4 L 708.0 260.0 L 712.0 260.8 L 716.0 261.5 L 720.0 262.3 L 724.0 263.2 L 728.0 264.0 L 732.0 264.8 L 736.0 265.7 L 740.0 266.5 L 744.0 267.3 L 748.0 268.1 L 752.0 268.9 L 756.0 269.6 L 760.0 270.2 L 764.0 270.9 L 768.0 271.4 L 772.0 272.0 L 776.0 272.4 L 780.0 272.8 L 784.0 273.2 L 788.0 273.5 L 792.0 273.7 L 796.0 273.9 L 800.0 274.1 L 804.0 274.2 L 808.0 274.2 L 812.0 274.2 L 816.0 274.2 L 820.0 274.2 L 824.0 274.2 L 828.0 274.1 L 832.0 274.1 L 836.0 274.1 L 840.0 274.0 L 844.0 274.0 L 848.0 274.1 L 852.0 274.2 L 856.0 274.3 L 860.0 274.5 L 864.0 274.8 L 868.0 275.2 L 872.0 275.6 L 876.0 276.1 L 880.0 276.7 L 884.0 277.5 L 888.0 278.3 L 892.0 279.3 L 896.0 280.3 L 900.0 281.5 L 904.0 282.8 L 908.0 284.2 L 912.0 285.8 L 916.0 287.5 L 920.0 289.2 L 924.0 291.1 L 928.0 293.2 L 932.0 295.3 L 936.0 297.5 L 940.0 299.8 L 944.0 302.3 L 948.0 304.7 L 952.0 307.3 L 956.0 309.9 L 960.0 312.6 L 964.0 315.3 L 968.0 318.1 L 972.0 320.9 L 976.0 323.7 L 980.0 326.4 L 984.0 329.2 L 988.0 331.9 L 992.0 334.6 L 996.0 337.3 L 1000.0 339.8 L 1004.0 342.3 L 1008.0 344.7 L 1012.0 347.0 L 1016.0 349.2 L 1020.0 351.3 L 1024.0 353.3 L 1028.0 355.1 L 1032.0 356.8 L 1036.0 358.3 L 1040.0 359.6 L 1044.0 360.8 L 1048.0 361.9 L 1052.0 362.7 L 1056.0 363.4 L 1060.0 363.9 L 1064.0 364.3 L 1068.0 364.4 L 1072.0 364.4 L 1076.0 364.3 L 1080.0 363.9 L 1084.0 363.4 L 1088.0 362.8 L 1092.0 362.0 L 1096.0 361.0 L 1100.0 360.0 L 1104.0 358.8 L 1108.0 357.5 L 1112.0 356.0 L 1116.0 354.5 L 1120.0 352.9 L 1124.0 351.2 L 1128.0 349.5 L 1132.0 347.7 L 1136.0 345.9 L 1140.0 344.0 L 1144.0 342.1 L 1148.0 340.2 L 1152.0 338.4 L 1156.0 336.5 L 1160.0 334.6 L 1164.0 332.8 L 1168.0 331.0 L 1172.0 329.2 L 1176.0 327.5 L 1180.0 325.9 L 1184.0 324.3 L 1188.0 322.8 L 1192.0 321.4 L 1196.0 320.0 L 1200.0 318.7" stroke="#ee2be1" stroke-width="19.2" fill="none" opacity="0.06" stroke-linecap="round"/>
<path d="M 0.0 262.7 L 4.0 260.8 L 8.0 258.9 L 12.0 257.0 L 16.0 255.2 L 20.0 253.5 L 24.0 251.9 L 28.0 250.4 L 32.0 249.1 L 36.0 247.8 L 40.0 246.7 L 44.0 245.7 L 48.0 244.9 L 52.0 244.2 L 56.0 243.7 L 60.0 243.3 L 64.0 243.1 L 68.0 243.1 L 72.0 243.3 L 76.0 243.6 L 80.0 244.1 L 84.0 244.8 L 88.0 245.7 L 92.0 246.7 L 96.0 247.9 L 100.0 249.3 L 104.0 250.8 L 108.0 252.5 L 112.0 254.3 L 116.0 256.2 L 120.0 258.3 L 124.0 260.4 L 128.0 262.7 L 132.0 265.1 L 136.0 267.5 L 140.0 270.1 L 144.0 272.6 L 148.0 275.3 L 152.0 277.9 L 156.0 280.6 L 160.0 283.3 L 164.0 286.0 L 168.0 288.6 L 172.0 291.3 L 176.0 293.9 L 180.0 296.4 L 184.0 298.9 L 188.0 301.4 L 192.0 303.7 L 196.0 306.0 L 200.0 308.2 L 204.0 310.3 L 208.0 312.3 L 212.0 314.2 L 216.0 316.0 L 220.0 317.6 L 224.0 319.2 L 228.0 320.6 L 232.0 321.9 L 236.0 323.1 L 240.0 324.2 L 244.0 325.2 L 248.0 326.1 L 252.0 326.9 L 256.0 327.6 L 260.0 328.2 L 264.0 328.7 L 268.0 329.1 L 272.0 329.5 L 276.0 329.7 L 280.0 330.0 L 284.0 330.2 L 288.0 330.3 L 292.0 330.5 L 296.0 330.6 L 300.0 330.7 L 304.0 330.8 L 308.0 330.9 L 312.0 331.0 L 316.0 331.1 L 320.0 331.2 L 324.0 331.4 L 328.0 331.6 L 332.0 331.9 L 336.0 332.2 L 340.0 332.6 L 344.0 333.0 L 348.0 333.5 L 352.0 334.0 L 356.0 334.6 L 360.0 335.2 L 364.0 336.0 L 368.0 336.7 L 372.0 337.5 L 376.0 338.4 L 380.0 339.3 L 384.0 340.2 L 388.0 341.2 L 392.0 342.2 L 396.0 343.2 L 400.0 344.3 L 404.0 345.3 L 408.0 346.3 L 412.0 347.3 L 416.0 348.3 L 420.0 349.3 L 424.0 350.2 L 428.0 351.0 L 432.0 351.8 L 436.0 352.5 L 440.0 353.2 L 444.0 353.7 L 448.0 354.1 L 452.0 354.4 L 456.0 354.6 L 460.0 354.7 L 464.0 354.7 L 468.0 354.5 L 472.0 354.1 L 476.0 353.7 L 480.0 353.0 L 484.0 352.2 L 488.0 351.3 L 492.0 350.2 L 496.0 348.9 L 500.0 347.5 L 504.0 345.9 L 508.0 344.2 L 512.0 342.4 L 516.0 340.4 L 520.0 338.2 L 524.0 336.0 L 528.0 333.6 L 532.0 331.1 L 536.0 328.5 L 540.0 325.8 L 544.0 323.0 L 548.0 320.2 L 552.0 317.3 L 556.0 314.4 L 560.0 311.4 L 564.0 308.4 L 568.0 305.4 L 572.0 302.4 L 576.0 299.4 L 580.0 296.4 L 584.0 293.5 L 588.0 290.6 L 592.0 287.8 L 596.0 285.1 L 600.0 282.5 L 604.0 279.9 L 608.0 277.5 L 612.0 275.2 L 616.0 272.9 L 620.0 270.9 L 624.0 268.9 L 628.0 267.1 L 632.0 265.5 L 636.0 263.9 L 640.0 262.6 L 644.0 261.4 L 648.0 260.3 L 652.0 259.4 L 656.0 258.6 L 660.0 258.0 L 664.0 257.5 L 668.0 257.2 L 672.0 257.0 L 676.0 256.9 L 680.0 257.0 L 684.0 257.1 L 688.0 257.4 L 692.0 257.8 L 696.0 258.2 L 700.0 258.8 L 704.0 259.4 L 708.0 260.0 L 712.0 260.8 L 716.0 261.5 L 720.0 262.3 L 724.0 263.2 L 728.0 264.0 L 732.0 264.8 L 736.0 265.7 L 740.0 266.5 L 744.0 267.3 L 748.0 268.1 L 752.0 268.9 L 756.0 269.6 L 760.0 270.2 L 764.0 270.9 L 768.0 271.4 L 772.0 272.0 L 776.0 272.4 L 780.0 272.8 L 784.0 273.2 L 788.0 273.5 L 792.0 273.7 L 796.0 273.9 L 800.0 274.1 L 804.0 274.2 L 808.0 274.2 L 812.0 274.2 L 816.0 274.2 L 820.0 274.2 L 824.0 274.2 L 828.0 274.1 L 832.0 274.1 L 836.0 274.1 L 840.0 274.0 L 844.0 274.0 L 848.0 274.1 L 852.0 274.2 L 856.0 274.3 L 860.0 274.5 L 864.0 274.8 L 868.0 275.2 L 872.0 275.6 L 876.0 276.1 L 880.0 276.7 L 884.0 277.5 L 888.0 278.3 L 892.0 279.3 L 896.0 280.3 L 900.0 281.5 L 904.0 282.8 L 908.0 284.2 L 912.0 285.8 L 916.0 287.5 L 920.0 289.2 L 924.0 291.1 L 928.0 293.2 L 932.0 295.3 L 936.0 297.5 L 940.0 299.8 L 944.0 302.3 L 948.0 304.7 L 952.0 307.3 L 956.0 309.9 L 960.0 312.6 L 964.0 315.3 L 968.0 318.1 L 972.0 320.9 L 976.0 323.7 L 980.0 326.4 L 984.0 329.2 L 988.0 331.9 L 992.0 334.6 L 996.0 337.3 L 1000.0 339.8 L 1004.0 342.3 L 1008.0 344.7 L 1012.0 347.0 L 1016.0 349.2 L 1020.0 351.3 L 1024.0 353.3 L 1028.0 355.1 L 1032.0 356.8 L 1036.0 358.3 L 1040.0 359.6 L 1044.0 360.8 L 1048.0 361.9 L 1052.0 362.7 L 1056.0 363.4 L 1060.0 363.9 L 1064.0 364.3 L 1068.0 364.4 L 1072.0 364.4 L 1076.0 364.3 L 1080.0 363.9 L 1084.0 363.4 L 1088.0 362.8 L 1092.0 362.0 L 1096.0 361.0 L 1100.0 360.0 L 1104.0 358.8 L 1108.0 357.5 L 1112.0 356.0 L 1116.0 354.5 L 1120.0 352.9 L 1124.0 351.2 L 1128.0 349.5 L 1132.0 347.7 L 1136.0 345.9 L 1140.0 344.0 L 1144.0 342.1 L 1148.0 340.2 L 1152.0 338.4 L 1156.0 336.5 L 1160.0 334.6 L 1164.0 332.8 L 1168.0 331.0 L 1172.0 329.2 L 1176.0 327.5 L 1180.0 325.9 L 1184.0 324.3 L 1188.0 322.8 L 1192.0 321.4 L 1196.0 320.0 L 1200.0 318.7" stroke="#ee2be1" stroke-width="7.7" fill="none" opacity="0.38" stroke-linecap="round"/>
<path d="M 0.0 540.2 L 4.0 536.4 L 8.0 532.8 L 12.0 529.3 L 16.0 526.2 L 20.0 523.3 L 24.0 520.8 L 28.0 518.7 L 32.0 517.1 L 36.0 516.1 L 40.0 515.5 L 44.0 515.5 L 48.0 516.1 L 52.0 517.2 L 56.0 518.8 L 60.0 520.9 L 64.0 523.6 L 68.0 526.6 L 72.0 530.0 L 76.0 533.7 L 80.0 537.6 L 84.0 541.7 L 88.0 545.9 L 92.0 550.2 L 96.0 554.4 L 100.0 558.5 L 104.0 562.4 L 108.0 566.2 L 112.0 569.7 L 116.0 572.9 L 120.0 575.8 L 124.0 578.4 L 128.0 580.7 L 132.0 582.6 L 136.0 584.2 L 140.0 585.5 L 144.0 586.6 L 148.0 587.4 L 152.0 588.1 L 156.0 588.6 L 160.0 589.0 L 164.0 589.5 L 168.0 589.9 L 172.0 590.3 L 176.0 590.9 L 180.0 591.6 L 184.0 592.5 L 188.0 593.5 L 192.0 594.8 L 196.0 596.2 L 200.0 597.8 L 204.0 599.6 L 208.0 601.6 L 212.0 603.7 L 216.0 605.8 L 220.0 608.0 L 224.0 610.1 L 228.0 612.1 L 232.0 614.0 L 236.0 615.7 L 240.0 617.2 L 244.0 618.3 L 248.0 619.1 L 252.0 619.4 L 256.0 619.3 L 260.0 618.7 L 264.0 617.6 L 268.0 616.0 L 272.0 613.9 L 276.0 611.3 L 280.0 608.3 L 284.0 604.8 L 288.0 600.9 L 292.0 596.6 L 296.0 592.1 L 300.0 587.3 L 304.0 582.4 L 308.0 577.5 L 312.0 572.5 L 316.0 567.6 L 320.0 562.8 L 324.0 558.2 L 328.0 553.9 L 332.0 549.9 L 336.0 546.3 L 340.0 543.1 L 344.0 540.3 L 348.0 537.9 L 352.0 536.0 L 356.0 534.6 L 360.0 533.5 L 364.0 532.9 L 368.0 532.6 L 372.0 532.7 L 376.0 533.1 L 380.0 533.7 L 384.0 534.4 L 388.0 535.3 L 392.0 536.3 L 396.0 537.3 L 400.0 538.2 L 404.0 539.1 L 408.0 539.9 L 412.0 540.6 L 416.0 541.1 L 420.0 541.4 L 424.0 541.5 L 428.0 541.5 L 432.0 541.4 L 436.0 541.1 L 440.0 540.8 L 444.0 540.3 L 448.0 539.9 L 452.0 539.5 L 456.0 539.3 L 460.0 539.1 L 464.0 539.2 L 468.0 539.5 L 472.0 540.1 L 476.0 541.1 L 480.0 542.4 L 484.0 544.0 L 488.0 546.1 L 492.0 548.6 L 496.0 551.5 L 500.0 554.8 L 504.0 558.5 L 508.0 562.5 L 512.0 566.8 L 516.0 571.3 L 520.0 576.0 L 524.0 580.8 L 528.0 585.6 L 532.0 590.4 L 536.0 595.1 L 540.0 599.6 L 544.0 603.9 L 548.0 607.8 L 552.0 611.4 L 556.0 614.6 L 560.0 617.3 L 564.0 619.5 L 568.0 621.2 L 572.0 622.3 L 576.0 623.0 L 580.0 623.1 L 584.0 622.7 L 588.0 621.8 L 592.0 620.5 L 596.0 618.9 L 600.0 616.8 L 604.0 614.6 L 608.0 612.1 L 612.0 609.4 L 616.0 606.7 L 620.0 603.9 L 624.0 601.1 L 628.0 598.5 L 632.0 595.9 L 636.0 593.6 L 640.0 591.4 L 644.0 589.4 L 648.0 587.6 L 652.0 586.1 L 656.0 584.8 L 660.0 583.6 L 664.0 582.7 L 668.0 581.9 L 672.0 581.2 L 676.0 580.5 L 680.0 579.9 L 684.0 579.2 L 688.0 578.4 L 692.0 577.5 L 696.0 576.4 L 700.0 575.1 L 704.0 573.6 L 708.0 571.8 L 712.0 569.7 L 716.0 567.4 L 720.0 564.7 L 724.0 561.8 L 728.0 558.6 L 732.0 555.2 L 736.0 551.6 L 740.0 547.9 L 744.0 544.1 L 748.0 540.3 L 752.0 536.6 L 756.0 532.9 L 760.0 529.5 L 764.0 526.3 L 768.0 523.4 L 772.0 520.9 L 776.0 518.8 L 780.0 517.2 L 784.0 516.1 L 788.0 515.5 L 792.0 515.5 L 796.0 516.0 L 800.0 517.1 L 804.0 518.7 L 808.0 520.8 L 812.0 523.4 L 816.0 526.4 L 820.0 529.8 L 824.0 533.5 L 828.0 537.4 L 832.0 541.5 L 836.0 545.7 L 840.0 550.0 L 844.0 554.2 L 848.0 558.3 L 852.0 562.3 L 856.0 566.0 L 860.0 569.6 L 864.0 572.8 L 868.0 575.7 L 872.0 578.3 L 876.0 580.6 L 880.0 582.5 L 884.0 584.1 L 888.0 585.5 L 892.0 586.5 L 896.0 587.4 L 900.0 588.1 L 904.0 588.6 L 908.0 589.0 L 912.0 589.4 L 916.0 589.9 L 920.0 590.3 L 924.0 590.9 L 928.0 591.6 L 932.0 592.4 L 936.0 593.5 L 940.0 594.7 L 944.0 596.2 L 948.0 597.8 L 952.0 599.6 L 956.0 601.5 L 960.0 603.6 L 964.0 605.7 L 968.0 607.9 L 972.0 610.0 L 976.0 612.1 L 980.0 614.0 L 984.0 615.7 L 988.0 617.1 L 992.0 618.3 L 996.0 619.0 L 1000.0 619.4 L 1004.0 619.3 L 1008.0 618.8 L 1012.0 617.7 L 1016.0 616.1 L 1020.0 614.0 L 1024.0 611.5 L 1028.0 608.4 L 1032.0 604.9 L 1036.0 601.0 L 1040.0 596.8 L 1044.0 592.3 L 1048.0 587.5 L 1052.0 582.6 L 1056.0 577.7 L 1060.0 572.7 L 1064.0 567.8 L 1068.0 563.0 L 1072.0 558.4 L 1076.0 554.1 L 1080.0 550.1 L 1084.0 546.4 L 1088.0 543.2 L 1092.0 540.4 L 1096.0 538.0 L 1100.0 536.1 L 1104.0 534.6 L 1108.0 533.6 L 1112.0 532.9 L 1116.0 532.6 L 1120.0 532.7 L 1124.0 533.0 L 1128.0 533.6 L 1132.0 534.4 L 1136.0 535.3 L 1140.0 536.3 L 1144.0 537.2 L 1148.0 538.2 L 1152.0 539.1 L 1156.0 539.9 L 1160.0 540.5 L 1164.0 541.0 L 1168.0 541.4 L 1172.0 541.5 L 1176.0 541.5 L 1180.0 541.4 L 1184.0 541.1 L 1188.0 540.8 L 1192.0 540.4 L 1196.0 539.9 L 1200.0 539.6" stroke="#ee2be1" stroke-width="17.4" fill="none" opacity="0.08" stroke-linecap="round"/>
<path d="M 0.0 540.2 L 4.0 536.4 L 8.0 532.8 L 12.0 529.3 L 16.0 526.2 L 20.0 523.3 L 24.0 520.8 L 28.0 518.7 L 32.0 517.1 L 36.0 516.1 L 40.0 515.5 L 44.0 515.5 L 48.0 516.1 L 52.0 517.2 L 56.0 518.8 L 60.0 520.9 L 64.0 523.6 L 68.0 526.6 L 72.0 530.0 L 76.0 533.7 L 80.0 537.6 L 84.0 541.7 L 88.0 545.9 L 92.0 550.2 L 96.0 554.4 L 100.0 558.5 L 104.0 562.4 L 108.0 566.2 L 112.0 569.7 L 116.0 572.9 L 120.0 575.8 L 124.0 578.4 L 128.0 580.7 L 132.0 582.6 L 136.0 584.2 L 140.0 585.5 L 144.0 586.6 L 148.0 587.4 L 152.0 588.1 L 156.0 588.6 L 160.0 589.0 L 164.0 589.5 L 168.0 589.9 L 172.0 590.3 L 176.0 590.9 L 180.0 591.6 L 184.0 592.5 L 188.0 593.5 L 192.0 594.8 L 196.0 596.2 L 200.0 597.8 L 204.0 599.6 L 208.0 601.6 L 212.0 603.7 L 216.0 605.8 L 220.0 608.0 L 224.0 610.1 L 228.0 612.1 L 232.0 614.0 L 236.0 615.7 L 240.0 617.2 L 244.0 618.3 L 248.0 619.1 L 252.0 619.4 L 256.0 619.3 L 260.0 618.7 L 264.0 617.6 L 268.0 616.0 L 272.0 613.9 L 276.0 611.3 L 280.0 608.3 L 284.0 604.8 L 288.0 600.9 L 292.0 596.6 L 296.0 592.1 L 300.0 587.3 L 304.0 582.4 L 308.0 577.5 L 312.0 572.5 L 316.0 567.6 L 320.0 562.8 L 324.0 558.2 L 328.0 553.9 L 332.0 549.9 L 336.0 546.3 L 340.0 543.1 L 344.0 540.3 L 348.0 537.9 L 352.0 536.0 L 356.0 534.6 L 360.0 533.5 L 364.0 532.9 L 368.0 532.6 L 372.0 532.7 L 376.0 533.1 L 380.0 533.7 L 384.0 534.4 L 388.0 535.3 L 392.0 536.3 L 396.0 537.3 L 400.0 538.2 L 404.0 539.1 L 408.0 539.9 L 412.0 540.6 L 416.0 541.1 L 420.0 541.4 L 424.0 541.5 L 428.0 541.5 L 432.0 541.4 L 436.0 541.1 L 440.0 540.8 L 444.0 540.3 L 448.0 539.9 L 452.0 539.5 L 456.0 539.3 L 460.0 539.1 L 464.0 539.2 L 468.0 539.5 L 472.0 540.1 L 476.0 541.1 L 480.0 542.4 L 484.0 544.0 L 488.0 546.1 L 492.0 548.6 L 496.0 551.5 L 500.0 554.8 L 504.0 558.5 L 508.0 562.5 L 512.0 566.8 L 516.0 571.3 L 520.0 576.0 L 524.0 580.8 L 528.0 585.6 L 532.0 590.4 L 536.0 595.1 L 540.0 599.6 L 544.0 603.9 L 548.0 607.8 L 552.0 611.4 L 556.0 614.6 L 560.0 617.3 L 564.0 619.5 L 568.0 621.2 L 572.0 622.3 L 576.0 623.0 L 580.0 623.1 L 584.0 622.7 L 588.0 621.8 L 592.0 620.5 L 596.0 618.9 L 600.0 616.8 L 604.0 614.6 L 608.0 612.1 L 612.0 609.4 L 616.0 606.7 L 620.0 603.9 L 624.0 601.1 L 628.0 598.5 L 632.0 595.9 L 636.0 593.6 L 640.0 591.4 L 644.0 589.4 L 648.0 587.6 L 652.0 586.1 L 656.0 584.8 L 660.0 583.6 L 664.0 582.7 L 668.0 581.9 L 672.0 581.2 L 676.0 580.5 L 680.0 579.9 L 684.0 579.2 L 688.0 578.4 L 692.0 577.5 L 696.0 576.4 L 700.0 575.1 L 704.0 573.6 L 708.0 571.8 L 712.0 569.7 L 716.0 567.4 L 720.0 564.7 L 724.0 561.8 L 728.0 558.6 L 732.0 555.2 L 736.0 551.6 L 740.0 547.9 L 744.0 544.1 L 748.0 540.3 L 752.0 536.6 L 756.0 532.9 L 760.0 529.5 L 764.0 526.3 L 768.0 523.4 L 772.0 520.9 L 776.0 518.8 L 780.0 517.2 L 784.0 516.1 L 788.0 515.5 L 792.0 515.5 L 796.0 516.0 L 800.0 517.1 L 804.0 518.7 L 808.0 520.8 L 812.0 523.4 L 816.0 526.4 L 820.0 529.8 L 824.0 533.5 L 828.0 537.4 L 832.0 541.5 L 836.0 545.7 L 840.0 550.0 L 844.0 554.2 L 848.0 558.3 L 852.0 562.3 L 856.0 566.0 L 860.0 569.6 L 864.0 572.8 L 868.0 575.7 L 872.0 578.3 L 876.0 580.6 L 880.0 582.5 L 884.0 584.1 L 888.0 585.5 L 892.0 586.5 L 896.0 587.4 L 900.0 588.1 L 904.0 588.6 L 908.0 589.0 L 912.0 589.4 L 916.0 589.9 L 920.0 590.3 L 924.0 590.9 L 928.0 591.6 L 932.0 592.4 L 936.0 593.5 L 940.0 594.7 L 944.0 596.2 L 948.0 597.8 L 952.0 599.6 L 956.0 601.5 L 960.0 603.6 L 964.0 605.7 L 968.0 607.9 L 972.0 610.0 L 976.0 612.1 L 980.0 614.0 L 984.0 615.7 L 988.0 617.1 L 992.0 618.3 L 996.0 619.0 L 1000.0 619.4 L 1004.0 619.3 L 1008.0 618.8 L 1012.0 617.7 L 1016.0 616.1 L 1020.0 614.0 L 1024.0 611.5 L 1028.0 608.4 L 1032.0 604.9 L 1036.0 601.0 L 1040.0 596.8 L 1044.0 592.3 L 1048.0 587.5 L 1052.0 582.6 L 1056.0 577.7 L 1060.0 572.7 L 1064.0 567.8 L 1068.0 563.0 L 1072.0 558.4 L 1076.0 554.1 L 1080.0 550.1 L 1084.0 546.4 L 1088.0 543.2 L 1092.0 540.4 L 1096.0 538.0 L 1100.0 536.1 L 1104.0 534.6 L 1108.0 533.6 L 1112.0 532.9 L 1116.0 532.6 L 1120.0 532.7 L 1124.0 533.0 L 1128.0 533.6 L 1132.0 534.4 L 1136.0 535.3 L 1140.0 536.3 L 1144.0 537.2 L 1148.0 538.2 L 1152.0 539.1 L 1156.0 539.9 L 1160.0 540.5 L 1164.0 541.0 L 1168.0 541.4 L 1172.0 541.5 L 1176.0 541.5 L 1180.0 541.4 L 1184.0 541.1 L 1188.0 540.8 L 1192.0 540.4 L 1196.0 539.9 L 1200.0 539.6" stroke="#ee2be1" stroke-width="6.9" fill="none" opacity="0.51" stroke-linecap="round"/>
<path d="M 0.0 383.2 L 4.0 387.1 L 8.0 389.7 L 12.0 391.1 L 16.0 391.1 L 20.0 389.9 L 24.0 387.4 L 28.0 383.6 L 32.0 378.8 L 36.0 372.9 L 40.0 366.1 L 44.0 358.7 L 48.0 350.6 L 52.0 342.1 L 56.0 333.4 L 60.0 324.6 L 64.0 316.0 L 68.0 307.6 L 72.0 299.6 L 76.0 292.1 L 80.0 285.2 L 84.0 279.0 L 88.0 273.5 L 92.0 268.8 L 96.0 264.7 L 100.0 261.3 L 104.0 258.6 L 108.0 256.4 L 112.0 254.6 L 116.0 253.1 L 120.0 251.9 L 124.0 250.7 L 128.0 249.5 L 132.0 248.1 L 136.0 246.5 L 140.0 244.6 L 144.0 242.2 L 148.0 239.4 L 152.0 236.0 L 156.0 232.2 L 160.0 228.0 L 164.0 223.3 L 168.0 218.3 L 172.0 213.1 L 176.0 207.8 L 180.0 202.5 L 184.0 197.4 L 188.0 192.6 L 192.0 188.3 L 196.0 184.7 L 200.0 181.8 L 204.0 179.8 L 208.0 178.9 L 212.0 179.0 L 216.0 180.4 L 220.0 182.9 L 224.0 186.7 L 228.0 191.6 L 232.0 197.8 L 236.0 204.9 L 240.0 213.1 L 244.0 222.0 L 248.0 231.7 L 252.0 241.9 L 256.0 252.4 L 260.0 263.1 L 264.0 273.7 L 268.0 284.1 L 272.0 294.2 L 276.0 303.7 L 280.0 312.5 L 284.0 320.5 L 288.0 327.6 L 292.0 333.8 L 296.0 339.0 L 300.0 343.1 L 304.0 346.3 L 308.0 348.5 L 312.0 349.9 L 316.0 350.5 L 320.0 350.4 L 324.0 349.7 L 328.0 348.6 L 332.0 347.3 L 336.0 345.7 L 340.0 344.2 L 344.0 342.8 L 348.0 341.5 L 352.0 340.5 L 356.0 339.9 L 360.0 339.7 L 364.0 339.8 L 368.0 340.4 L 372.0 341.2 L 376.0 342.4 L 380.0 343.8 L 384.0 345.2 L 388.0 346.7 L 392.0 348.0 L 396.0 349.1 L 400.0 349.7 L 404.0 349.8 L 408.0 349.2 L 412.0 347.9 L 416.0 345.7 L 420.0 342.5 L 424.0 338.4 L 428.0 333.3 L 432.0 327.2 L 436.0 320.1 L 440.0 312.1 L 444.0 303.3 L 448.0 293.9 L 452.0 283.8 L 456.0 273.4 L 460.0 262.8 L 464.0 252.2 L 468.0 241.7 L 472.0 231.5 L 476.0 221.8 L 480.0 212.8 L 484.0 204.7 L 488.0 197.5 L 492.0 191.4 L 496.0 186.4 L 500.0 182.6 L 504.0 180.0 L 508.0 178.7 L 512.0 178.5 L 516.0 179.5 L 520.0 181.4 L 524.0 184.3 L 528.0 188.0 L 532.0 192.3 L 536.0 197.1 L 540.0 202.3 L 544.0 207.6 L 548.0 213.0 L 552.0 218.3 L 556.0 223.4 L 560.0 228.1 L 564.0 232.5 L 568.0 236.4 L 572.0 239.8 L 576.0 242.7 L 580.0 245.2 L 584.0 247.2 L 588.0 248.9 L 592.0 250.3 L 596.0 251.5 L 600.0 252.7 L 604.0 254.0 L 608.0 255.4 L 612.0 257.2 L 616.0 259.4 L 620.0 262.1 L 624.0 265.4 L 628.0 269.4 L 632.0 274.1 L 636.0 279.6 L 640.0 285.7 L 644.0 292.5 L 648.0 299.9 L 652.0 307.9 L 656.0 316.2 L 660.0 324.8 L 664.0 333.5 L 668.0 342.2 L 672.0 350.6 L 676.0 358.6 L 680.0 366.1 L 684.0 372.9 L 688.0 378.7 L 692.0 383.6 L 696.0 387.3 L 700.0 389.9 L 704.0 391.1 L 708.0 391.1 L 712.0 389.7 L 716.0 387.1 L 720.0 383.3 L 724.0 378.4 L 728.0 372.4 L 732.0 365.6 L 736.0 358.0 L 740.0 349.9 L 744.0 341.4 L 748.0 332.7 L 752.0 324.0 L 756.0 315.3 L 760.0 306.9 L 764.0 299.0 L 768.0 291.5 L 772.0 284.7 L 776.0 278.6 L 780.0 273.1 L 784.0 268.4 L 788.0 264.4 L 792.0 261.1 L 796.0 258.4 L 800.0 256.2 L 804.0 254.5 L 808.0 253.0 L 812.0 251.8 L 816.0 250.6 L 820.0 249.4 L 824.0 248.0 L 828.0 246.4 L 832.0 244.4 L 836.0 242.0 L 840.0 239.1 L 844.0 235.7 L 848.0 231.9 L 852.0 227.6 L 856.0 222.9 L 860.0 217.9 L 864.0 212.7 L 868.0 207.4 L 872.0 202.1 L 876.0 197.0 L 880.0 192.3 L 884.0 188.0 L 888.0 184.4 L 892.0 181.6 L 896.0 179.7 L 900.0 178.9 L 904.0 179.1 L 908.0 180.5 L 912.0 183.2 L 916.0 187.0 L 920.0 192.1 L 924.0 198.3 L 928.0 205.5 L 932.0 213.8 L 936.0 222.8 L 940.0 232.5 L 944.0 242.7 L 948.0 253.2 L 952.0 263.9 L 956.0 274.5 L 960.0 284.9 L 964.0 294.9 L 968.0 304.4 L 972.0 313.2 L 976.0 321.1 L 980.0 328.2 L 984.0 334.3 L 988.0 339.3 L 992.0 343.4 L 996.0 346.5 L 1000.0 348.7 L 1004.0 350.0 L 1008.0 350.5 L 1012.0 350.3 L 1016.0 349.6 L 1020.0 348.5 L 1024.0 347.1 L 1028.0 345.6 L 1032.0 344.1 L 1036.0 342.7 L 1040.0 341.4 L 1044.0 340.5 L 1048.0 339.9 L 1052.0 339.7 L 1056.0 339.9 L 1060.0 340.4 L 1064.0 341.3 L 1068.0 342.5 L 1072.0 343.9 L 1076.0 345.4 L 1080.0 346.8 L 1084.0 348.1 L 1088.0 349.1 L 1092.0 349.7 L 1096.0 349.8 L 1100.0 349.1 L 1104.0 347.7 L 1108.0 345.5 L 1112.0 342.2 L 1116.0 338.0 L 1120.0 332.8 L 1124.0 326.6 L 1128.0 319.5 L 1132.0 311.4 L 1136.0 302.6 L 1140.0 293.1 L 1144.0 283.0 L 1148.0 272.6 L 1152.0 262.0 L 1156.0 251.3 L 1160.0 240.9 L 1164.0 230.7 L 1168.0 221.1 L 1172.0 212.2 L 1176.0 204.1 L 1180.0 197.0 L 1184.0 190.9 L 1188.0 186.0 L 1192.0 182.3 L 1196.0 179.9 L 1200.0 178.6" stroke="#ee2be1" stroke-width="11.6" fill="none" opacity="0.07" stroke-linecap="round"/>
<path d="M 0.0 383.2 L 4.0 387.1 L 8.0 389.7 L 12.0 391.1 L 16.0 391.1 L 20.0 389.9 L 24.0 387.4 L 28.0 383.6 L 32.0 378.8 L 36.0 372.9 L 40.0 366.1 L 44.0 358.7 L 48.0 350.6 L 52.0 342.1 L 56.0 333.4 L 60.0 324.6 L 64.0 316.0 L 68.0 307.6 L 72.0 299.6 L 76.0 292.1 L 80.0 285.2 L 84.0 279.0 L 88.0 273.5 L 92.0 268.8 L 96.0 264.7 L 100.0 261.3 L 104.0 258.6 L 108.0 256.4 L 112.0 254.6 L 116.0 253.1 L 120.0 251.9 L 124.0 250.7 L 128.0 249.5 L 132.0 248.1 L 136.0 246.5 L 140.0 244.6 L 144.0 242.2 L 148.0 239.4 L 152.0 236.0 L 156.0 232.2 L 160.0 228.0 L 164.0 223.3 L 168.0 218.3 L 172.0 213.1 L 176.0 207.8 L 180.0 202.5 L 184.0 197.4 L 188.0 192.6 L 192.0 188.3 L 196.0 184.7 L 200.0 181.8 L 204.0 179.8 L 208.0 178.9 L 212.0 179.0 L 216.0 180.4 L 220.0 182.9 L 224.0 186.7 L 228.0 191.6 L 232.0 197.8 L 236.0 204.9 L 240.0 213.1 L 244.0 222.0 L 248.0 231.7 L 252.0 241.9 L 256.0 252.4 L 260.0 263.1 L 264.0 273.7 L 268.0 284.1 L 272.0 294.2 L 276.0 303.7 L 280.0 312.5 L 284.0 320.5 L 288.0 327.6 L 292.0 333.8 L 296.0 339.0 L 300.0 343.1 L 304.0 346.3 L 308.0 348.5 L 312.0 349.9 L 316.0 350.5 L 320.0 350.4 L 324.0 349.7 L 328.0 348.6 L 332.0 347.3 L 336.0 345.7 L 340.0 344.2 L 344.0 342.8 L 348.0 341.5 L 352.0 340.5 L 356.0 339.9 L 360.0 339.7 L 364.0 339.8 L 368.0 340.4 L 372.0 341.2 L 376.0 342.4 L 380.0 343.8 L 384.0 345.2 L 388.0 346.7 L 392.0 348.0 L 396.0 349.1 L 400.0 349.7 L 404.0 349.8 L 408.0 349.2 L 412.0 347.9 L 416.0 345.7 L 420.0 342.5 L 424.0 338.4 L 428.0 333.3 L 432.0 327.2 L 436.0 320.1 L 440.0 312.1 L 444.0 303.3 L 448.0 293.9 L 452.0 283.8 L 456.0 273.4 L 460.0 262.8 L 464.0 252.2 L 468.0 241.7 L 472.0 231.5 L 476.0 221.8 L 480.0 212.8 L 484.0 204.7 L 488.0 197.5 L 492.0 191.4 L 496.0 186.4 L 500.0 182.6 L 504.0 180.0 L 508.0 178.7 L 512.0 178.5 L 516.0 179.5 L 520.0 181.4 L 524.0 184.3 L 528.0 188.0 L 532.0 192.3 L 536.0 197.1 L 540.0 202.3 L 544.0 207.6 L 548.0 213.0 L 552.0 218.3 L 556.0 223.4 L 560.0 228.1 L 564.0 232.5 L 568.0 236.4 L 572.0 239.8 L 576.0 242.7 L 580.0 245.2 L 584.0 247.2 L 588.0 248.9 L 592.0 250.3 L 596.0 251.5 L 600.0 252.7 L 604.0 254.0 L 608.0 255.4 L 612.0 257.2 L 616.0 259.4 L 620.0 262.1 L 624.0 265.4 L 628.0 269.4 L 632.0 274.1 L 636.0 279.6 L 640.0 285.7 L 644.0 292.5 L 648.0 299.9 L 652.0 307.9 L 656.0 316.2 L 660.0 324.8 L 664.0 333.5 L 668.0 342.2 L 672.0 350.6 L 676.0 358.6 L 680.0 366.1 L 684.0 372.9 L 688.0 378.7 L 692.0 383.6 L 696.0 387.3 L 700.0 389.9 L 704.0 391.1 L 708.0 391.1 L 712.0 389.7 L 716.0 387.1 L 720.0 383.3 L 724.0 378.4 L 728.0 372.4 L 732.0 365.6 L 736.0 358.0 L 740.0 349.9 L 744.0 341.4 L 748.0 332.7 L 752.0 324.0 L 756.0 315.3 L 760.0 306.9 L 764.0 299.0 L 768.0 291.5 L 772.0 284.7 L 776.0 278.6 L 780.0 273.1 L 784.0 268.4 L 788.0 264.4 L 792.0 261.1 L 796.0 258.4 L 800.0 256.2 L 804.0 254.5 L 808.0 253.0 L 812.0 251.8 L 816.0 250.6 L 820.0 249.4 L 824.0 248.0 L 828.0 246.4 L 832.0 244.4 L 836.0 242.0 L 840.0 239.1 L 844.0 235.7 L 848.0 231.9 L 852.0 227.6 L 856.0 222.9 L 860.0 217.9 L 864.0 212.7 L 868.0 207.4 L 872.0 202.1 L 876.0 197.0 L 880.0 192.3 L 884.0 188.0 L 888.0 184.4 L 892.0 181.6 L 896.0 179.7 L 900.0 178.9 L 904.0 179.1 L 908.0 180.5 L 912.0 183.2 L 916.0 187.0 L 920.0 192.1 L 924.0 198.3 L 928.0 205.5 L 932.0 213.8 L 936.0 222.8 L 940.0 232.5 L 944.0 242.7 L 948.0 253.2 L 952.0 263.9 L 956.0 274.5 L 960.0 284.9 L 964.0 294.9 L 968.0 304.4 L 972.0 313.2 L 976.0 321.1 L 980.0 328.2 L 984.0 334.3 L 988.0 339.3 L 992.0 343.4 L 996.0 346.5 L 1000.0 348.7 L 1004.0 350.0 L 1008.0 350.5 L 1012.0 350.3 L 1016.0 349.6 L 1020.0 348.5 L 1024.0 347.1 L 1028.0 345.6 L 1032.0 344.1 L 1036.0 342.7 L 1040.0 341.4 L 1044.0 340.5 L 1048.0 339.9 L 1052.0 339.7 L 1056.0 339.9 L 1060.0 340.4 L 1064.0 341.3 L 1068.0 342.5 L 1072.0 343.9 L 1076.0 345.4 L 1080.0 346.8 L 1084.0 348.1 L 1088.0 349.1 L 1092.0 349.7 L 1096.0 349.8 L 1100.0 349.1 L 1104.0 347.7 L 1108.0 345.5 L 1112.0 342.2 L 1116.0 338.0 L 1120.0 332.8 L 1124.0 326.6 L 1128.0 319.5 L 1132.0 311.4 L 1136.0 302.6 L 1140.0 293.1 L 1144.0 283.0 L 1148.0 272.6 L 1152.0 262.0 L 1156.0 251.3 L 1160.0 240.9 L 1164.0 230.7 L 1168.0 221.1 L 1172.0 212.2 L 1176.0 204.1 L 1180.0 197.0 L 1184.0 190.9 L 1188.0 186.0 L 1192.0 182.3 L 1196.0 179.9 L 1200.0 178.6" stroke="#ee2be1" stroke-width="4.6" fill="none" opacity="0.49" stroke-linecap="round"/>
<path d="M 0.0 217.0 L 4.0 212.2 L 8.0 207.3 L 12.0 202.5 L 16.0 197.5 L 20.0 192.6 L 24.0 187.7 L 28.0 182.7 L 32.0 177.8 L 36.0 172.9 L 40.0 168.1 L 44.0 163.3 L 48.0 158.6 L 52.0 153.9 L 56.0 149.4 L 60.0 144.9 L 64.0 140.6 L 68.0 136.4 L 72.0 132.3 L 76.0 128.4 L 80.0 124.6 L 84.0 121.0 L 88.0 117.5 L 92.0 114.3 L 96.0 111.2 L 100.0 108.4 L 104.0 105.7 L 108.0 103.2 L 112.0 101.0 L 116.0 99.0 L 120.0 97.2 L 124.0 95.6 L 128.0 94.3 L 132.0 93.2 L 136.0 92.3 L 140.0 91.7 L 144.0 91.3 L 148.0 91.2 L 152.0 91.3 L 156.0 91.6 L 160.0 92.1 L 164.0 92.9 L 168.0 93.9 L 172.0 95.1 L 176.0 96.5 L 180.0 98.1 L 184.0 99.9 L 188.0 102.0 L 192.0 104.1 L 196.0 106.5 L 200.0 109.0 L 204.0 111.7 L 208.0 114.6 L 212.0 117.6 L 216.0 120.7 L 220.0 123.9 L 224.0 127.2 L 228.0 130.6 L 232.0 134.1 L 236.0 137.7 L 240.0 141.3 L 244.0 145.0 L 248.0 148.7 L 252.0 152.5 L 256.0 156.3 L 260.0 160.1 L 264.0 163.8 L 268.0 167.6 L 272.0 171.4 L 276.0 175.1 L 280.0 178.7 L 284.0 182.4 L 288.0 185.9 L 292.0 189.4 L 296.0 192.8 L 300.0 196.2 L 304.0 199.4 L 308.0 202.6 L 312.0 205.7 L 316.0 208.7 L 320.0 211.5 L 324.0 214.3 L 328.0 216.9 L 332.0 219.5 L 336.0 221.9 L 340.0 224.2 L 344.0 226.4 L 348.0 228.5 L 352.0 230.5 L 356.0 232.3 L 360.0 234.1 L 364.0 235.8 L 368.0 237.3 L 372.0 238.8 L 376.0 240.1 L 380.0 241.4 L 384.0 242.6 L 388.0 243.8 L 392.0 244.8 L 396.0 245.8 L 400.0 246.8 L 404.0 247.7 L 408.0 248.5 L 412.0 249.4 L 416.0 250.2 L 420.0 251.0 L 424.0 251.8 L 428.0 252.5 L 432.0 253.3 L 436.0 254.1 L 440.0 255.0 L 444.0 255.9 L 448.0 256.8 L 452.0 257.7 L 456.0 258.7 L 460.0 259.8 L 464.0 260.9 L 468.0 262.2 L 472.0 263.4 L 476.0 264.8 L 480.0 266.3 L 484.0 267.8 L 488.0 269.5 L 492.0 271.2 L 496.0 273.1 L 500.0 275.1 L 504.0 277.1 L 508.0 279.3 L 512.0 281.6 L 516.0 283.9 L 520.0 286.4 L 524.0 289.0 L 528.0 291.7 L 532.0 294.5 L 536.0 297.3 L 540.0 300.3 L 544.0 303.3 L 548.0 306.5 L 552.0 309.7 L 556.0 312.9 L 560.0 316.2 L 564.0 319.6 L 568.0 323.0 L 572.0 326.4 L 576.0 329.9 L 580.0 333.4 L 584.0 336.9 L 588.0 340.4 L 592.0 343.8 L 596.0 347.3 L 600.0 350.7 L 604.0 354.0 L 608.0 357.3 L 612.0 360.6 L 616.0 363.7 L 620.0 366.8 L 624.0 369.7 L 628.0 372.6 L 632.0 375.3 L 636.0 377.9 L 640.0 380.4 L 644.0 382.7 L 648.0 384.8 L 652.0 386.8 L 656.0 388.6 L 660.0 390.2 L 664.0 391.6 L 668.0 392.8 L 672.0 393.8 L 676.0 394.6 L 680.0 395.2 L 684.0 395.6 L 688.0 395.7 L 692.0 395.6 L 696.0 395.3 L 700.0 394.7 L 704.0 393.9 L 708.0 392.9 L 712.0 391.6 L 716.0 390.2 L 720.0 388.4 L 724.0 386.5 L 728.0 384.3 L 732.0 381.9 L 736.0 379.3 L 740.0 376.5 L 744.0 373.5 L 748.0 370.2 L 752.0 366.8 L 756.0 363.2 L 760.0 359.5 L 764.0 355.5 L 768.0 351.4 L 772.0 347.2 L 776.0 342.8 L 780.0 338.3 L 784.0 333.7 L 788.0 329.0 L 792.0 324.2 L 796.0 319.3 L 800.0 314.4 L 804.0 309.4 L 808.0 304.3 L 812.0 299.2 L 816.0 294.1 L 820.0 289.0 L 824.0 283.9 L 828.0 278.8 L 832.0 273.8 L 836.0 268.7 L 840.0 263.8 L 844.0 258.9 L 848.0 254.0 L 852.0 249.3 L 856.0 244.6 L 860.0 240.0 L 864.0 235.6 L 868.0 231.2 L 872.0 227.0 L 876.0 222.9 L 880.0 219.0 L 884.0 215.1 L 888.0 211.5 L 892.0 208.0 L 896.0 204.6 L 900.0 201.4 L 904.0 198.4 L 908.0 195.5 L 912.0 192.8 L 916.0 190.3 L 920.0 187.9 L 924.0 185.7 L 928.0 183.6 L 932.0 181.7 L 936.0 180.0 L 940.0 178.4 L 944.0 176.9 L 948.0 175.6 L 952.0 174.5 L 956.0 173.4 L 960.0 172.5 L 964.0 171.7 L 968.0 171.1 L 972.0 170.5 L 976.0 170.1 L 980.0 169.7 L 984.0 169.4 L 988.0 169.2 L 992.0 169.0 L 996.0 168.9 L 1000.0 168.9 L 1004.0 168.9 L 1008.0 168.9 L 1012.0 169.0 L 1016.0 169.1 L 1020.0 169.1 L 1024.0 169.2 L 1028.0 169.3 L 1032.0 169.3 L 1036.0 169.4 L 1040.0 169.4 L 1044.0 169.3 L 1048.0 169.3 L 1052.0 169.1 L 1056.0 168.9 L 1060.0 168.7 L 1064.0 168.4 L 1068.0 168.0 L 1072.0 167.6 L 1076.0 167.1 L 1080.0 166.5 L 1084.0 165.8 L 1088.0 165.1 L 1092.0 164.3 L 1096.0 163.4 L 1100.0 162.4 L 1104.0 161.4 L 1108.0 160.3 L 1112.0 159.1 L 1116.0 157.9 L 1120.0 156.6 L 1124.0 155.2 L 1128.0 153.8 L 1132.0 152.4 L 1136.0 150.9 L 1140.0 149.4 L 1144.0 147.9 L 1148.0 146.3 L 1152.0 144.8 L 1156.0 143.2 L 1160.0 141.7 L 1164.0 140.2 L 1168.0 138.7 L 1172.0 137.2 L 1176.0 135.8 L 1180.0 134.4 L 1184.0 133.1 L 1188.0 131.9 L 1192.0 130.8 L 1196.0 129.7 L 1200.0 128.8" stroke="#ee2be1" stroke-width="13.3" fill="none" opacity="0.06" stroke-linecap="round"/>
<path d="M 0.0 217.0 L 4.0 212.2 L 8.0 207.3 L 12.0 202.5 L 16.0 197.5 L 20.0 192.6 L 24.0 187.7 L 28.0 182.7 L 32.0 177.8 L 36.0 172.9 L 40.0 168.1 L 44.0 163.3 L 48.0 158.6 L 52.0 153.9 L 56.0 149.4 L 60.0 144.9 L 64.0 140.6 L 68.0 136.4 L 72.0 132.3 L 76.0 128.4 L 80.0 124.6 L 84.0 121.0 L 88.0 117.5 L 92.0 114.3 L 96.0 111.2 L 100.0 108.4 L 104.0 105.7 L 108.0 103.2 L 112.0 101.0 L 116.0 99.0 L 120.0 97.2 L 124.0 95.6 L 128.0 94.3 L 132.0 93.2 L 136.0 92.3 L 140.0 91.7 L 144.0 91.3 L 148.0 91.2 L 152.0 91.3 L 156.0 91.6 L 160.0 92.1 L 164.0 92.9 L 168.0 93.9 L 172.0 95.1 L 176.0 96.5 L 180.0 98.1 L 184.0 99.9 L 188.0 102.0 L 192.0 104.1 L 196.0 106.5 L 200.0 109.0 L 204.0 111.7 L 208.0 114.6 L 212.0 117.6 L 216.0 120.7 L 220.0 123.9 L 224.0 127.2 L 228.0 130.6 L 232.0 134.1 L 236.0 137.7 L 240.0 141.3 L 244.0 145.0 L 248.0 148.7 L 252.0 152.5 L 256.0 156.3 L 260.0 160.1 L 264.0 163.8 L 268.0 167.6 L 272.0 171.4 L 276.0 175.1 L 280.0 178.7 L 284.0 182.4 L 288.0 185.9 L 292.0 189.4 L 296.0 192.8 L 300.0 196.2 L 304.0 199.4 L 308.0 202.6 L 312.0 205.7 L 316.0 208.7 L 320.0 211.5 L 324.0 214.3 L 328.0 216.9 L 332.0 219.5 L 336.0 221.9 L 340.0 224.2 L 344.0 226.4 L 348.0 228.5 L 352.0 230.5 L 356.0 232.3 L 360.0 234.1 L 364.0 235.8 L 368.0 237.3 L 372.0 238.8 L 376.0 240.1 L 380.0 241.4 L 384.0 242.6 L 388.0 243.8 L 392.0 244.8 L 396.0 245.8 L 400.0 246.8 L 404.0 247.7 L 408.0 248.5 L 412.0 249.4 L 416.0 250.2 L 420.0 251.0 L 424.0 251.8 L 428.0 252.5 L 432.0 253.3 L 436.0 254.1 L 440.0 255.0 L 444.0 255.9 L 448.0 256.8 L 452.0 257.7 L 456.0 258.7 L 460.0 259.8 L 464.0 260.9 L 468.0 262.2 L 472.0 263.4 L 476.0 264.8 L 480.0 266.3 L 484.0 267.8 L 488.0 269.5 L 492.0 271.2 L 496.0 273.1 L 500.0 275.1 L 504.0 277.1 L 508.0 279.3 L 512.0 281.6 L 516.0 283.9 L 520.0 286.4 L 524.0 289.0 L 528.0 291.7 L 532.0 294.5 L 536.0 297.3 L 540.0 300.3 L 544.0 303.3 L 548.0 306.5 L 552.0 309.7 L 556.0 312.9 L 560.0 316.2 L 564.0 319.6 L 568.0 323.0 L 572.0 326.4 L 576.0 329.9 L 580.0 333.4 L 584.0 336.9 L 588.0 340.4 L 592.0 343.8 L 596.0 347.3 L 600.0 350.7 L 604.0 354.0 L 608.0 357.3 L 612.0 360.6 L 616.0 363.7 L 620.0 366.8 L 624.0 369.7 L 628.0 372.6 L 632.0 375.3 L 636.0 377.9 L 640.0 380.4 L 644.0 382.7 L 648.0 384.8 L 652.0 386.8 L 656.0 388.6 L 660.0 390.2 L 664.0 391.6 L 668.0 392.8 L 672.0 393.8 L 676.0 394.6 L 680.0 395.2 L 684.0 395.6 L 688.0 395.7 L 692.0 395.6 L 696.0 395.3 L 700.0 394.7 L 704.0 393.9 L 708.0 392.9 L 712.0 391.6 L 716.0 390.2 L 720.0 388.4 L 724.0 386.5 L 728.0 384.3 L 732.0 381.9 L 736.0 379.3 L 740.0 376.5 L 744.0 373.5 L 748.0 370.2 L 752.0 366.8 L 756.0 363.2 L 760.0 359.5 L 764.0 355.5 L 768.0 351.4 L 772.0 347.2 L 776.0 342.8 L 780.0 338.3 L 784.0 333.7 L 788.0 329.0 L 792.0 324.2 L 796.0 319.3 L 800.0 314.4 L 804.0 309.4 L 808.0 304.3 L 812.0 299.2 L 816.0 294.1 L 820.0 289.0 L 824.0 283.9 L 828.0 278.8 L 832.0 273.8 L 836.0 268.7 L 840.0 263.8 L 844.0 258.9 L 848.0 254.0 L 852.0 249.3 L 856.0 244.6 L 860.0 240.0 L 864.0 235.6 L 868.0 231.2 L 872.0 227.0 L 876.0 222.9 L 880.0 219.0 L 884.0 215.1 L 888.0 211.5 L 892.0 208.0 L 896.0 204.6 L 900.0 201.4 L 904.0 198.4 L 908.0 195.5 L 912.0 192.8 L 916.0 190.3 L 920.0 187.9 L 924.0 185.7 L 928.0 183.6 L 932.0 181.7 L 936.0 180.0 L 940.0 178.4 L 944.0 176.9 L 948.0 175.6 L 952.0 174.5 L 956.0 173.4 L 960.0 172.5 L 964.0 171.7 L 968.0 171.1 L 972.0 170.5 L 976.0 170.1 L 980.0 169.7 L 984.0 169.4 L 988.0 169.2 L 992.0 169.0 L 996.0 168.9 L 1000.0 168.9 L 1004.0 168.9 L 1008.0 168.9 L 1012.0 169.0 L 1016.0 169.1 L 1020.0 169.1 L 1024.0 169.2 L 1028.0 169.3 L 1032.0 169.3 L 1036.0 169.4 L 1040.0 169.4 L 1044.0 169.3 L 1048.0 169.3 L 1052.0 169.1 L 1056.0 168.9 L 1060.0 168.7 L 1064.0 168.4 L 1068.0 168.0 L 1072.0 167.6 L 1076.0 167.1 L 1080.0 166.5 L 1084.0 165.8 L 1088.0 165.1 L 1092.0 164.3 L 1096.0 163.4 L 1100.0 162.4 L 1104.0 161.4 L 1108.0 160.3 L 1112.0 159.1 L 1116.0 157.9 L 1120.0 156.6 L 1124.0 155.2 L 1128.0 153.8 L 1132.0 152.4 L 1136.0 150.9 L 1140.0 149.4 L 1144.0 147.9 L 1148.0 146.3 L 1152.0 144.8 L 1156.0 143.2 L 1160.0 141.7 L 1164.0 140.2 L 1168.0 138.7 L 1172.0 137.2 L 1176.0 135.8 L 1180.0 134.4 L 1184.0 133.1 L 1188.0 131.9 L 1192.0 130.8 L 1196.0 129.7 L 1200.0 128.8" stroke="#ee2be1" stroke-width="5.3" fill="none" opacity="0.38" stroke-linecap="round"/>
<path d="M 0 1200 L 0.0 556.7 L 4.0 559.7 L 8.0 563.1 L 12.0 566.6 L 16.0 570.3 L 20.0 574.3 L 24.0 578.4 L 28.0 582.7 L 32.0 587.2 L 36.0 591.9 L 40.0 596.7 L 44.0 601.6 L 48.0 606.7 L 52.0 611.9 L 56.0 617.2 L 60.0 622.6 L 64.0 628.1 L 68.0 633.6 L 72.0 639.2 L 76.0 644.9 L 80.0 650.6 L 84.0 656.3 L 88.0 662.0 L 92.0 667.8 L 96.0 673.5 L 100.0 679.1 L 104.0 684.8 L 108.0 690.3 L 112.0 695.9 L 116.0 701.3 L 120.0 706.6 L 124.0 711.8 L 128.0 717.0 L 132.0 721.9 L 136.0 726.8 L 140.0 731.5 L 144.0 736.0 L 148.0 740.4 L 152.0 744.6 L 156.0 748.6 L 160.0 752.4 L 164.0 756.0 L 168.0 759.3 L 172.0 762.5 L 176.0 765.4 L 180.0 768.1 L 184.0 770.5 L 188.0 772.7 L 192.0 774.7 L 196.0 776.4 L 200.0 777.8 L 204.0 778.9 L 208.0 779.8 L 212.0 780.5 L 216.0 780.8 L 220.0 780.9 L 224.0 780.7 L 228.0 780.3 L 232.0 779.5 L 236.0 778.5 L 240.0 777.3 L 244.0 775.8 L 248.0 774.0 L 252.0 771.9 L 256.0 769.7 L 260.0 767.1 L 264.0 764.3 L 268.0 761.3 L 272.0 758.1 L 276.0 754.6 L 280.0 751.0 L 284.0 747.1 L 288.0 743.0 L 292.0 738.8 L 296.0 734.4 L 300.0 729.8 L 304.0 725.0 L 308.0 720.1 L 312.0 715.1 L 316.0 709.9 L 320.0 704.6 L 324.0 699.3 L 328.0 693.8 L 332.0 688.3 L 336.0 682.7 L 340.0 677.0 L 344.0 671.4 L 348.0 665.6 L 352.0 659.9 L 356.0 654.2 L 360.0 648.5 L 364.0 642.8 L 368.0 637.2 L 372.0 631.6 L 376.0 626.0 L 380.0 620.6 L 384.0 615.2 L 388.0 609.9 L 392.0 604.8 L 396.0 599.8 L 400.0 594.9 L 404.0 590.1 L 408.0 585.5 L 412.0 581.1 L 416.0 576.8 L 420.0 572.8 L 424.0 568.9 L 428.0 565.3 L 432.0 561.8 L 436.0 558.6 L 440.0 555.6 L 444.0 552.8 L 448.0 550.3 L 452.0 548.0 L 456.0 546.0 L 460.0 544.2 L 464.0 542.7 L 468.0 541.4 L 472.0 540.4 L 476.0 539.7 L 480.0 539.3 L 484.0 539.1 L 488.0 539.2 L 492.0 539.5 L 496.0 540.2 L 500.0 541.1 L 504.0 542.3 L 508.0 543.7 L 512.0 545.4 L 516.0 547.3 L 520.0 549.5 L 524.0 552.0 L 528.0 554.7 L 532.0 557.6 L 536.0 560.8 L 540.0 564.2 L 544.0 567.7 L 548.0 571.6 L 552.0 575.6 L 556.0 579.7 L 560.0 584.1 L 564.0 588.7 L 568.0 593.4 L 572.0 598.2 L 576.0 603.2 L 580.0 608.3 L 584.0 613.5 L 588.0 618.9 L 592.0 624.3 L 596.0 629.8 L 600.0 635.4 L 604.0 641.0 L 608.0 646.7 L 612.0 652.4 L 616.0 658.1 L 620.0 663.9 L 624.0 669.6 L 628.0 675.3 L 632.0 680.9 L 636.0 686.5 L 640.0 692.1 L 644.0 697.6 L 648.0 703.0 L 652.0 708.3 L 656.0 713.5 L 660.0 718.5 L 664.0 723.5 L 668.0 728.3 L 672.0 732.9 L 676.0 737.4 L 680.0 741.7 L 684.0 745.9 L 688.0 749.8 L 692.0 753.5 L 696.0 757.0 L 700.0 760.3 L 704.0 763.4 L 708.0 766.3 L 712.0 768.9 L 716.0 771.3 L 720.0 773.4 L 724.0 775.2 L 728.0 776.8 L 732.0 778.2 L 736.0 779.3 L 740.0 780.1 L 744.0 780.6 L 748.0 780.9 L 752.0 780.9 L 756.0 780.6 L 760.0 780.1 L 764.0 779.3 L 768.0 778.2 L 772.0 776.8 L 776.0 775.2 L 780.0 773.4 L 784.0 771.2 L 788.0 768.9 L 792.0 766.3 L 796.0 763.4 L 800.0 760.3 L 804.0 757.0 L 808.0 753.5 L 812.0 749.8 L 816.0 745.8 L 820.0 741.7 L 824.0 737.4 L 828.0 732.9 L 832.0 728.3 L 836.0 723.5 L 840.0 718.5 L 844.0 713.5 L 848.0 708.3 L 852.0 703.0 L 856.0 697.6 L 860.0 692.1 L 864.0 686.5 L 868.0 680.9 L 872.0 675.2 L 876.0 669.5 L 880.0 663.8 L 884.0 658.1 L 888.0 652.4 L 892.0 646.7 L 896.0 641.0 L 900.0 635.4 L 904.0 629.8 L 908.0 624.3 L 912.0 618.9 L 916.0 613.5 L 920.0 608.3 L 924.0 603.2 L 928.0 598.2 L 932.0 593.3 L 936.0 588.6 L 940.0 584.1 L 944.0 579.7 L 948.0 575.5 L 952.0 571.5 L 956.0 567.7 L 960.0 564.1 L 964.0 560.8 L 968.0 557.6 L 972.0 554.7 L 976.0 552.0 L 980.0 549.5 L 984.0 547.3 L 988.0 545.4 L 992.0 543.7 L 996.0 542.2 L 1000.0 541.1 L 1004.0 540.2 L 1008.0 539.5 L 1012.0 539.2 L 1016.0 539.1 L 1020.0 539.3 L 1024.0 539.7 L 1028.0 540.4 L 1032.0 541.4 L 1036.0 542.7 L 1040.0 544.2 L 1044.0 546.0 L 1048.0 548.0 L 1052.0 550.3 L 1056.0 552.8 L 1060.0 555.6 L 1064.0 558.6 L 1068.0 561.8 L 1072.0 565.3 L 1076.0 568.9 L 1080.0 572.8 L 1084.0 576.9 L 1088.0 581.1 L 1092.0 585.5 L 1096.0 590.1 L 1100.0 594.9 L 1104.0 599.8 L 1108.0 604.8 L 1112.0 610.0 L 1116.0 615.2 L 1120.0 620.6 L 1124.0 626.0 L 1128.0 631.6 L 1132.0 637.2 L 1136.0 642.8 L 1140.0 648.5 L 1144.0 654.2 L 1148.0 659.9 L 1152.0 665.7 L 1156.0 671.4 L 1160.0 677.1 L 1164.0 682.7 L 1168.0 688.3 L 1172.0 693.8 L 1176.0 699.3 L 1180.0 704.7 L 1184.0 709.9 L 1188.0 715.1 L 1192.0 720.1 L 1196.0 725.0 L 1200.0 729.8 L 1200 1200 Z" fill="#ad1f45" opacity="0.08"/>

  </g>

  <!-- Vignette -->
  <defs>
    <radialGradient id="vignette-nia-archives" cx="50%" cy="50%" r="70%">
      <stop offset="0%" stop-color="transparent"/>
      <stop offset="100%" stop-color="rgba(10,10,10,0.7)"/>
    </radialGradient>
  </defs>
  <rect width="1200" height="1200" fill="url(#vignette-nia-archives)"/>

  <!-- Card number watermark -->
  <text x="40" y="1170" font-family="monospace" font-size="48" fill="rgba(255,255,255,0.06)">002</text>
</svg>