<svg xmlns="http://www.w3.org/2000/svg" viewBox="0 0 1200 1200" width="1200" height="1200">
  <rect width="1200" height="1200" fill="#0a0a0a"/>

  <!-- Generative Art -->
  <g>
    <path d="M 0.0 330.6 L 4.0 322.2 L 8.0 314.4 L 12.0 307.4 L 16.0 301.3 L 20.0 296.1 L 24.0 292.1 L 28.0 289.2 L 32.0 287.7 L 36.0 287.4 L 40.0 288.5 L 44.0 291.1 L 48.0 295.0 L 52.0 300.3 L 56.0 306.9 L 60.0 314.8 L 64.0 324.0 L 68.0 334.2 L 72.0 345.5 L 76.0 357.6 L 80.0 370.5 L 84.0 384.0 L 88.0 398.0 L 92.0 412.3 L 96.0 426.7 L 100.0 441.2 L 104.0 455.5 L 108.0 469.4 L 112.0 483.0 L 116.0 496.0 L 120.0 508.3 L 124.0 519.8 L 128.0 530.5 L 132.0 540.3 L 136.0 549.1 L 140.0 556.9 L 144.0 563.7 L 148.0 569.5 L 152.0 574.4 L 156.0 578.4 L 160.0 581.4 L 164.0 583.7 L 168.0 585.3 L 172.0 586.3 L 176.0 586.8 L 180.0 586.9 L 184.0 586.7 L 188.0 586.3 L 192.0 585.9 L 196.0 585.5 L 200.0 585.2 L 204.0 585.2 L 208.0 585.4 L 212.0 586.0 L 216.0 587.0 L 220.0 588.4 L 224.0 590.3 L 228.0 592.6 L 232.0 595.4 L 236.0 598.5 L 240.0 602.0 L 244.0 605.8 L 248.0 609.7 L 252.0 613.8 L 256.0 617.8 L 260.0 621.8 L 264.0 625.5 L 268.0 628.9 L 272.0 631.8 L 276.0 634.1 L 280.0 635.7 L 284.0 636.5 L 288.0 636.4 L 292.0 635.3 L 296.0 633.1 L 300.0 629.8 L 304.0 625.3 L 308.0 619.6 L 312.0 612.7 L 316.0 604.6 L 320.0 595.3 L 324.0 584.9 L 328.0 573.5 L 332.0 561.1 L 336.0 547.9 L 340.0 534.0 L 344.0 519.4 L 348.0 504.4 L 352.0 489.1 L 356.0 473.6 L 360.0 458.2 L 364.0 442.9 L 368.0 427.9 L 372.0 413.4 L 376.0 399.5 L 380.0 386.4 L 384.0 374.2 L 388.0 362.9 L 392.0 352.8 L 396.0 343.8 L 400.0 336.0 L 404.0 329.4 L 408.0 324.2 L 412.0 320.2 L 416.0 317.4 L 420.0 315.9 L 424.0 315.5 L 428.0 316.2 L 432.0 317.9 L 436.0 320.5 L 440.0 324.0 L 444.0 328.0 L 448.0 332.7 L 452.0 337.7 L 456.0 343.1 L 460.0 348.6 L 464.0 354.2 L 468.0 359.8 L 472.0 365.2 L 476.0 370.3 L 480.0 375.1 L 484.0 379.6 L 488.0 383.6 L 492.0 387.1 L 496.0 390.2 L 500.0 392.8 L 504.0 394.9 L 508.0 396.6 L 512.0 398.0 L 516.0 399.0 L 520.0 399.9 L 524.0 400.6 L 528.0 401.2 L 532.0 401.9 L 536.0 402.8 L 540.0 403.9 L 544.0 405.5 L 548.0 407.5 L 552.0 410.1 L 556.0 413.3 L 560.0 417.3 L 564.0 422.2 L 568.0 427.8 L 572.0 434.4 L 576.0 441.9 L 580.0 450.3 L 584.0 459.6 L 588.0 469.8 L 592.0 480.7 L 596.0 492.4 L 600.0 504.7 L 604.0 517.5 L 608.0 530.8 L 612.0 544.3 L 616.0 558.0 L 620.0 571.6 L 624.0 585.1 L 628.0 598.4 L 632.0 611.1 L 636.0 623.2 L 640.0 634.6 L 644.0 645.1 L 648.0 654.6 L 652.0 663.0 L 656.0 670.2 L 660.0 676.0 L 664.0 680.5 L 668.0 683.6 L 672.0 685.3 L 676.0 685.6 L 680.0 684.5 L 684.0 682.0 L 688.0 678.2 L 692.0 673.1 L 696.0 666.9 L 700.0 659.7 L 704.0 651.5 L 708.0 642.6 L 712.0 633.0 L 716.0 622.8 L 720.0 612.3 L 724.0 601.6 L 728.0 590.7 L 732.0 579.9 L 736.0 569.3 L 740.0 558.9 L 744.0 548.9 L 748.0 539.5 L 752.0 530.5 L 756.0 522.2 L 760.0 514.6 L 764.0 507.6 L 768.0 501.3 L 772.0 495.7 L 776.0 490.8 L 780.0 486.5 L 784.0 482.7 L 788.0 479.5 L 792.0 476.6 L 796.0 474.1 L 800.0 471.7 L 804.0 469.5 L 808.0 467.3 L 812.0 465.1 L 816.0 462.6 L 820.0 459.9 L 824.0 456.8 L 828.0 453.2 L 832.0 449.1 L 836.0 444.5 L 840.0 439.3 L 844.0 433.5 L 848.0 427.0 L 852.0 419.9 L 856.0 412.3 L 860.0 404.1 L 864.0 395.5 L 868.0 386.5 L 872.0 377.2 L 876.0 367.8 L 880.0 358.3 L 884.0 348.9 L 888.0 339.6 L 892.0 330.7 L 896.0 322.3 L 900.0 314.5 L 904.0 307.5 L 908.0 301.4 L 912.0 296.2 L 916.0 292.1 L 920.0 289.3 L 924.0 287.7 L 928.0 287.4 L 932.0 288.5 L 936.0 291.0 L 940.0 294.9 L 944.0 300.2 L 948.0 306.8 L 952.0 314.7 L 956.0 323.8 L 960.0 334.0 L 964.0 345.3 L 968.0 357.4 L 972.0 370.3 L 976.0 383.8 L 980.0 397.8 L 984.0 412.1 L 988.0 426.5 L 992.0 441.0 L 996.0 455.2 L 1000.0 469.2 L 1004.0 482.8 L 1008.0 495.8 L 1012.0 508.1 L 1016.0 519.6 L 1020.0 530.3 L 1024.0 540.1 L 1028.0 549.0 L 1032.0 556.8 L 1036.0 563.6 L 1040.0 569.5 L 1044.0 574.3 L 1048.0 578.3 L 1052.0 581.4 L 1056.0 583.7 L 1060.0 585.3 L 1064.0 586.3 L 1068.0 586.8 L 1072.0 586.9 L 1076.0 586.7 L 1080.0 586.3 L 1084.0 585.9 L 1088.0 585.5 L 1092.0 585.2 L 1096.0 585.2 L 1100.0 585.4 L 1104.0 586.0 L 1108.0 587.0 L 1112.0 588.4 L 1116.0 590.3 L 1120.0 592.6 L 1124.0 595.3 L 1128.0 598.5 L 1132.0 601.9 L 1136.0 605.7 L 1140.0 609.7 L 1144.0 613.7 L 1148.0 617.8 L 1152.0 621.7 L 1156.0 625.4 L 1160.0 628.8 L 1164.0 631.7 L 1168.0 634.0 L 1172.0 635.7 L 1176.0 636.5 L 1180.0 636.4 L 1184.0 635.3 L 1188.0 633.1 L 1192.0 629.8 L 1196.0 625.3 L 1200.0 619.7" stroke="#2bb0ee" stroke-width="10.8" fill="none" opacity="0.09" stroke-linecap="round"/>
<path d="M 0.0 330.6 L 4.0 322.2 L 8.0 314.4 L 12.0 307.4 L 16.0 301.3 L 20.0 296.1 L 24.0 292.1 L 28.0 289.2 L 32.0 287.7 L 36.0 287.4 L 40.0 288.5 L 44.0 291.1 L 48.0 295.0 L 52.0 300.3 L 56.0 306.9 L 60.0 314.8 L 64.0 324.0 L 68.0 334.2 L 72.0 345.5 L 76.0 357.6 L 80.0 370.5 L 84.0 384.0 L 88.0 398.0 L 92.0 412.3 L 96.0 426.7 L 100.0 441.2 L 104.0 455.5 L 108.0 469.4 L 112.0 483.0 L 116.0 496.0 L 120.0 508.3 L 124.0 519.8 L 128.0 530.5 L 132.0 540.3 L 136.0 549.1 L 140.0 556.9 L 144.0 563.7 L 148.0 569.5 L 152.0 574.4 L 156.0 578.4 L 160.0 581.4 L 164.0 583.7 L 168.0 585.3 L 172.0 586.3 L 176.0 586.8 L 180.0 586.9 L 184.0 586.7 L 188.0 586.3 L 192.0 585.9 L 196.0 585.5 L 200.0 585.2 L 204.0 585.2 L 208.0 585.4 L 212.0 586.0 L 216.0 587.0 L 220.0 588.4 L 224.0 590.3 L 228.0 592.6 L 232.0 595.4 L 236.0 598.5 L 240.0 602.0 L 244.0 605.8 L 248.0 609.7 L 252.0 613.8 L 256.0 617.8 L 260.0 621.8 L 264.0 625.5 L 268.0 628.9 L 272.0 631.8 L 276.0 634.1 L 280.0 635.7 L 284.0 636.5 L 288.0 636.4 L 292.0 635.3 L 296.0 633.1 L 300.0 629.8 L 304.0 625.3 L 308.0 619.6 L 312.0 612.7 L 316.0 604.6 L 320.0 595.3 L 324.0 584.9 L 328.0 573.5 L 332.0 561.1 L 336.0 547.9 L 340.0 534.0 L 344.0 519.4 L 348.0 504.4 L 352.0 489.1 L 356.0 473.6 L 360.0 458.2 L 364.0 442.9 L 368.0 427.9 L 372.0 413.4 L 376.0 399.5 L 380.0 386.4 L 384.0 374.2 L 388.0 362.9 L 392.0 352.8 L 396.0 343.8 L 400.0 336.0 L 404.0 329.4 L 408.0 324.2 L 412.0 320.2 L 416.0 317.4 L 420.0 315.9 L 424.0 315.5 L 428.0 316.2 L 432.0 317.9 L 436.0 320.5 L 440.0 324.0 L 444.0 328.0 L 448.0 332.7 L 452.0 337.7 L 456.0 343.1 L 460.0 348.6 L 464.0 354.2 L 468.0 359.8 L 472.0 365.2 L 476.0 370.3 L 480.0 375.1 L 484.0 379.6 L 488.0 383.6 L 492.0 387.1 L 496.0 390.2 L 500.0 392.8 L 504.0 394.9 L 508.0 396.6 L 512.0 398.0 L 516.0 399.0 L 520.0 399.9 L 524.0 400.6 L 528.0 401.2 L 532.0 401.9 L 536.0 402.8 L 540.0 403.9 L 544.0 405.5 L 548.0 407.5 L 552.0 410.1 L 556.0 413.3 L 560.0 417.3 L 564.0 422.2 L 568.0 427.8 L 572.0 434.4 L 576.0 441.9 L 580.0 450.3 L 584.0 459.6 L 588.0 469.8 L 592.0 480.7 L 596.0 492.4 L 600.0 504.7 L 604.0 517.5 L 608.0 530.8 L 612.0 544.3 L 616.0 558.0 L 620.0 571.6 L 624.0 585.1 L 628.0 598.4 L 632.0 611.1 L 636.0 623.2 L 640.0 634.6 L 644.0 645.1 L 648.0 654.6 L 652.0 663.0 L 656.0 670.2 L 660.0 676.0 L 664.0 680.5 L 668.0 683.6 L 672.0 685.3 L 676.0 685.6 L 680.0 684.5 L 684.0 682.0 L 688.0 678.2 L 692.0 673.1 L 696.0 666.9 L 700.0 659.7 L 704.0 651.5 L 708.0 642.6 L 712.0 633.0 L 716.0 622.8 L 720.0 612.3 L 724.0 601.6 L 728.0 590.7 L 732.0 579.9 L 736.0 569.3 L 740.0 558.9 L 744.0 548.9 L 748.0 539.5 L 752.0 530.5 L 756.0 522.2 L 760.0 514.6 L 764.0 507.6 L 768.0 501.3 L 772.0 495.7 L 776.0 490.8 L 780.0 486.5 L 784.0 482.7 L 788.0 479.5 L 792.0 476.6 L 796.0 474.1 L 800.0 471.7 L 804.0 469.5 L 808.0 467.3 L 812.0 465.1 L 816.0 462.6 L 820.0 459.9 L 824.0 456.8 L 828.0 453.2 L 832.0 449.1 L 836.0 444.5 L 840.0 439.3 L 844.0 433.5 L 848.0 427.0 L 852.0 419.9 L 856.0 412.3 L 860.0 404.1 L 864.0 395.5 L 868.0 386.5 L 872.0 377.2 L 876.0 367.8 L 880.0 358.3 L 884.0 348.9 L 888.0 339.6 L 892.0 330.7 L 896.0 322.3 L 900.0 314.5 L 904.0 307.5 L 908.0 301.4 L 912.0 296.2 L 916.0 292.1 L 920.0 289.3 L 924.0 287.7 L 928.0 287.4 L 932.0 288.5 L 936.0 291.0 L 940.0 294.9 L 944.0 300.2 L 948.0 306.8 L 952.0 314.7 L 956.0 323.8 L 960.0 334.0 L 964.0 345.3 L 968.0 357.4 L 972.0 370.3 L 976.0 383.8 L 980.0 397.8 L 984.0 412.1 L 988.0 426.5 L 992.0 441.0 L 996.0 455.2 L 1000.0 469.2 L 1004.0 482.8 L 1008.0 495.8 L 1012.0 508.1 L 1016.0 519.6 L 1020.0 530.3 L 1024.0 540.1 L 1028.0 549.0 L 1032.0 556.8 L 1036.0 563.6 L 1040.0 569.5 L 1044.0 574.3 L 1048.0 578.3 L 1052.0 581.4 L 1056.0 583.7 L 1060.0 585.3 L 1064.0 586.3 L 1068.0 586.8 L 1072.0 586.9 L 1076.0 586.7 L 1080.0 586.3 L 1084.0 585.9 L 1088.0 585.5 L 1092.0 585.2 L 1096.0 585.2 L 1100.0 585.4 L 1104.0 586.0 L 1108.0 587.0 L 1112.0 588.4 L 1116.0 590.3 L 1120.0 592.6 L 1124.0 595.3 L 1128.0 598.5 L 1132.0 601.9 L 1136.0 605.7 L 1140.0 609.7 L 1144.0 613.7 L 1148.0 617.8 L 1152.0 621.7 L 1156.0 625.4 L 1160.0 628.8 L 1164.0 631.7 L 1168.0 634.0 L 1172.0 635.7 L 1176.0 636.5 L 1180.0 636.4 L 1184.0 635.3 L 1188.0 633.1 L 1192.0 629.8 L 1196.0 625.3 L 1200.0 619.7" stroke="#2bb0ee" stroke-width="4.3" fill="none" opacity="0.58" stroke-linecap="round"/>
<path d="M 0.0 594.7 L 4.0 596.4 L 8.0 598.6 L 12.0 601.3 L 16.0 604.6 L 20.0 608.4 L 24.0 612.8 L 28.0 617.6 L 32.0 622.9 L 36.0 628.5 L 40.0 634.5 L 44.0 640.7 L 48.0 647.0 L 52.0 653.4 L 56.0 659.7 L 60.0 665.9 L 64.0 671.8 L 68.0 677.4 L 72.0 682.6 L 76.0 687.4 L 80.0 691.5 L 84.0 695.1 L 88.0 698.0 L 92.0 700.3 L 96.0 701.8 L 100.0 702.7 L 104.0 702.9 L 108.0 702.4 L 112.0 701.4 L 116.0 699.8 L 120.0 697.7 L 124.0 695.2 L 128.0 692.4 L 132.0 689.3 L 136.0 686.0 L 140.0 682.6 L 144.0 679.2 L 148.0 675.9 L 152.0 672.7 L 156.0 669.6 L 160.0 666.8 L 164.0 664.2 L 168.0 661.8 L 172.0 659.8 L 176.0 658.0 L 180.0 656.5 L 184.0 655.3 L 188.0 654.2 L 192.0 653.3 L 196.0 652.5 L 200.0 651.7 L 204.0 650.9 L 208.0 650.0 L 212.0 649.0 L 216.0 647.8 L 220.0 646.3 L 224.0 644.5 L 228.0 642.3 L 232.0 639.8 L 236.0 636.9 L 240.0 633.6 L 244.0 629.9 L 248.0 625.8 L 252.0 621.4 L 256.0 616.7 L 260.0 611.9 L 264.0 606.8 L 268.0 601.7 L 272.0 596.6 L 276.0 591.5 L 280.0 586.7 L 284.0 582.1 L 288.0 577.9 L 292.0 574.1 L 296.0 570.9 L 300.0 568.2 L 304.0 566.1 L 308.0 564.7 L 312.0 564.1 L 316.0 564.1 L 320.0 564.9 L 324.0 566.4 L 328.0 568.6 L 332.0 571.4 L 336.0 574.9 L 340.0 578.8 L 344.0 583.2 L 348.0 588.0 L 352.0 593.0 L 356.0 598.3 L 360.0 603.7 L 364.0 609.0 L 368.0 614.4 L 372.0 619.5 L 376.0 624.5 L 380.0 629.1 L 384.0 633.4 L 388.0 637.4 L 392.0 640.9 L 396.0 644.0 L 400.0 646.8 L 404.0 649.1 L 408.0 651.0 L 412.0 652.6 L 416.0 653.9 L 420.0 654.9 L 424.0 655.7 L 428.0 656.4 L 432.0 657.1 L 436.0 657.7 L 440.0 658.4 L 444.0 659.2 L 448.0 660.2 L 452.0 661.4 L 456.0 662.8 L 460.0 664.5 L 464.0 666.5 L 468.0 668.7 L 472.0 671.1 L 476.0 673.8 L 480.0 676.6 L 484.0 679.6 L 488.0 682.7 L 492.0 685.7 L 496.0 688.7 L 500.0 691.5 L 504.0 694.0 L 508.0 696.3 L 512.0 698.2 L 516.0 699.6 L 520.0 700.5 L 524.0 700.8 L 528.0 700.5 L 532.0 699.5 L 536.0 697.9 L 540.0 695.6 L 544.0 692.6 L 548.0 689.0 L 552.0 684.8 L 556.0 680.0 L 560.0 674.8 L 564.0 669.1 L 568.0 663.1 L 572.0 656.8 L 576.0 650.4 L 580.0 643.9 L 584.0 637.5 L 588.0 631.2 L 592.0 625.1 L 596.0 619.4 L 600.0 614.0 L 604.0 609.1 L 608.0 604.6 L 612.0 600.7 L 616.0 597.4 L 620.0 594.6 L 624.0 592.4 L 628.0 590.7 L 632.0 589.6 L 636.0 589.0 L 640.0 588.8 L 644.0 589.0 L 648.0 589.5 L 652.0 590.2 L 656.0 591.2 L 660.0 592.2 L 664.0 593.3 L 668.0 594.3 L 672.0 595.3 L 676.0 596.1 L 680.0 596.8 L 684.0 597.3 L 688.0 597.5 L 692.0 597.5 L 696.0 597.4 L 700.0 597.0 L 704.0 596.4 L 708.0 595.8 L 712.0 595.0 L 716.0 594.3 L 720.0 593.6 L 724.0 593.0 L 728.0 592.6 L 732.0 592.5 L 736.0 592.7 L 740.0 593.2 L 744.0 594.3 L 748.0 595.7 L 752.0 597.7 L 756.0 600.3 L 760.0 603.4 L 764.0 607.0 L 768.0 611.2 L 772.0 615.9 L 776.0 621.0 L 780.0 626.5 L 784.0 632.4 L 788.0 638.5 L 792.0 644.8 L 796.0 651.2 L 800.0 657.5 L 804.0 663.8 L 808.0 669.8 L 812.0 675.5 L 816.0 680.9 L 820.0 685.8 L 824.0 690.2 L 828.0 693.9 L 832.0 697.1 L 836.0 699.6 L 840.0 701.3 L 844.0 702.4 L 848.0 702.9 L 852.0 702.6 L 856.0 701.8 L 860.0 700.4 L 864.0 698.5 L 868.0 696.1 L 872.0 693.4 L 876.0 690.4 L 880.0 687.1 L 884.0 683.8 L 888.0 680.4 L 892.0 677.0 L 896.0 673.8 L 900.0 670.6 L 904.0 667.7 L 908.0 665.0 L 912.0 662.6 L 916.0 660.5 L 920.0 658.6 L 924.0 657.0 L 928.0 655.7 L 932.0 654.6 L 936.0 653.6 L 940.0 652.7 L 944.0 652.0 L 948.0 651.2 L 952.0 650.3 L 956.0 649.4 L 960.0 648.2 L 964.0 646.8 L 968.0 645.1 L 972.0 643.1 L 976.0 640.7 L 980.0 637.9 L 984.0 634.7 L 988.0 631.2 L 992.0 627.2 L 996.0 623.0 L 1000.0 618.4 L 1004.0 613.6 L 1008.0 608.6 L 1012.0 603.5 L 1016.0 598.3 L 1020.0 593.3 L 1024.0 588.3 L 1028.0 583.7 L 1032.0 579.3 L 1036.0 575.4 L 1040.0 571.9 L 1044.0 569.0 L 1048.0 566.8 L 1052.0 565.1 L 1056.0 564.2 L 1060.0 564.0 L 1064.0 564.6 L 1068.0 565.8 L 1072.0 567.8 L 1076.0 570.4 L 1080.0 573.6 L 1084.0 577.4 L 1088.0 581.6 L 1092.0 586.3 L 1096.0 591.3 L 1100.0 596.5 L 1104.0 601.8 L 1108.0 607.2 L 1112.0 612.5 L 1116.0 617.8 L 1120.0 622.8 L 1124.0 627.5 L 1128.0 632.0 L 1132.0 636.1 L 1136.0 639.7 L 1140.0 643.0 L 1144.0 645.9 L 1148.0 648.3 L 1152.0 650.4 L 1156.0 652.1 L 1160.0 653.4 L 1164.0 654.6 L 1168.0 655.4 L 1172.0 656.2 L 1176.0 656.9 L 1180.0 657.5 L 1184.0 658.2 L 1188.0 658.9 L 1192.0 659.9 L 1196.0 661.0 L 1200.0 662.3" stroke="#2bb0ee" stroke-width="15.3" fill="none" opacity="0.08" stroke-linecap="round"/>
<path d="M 0.0 594.7 L 4.0 596.4 L 8.0 598.6 L 12.0 601.3 L 16.0 604.6 L 20.0 608.4 L 24.0 612.8 L 28.0 617.6 L 32.0 622.9 L 36.0 628.5 L 40.0 634.5 L 44.0 640.7 L 48.0 647.0 L 52.0 653.4 L 56.0 659.7 L 60.0 665.9 L 64.0 671.8 L 68.0 677.4 L 72.0 682.6 L 76.0 687.4 L 80.0 691.5 L 84.0 695.1 L 88.0 698.0 L 92.0 700.3 L 96.0 701.8 L 100.0 702.7 L 104.0 702.9 L 108.0 702.4 L 112.0 701.4 L 116.0 699.8 L 120.0 697.7 L 124.0 695.2 L 128.0 692.4 L 132.0 689.3 L 136.0 686.0 L 140.0 682.6 L 144.0 679.2 L 148.0 675.9 L 152.0 672.7 L 156.0 669.6 L 160.0 666.8 L 164.0 664.2 L 168.0 661.8 L 172.0 659.8 L 176.0 658.0 L 180.0 656.5 L 184.0 655.3 L 188.0 654.2 L 192.0 653.3 L 196.0 652.5 L 200.0 651.7 L 204.0 650.9 L 208.0 650.0 L 212.0 649.0 L 216.0 647.8 L 220.0 646.3 L 224.0 644.5 L 228.0 642.3 L 232.0 639.8 L 236.0 636.9 L 240.0 633.6 L 244.0 629.9 L 248.0 625.8 L 252.0 621.4 L 256.0 616.7 L 260.0 611.9 L 264.0 606.8 L 268.0 601.7 L 272.0 596.6 L 276.0 591.5 L 280.0 586.7 L 284.0 582.1 L 288.0 577.9 L 292.0 574.1 L 296.0 570.9 L 300.0 568.2 L 304.0 566.1 L 308.0 564.7 L 312.0 564.1 L 316.0 564.1 L 320.0 564.9 L 324.0 566.4 L 328.0 568.6 L 332.0 571.4 L 336.0 574.9 L 340.0 578.8 L 344.0 583.2 L 348.0 588.0 L 352.0 593.0 L 356.0 598.3 L 360.0 603.7 L 364.0 609.0 L 368.0 614.4 L 372.0 619.5 L 376.0 624.5 L 380.0 629.1 L 384.0 633.4 L 388.0 637.4 L 392.0 640.9 L 396.0 644.0 L 400.0 646.8 L 404.0 649.1 L 408.0 651.0 L 412.0 652.6 L 416.0 653.9 L 420.0 654.9 L 424.0 655.7 L 428.0 656.4 L 432.0 657.1 L 436.0 657.7 L 440.0 658.4 L 444.0 659.2 L 448.0 660.2 L 452.0 661.4 L 456.0 662.8 L 460.0 664.5 L 464.0 666.5 L 468.0 668.7 L 472.0 671.1 L 476.0 673.8 L 480.0 676.6 L 484.0 679.6 L 488.0 682.7 L 492.0 685.7 L 496.0 688.7 L 500.0 691.5 L 504.0 694.0 L 508.0 696.3 L 512.0 698.2 L 516.0 699.6 L 520.0 700.5 L 524.0 700.8 L 528.0 700.5 L 532.0 699.5 L 536.0 697.9 L 540.0 695.6 L 544.0 692.6 L 548.0 689.0 L 552.0 684.8 L 556.0 680.0 L 560.0 674.8 L 564.0 669.1 L 568.0 663.1 L 572.0 656.8 L 576.0 650.4 L 580.0 643.9 L 584.0 637.5 L 588.0 631.2 L 592.0 625.1 L 596.0 619.4 L 600.0 614.0 L 604.0 609.1 L 608.0 604.6 L 612.0 600.7 L 616.0 597.4 L 620.0 594.6 L 624.0 592.4 L 628.0 590.7 L 632.0 589.6 L 636.0 589.0 L 640.0 588.8 L 644.0 589.0 L 648.0 589.5 L 652.0 590.2 L 656.0 591.2 L 660.0 592.2 L 664.0 593.3 L 668.0 594.3 L 672.0 595.3 L 676.0 596.1 L 680.0 596.8 L 684.0 597.3 L 688.0 597.5 L 692.0 597.5 L 696.0 597.4 L 700.0 597.0 L 704.0 596.4 L 708.0 595.8 L 712.0 595.0 L 716.0 594.3 L 720.0 593.6 L 724.0 593.0 L 728.0 592.6 L 732.0 592.5 L 736.0 592.7 L 740.0 593.2 L 744.0 594.3 L 748.0 595.7 L 752.0 597.7 L 756.0 600.3 L 760.0 603.4 L 764.0 607.0 L 768.0 611.2 L 772.0 615.9 L 776.0 621.0 L 780.0 626.5 L 784.0 632.4 L 788.0 638.5 L 792.0 644.8 L 796.0 651.2 L 800.0 657.5 L 804.0 663.8 L 808.0 669.8 L 812.0 675.5 L 816.0 680.9 L 820.0 685.8 L 824.0 690.2 L 828.0 693.9 L 832.0 697.1 L 836.0 699.6 L 840.0 701.3 L 844.0 702.4 L 848.0 702.9 L 852.0 702.6 L 856.0 701.8 L 860.0 700.4 L 864.0 698.5 L 868.0 696.1 L 872.0 693.4 L 876.0 690.4 L 880.0 687.1 L 884.0 683.8 L 888.0 680.4 L 892.0 677.0 L 896.0 673.8 L 900.0 670.6 L 904.0 667.7 L 908.0 665.0 L 912.0 662.6 L 916.0 660.5 L 920.0 658.6 L 924.0 657.0 L 928.0 655.7 L 932.0 654.6 L 936.0 653.6 L 940.0 652.7 L 944.0 652.0 L 948.0 651.2 L 952.0 650.3 L 956.0 649.4 L 960.0 648.2 L 964.0 646.8 L 968.0 645.1 L 972.0 643.1 L 976.0 640.7 L 980.0 637.9 L 984.0 634.7 L 988.0 631.2 L 992.0 627.2 L 996.0 623.0 L 1000.0 618.4 L 1004.0 613.6 L 1008.0 608.6 L 1012.0 603.5 L 1016.0 598.3 L 1020.0 593.3 L 1024.0 588.3 L 1028.0 583.7 L 1032.0 579.3 L 1036.0 575.4 L 1040.0 571.9 L 1044.0 569.0 L 1048.0 566.8 L 1052.0 565.1 L 1056.0 564.2 L 1060.0 564.0 L 1064.0 564.6 L 1068.0 565.8 L 1072.0 567.8 L 1076.0 570.4 L 1080.0 573.6 L 1084.0 577.4 L 1088.0 581.6 L 1092.0 586.3 L 1096.0 591.3 L 1100.0 596.5 L 1104.0 601.8 L 1108.0 607.2 L 1112.0 612.5 L 1116.0 617.8 L 1120.0 622.8 L 1124.0 627.5 L 1128.0 632.0 L 1132.0 636.1 L 1136.0 639.7 L 1140.0 643.0 L 1144.0 645.9 L 1148.0 648.3 L 1152.0 650.4 L 1156.0 652.1 L 1160.0 653.4 L 1164.0 654.6 L 1168.0 655.4 L 1172.0 656.2 L 1176.0 656.9 L 1180.0 657.5 L 1184.0 658.2 L 1188.0 658.9 L 1192.0 659.9 L 1196.0 661.0 L 1200.0 662.3" stroke="#2bb0ee" stroke-width="6.1" fill="none" opacity="0.56" stroke-linecap="round"/>
<path d="M 0.0 516.9 L 4.0 517.2 L 8.0 518.7 L 12.0 521.6 L 16.0 525.9 L 20.0 531.6 L 24.0 538.8 L 28.0 547.4 L 32.0 557.4 L 36.0 568.7 L 40.0 581.3 L 44.0 595.0 L 48.0 609.6 L 52.0 625.0 L 56.0 641.1 L 60.0 657.6 L 64.0 674.2 L 68.0 690.9 L 72.0 707.3 L 76.0 723.3 L 80.0 738.7 L 84.0 753.2 L 88.0 766.7 L 92.0 779.1 L 96.0 790.2 L 100.0 800.0 L 104.0 808.2 L 108.0 815.0 L 112.0 820.2 L 116.0 823.9 L 120.0 826.2 L 124.0 827.0 L 128.0 826.5 L 132.0 824.8 L 136.0 822.0 L 140.0 818.3 L 144.0 813.8 L 148.0 808.7 L 152.0 803.1 L 156.0 797.3 L 160.0 791.3 L 164.0 785.4 L 168.0 779.7 L 172.0 774.2 L 176.0 769.2 L 180.0 764.6 L 184.0 760.6 L 188.0 757.1 L 192.0 754.2 L 196.0 751.9 L 200.0 750.1 L 204.0 748.7 L 208.0 747.6 L 212.0 746.8 L 216.0 746.2 L 220.0 745.5 L 224.0 744.7 L 228.0 743.6 L 232.0 742.1 L 236.0 740.0 L 240.0 737.1 L 244.0 733.5 L 248.0 729.0 L 252.0 723.4 L 256.0 716.8 L 260.0 709.1 L 264.0 700.3 L 268.0 690.4 L 272.0 679.5 L 276.0 667.6 L 280.0 654.9 L 284.0 641.4 L 288.0 627.3 L 292.0 612.8 L 296.0 598.1 L 300.0 583.3 L 304.0 568.7 L 308.0 554.4 L 312.0 540.7 L 316.0 527.7 L 320.0 515.7 L 324.0 504.9 L 328.0 495.3 L 332.0 487.1 L 336.0 480.5 L 340.0 475.5 L 344.0 472.1 L 348.0 470.5 L 352.0 470.6 L 356.0 472.3 L 360.0 475.7 L 364.0 480.5 L 368.0 486.8 L 372.0 494.4 L 376.0 503.1 L 380.0 512.7 L 384.0 523.1 L 388.0 534.1 L 392.0 545.5 L 396.0 557.1 L 400.0 568.7 L 404.0 580.2 L 408.0 591.3 L 412.0 602.0 L 416.0 612.1 L 420.0 621.5 L 424.0 630.2 L 428.0 638.0 L 432.0 645.1 L 436.0 651.3 L 440.0 656.7 L 444.0 661.3 L 448.0 665.3 L 452.0 668.8 L 456.0 671.7 L 460.0 674.4 L 464.0 676.8 L 468.0 679.1 L 472.0 681.6 L 476.0 684.2 L 480.0 687.2 L 484.0 690.6 L 488.0 694.6 L 492.0 699.2 L 496.0 704.5 L 500.0 710.5 L 504.0 717.3 L 508.0 724.8 L 512.0 733.0 L 516.0 741.9 L 520.0 751.3 L 524.0 761.1 L 528.0 771.3 L 532.0 781.6 L 536.0 791.9 L 540.0 802.0 L 544.0 811.7 L 548.0 820.8 L 552.0 829.3 L 556.0 836.8 L 560.0 843.2 L 564.0 848.3 L 568.0 852.1 L 572.0 854.4 L 576.0 855.2 L 580.0 854.2 L 584.0 851.6 L 588.0 847.4 L 592.0 841.4 L 596.0 833.9 L 600.0 824.9 L 604.0 814.4 L 608.0 802.7 L 612.0 789.9 L 616.0 776.1 L 620.0 761.6 L 624.0 746.5 L 628.0 731.1 L 632.0 715.6 L 636.0 700.1 L 640.0 685.0 L 644.0 670.2 L 648.0 656.1 L 652.0 642.8 L 656.0 630.4 L 660.0 619.1 L 664.0 608.8 L 668.0 599.7 L 672.0 591.9 L 676.0 585.2 L 680.0 579.6 L 684.0 575.2 L 688.0 571.8 L 692.0 569.4 L 696.0 567.7 L 700.0 566.8 L 704.0 566.4 L 708.0 566.5 L 712.0 566.8 L 716.0 567.2 L 720.0 567.6 L 724.0 567.8 L 728.0 567.7 L 732.0 567.3 L 736.0 566.5 L 740.0 565.1 L 744.0 563.2 L 748.0 560.8 L 752.0 557.8 L 756.0 554.4 L 760.0 550.6 L 764.0 546.4 L 768.0 542.0 L 772.0 537.6 L 776.0 533.2 L 780.0 529.0 L 784.0 525.2 L 788.0 521.9 L 792.0 519.3 L 796.0 517.6 L 800.0 516.9 L 804.0 517.2 L 808.0 518.9 L 812.0 521.8 L 816.0 526.2 L 820.0 532.0 L 824.0 539.3 L 828.0 547.9 L 832.0 558.0 L 836.0 569.5 L 840.0 582.1 L 844.0 595.9 L 848.0 610.6 L 852.0 626.0 L 856.0 642.1 L 860.0 658.6 L 864.0 675.3 L 868.0 691.9 L 872.0 708.3 L 876.0 724.3 L 880.0 739.6 L 884.0 754.1 L 888.0 767.5 L 892.0 779.9 L 896.0 790.9 L 900.0 800.5 L 904.0 808.7 L 908.0 815.4 L 912.0 820.5 L 916.0 824.1 L 920.0 826.3 L 924.0 827.0 L 928.0 826.4 L 932.0 824.7 L 936.0 821.8 L 940.0 818.0 L 944.0 813.5 L 948.0 808.3 L 952.0 802.8 L 956.0 796.9 L 960.0 791.0 L 964.0 785.0 L 968.0 779.3 L 972.0 773.9 L 976.0 768.9 L 980.0 764.4 L 984.0 760.4 L 988.0 756.9 L 992.0 754.1 L 996.0 751.8 L 1000.0 750.0 L 1004.0 748.6 L 1008.0 747.6 L 1012.0 746.8 L 1016.0 746.1 L 1020.0 745.5 L 1024.0 744.6 L 1028.0 743.5 L 1032.0 742.0 L 1036.0 739.8 L 1040.0 736.9 L 1044.0 733.3 L 1048.0 728.7 L 1052.0 723.0 L 1056.0 716.4 L 1060.0 708.6 L 1064.0 699.7 L 1068.0 689.8 L 1072.0 678.8 L 1076.0 666.8 L 1080.0 654.0 L 1084.0 640.5 L 1088.0 626.4 L 1092.0 611.9 L 1096.0 597.2 L 1100.0 582.4 L 1104.0 567.8 L 1108.0 553.5 L 1112.0 539.9 L 1116.0 527.0 L 1120.0 515.0 L 1124.0 504.2 L 1128.0 494.7 L 1132.0 486.7 L 1136.0 480.1 L 1140.0 475.2 L 1144.0 472.0 L 1148.0 470.4 L 1152.0 470.6 L 1156.0 472.5 L 1160.0 475.9 L 1164.0 480.9 L 1168.0 487.3 L 1172.0 494.9 L 1176.0 503.7 L 1180.0 513.4 L 1184.0 523.8 L 1188.0 534.8 L 1192.0 546.3 L 1196.0 557.8 L 1200.0 569.5" stroke="#2bb0ee" stroke-width="19.6" fill="none" opacity="0.06" stroke-linecap="round"/>
<path d="M 0.0 516.9 L 4.0 517.2 L 8.0 518.7 L 12.0 521.6 L 16.0 525.9 L 20.0 531.6 L 24.0 538.8 L 28.0 547.4 L 32.0 557.4 L 36.0 568.7 L 40.0 581.3 L 44.0 595.0 L 48.0 609.6 L 52.0 625.0 L 56.0 641.1 L 60.0 657.6 L 64.0 674.2 L 68.0 690.9 L 72.0 707.3 L 76.0 723.3 L 80.0 738.7 L 84.0 753.2 L 88.0 766.7 L 92.0 779.1 L 96.0 790.2 L 100.0 800.0 L 104.0 808.2 L 108.0 815.0 L 112.0 820.2 L 116.0 823.9 L 120.0 826.2 L 124.0 827.0 L 128.0 826.5 L 132.0 824.8 L 136.0 822.0 L 140.0 818.3 L 144.0 813.8 L 148.0 808.7 L 152.0 803.1 L 156.0 797.3 L 160.0 791.3 L 164.0 785.4 L 168.0 779.7 L 172.0 774.2 L 176.0 769.2 L 180.0 764.6 L 184.0 760.6 L 188.0 757.1 L 192.0 754.2 L 196.0 751.9 L 200.0 750.1 L 204.0 748.7 L 208.0 747.6 L 212.0 746.8 L 216.0 746.2 L 220.0 745.5 L 224.0 744.7 L 228.0 743.6 L 232.0 742.1 L 236.0 740.0 L 240.0 737.1 L 244.0 733.5 L 248.0 729.0 L 252.0 723.4 L 256.0 716.8 L 260.0 709.1 L 264.0 700.3 L 268.0 690.4 L 272.0 679.5 L 276.0 667.6 L 280.0 654.9 L 284.0 641.4 L 288.0 627.3 L 292.0 612.8 L 296.0 598.1 L 300.0 583.3 L 304.0 568.7 L 308.0 554.4 L 312.0 540.7 L 316.0 527.7 L 320.0 515.7 L 324.0 504.9 L 328.0 495.3 L 332.0 487.1 L 336.0 480.5 L 340.0 475.5 L 344.0 472.1 L 348.0 470.5 L 352.0 470.6 L 356.0 472.3 L 360.0 475.7 L 364.0 480.5 L 368.0 486.8 L 372.0 494.4 L 376.0 503.1 L 380.0 512.7 L 384.0 523.1 L 388.0 534.1 L 392.0 545.5 L 396.0 557.1 L 400.0 568.7 L 404.0 580.2 L 408.0 591.3 L 412.0 602.0 L 416.0 612.1 L 420.0 621.5 L 424.0 630.2 L 428.0 638.0 L 432.0 645.1 L 436.0 651.3 L 440.0 656.7 L 444.0 661.3 L 448.0 665.3 L 452.0 668.8 L 456.0 671.7 L 460.0 674.4 L 464.0 676.8 L 468.0 679.1 L 472.0 681.6 L 476.0 684.2 L 480.0 687.2 L 484.0 690.6 L 488.0 694.6 L 492.0 699.2 L 496.0 704.5 L 500.0 710.5 L 504.0 717.3 L 508.0 724.8 L 512.0 733.0 L 516.0 741.9 L 520.0 751.3 L 524.0 761.1 L 528.0 771.3 L 532.0 781.6 L 536.0 791.9 L 540.0 802.0 L 544.0 811.7 L 548.0 820.8 L 552.0 829.3 L 556.0 836.8 L 560.0 843.2 L 564.0 848.3 L 568.0 852.1 L 572.0 854.4 L 576.0 855.2 L 580.0 854.2 L 584.0 851.6 L 588.0 847.4 L 592.0 841.4 L 596.0 833.9 L 600.0 824.9 L 604.0 814.4 L 608.0 802.7 L 612.0 789.9 L 616.0 776.1 L 620.0 761.6 L 624.0 746.5 L 628.0 731.1 L 632.0 715.6 L 636.0 700.1 L 640.0 685.0 L 644.0 670.2 L 648.0 656.1 L 652.0 642.8 L 656.0 630.4 L 660.0 619.1 L 664.0 608.8 L 668.0 599.7 L 672.0 591.9 L 676.0 585.2 L 680.0 579.6 L 684.0 575.2 L 688.0 571.8 L 692.0 569.4 L 696.0 567.7 L 700.0 566.8 L 704.0 566.4 L 708.0 566.5 L 712.0 566.8 L 716.0 567.2 L 720.0 567.6 L 724.0 567.8 L 728.0 567.7 L 732.0 567.3 L 736.0 566.5 L 740.0 565.1 L 744.0 563.2 L 748.0 560.8 L 752.0 557.8 L 756.0 554.4 L 760.0 550.6 L 764.0 546.4 L 768.0 542.0 L 772.0 537.6 L 776.0 533.2 L 780.0 529.0 L 784.0 525.2 L 788.0 521.9 L 792.0 519.3 L 796.0 517.6 L 800.0 516.9 L 804.0 517.2 L 808.0 518.9 L 812.0 521.8 L 816.0 526.2 L 820.0 532.0 L 824.0 539.3 L 828.0 547.9 L 832.0 558.0 L 836.0 569.5 L 840.0 582.1 L 844.0 595.9 L 848.0 610.6 L 852.0 626.0 L 856.0 642.1 L 860.0 658.6 L 864.0 675.3 L 868.0 691.9 L 872.0 708.3 L 876.0 724.3 L 880.0 739.6 L 884.0 754.1 L 888.0 767.5 L 892.0 779.9 L 896.0 790.9 L 900.0 800.5 L 904.0 808.7 L 908.0 815.4 L 912.0 820.5 L 916.0 824.1 L 920.0 826.3 L 924.0 827.0 L 928.0 826.4 L 932.0 824.7 L 936.0 821.8 L 940.0 818.0 L 944.0 813.5 L 948.0 808.3 L 952.0 802.8 L 956.0 796.9 L 960.0 791.0 L 964.0 785.0 L 968.0 779.3 L 972.0 773.9 L 976.0 768.9 L 980.0 764.4 L 984.0 760.4 L 988.0 756.9 L 992.0 754.1 L 996.0 751.8 L 1000.0 750.0 L 1004.0 748.6 L 1008.0 747.6 L 1012.0 746.8 L 1016.0 746.1 L 1020.0 745.5 L 1024.0 744.6 L 1028.0 743.5 L 1032.0 742.0 L 1036.0 739.8 L 1040.0 736.9 L 1044.0 733.3 L 1048.0 728.7 L 1052.0 723.0 L 1056.0 716.4 L 1060.0 708.6 L 1064.0 699.7 L 1068.0 689.8 L 1072.0 678.8 L 1076.0 666.8 L 1080.0 654.0 L 1084.0 640.5 L 1088.0 626.4 L 1092.0 611.9 L 1096.0 597.2 L 1100.0 582.4 L 1104.0 567.8 L 1108.0 553.5 L 1112.0 539.9 L 1116.0 527.0 L 1120.0 515.0 L 1124.0 504.2 L 1128.0 494.7 L 1132.0 486.7 L 1136.0 480.1 L 1140.0 475.2 L 1144.0 472.0 L 1148.0 470.4 L 1152.0 470.6 L 1156.0 472.5 L 1160.0 475.9 L 1164.0 480.9 L 1168.0 487.3 L 1172.0 494.9 L 1176.0 503.7 L 1180.0 513.4 L 1184.0 523.8 L 1188.0 534.8 L 1192.0 546.3 L 1196.0 557.8 L 1200.0 569.5" stroke="#2bb0ee" stroke-width="7.8" fill="none" opacity="0.39" stroke-linecap="round"/>
<path d="M 0.0 595.4 L 4.0 593.8 L 8.0 592.1 L 12.0 590.6 L 16.0 589.0 L 20.0 587.4 L 24.0 585.9 L 28.0 584.4 L 32.0 582.9 L 36.0 581.4 L 40.0 580.0 L 44.0 578.6 L 48.0 577.3 L 52.0 576.0 L 56.0 574.7 L 60.0 573.5 L 64.0 572.3 L 68.0 571.2 L 72.0 570.1 L 76.0 569.1 L 80.0 568.2 L 84.0 567.3 L 88.0 566.4 L 92.0 565.7 L 96.0 565.0 L 100.0 564.3 L 104.0 563.7 L 108.0 563.2 L 112.0 562.8 L 116.0 562.4 L 120.0 562.1 L 124.0 561.9 L 128.0 561.8 L 132.0 561.7 L 136.0 561.7 L 140.0 561.8 L 144.0 561.9 L 148.0 562.2 L 152.0 562.5 L 156.0 562.9 L 160.0 563.3 L 164.0 563.8 L 168.0 564.4 L 172.0 565.1 L 176.0 565.8 L 180.0 566.6 L 184.0 567.5 L 188.0 568.4 L 192.0 569.4 L 196.0 570.5 L 200.0 571.6 L 204.0 572.8 L 208.0 574.0 L 212.0 575.3 L 216.0 576.7 L 220.0 578.1 L 224.0 579.5 L 228.0 581.0 L 232.0 582.6 L 236.0 584.1 L 240.0 585.7 L 244.0 587.4 L 248.0 589.1 L 252.0 590.8 L 256.0 592.5 L 260.0 594.3 L 264.0 596.1 L 268.0 597.9 L 272.0 599.7 L 276.0 601.5 L 280.0 603.3 L 284.0 605.2 L 288.0 607.0 L 292.0 608.9 L 296.0 610.7 L 300.0 612.6 L 304.0 614.4 L 308.0 616.2 L 312.0 618.0 L 316.0 619.8 L 320.0 621.6 L 324.0 623.4 L 328.0 625.1 L 332.0 626.8 L 336.0 628.5 L 340.0 630.2 L 344.0 631.8 L 348.0 633.4 L 352.0 634.9 L 356.0 636.4 L 360.0 637.9 L 364.0 639.4 L 368.0 640.8 L 372.0 642.2 L 376.0 643.5 L 380.0 644.8 L 384.0 646.0 L 388.0 647.2 L 392.0 648.3 L 396.0 649.5 L 400.0 650.5 L 404.0 651.5 L 408.0 652.5 L 412.0 653.4 L 416.0 654.3 L 420.0 655.2 L 424.0 656.0 L 428.0 656.7 L 432.0 657.4 L 436.0 658.1 L 440.0 658.7 L 444.0 659.3 L 448.0 659.9 L 452.0 660.4 L 456.0 660.9 L 460.0 661.3 L 464.0 661.8 L 468.0 662.1 L 472.0 662.5 L 476.0 662.8 L 480.0 663.1 L 484.0 663.4 L 488.0 663.7 L 492.0 663.9 L 496.0 664.2 L 500.0 664.4 L 504.0 664.6 L 508.0 664.8 L 512.0 665.0 L 516.0 665.1 L 520.0 665.3 L 524.0 665.5 L 528.0 665.6 L 532.0 665.8 L 536.0 666.0 L 540.0 666.2 L 544.0 666.3 L 548.0 666.5 L 552.0 666.7 L 556.0 666.9 L 560.0 667.2 L 564.0 667.4 L 568.0 667.7 L 572.0 668.0 L 576.0 668.2 L 580.0 668.6 L 584.0 668.9 L 588.0 669.3 L 592.0 669.6 L 596.0 670.1 L 600.0 670.5 L 604.0 670.9 L 608.0 671.4 L 612.0 671.9 L 616.0 672.5 L 620.0 673.0 L 624.0 673.6 L 628.0 674.2 L 632.0 674.9 L 636.0 675.5 L 640.0 676.2 L 644.0 676.9 L 648.0 677.7 L 652.0 678.4 L 656.0 679.2 L 660.0 680.0 L 664.0 680.9 L 668.0 681.7 L 672.0 682.5 L 676.0 683.4 L 680.0 684.3 L 684.0 685.2 L 688.0 686.1 L 692.0 687.0 L 696.0 687.9 L 700.0 688.8 L 704.0 689.8 L 708.0 690.7 L 712.0 691.6 L 716.0 692.5 L 720.0 693.4 L 724.0 694.3 L 728.0 695.2 L 732.0 696.1 L 736.0 696.9 L 740.0 697.7 L 744.0 698.5 L 748.0 699.3 L 752.0 700.1 L 756.0 700.8 L 760.0 701.5 L 764.0 702.2 L 768.0 702.8 L 772.0 703.4 L 776.0 703.9 L 780.0 704.4 L 784.0 704.9 L 788.0 705.3 L 792.0 705.6 L 796.0 705.9 L 800.0 706.2 L 804.0 706.4 L 808.0 706.5 L 812.0 706.6 L 816.0 706.6 L 820.0 706.5 L 824.0 706.4 L 828.0 706.2 L 832.0 706.0 L 836.0 705.7 L 840.0 705.3 L 844.0 704.9 L 848.0 704.4 L 852.0 703.8 L 856.0 703.2 L 860.0 702.5 L 864.0 701.7 L 868.0 700.8 L 872.0 699.9 L 876.0 699.0 L 880.0 697.9 L 884.0 696.8 L 888.0 695.6 L 892.0 694.4 L 896.0 693.1 L 900.0 691.7 L 904.0 690.3 L 908.0 688.8 L 912.0 687.3 L 916.0 685.7 L 920.0 684.0 L 924.0 682.3 L 928.0 680.6 L 932.0 678.8 L 936.0 677.0 L 940.0 675.1 L 944.0 673.2 L 948.0 671.2 L 952.0 669.2 L 956.0 667.2 L 960.0 665.2 L 964.0 663.1 L 968.0 661.0 L 972.0 658.9 L 976.0 656.8 L 980.0 654.6 L 984.0 652.5 L 988.0 650.3 L 992.0 648.2 L 996.0 646.0 L 1000.0 643.8 L 1004.0 641.7 L 1008.0 639.5 L 1012.0 637.4 L 1016.0 635.3 L 1020.0 633.1 L 1024.0 631.1 L 1028.0 629.0 L 1032.0 627.0 L 1036.0 624.9 L 1040.0 623.0 L 1044.0 621.0 L 1048.0 619.1 L 1052.0 617.2 L 1056.0 615.4 L 1060.0 613.6 L 1064.0 611.8 L 1068.0 610.1 L 1072.0 608.5 L 1076.0 606.9 L 1080.0 605.3 L 1084.0 603.8 L 1088.0 602.4 L 1092.0 601.0 L 1096.0 599.7 L 1100.0 598.4 L 1104.0 597.2 L 1108.0 596.0 L 1112.0 594.9 L 1116.0 593.9 L 1120.0 592.9 L 1124.0 592.0 L 1128.0 591.1 L 1132.0 590.3 L 1136.0 589.6 L 1140.0 588.9 L 1144.0 588.3 L 1148.0 587.8 L 1152.0 587.3 L 1156.0 586.8 L 1160.0 586.4 L 1164.0 586.1 L 1168.0 585.8 L 1172.0 585.6 L 1176.0 585.4 L 1180.0 585.3 L 1184.0 585.2 L 1188.0 585.2 L 1192.0 585.2 L 1196.0 585.2 L 1200.0 585.3" stroke="#2bb0ee" stroke-width="16.7" fill="none" opacity="0.05" stroke-linecap="round"/>
<path d="M 0.0 595.4 L 4.0 593.8 L 8.0 592.1 L 12.0 590.6 L 16.0 589.0 L 20.0 587.4 L 24.0 585.9 L 28.0 584.4 L 32.0 582.9 L 36.0 581.4 L 40.0 580.0 L 44.0 578.6 L 48.0 577.3 L 52.0 576.0 L 56.0 574.7 L 60.0 573.5 L 64.0 572.3 L 68.0 571.2 L 72.0 570.1 L 76.0 569.1 L 80.0 568.2 L 84.0 567.3 L 88.0 566.4 L 92.0 565.7 L 96.0 565.0 L 100.0 564.3 L 104.0 563.7 L 108.0 563.2 L 112.0 562.8 L 116.0 562.4 L 120.0 562.1 L 124.0 561.9 L 128.0 561.8 L 132.0 561.7 L 136.0 561.7 L 140.0 561.8 L 144.0 561.9 L 148.0 562.2 L 152.0 562.5 L 156.0 562.9 L 160.0 563.3 L 164.0 563.8 L 168.0 564.4 L 172.0 565.1 L 176.0 565.8 L 180.0 566.6 L 184.0 567.5 L 188.0 568.4 L 192.0 569.4 L 196.0 570.5 L 200.0 571.6 L 204.0 572.8 L 208.0 574.0 L 212.0 575.3 L 216.0 576.7 L 220.0 578.1 L 224.0 579.5 L 228.0 581.0 L 232.0 582.6 L 236.0 584.1 L 240.0 585.7 L 244.0 587.4 L 248.0 589.1 L 252.0 590.8 L 256.0 592.5 L 260.0 594.3 L 264.0 596.1 L 268.0 597.9 L 272.0 599.7 L 276.0 601.5 L 280.0 603.3 L 284.0 605.2 L 288.0 607.0 L 292.0 608.9 L 296.0 610.7 L 300.0 612.6 L 304.0 614.4 L 308.0 616.2 L 312.0 618.0 L 316.0 619.8 L 320.0 621.6 L 324.0 623.4 L 328.0 625.1 L 332.0 626.8 L 336.0 628.5 L 340.0 630.2 L 344.0 631.8 L 348.0 633.4 L 352.0 634.9 L 356.0 636.4 L 360.0 637.9 L 364.0 639.4 L 368.0 640.8 L 372.0 642.2 L 376.0 643.5 L 380.0 644.8 L 384.0 646.0 L 388.0 647.2 L 392.0 648.3 L 396.0 649.5 L 400.0 650.5 L 404.0 651.5 L 408.0 652.5 L 412.0 653.4 L 416.0 654.3 L 420.0 655.2 L 424.0 656.0 L 428.0 656.7 L 432.0 657.4 L 436.0 658.1 L 440.0 658.7 L 444.0 659.3 L 448.0 659.9 L 452.0 660.4 L 456.0 660.9 L 460.0 661.3 L 464.0 661.8 L 468.0 662.1 L 472.0 662.5 L 476.0 662.8 L 480.0 663.1 L 484.0 663.4 L 488.0 663.7 L 492.0 663.9 L 496.0 664.2 L 500.0 664.4 L 504.0 664.6 L 508.0 664.8 L 512.0 665.0 L 516.0 665.1 L 520.0 665.3 L 524.0 665.5 L 528.0 665.6 L 532.0 665.8 L 536.0 666.0 L 540.0 666.2 L 544.0 666.3 L 548.0 666.5 L 552.0 666.7 L 556.0 666.9 L 560.0 667.2 L 564.0 667.4 L 568.0 667.7 L 572.0 668.0 L 576.0 668.2 L 580.0 668.6 L 584.0 668.9 L 588.0 669.3 L 592.0 669.6 L 596.0 670.1 L 600.0 670.5 L 604.0 670.9 L 608.0 671.4 L 612.0 671.9 L 616.0 672.5 L 620.0 673.0 L 624.0 673.6 L 628.0 674.2 L 632.0 674.9 L 636.0 675.5 L 640.0 676.2 L 644.0 676.9 L 648.0 677.7 L 652.0 678.4 L 656.0 679.2 L 660.0 680.0 L 664.0 680.9 L 668.0 681.7 L 672.0 682.5 L 676.0 683.4 L 680.0 684.3 L 684.0 685.2 L 688.0 686.1 L 692.0 687.0 L 696.0 687.9 L 700.0 688.8 L 704.0 689.8 L 708.0 690.7 L 712.0 691.6 L 716.0 692.5 L 720.0 693.4 L 724.0 694.3 L 728.0 695.2 L 732.0 696.1 L 736.0 696.9 L 740.0 697.7 L 744.0 698.5 L 748.0 699.3 L 752.0 700.1 L 756.0 700.8 L 760.0 701.5 L 764.0 702.2 L 768.0 702.8 L 772.0 703.4 L 776.0 703.9 L 780.0 704.4 L 784.0 704.9 L 788.0 705.3 L 792.0 705.6 L 796.0 705.9 L 800.0 706.2 L 804.0 706.4 L 808.0 706.5 L 812.0 706.6 L 816.0 706.6 L 820.0 706.5 L 824.0 706.4 L 828.0 706.2 L 832.0 706.0 L 836.0 705.7 L 840.0 705.3 L 844.0 704.9 L 848.0 704.4 L 852.0 703.8 L 856.0 703.2 L 860.0 702.5 L 864.0 701.7 L 868.0 700.8 L 872.0 699.9 L 876.0 699.0 L 880.0 697.9 L 884.0 696.8 L 888.0 695.6 L 892.0 694.4 L 896.0 693.1 L 900.0 691.7 L 904.0 690.3 L 908.0 688.8 L 912.0 687.3 L 916.0 685.7 L 920.0 684.0 L 924.0 682.3 L 928.0 680.6 L 932.0 678.8 L 936.0 677.0 L 940.0 675.1 L 944.0 673.2 L 948.0 671.2 L 952.0 669.2 L 956.0 667.2 L 960.0 665.2 L 964.0 663.1 L 968.0 661.0 L 972.0 658.9 L 976.0 656.8 L 980.0 654.6 L 984.0 652.5 L 988.0 650.3 L 992.0 648.2 L 996.0 646.0 L 1000.0 643.8 L 1004.0 641.7 L 1008.0 639.5 L 1012.0 637.4 L 1016.0 635.3 L 1020.0 633.1 L 1024.0 631.1 L 1028.0 629.0 L 1032.0 627.0 L 1036.0 624.9 L 1040.0 623.0 L 1044.0 621.0 L 1048.0 619.1 L 1052.0 617.2 L 1056.0 615.4 L 1060.0 613.6 L 1064.0 611.8 L 1068.0 610.1 L 1072.0 608.5 L 1076.0 606.9 L 1080.0 605.3 L 1084.0 603.8 L 1088.0 602.4 L 1092.0 601.0 L 1096.0 599.7 L 1100.0 598.4 L 1104.0 597.2 L 1108.0 596.0 L 1112.0 594.9 L 1116.0 593.9 L 1120.0 592.9 L 1124.0 592.0 L 1128.0 591.1 L 1132.0 590.3 L 1136.0 589.6 L 1140.0 588.9 L 1144.0 588.3 L 1148.0 587.8 L 1152.0 587.3 L 1156.0 586.8 L 1160.0 586.4 L 1164.0 586.1 L 1168.0 585.8 L 1172.0 585.6 L 1176.0 585.4 L 1180.0 585.3 L 1184.0 585.2 L 1188.0 585.2 L 1192.0 585.2 L 1196.0 585.2 L 1200.0 585.3" stroke="#2bb0ee" stroke-width="6.7" fill="none" opacity="0.30" stroke-linecap="round"/>
<path d="M 0.0 238.8 L 4.0 230.7 L 8.0 222.8 L 12.0 215.1 L 16.0 207.9 L 20.0 201.3 L 24.0 195.4 L 28.0 190.5 L 32.0 186.5 L 36.0 183.7 L 40.0 182.1 L 44.0 181.6 L 48.0 182.4 L 52.0 184.4 L 56.0 187.5 L 60.0 191.6 L 64.0 196.8 L 68.0 202.7 L 72.0 209.3 L 76.0 216.4 L 80.0 223.9 L 84.0 231.6 L 88.0 239.2 L 92.0 246.8 L 96.0 254.1 L 100.0 260.9 L 104.0 267.3 L 108.0 273.1 L 112.0 278.2 L 116.0 282.7 L 120.0 286.6 L 124.0 289.8 L 128.0 292.4 L 132.0 294.6 L 136.0 296.3 L 140.0 297.7 L 144.0 298.9 L 148.0 300.1 L 152.0 301.3 L 156.0 302.6 L 160.0 304.3 L 164.0 306.2 L 168.0 308.6 L 172.0 311.4 L 176.0 314.7 L 180.0 318.4 L 184.0 322.6 L 188.0 327.1 L 192.0 332.0 L 196.0 337.0 L 200.0 342.0 L 204.0 347.0 L 208.0 351.8 L 212.0 356.2 L 216.0 360.1 L 220.0 363.3 L 224.0 365.7 L 228.0 367.2 L 232.0 367.6 L 236.0 367.0 L 240.0 365.2 L 244.0 362.3 L 248.0 358.3 L 252.0 353.1 L 256.0 346.9 L 260.0 339.8 L 264.0 331.9 L 268.0 323.4 L 272.0 314.3 L 276.0 304.9 L 280.0 295.4 L 284.0 285.9 L 288.0 276.6 L 292.0 267.6 L 296.0 259.2 L 300.0 251.4 L 304.0 244.4 L 308.0 238.3 L 312.0 233.0 L 316.0 228.6 L 320.0 225.2 L 324.0 222.7 L 328.0 220.9 L 332.0 220.0 L 336.0 219.7 L 340.0 219.9 L 344.0 220.5 L 348.0 221.5 L 352.0 222.6 L 356.0 223.7 L 360.0 224.8 L 364.0 225.6 L 368.0 226.2 L 372.0 226.5 L 376.0 226.5 L 380.0 226.0 L 384.0 225.2 L 388.0 224.1 L 392.0 222.8 L 396.0 221.2 L 400.0 219.6 L 404.0 218.1 L 408.0 216.7 L 412.0 215.7 L 416.0 215.0 L 420.0 215.0 L 424.0 215.6 L 428.0 217.0 L 432.0 219.3 L 436.0 222.5 L 440.0 226.7 L 444.0 231.8 L 448.0 237.8 L 452.0 244.7 L 456.0 252.4 L 460.0 260.8 L 464.0 269.8 L 468.0 279.2 L 472.0 288.8 L 476.0 298.5 L 480.0 308.0 L 484.0 317.3 L 488.0 326.1 L 492.0 334.3 L 496.0 341.7 L 500.0 348.2 L 504.0 353.8 L 508.0 358.2 L 512.0 361.5 L 516.0 363.7 L 520.0 364.8 L 524.0 364.8 L 528.0 363.8 L 532.0 361.9 L 536.0 359.2 L 540.0 355.9 L 544.0 352.0 L 548.0 347.7 L 552.0 343.2 L 556.0 338.7 L 560.0 334.1 L 564.0 329.8 L 568.0 325.7 L 572.0 322.0 L 576.0 318.7 L 580.0 315.8 L 584.0 313.3 L 588.0 311.3 L 592.0 309.7 L 596.0 308.4 L 600.0 307.2 L 604.0 306.3 L 608.0 305.3 L 612.0 304.2 L 616.0 302.9 L 620.0 301.3 L 624.0 299.2 L 628.0 296.5 L 632.0 293.3 L 636.0 289.4 L 640.0 284.8 L 644.0 279.5 L 648.0 273.5 L 652.0 266.9 L 656.0 259.8 L 660.0 252.2 L 664.0 244.4 L 668.0 236.3 L 672.0 228.3 L 676.0 220.4 L 680.0 212.9 L 684.0 205.8 L 688.0 199.4 L 692.0 193.8 L 696.0 189.2 L 700.0 185.6 L 704.0 183.1 L 708.0 181.8 L 712.0 181.7 L 716.0 182.9 L 720.0 185.2 L 724.0 188.6 L 728.0 193.1 L 732.0 198.5 L 736.0 204.6 L 740.0 211.4 L 744.0 218.6 L 748.0 226.2 L 752.0 233.9 L 756.0 241.5 L 760.0 249.0 L 764.0 256.2 L 768.0 262.9 L 772.0 269.1 L 776.0 274.7 L 780.0 279.7 L 784.0 284.0 L 788.0 287.6 L 792.0 290.6 L 796.0 293.1 L 800.0 295.1 L 804.0 296.7 L 808.0 298.1 L 812.0 299.3 L 816.0 300.4 L 820.0 301.7 L 824.0 303.1 L 828.0 304.8 L 832.0 306.9 L 836.0 309.4 L 840.0 312.3 L 844.0 315.8 L 848.0 319.6 L 852.0 323.9 L 856.0 328.6 L 860.0 333.5 L 864.0 338.5 L 868.0 343.6 L 872.0 348.5 L 876.0 353.2 L 880.0 357.4 L 884.0 361.1 L 888.0 364.1 L 892.0 366.2 L 896.0 367.4 L 900.0 367.5 L 904.0 366.6 L 908.0 364.5 L 912.0 361.2 L 916.0 356.8 L 920.0 351.4 L 924.0 344.9 L 928.0 337.5 L 932.0 329.4 L 936.0 320.7 L 940.0 311.5 L 944.0 302.0 L 948.0 292.5 L 952.0 283.0 L 956.0 273.8 L 960.0 265.0 L 964.0 256.8 L 968.0 249.2 L 972.0 242.5 L 976.0 236.6 L 980.0 231.6 L 984.0 227.5 L 988.0 224.3 L 992.0 222.1 L 996.0 220.6 L 1000.0 219.8 L 1004.0 219.7 L 1008.0 220.1 L 1012.0 220.8 L 1016.0 221.8 L 1020.0 222.9 L 1024.0 224.0 L 1028.0 225.0 L 1032.0 225.8 L 1036.0 226.4 L 1040.0 226.6 L 1044.0 226.4 L 1048.0 225.8 L 1052.0 224.9 L 1056.0 223.7 L 1060.0 222.3 L 1064.0 220.7 L 1068.0 219.2 L 1072.0 217.6 L 1076.0 216.4 L 1080.0 215.4 L 1084.0 215.0 L 1088.0 215.1 L 1092.0 216.0 L 1096.0 217.6 L 1100.0 220.2 L 1104.0 223.7 L 1108.0 228.1 L 1112.0 233.5 L 1116.0 239.8 L 1120.0 247.0 L 1124.0 254.9 L 1128.0 263.5 L 1132.0 272.6 L 1136.0 282.1 L 1140.0 291.7 L 1144.0 301.4 L 1148.0 310.9 L 1152.0 320.0 L 1156.0 328.7 L 1160.0 336.6 L 1164.0 343.8 L 1168.0 350.0 L 1172.0 355.2 L 1176.0 359.3 L 1180.0 362.3 L 1184.0 364.2 L 1188.0 364.9 L 1192.0 364.6 L 1196.0 363.4 L 1200.0 361.2" stroke="#2bb0ee" stroke-width="8.0" fill="none" opacity="0.09" stroke-linecap="round"/>
<path d="M 0.0 238.8 L 4.0 230.7 L 8.0 222.8 L 12.0 215.1 L 16.0 207.9 L 20.0 201.3 L 24.0 195.4 L 28.0 190.5 L 32.0 186.5 L 36.0 183.7 L 40.0 182.1 L 44.0 181.6 L 48.0 182.4 L 52.0 184.4 L 56.0 187.5 L 60.0 191.6 L 64.0 196.8 L 68.0 202.7 L 72.0 209.3 L 76.0 216.4 L 80.0 223.9 L 84.0 231.6 L 88.0 239.2 L 92.0 246.8 L 96.0 254.1 L 100.0 260.9 L 104.0 267.3 L 108.0 273.1 L 112.0 278.2 L 116.0 282.7 L 120.0 286.6 L 124.0 289.8 L 128.0 292.4 L 132.0 294.6 L 136.0 296.3 L 140.0 297.7 L 144.0 298.9 L 148.0 300.1 L 152.0 301.3 L 156.0 302.6 L 160.0 304.3 L 164.0 306.2 L 168.0 308.6 L 172.0 311.4 L 176.0 314.7 L 180.0 318.4 L 184.0 322.6 L 188.0 327.1 L 192.0 332.0 L 196.0 337.0 L 200.0 342.0 L 204.0 347.0 L 208.0 351.8 L 212.0 356.2 L 216.0 360.1 L 220.0 363.3 L 224.0 365.7 L 228.0 367.2 L 232.0 367.6 L 236.0 367.0 L 240.0 365.2 L 244.0 362.3 L 248.0 358.3 L 252.0 353.1 L 256.0 346.9 L 260.0 339.8 L 264.0 331.9 L 268.0 323.4 L 272.0 314.3 L 276.0 304.9 L 280.0 295.4 L 284.0 285.9 L 288.0 276.6 L 292.0 267.6 L 296.0 259.2 L 300.0 251.4 L 304.0 244.4 L 308.0 238.3 L 312.0 233.0 L 316.0 228.6 L 320.0 225.2 L 324.0 222.7 L 328.0 220.9 L 332.0 220.0 L 336.0 219.7 L 340.0 219.9 L 344.0 220.5 L 348.0 221.5 L 352.0 222.6 L 356.0 223.7 L 360.0 224.8 L 364.0 225.6 L 368.0 226.2 L 372.0 226.5 L 376.0 226.5 L 380.0 226.0 L 384.0 225.2 L 388.0 224.1 L 392.0 222.8 L 396.0 221.2 L 400.0 219.6 L 404.0 218.1 L 408.0 216.7 L 412.0 215.7 L 416.0 215.0 L 420.0 215.0 L 424.0 215.6 L 428.0 217.0 L 432.0 219.3 L 436.0 222.5 L 440.0 226.7 L 444.0 231.8 L 448.0 237.8 L 452.0 244.7 L 456.0 252.4 L 460.0 260.8 L 464.0 269.8 L 468.0 279.2 L 472.0 288.8 L 476.0 298.5 L 480.0 308.0 L 484.0 317.3 L 488.0 326.1 L 492.0 334.3 L 496.0 341.7 L 500.0 348.2 L 504.0 353.8 L 508.0 358.2 L 512.0 361.5 L 516.0 363.7 L 520.0 364.8 L 524.0 364.8 L 528.0 363.8 L 532.0 361.9 L 536.0 359.2 L 540.0 355.9 L 544.0 352.0 L 548.0 347.7 L 552.0 343.2 L 556.0 338.7 L 560.0 334.1 L 564.0 329.8 L 568.0 325.7 L 572.0 322.0 L 576.0 318.7 L 580.0 315.8 L 584.0 313.3 L 588.0 311.3 L 592.0 309.7 L 596.0 308.4 L 600.0 307.2 L 604.0 306.3 L 608.0 305.3 L 612.0 304.2 L 616.0 302.9 L 620.0 301.3 L 624.0 299.2 L 628.0 296.5 L 632.0 293.3 L 636.0 289.4 L 640.0 284.8 L 644.0 279.5 L 648.0 273.5 L 652.0 266.9 L 656.0 259.8 L 660.0 252.2 L 664.0 244.4 L 668.0 236.3 L 672.0 228.3 L 676.0 220.4 L 680.0 212.9 L 684.0 205.8 L 688.0 199.4 L 692.0 193.8 L 696.0 189.2 L 700.0 185.6 L 704.0 183.1 L 708.0 181.8 L 712.0 181.7 L 716.0 182.9 L 720.0 185.2 L 724.0 188.6 L 728.0 193.1 L 732.0 198.5 L 736.0 204.6 L 740.0 211.4 L 744.0 218.6 L 748.0 226.2 L 752.0 233.9 L 756.0 241.5 L 760.0 249.0 L 764.0 256.2 L 768.0 262.9 L 772.0 269.1 L 776.0 274.7 L 780.0 279.7 L 784.0 284.0 L 788.0 287.6 L 792.0 290.6 L 796.0 293.1 L 800.0 295.1 L 804.0 296.7 L 808.0 298.1 L 812.0 299.3 L 816.0 300.4 L 820.0 301.7 L 824.0 303.1 L 828.0 304.8 L 832.0 306.9 L 836.0 309.4 L 840.0 312.3 L 844.0 315.8 L 848.0 319.6 L 852.0 323.9 L 856.0 328.6 L 860.0 333.5 L 864.0 338.5 L 868.0 343.6 L 872.0 348.5 L 876.0 353.2 L 880.0 357.4 L 884.0 361.1 L 888.0 364.1 L 892.0 366.2 L 896.0 367.4 L 900.0 367.5 L 904.0 366.6 L 908.0 364.5 L 912.0 361.2 L 916.0 356.8 L 920.0 351.4 L 924.0 344.9 L 928.0 337.5 L 932.0 329.4 L 936.0 320.7 L 940.0 311.5 L 944.0 302.0 L 948.0 292.5 L 952.0 283.0 L 956.0 273.8 L 960.0 265.0 L 964.0 256.8 L 968.0 249.2 L 972.0 242.5 L 976.0 236.6 L 980.0 231.6 L 984.0 227.5 L 988.0 224.3 L 992.0 222.1 L 996.0 220.6 L 1000.0 219.8 L 1004.0 219.7 L 1008.0 220.1 L 1012.0 220.8 L 1016.0 221.8 L 1020.0 222.9 L 1024.0 224.0 L 1028.0 225.0 L 1032.0 225.8 L 1036.0 226.4 L 1040.0 226.6 L 1044.0 226.4 L 1048.0 225.8 L 1052.0 224.9 L 1056.0 223.7 L 1060.0 222.3 L 1064.0 220.7 L 1068.0 219.2 L 1072.0 217.6 L 1076.0 216.4 L 1080.0 215.4 L 1084.0 215.0 L 1088.0 215.1 L 1092.0 216.0 L 1096.0 217.6 L 1100.0 220.2 L 1104.0 223.7 L 1108.0 228.1 L 1112.0 233.5 L 1116.0 239.8 L 1120.0 247.0 L 1124.0 254.9 L 1128.0 263.5 L 1132.0 272.6 L 1136.0 282.1 L 1140.0 291.7 L 1144.0 301.4 L 1148.0 310.9 L 1152.0 320.0 L 1156.0 328.7 L 1160.0 336.6 L 1164.0 343.8 L 1168.0 350.0 L 1172.0 355.2 L 1176.0 359.3 L 1180.0 362.3 L 1184.0 364.2 L 1188.0 364.9 L 1192.0 364.6 L 1196.0 363.4 L 1200.0 361.2" stroke="#2bb0ee" stroke-width="3.2" fill="none" opacity="0.59" stroke-linecap="round"/>
<path d="M 0 1200 L 0.0 695.7 L 4.0 693.9 L 8.0 692.1 L 12.0 690.2 L 16.0 688.2 L 20.0 686.2 L 24.0 684.2 L 28.0 682.2 L 32.0 680.1 L 36.0 678.0 L 40.0 675.9 L 44.0 673.7 L 48.0 671.6 L 52.0 669.4 L 56.0 667.2 L 60.0 665.0 L 64.0 662.8 L 68.0 660.6 L 72.0 658.4 L 76.0 656.2 L 80.0 654.0 L 84.0 651.8 L 88.0 649.6 L 92.0 647.4 L 96.0 645.3 L 100.0 643.1 L 104.0 641.0 L 108.0 638.9 L 112.0 636.9 L 116.0 634.8 L 120.0 632.8 L 124.0 630.9 L 128.0 628.9 L 132.0 627.1 L 136.0 625.2 L 140.0 623.4 L 144.0 621.7 L 148.0 620.0 L 152.0 618.3 L 156.0 616.7 L 160.0 615.2 L 164.0 613.7 L 168.0 612.3 L 172.0 611.0 L 176.0 609.7 L 180.0 608.5 L 184.0 607.3 L 188.0 606.2 L 192.0 605.2 L 196.0 604.3 L 200.0 603.4 L 204.0 602.6 L 208.0 601.9 L 212.0 601.2 L 216.0 600.7 L 220.0 600.2 L 224.0 599.8 L 228.0 599.4 L 232.0 599.2 L 236.0 599.0 L 240.0 598.9 L 244.0 598.9 L 248.0 598.9 L 252.0 599.1 L 256.0 599.3 L 260.0 599.6 L 264.0 600.0 L 268.0 600.5 L 272.0 601.0 L 276.0 601.6 L 280.0 602.3 L 284.0 603.1 L 288.0 603.9 L 292.0 604.8 L 296.0 605.8 L 300.0 606.9 L 304.0 608.0 L 308.0 609.2 L 312.0 610.5 L 316.0 611.8 L 320.0 613.2 L 324.0 614.7 L 328.0 616.2 L 332.0 617.7 L 336.0 619.4 L 340.0 621.0 L 344.0 622.8 L 348.0 624.6 L 352.0 626.4 L 356.0 628.2 L 360.0 630.2 L 364.0 632.1 L 368.0 634.1 L 372.0 636.1 L 376.0 638.2 L 380.0 640.2 L 384.0 642.3 L 388.0 644.5 L 392.0 646.6 L 396.0 648.8 L 400.0 651.0 L 404.0 653.2 L 408.0 655.4 L 412.0 657.6 L 416.0 659.8 L 420.0 662.0 L 424.0 664.2 L 428.0 666.4 L 432.0 668.6 L 436.0 670.8 L 440.0 672.9 L 444.0 675.1 L 448.0 677.2 L 452.0 679.3 L 456.0 681.4 L 460.0 683.5 L 464.0 685.5 L 468.0 687.5 L 472.0 689.5 L 476.0 691.4 L 480.0 693.3 L 484.0 695.1 L 488.0 696.9 L 492.0 698.6 L 496.0 700.3 L 500.0 701.9 L 504.0 703.5 L 508.0 705.0 L 512.0 706.5 L 516.0 707.9 L 520.0 709.3 L 524.0 710.5 L 528.0 711.7 L 532.0 712.9 L 536.0 714.0 L 540.0 715.0 L 544.0 715.9 L 548.0 716.8 L 552.0 717.5 L 556.0 718.2 L 560.0 718.9 L 564.0 719.4 L 568.0 719.9 L 572.0 720.3 L 576.0 720.6 L 580.0 720.9 L 584.0 721.0 L 588.0 721.1 L 592.0 721.1 L 596.0 721.0 L 600.0 720.9 L 604.0 720.6 L 608.0 720.3 L 612.0 719.9 L 616.0 719.4 L 620.0 718.9 L 624.0 718.3 L 628.0 717.6 L 632.0 716.8 L 636.0 715.9 L 640.0 715.0 L 644.0 714.0 L 648.0 712.9 L 652.0 711.8 L 656.0 710.6 L 660.0 709.3 L 664.0 708.0 L 668.0 706.6 L 672.0 705.1 L 676.0 703.6 L 680.0 702.0 L 684.0 700.4 L 688.0 698.7 L 692.0 696.9 L 696.0 695.2 L 700.0 693.3 L 704.0 691.4 L 708.0 689.5 L 712.0 687.6 L 716.0 685.6 L 720.0 683.6 L 724.0 681.5 L 728.0 679.4 L 732.0 677.3 L 736.0 675.2 L 740.0 673.0 L 744.0 670.9 L 748.0 668.7 L 752.0 666.5 L 756.0 664.3 L 760.0 662.1 L 764.0 659.9 L 768.0 657.6 L 772.0 655.4 L 776.0 653.2 L 780.0 651.0 L 784.0 648.9 L 788.0 646.7 L 792.0 644.5 L 796.0 642.4 L 800.0 640.3 L 804.0 638.2 L 808.0 636.2 L 812.0 634.2 L 816.0 632.2 L 820.0 630.2 L 824.0 628.3 L 828.0 626.4 L 832.0 624.6 L 836.0 622.8 L 840.0 621.1 L 844.0 619.4 L 848.0 617.8 L 852.0 616.2 L 856.0 614.7 L 860.0 613.3 L 864.0 611.9 L 868.0 610.5 L 872.0 609.3 L 876.0 608.1 L 880.0 606.9 L 884.0 605.9 L 888.0 604.9 L 892.0 604.0 L 896.0 603.1 L 900.0 602.3 L 904.0 601.6 L 908.0 601.0 L 912.0 600.5 L 916.0 600.0 L 920.0 599.6 L 924.0 599.3 L 928.0 599.1 L 932.0 599.0 L 936.0 598.9 L 940.0 598.9 L 944.0 599.0 L 948.0 599.2 L 952.0 599.4 L 956.0 599.7 L 960.0 600.1 L 964.0 600.6 L 968.0 601.2 L 972.0 601.8 L 976.0 602.6 L 980.0 603.4 L 984.0 604.2 L 988.0 605.2 L 992.0 606.2 L 996.0 607.3 L 1000.0 608.4 L 1004.0 609.6 L 1008.0 610.9 L 1012.0 612.3 L 1016.0 613.7 L 1020.0 615.1 L 1024.0 616.7 L 1028.0 618.3 L 1032.0 619.9 L 1036.0 621.6 L 1040.0 623.4 L 1044.0 625.1 L 1048.0 627.0 L 1052.0 628.9 L 1056.0 630.8 L 1060.0 632.8 L 1064.0 634.7 L 1068.0 636.8 L 1072.0 638.8 L 1076.0 640.9 L 1080.0 643.0 L 1084.0 645.2 L 1088.0 647.3 L 1092.0 649.5 L 1096.0 651.7 L 1100.0 653.9 L 1104.0 656.1 L 1108.0 658.3 L 1112.0 660.5 L 1116.0 662.7 L 1120.0 664.9 L 1124.0 667.1 L 1128.0 669.3 L 1132.0 671.5 L 1136.0 673.7 L 1140.0 675.8 L 1144.0 677.9 L 1148.0 680.0 L 1152.0 682.1 L 1156.0 684.2 L 1160.0 686.2 L 1164.0 688.1 L 1168.0 690.1 L 1172.0 692.0 L 1176.0 693.9 L 1180.0 695.7 L 1184.0 697.4 L 1188.0 699.2 L 1192.0 700.8 L 1196.0 702.5 L 1200.0 704.0 L 1200 1200 Z" fill="#1f21ad" opacity="0.08"/>

  </g>

  <!-- Vignette -->
  <defs>
    <radialGradient id="vignette-oliver-malcolm" cx="50%" cy="50%" r="70%">
      <stop offset="0%" stop-color="transparent"/>
      <stop offset="100%" stop-color="rgba(10,10,10,0.7)"/>
    </radialGradient>
  </defs>
  <rect width="1200" height="1200" fill="url(#vignette-oliver-malcolm)"/>

  <!-- Card number watermark -->
  <text x="40" y="1170" font-family="monospace" font-size="48" fill="rgba(255,255,255,0.06)">005</text>
</svg>