<svg xmlns="http://www.w3.org/2000/svg" viewBox="0 0 1200 1200" width="1200" height="1200">
  <rect width="1200" height="1200" fill="#0a0a0a"/>

  <!-- Generative Art -->
  <g>
    <path d="M 611.1 602.9 L 612.6 605.0 L 619.5 606.6 L 602.2 606.4 L 591.3 600.8 L 598.9 606.2 L 617.2 615.6 L 604.6 609.9 L 577.2 589.4 L 601.5 608.3 L 597.0 606.2 L 588.1 596.4 L 596.4 606.3 L 581.6 577.7 L 590.7 591.5 L 590.4 587.2 L 598.1 620.5 L 597.1 619.1 L 594.6 603.2 L 594.5 593.4 L 594.4 612.7 L 597.4 598.6 L 591.8 616.5 L 595.5 597.9 L 595.2 604.3 L 604.3 586.7 L 597.7 600.4 L 599.1 597.7 L 586.7 608.3 L 582.9 609.7 L 600.4 600.3 L 591.1 606.5 L 614.3 595.5 L 598.2 602.0 L 585.7 605.5 L 601.6 603.4 L 618.8 604.0 L 587.9 603.5 L 602.0 604.9 L 597.0 603.1 L 602.3 606.6 L 607.5 607.7 L 583.3 595.1 L 595.1 604.9 L 593.2 599.5 L 589.7 598.7 L 593.7 604.4 L 587.6 590.2 L 594.0 600.6 L 592.1 591.9 L 586.3 583.2 L 597.5 608.2 L 599.5 619.1 L 594.4 605.0 L 594.7 620.1 L 591.4 622.6 L 594.1 619.2 L 592.4 610.2 L 599.8 587.2 L 584.0 629.9 L 605.7 587.7 L 590.0 610.6 L 599.0 598.2 L 588.5 611.5 L 606.8 593.1 L 595.8 604.0 L 605.5 595.4 L 600.1 600.8 L 577.9 609.2 L 610.9 599.3 L 596.4 603.9 L 602.2 601.2 L 609.5 603.9 Z" stroke="#8e1fad" stroke-width="1.5" fill="none" opacity="0.50"/>
<path d="M 615.1 603.1 L 602.1 602.9 L 612.2 606.8 L 596.8 601.8 L 618.4 612.6 L 598.8 604.6 L 596.7 603.0 L 599.6 606.0 L 607.0 611.7 L 593.7 603.5 L 612.9 622.7 L 593.7 598.0 L 595.3 600.4 L 601.5 611.9 L 603.9 619.9 L 606.7 637.7 L 599.6 614.2 L 595.5 593.2 L 596.6 599.9 L 594.7 616.8 L 596.0 605.7 L 590.2 622.5 L 595.6 603.5 L 590.2 613.2 L 587.4 621.0 L 588.1 615.4 L 596.1 603.1 L 581.2 617.1 L 571.6 624.9 L 581.4 611.8 L 583.6 611.6 L 592.7 605.7 L 596.7 603.8 L 599.4 601.4 L 585.6 605.3 L 566.4 605.6 L 581.2 603.7 L 580.4 601.3 L 597.7 602.0 L 592.8 602.0 L 598.4 604.4 L 563.5 587.4 L 579.8 593.3 L 575.4 590.3 L 603.3 608.4 L 578.9 587.9 L 599.1 604.8 L 584.4 585.3 L 584.6 584.5 L 590.0 588.0 L 585.7 572.3 L 597.8 606.7 L 594.9 590.7 L 596.1 589.1 L 597.5 604.5 L 595.3 611.2 L 595.9 599.6 L 600.2 584.5 L 595.3 607.1 L 603.4 588.3 L 602.5 594.2 L 606.8 588.6 L 597.2 600.2 L 618.9 579.5 L 590.4 607.0 L 614.4 590.5 L 616.9 590.3 L 610.4 594.9 L 614.2 596.8 L 594.7 601.8 L 615.5 600.8 L 620.1 600.2 L 620.6 604.3 Z" stroke="#412bee" stroke-width="0.8" fill="none" opacity="0.33"/>
<path d="M 593.8 603.6 L 611.8 602.0 L 613.2 604.0 L 627.2 609.2 L 602.7 602.9 L 602.9 605.1 L 616.3 612.0 L 604.5 608.5 L 598.7 602.0 L 624.0 632.4 L 617.0 623.5 L 618.8 633.2 L 607.0 622.7 L 602.5 613.7 L 607.0 631.2 L 600.6 612.0 L 597.8 603.6 L 599.7 618.0 L 598.3 627.3 L 594.5 617.1 L 590.7 642.9 L 593.1 621.0 L 586.3 636.1 L 582.1 633.4 L 586.3 625.1 L 585.7 618.4 L 575.3 628.0 L 572.9 627.8 L 565.3 630.3 L 587.3 607.6 L 590.5 607.6 L 585.9 606.2 L 587.5 605.5 L 579.7 606.2 L 585.1 602.7 L 587.0 603.7 L 592.4 603.1 L 582.2 601.6 L 576.0 599.4 L 581.6 600.1 L 564.9 592.7 L 574.7 593.0 L 561.5 581.1 L 578.2 587.9 L 573.5 581.8 L 584.5 590.3 L 571.5 572.3 L 580.2 577.5 L 587.8 587.1 L 589.0 586.1 L 585.7 569.1 L 591.5 584.4 L 591.5 577.6 L 597.2 587.4 L 597.1 574.2 L 600.3 573.8 L 598.1 588.2 L 607.0 567.1 L 606.4 581.2 L 612.0 568.0 L 604.3 592.7 L 605.8 592.9 L 607.7 591.5 L 609.5 592.2 L 612.2 592.5 L 632.0 577.4 L 631.8 584.0 L 624.4 591.6 L 633.5 587.4 L 614.3 598.6 L 625.8 599.0 L 600.6 602.4 L 619.2 600.4 Z" stroke="#412bee" stroke-width="0.8" fill="none" opacity="0.23"/>
<path d="M 634.5 600.1 L 608.1 604.2 L 616.3 602.9 L 645.0 612.4 L 625.2 612.8 L 636.7 618.5 L 625.9 616.8 L 622.3 619.3 L 616.5 615.0 L 619.6 624.1 L 610.1 614.9 L 622.9 637.5 L 615.4 633.1 L 614.4 636.7 L 606.0 622.7 L 609.6 641.8 L 603.7 631.6 L 599.6 620.5 L 599.0 634.1 L 597.1 621.9 L 590.8 648.7 L 595.2 613.2 L 585.6 637.5 L 593.7 612.6 L 589.3 618.1 L 583.5 625.3 L 582.9 620.6 L 585.7 612.7 L 573.7 624.0 L 556.9 632.3 L 558.4 625.7 L 573.4 614.8 L 576.9 609.1 L 552.5 612.3 L 567.8 607.1 L 585.4 605.1 L 548.2 601.7 L 578.6 602.3 L 576.0 596.3 L 543.7 588.3 L 550.4 582.8 L 582.2 595.8 L 554.7 574.1 L 553.6 570.8 L 565.1 573.8 L 573.2 575.4 L 568.2 563.1 L 570.1 562.4 L 574.0 556.4 L 577.3 560.1 L 579.5 549.8 L 587.6 562.7 L 591.4 557.8 L 595.8 567.8 L 599.0 583.0 L 599.4 581.3 L 602.4 577.9 L 609.4 560.9 L 618.1 549.4 L 612.8 571.8 L 627.6 550.4 L 625.3 565.6 L 614.2 585.8 L 618.3 584.8 L 630.3 575.7 L 633.7 579.1 L 642.8 576.6 L 615.4 594.5 L 633.0 590.3 L 646.4 589.6 L 639.9 593.9 L 620.0 600.8 L 620.2 603.9 Z" stroke="#412bee" stroke-width="0.8" fill="none" opacity="0.31"/>
<path d="M 663.6 601.6 L 631.4 603.3 L 635.2 605.6 L 644.5 613.0 L 661.7 623.9 L 641.1 621.1 L 650.6 630.9 L 633.5 627.4 L 620.1 620.2 L 618.1 620.4 L 629.8 639.3 L 627.4 640.2 L 614.1 629.3 L 615.1 632.7 L 608.8 629.8 L 606.8 627.7 L 606.1 640.1 L 602.3 634.0 L 599.4 630.8 L 595.6 643.7 L 592.6 637.1 L 588.8 639.3 L 584.0 639.7 L 571.6 663.0 L 575.8 643.2 L 578.1 629.3 L 580.6 622.6 L 562.0 640.1 L 559.0 633.3 L 561.5 628.6 L 556.6 624.0 L 566.7 614.7 L 544.8 619.5 L 536.3 619.6 L 549.8 611.0 L 556.2 607.5 L 577.9 601.1 L 553.5 595.6 L 564.0 594.1 L 549.3 588.5 L 560.8 589.3 L 537.3 572.4 L 545.7 570.5 L 569.1 582.6 L 574.4 581.7 L 552.7 556.8 L 571.8 568.1 L 589.0 588.1 L 578.0 566.4 L 582.1 566.1 L 588.6 574.0 L 585.7 554.3 L 590.0 546.7 L 597.3 578.6 L 599.0 543.5 L 600.6 584.1 L 607.5 553.4 L 611.6 557.8 L 612.7 563.7 L 621.2 554.7 L 620.4 566.2 L 634.4 549.0 L 629.7 563.9 L 619.4 583.0 L 621.1 584.8 L 617.1 591.0 L 628.0 587.0 L 647.4 577.4 L 640.6 585.6 L 651.7 586.7 L 640.0 592.1 L 660.6 596.2 L 644.5 601.0 Z" stroke="#412bee" stroke-width="0.8" fill="none" opacity="0.27"/>
<path d="M 659.9 599.9 L 664.6 604.3 L 662.9 614.1 L 651.8 614.0 L 654.6 623.3 L 655.3 628.5 L 647.8 629.8 L 646.5 631.6 L 639.3 630.9 L 625.4 623.4 L 649.0 657.5 L 628.1 639.8 L 623.1 642.4 L 620.2 644.1 L 616.7 645.2 L 617.3 667.4 L 608.4 651.1 L 603.4 647.0 L 599.8 660.0 L 592.4 666.3 L 590.0 656.3 L 580.6 672.6 L 579.8 656.5 L 572.8 656.2 L 577.6 640.3 L 558.6 661.1 L 571.6 633.8 L 558.4 643.6 L 537.5 649.7 L 555.1 629.7 L 558.5 624.5 L 546.5 627.2 L 549.4 616.5 L 538.9 618.8 L 535.9 610.2 L 549.6 605.4 L 546.4 598.6 L 535.0 592.3 L 548.8 589.2 L 560.9 592.0 L 531.2 578.2 L 533.4 569.9 L 551.1 573.7 L 545.4 564.9 L 550.8 560.7 L 549.7 550.1 L 560.1 555.5 L 570.3 559.9 L 573.7 555.9 L 577.6 554.0 L 583.8 558.2 L 583.2 538.1 L 586.3 528.6 L 596.7 562.3 L 599.6 557.8 L 603.1 562.9 L 609.5 541.7 L 611.9 551.5 L 620.7 545.4 L 614.8 563.1 L 633.3 539.0 L 636.8 546.2 L 630.4 564.7 L 629.0 569.7 L 645.7 562.3 L 646.8 567.2 L 636.2 576.4 L 634.0 581.3 L 654.4 579.3 L 640.8 587.0 L 665.2 590.4 L 652.1 597.0 L 662.7 602.7 Z" stroke="#8e1fad" stroke-width="1.5" fill="none" opacity="0.50"/>
<path d="M 686.2 598.7 L 673.5 604.0 L 685.5 612.6 L 673.1 619.4 L 676.8 628.5 L 660.6 625.3 L 662.7 635.4 L 669.1 652.1 L 644.5 639.4 L 640.7 639.9 L 655.9 667.8 L 638.5 659.3 L 638.3 664.9 L 634.3 671.0 L 619.6 660.5 L 616.1 668.1 L 609.7 662.2 L 602.3 653.2 L 599.3 679.5 L 592.0 685.3 L 582.6 686.1 L 581.6 666.4 L 580.3 643.2 L 568.4 663.7 L 577.4 636.4 L 563.9 649.4 L 568.2 639.4 L 534.3 662.5 L 526.1 656.7 L 544.7 640.3 L 527.4 644.4 L 540.8 624.0 L 532.3 625.9 L 519.9 619.6 L 541.3 607.8 L 556.5 601.8 L 541.1 601.4 L 537.5 594.2 L 531.9 585.9 L 538.1 581.0 L 527.5 572.4 L 525.7 566.5 L 547.6 570.8 L 552.8 564.9 L 556.0 565.2 L 553.2 555.0 L 563.6 556.8 L 553.3 535.2 L 560.1 530.3 L 569.7 535.9 L 571.9 522.0 L 577.1 517.5 L 586.6 527.0 L 595.7 559.7 L 597.7 538.9 L 606.8 518.2 L 606.7 552.2 L 616.7 536.5 L 621.6 536.6 L 626.9 540.1 L 638.4 529.6 L 637.6 544.4 L 638.5 555.2 L 659.6 536.2 L 655.4 554.0 L 658.8 555.8 L 646.6 573.1 L 660.7 567.6 L 669.7 575.6 L 668.1 580.2 L 677.6 586.2 L 682.7 588.7 L 652.4 601.3 Z" stroke="#412bee" stroke-width="0.8" fill="none" opacity="0.32"/>
<path d="M 687.2 600.7 L 685.2 603.9 L 682.1 614.4 L 682.8 621.1 L 660.9 622.1 L 658.2 625.8 L 658.3 633.3 L 652.8 636.0 L 670.9 662.3 L 649.5 653.0 L 641.1 647.0 L 645.9 661.6 L 626.6 649.4 L 628.2 666.7 L 623.4 672.3 L 619.1 671.8 L 610.7 672.6 L 605.6 678.4 L 597.9 705.8 L 589.5 675.2 L 578.8 698.1 L 577.3 677.8 L 567.8 688.7 L 568.6 665.2 L 554.6 675.4 L 552.3 667.4 L 552.9 647.7 L 547.3 653.2 L 528.6 656.2 L 546.8 637.0 L 545.6 632.8 L 518.7 634.2 L 524.4 626.4 L 513.6 620.3 L 530.1 612.4 L 497.9 608.2 L 539.3 595.3 L 532.9 592.8 L 543.0 589.5 L 523.3 581.4 L 516.0 570.9 L 505.1 556.9 L 522.9 553.1 L 530.4 554.3 L 531.1 544.3 L 538.1 538.3 L 558.4 550.4 L 547.1 526.5 L 557.4 535.4 L 555.5 507.3 L 567.1 512.2 L 578.2 514.9 L 585.5 535.4 L 591.2 533.4 L 596.0 507.2 L 602.2 534.4 L 613.6 515.2 L 620.9 514.0 L 627.8 520.5 L 630.0 534.5 L 647.1 512.2 L 637.1 546.9 L 644.1 543.4 L 651.8 549.4 L 661.8 545.1 L 671.0 545.3 L 655.7 563.1 L 675.6 562.2 L 656.0 575.8 L 699.5 571.3 L 699.0 582.8 L 692.8 591.6 L 690.9 598.4 Z" stroke="#412bee" stroke-width="0.8" fill="none" opacity="0.29"/>
<path d="M 695.6 593.8 L 710.1 605.5 L 680.5 608.5 L 706.1 623.5 L 665.7 620.0 L 661.4 626.9 L 668.3 639.5 L 672.2 650.0 L 656.6 648.4 L 669.9 671.0 L 661.2 677.9 L 647.0 664.3 L 636.7 659.3 L 632.6 674.5 L 634.8 697.1 L 625.2 690.8 L 613.2 701.2 L 604.3 695.3 L 599.5 705.8 L 584.7 715.6 L 583.9 674.1 L 566.0 703.4 L 564.3 679.2 L 557.0 682.8 L 545.6 687.3 L 539.9 682.1 L 541.1 665.8 L 522.9 671.2 L 510.0 670.7 L 511.9 659.8 L 516.6 644.8 L 514.2 633.6 L 515.4 631.1 L 501.7 623.4 L 516.2 611.4 L 482.4 605.5 L 513.8 595.8 L 508.9 587.0 L 479.8 579.4 L 492.3 568.2 L 518.3 564.9 L 531.0 565.3 L 520.6 549.3 L 515.4 536.0 L 527.9 537.8 L 536.1 537.5 L 542.4 531.9 L 551.4 529.7 L 550.1 513.5 L 548.7 502.3 L 562.6 505.4 L 567.9 485.8 L 580.7 496.4 L 588.0 478.7 L 599.4 504.9 L 607.5 500.3 L 612.5 522.2 L 627.6 491.7 L 637.8 490.5 L 637.3 511.0 L 647.5 513.1 L 649.1 529.3 L 647.2 537.5 L 675.3 518.0 L 657.7 545.1 L 675.2 540.6 L 665.2 557.7 L 695.8 549.9 L 672.5 566.1 L 698.1 567.7 L 679.3 581.4 L 703.5 584.7 L 680.2 597.9 Z" stroke="#412bee" stroke-width="0.8" fill="none" opacity="0.32"/>
<path d="M 715.4 597.6 L 699.7 608.4 L 718.5 615.5 L 687.2 624.4 L 705.9 639.2 L 696.2 645.5 L 668.0 641.1 L 690.1 664.2 L 664.3 652.1 L 665.3 667.6 L 663.4 680.1 L 653.4 681.0 L 633.4 664.1 L 643.6 698.3 L 635.2 697.3 L 624.2 688.5 L 617.4 707.1 L 605.5 679.8 L 598.5 714.7 L 584.9 708.6 L 580.9 690.3 L 563.4 717.2 L 553.7 708.8 L 558.9 665.0 L 536.7 699.9 L 545.1 670.7 L 544.2 654.9 L 507.0 683.3 L 518.1 662.9 L 507.9 660.1 L 519.2 641.7 L 510.6 636.5 L 515.4 624.8 L 489.3 624.5 L 502.4 610.9 L 507.0 601.2 L 479.6 592.8 L 509.0 586.7 L 488.3 578.2 L 504.9 569.0 L 499.3 561.6 L 492.4 545.6 L 496.4 535.1 L 493.2 525.5 L 521.9 532.9 L 527.6 523.6 L 521.8 506.6 L 535.9 512.6 L 556.1 519.7 L 545.8 484.6 L 565.7 508.6 L 569.9 485.9 L 580.0 497.6 L 587.1 494.4 L 593.2 497.9 L 605.1 466.3 L 614.1 493.5 L 625.0 481.6 L 633.6 481.0 L 638.8 508.7 L 644.5 511.3 L 651.1 516.7 L 650.8 525.4 L 684.8 503.0 L 679.7 527.6 L 691.4 526.6 L 686.7 547.1 L 695.3 546.8 L 687.9 559.9 L 702.8 565.8 L 676.8 583.2 L 711.4 584.6 L 697.8 593.2 Z" stroke="#412bee" stroke-width="0.8" fill="none" opacity="0.33"/>
<path d="M 713.4 592.4 L 723.2 604.5 L 706.1 612.2 L 710.8 623.5 L 700.7 636.3 L 683.8 640.9 L 679.1 643.8 L 670.6 646.3 L 685.5 668.4 L 682.2 679.5 L 669.4 683.5 L 655.3 683.9 L 652.7 700.3 L 651.8 708.1 L 628.6 690.9 L 619.5 696.7 L 615.1 704.3 L 605.2 717.7 L 595.9 694.7 L 581.7 700.7 L 569.7 702.3 L 555.8 729.0 L 554.9 703.0 L 542.8 712.2 L 539.8 680.9 L 516.6 700.3 L 513.6 688.4 L 490.2 694.1 L 494.7 677.8 L 488.1 663.1 L 516.0 642.1 L 494.2 644.8 L 487.6 631.0 L 488.6 625.0 L 496.5 613.9 L 464.6 608.6 L 478.0 595.2 L 461.3 583.3 L 461.6 569.5 L 473.4 558.5 L 463.4 551.1 L 470.0 538.7 L 481.5 527.9 L 494.9 521.7 L 507.9 525.6 L 505.0 501.9 L 512.2 500.2 L 534.6 514.6 L 529.4 485.3 L 552.3 503.1 L 554.5 494.2 L 558.8 469.5 L 567.9 476.6 L 586.1 462.2 L 597.8 484.7 L 605.4 501.2 L 608.7 501.1 L 627.3 478.2 L 637.9 480.3 L 633.5 506.8 L 643.3 507.6 L 656.2 503.0 L 667.5 508.3 L 678.4 509.0 L 686.7 520.9 L 677.3 537.2 L 698.2 533.4 L 714.2 537.2 L 714.4 547.7 L 688.4 566.6 L 714.7 570.9 L 725.0 583.7 L 727.3 592.0 Z" stroke="#8e1fad" stroke-width="1.5" fill="none" opacity="0.50"/>
<path d="M 704.1 592.3 L 714.8 604.8 L 729.2 617.3 L 706.7 622.6 L 712.9 635.4 L 721.2 649.5 L 690.2 651.4 L 680.8 653.5 L 679.1 665.5 L 674.3 678.9 L 661.3 680.3 L 658.3 684.5 L 640.4 688.1 L 641.6 694.8 L 640.6 725.2 L 614.8 696.2 L 611.5 715.8 L 604.7 727.3 L 588.5 731.2 L 582.1 718.7 L 570.1 727.0 L 557.4 710.8 L 540.7 723.0 L 534.9 717.8 L 536.9 692.8 L 522.2 695.5 L 508.4 693.2 L 488.2 693.7 L 503.9 663.0 L 492.6 661.0 L 486.9 651.1 L 477.2 648.7 L 461.6 640.8 L 455.2 628.0 L 460.7 614.7 L 462.3 605.5 L 467.4 596.0 L 478.2 582.5 L 465.8 570.6 L 448.5 551.9 L 455.6 545.4 L 474.6 539.9 L 492.3 537.5 L 480.2 517.5 L 508.5 526.7 L 515.5 519.1 L 521.9 505.8 L 514.8 488.7 L 519.7 465.6 L 533.1 472.0 L 548.1 475.4 L 553.8 450.6 L 570.5 463.8 L 583.7 474.4 L 586.7 487.0 L 605.1 471.6 L 612.1 491.5 L 622.4 476.9 L 627.9 482.3 L 641.8 490.9 L 663.0 465.2 L 660.0 493.5 L 684.7 485.8 L 686.9 497.2 L 682.6 518.1 L 693.0 520.7 L 695.4 531.4 L 719.5 534.5 L 709.1 551.0 L 736.0 557.7 L 708.8 572.4 L 721.9 583.5 L 727.7 592.1 Z" stroke="#412bee" stroke-width="0.8" fill="none" opacity="0.21"/>
<path d="M 751.3 593.5 L 742.8 604.2 L 708.2 613.0 L 694.1 619.6 L 741.0 646.9 L 729.5 654.6 L 704.3 660.0 L 684.6 663.6 L 690.7 678.1 L 685.4 689.9 L 663.6 684.6 L 661.9 692.2 L 657.8 711.1 L 653.3 719.7 L 643.9 732.9 L 631.1 736.5 L 610.6 729.7 L 605.0 751.6 L 585.6 721.9 L 575.9 757.2 L 567.6 715.1 L 550.8 720.7 L 552.1 703.6 L 534.1 718.1 L 517.4 711.2 L 511.1 702.9 L 495.7 702.1 L 506.0 675.1 L 478.3 683.4 L 459.7 683.4 L 478.1 658.0 L 470.2 647.0 L 478.4 632.2 L 452.4 630.7 L 431.3 620.0 L 441.4 605.2 L 457.5 590.4 L 476.7 583.4 L 445.1 567.7 L 459.8 556.5 L 465.3 546.8 L 449.7 527.9 L 452.9 513.3 L 471.5 509.6 L 488.0 507.3 L 490.4 496.3 L 485.4 471.3 L 505.6 477.2 L 515.6 458.9 L 525.8 463.3 L 544.3 478.8 L 558.7 468.1 L 567.4 445.1 L 571.8 440.4 L 589.5 440.7 L 599.9 443.6 L 615.1 446.7 L 621.4 470.5 L 627.2 477.7 L 649.8 472.4 L 656.5 476.7 L 670.3 474.2 L 690.1 474.9 L 685.1 491.1 L 685.2 513.2 L 684.2 521.8 L 707.4 524.5 L 693.2 542.5 L 701.2 553.7 L 717.2 557.0 L 733.6 565.2 L 739.9 580.3 L 727.1 590.8 Z" stroke="#412bee" stroke-width="0.8" fill="none" opacity="0.26"/>
<path d="M 741.4 590.3 L 722.7 602.2 L 726.3 617.4 L 715.8 628.0 L 734.3 646.7 L 722.2 655.5 L 701.9 657.8 L 706.0 675.4 L 689.7 682.6 L 693.2 698.1 L 670.2 693.8 L 670.2 710.7 L 668.2 733.2 L 653.6 738.5 L 627.2 708.6 L 625.4 735.1 L 606.3 713.5 L 597.9 724.9 L 583.3 752.6 L 572.1 720.1 L 555.1 750.8 L 543.9 745.4 L 546.9 708.3 L 527.6 724.5 L 516.5 708.7 L 498.3 720.6 L 492.4 702.5 L 481.2 698.1 L 473.9 689.1 L 462.1 677.4 L 450.3 671.6 L 449.7 653.1 L 444.9 643.5 L 456.2 627.1 L 444.7 615.6 L 452.6 603.6 L 437.8 590.0 L 452.7 578.3 L 441.0 565.6 L 446.7 553.0 L 424.7 532.7 L 463.4 531.1 L 465.9 520.3 L 455.9 496.0 L 467.0 495.5 L 474.0 478.5 L 491.1 474.8 L 501.3 465.5 L 504.9 454.9 L 526.8 462.2 L 531.3 450.9 L 544.7 430.8 L 559.3 432.7 L 573.8 428.3 L 584.2 440.4 L 601.1 452.9 L 613.2 431.9 L 618.4 458.1 L 639.3 454.0 L 644.3 464.2 L 657.4 473.5 L 664.9 479.9 L 686.7 477.5 L 699.1 475.3 L 719.5 482.8 L 690.8 517.4 L 699.3 528.3 L 738.5 518.5 L 719.2 542.1 L 753.5 547.4 L 707.3 570.5 L 760.9 576.2 L 753.5 591.4 Z" stroke="#412bee" stroke-width="0.8" fill="none" opacity="0.24"/>
<path d="M 732.2 591.4 L 729.5 603.7 L 750.4 621.0 L 750.1 633.3 L 752.8 651.0 L 737.3 662.4 L 719.5 668.9 L 711.3 679.0 L 719.3 703.5 L 692.5 700.1 L 683.8 711.6 L 672.8 716.8 L 663.1 729.1 L 652.2 732.1 L 636.2 728.5 L 619.1 728.7 L 611.8 732.2 L 595.8 732.9 L 585.0 772.5 L 572.7 735.3 L 555.1 757.0 L 541.6 756.1 L 529.5 736.3 L 514.3 739.7 L 506.7 727.7 L 483.5 736.0 L 488.3 705.0 L 478.8 696.5 L 444.3 710.5 L 463.7 674.3 L 434.6 676.7 L 434.6 662.5 L 436.9 644.4 L 439.6 631.1 L 411.2 620.6 L 431.2 603.3 L 442.8 591.9 L 416.0 574.9 L 429.3 561.9 L 420.8 548.5 L 422.7 532.7 L 426.5 517.2 L 436.9 506.3 L 455.4 500.0 L 458.9 487.7 L 464.7 470.3 L 472.6 452.2 L 494.7 463.7 L 501.0 448.3 L 527.1 459.3 L 528.6 426.9 L 535.6 416.6 L 553.1 414.1 L 573.8 430.7 L 583.8 429.0 L 598.9 415.9 L 613.1 430.6 L 622.3 444.0 L 638.1 446.1 L 661.3 431.6 L 673.3 440.8 L 678.9 454.8 L 696.2 455.9 L 695.0 478.1 L 699.5 491.3 L 716.5 499.5 L 708.0 518.5 L 733.5 519.6 L 735.1 535.5 L 747.6 546.3 L 734.5 564.6 L 746.7 575.2 L 759.5 589.6 Z" stroke="#412bee" stroke-width="0.8" fill="none" opacity="0.30"/>
<path d="M 765.3 590.7 L 757.0 605.7 L 771.5 623.3 L 735.9 630.8 L 728.7 641.7 L 751.8 668.4 L 710.9 664.4 L 701.3 673.3 L 712.5 699.0 L 695.6 703.5 L 687.8 715.9 L 675.1 722.2 L 660.8 726.9 L 649.5 732.9 L 637.1 741.7 L 624.0 746.0 L 608.6 743.5 L 595.0 745.5 L 582.4 750.7 L 566.0 768.3 L 549.7 771.2 L 540.7 747.7 L 523.1 754.2 L 509.2 744.2 L 493.2 742.8 L 480.1 737.7 L 463.8 731.6 L 459.1 714.4 L 444.1 705.5 L 447.9 682.9 L 415.6 685.5 L 411.8 668.3 L 409.4 652.7 L 406.1 636.9 L 438.1 614.6 L 415.9 604.1 L 405.7 589.3 L 405.8 574.7 L 404.8 559.4 L 405.9 542.4 L 403.4 523.5 L 425.1 514.9 L 436.0 506.3 L 434.7 486.4 L 454.5 480.8 L 458.3 465.0 L 467.5 452.8 L 476.5 440.8 L 499.9 441.5 L 501.4 417.1 L 522.3 428.0 L 536.5 410.5 L 550.0 413.3 L 568.0 435.9 L 581.3 427.9 L 599.2 419.6 L 607.5 442.6 L 629.4 420.1 L 636.2 449.7 L 655.8 430.4 L 680.7 420.1 L 683.2 447.6 L 701.3 447.9 L 719.1 452.1 L 716.0 479.1 L 734.0 482.9 L 735.6 502.5 L 756.8 508.6 L 758.2 527.0 L 760.6 541.9 L 736.0 563.1 L 730.4 577.0 L 744.2 589.7 Z" stroke="#8e1fad" stroke-width="1.5" fill="none" opacity="0.50"/>
<path d="M 756.4 590.0 L 770.3 605.6 L 757.5 620.1 L 746.1 634.5 L 752.4 652.7 L 756.5 670.5 L 731.6 675.1 L 721.8 687.4 L 741.1 722.0 L 701.4 707.8 L 686.4 715.4 L 684.8 736.5 L 670.4 744.8 L 658.1 754.3 L 641.4 754.7 L 627.0 761.2 L 612.8 769.2 L 597.5 774.8 L 581.0 767.0 L 565.4 771.8 L 548.8 780.5 L 530.8 777.4 L 514.0 775.8 L 508.6 744.6 L 484.8 755.5 L 484.0 727.8 L 459.3 734.6 L 464.6 708.1 L 449.7 700.1 L 432.6 693.1 L 426.3 678.3 L 431.1 660.0 L 406.1 652.7 L 409.9 635.3 L 391.9 622.4 L 424.7 603.3 L 388.9 589.4 L 405.6 574.5 L 384.9 554.0 L 399.0 540.9 L 408.4 527.0 L 402.6 505.9 L 413.6 492.9 L 432.4 484.2 L 438.2 470.1 L 460.5 468.5 L 455.0 437.4 L 484.7 449.1 L 489.9 431.9 L 504.1 423.4 L 513.3 400.0 L 534.0 412.7 L 547.1 396.8 L 564.6 402.7 L 581.5 423.1 L 598.5 399.0 L 609.8 427.8 L 623.7 430.5 L 646.9 409.4 L 670.1 400.2 L 666.6 441.2 L 694.0 427.5 L 700.4 446.6 L 702.4 467.9 L 737.0 458.4 L 717.8 494.0 L 752.6 491.4 L 734.3 517.9 L 740.5 531.6 L 771.9 539.1 L 778.9 554.3 L 767.8 573.6 L 768.7 589.6 Z" stroke="#412bee" stroke-width="0.8" fill="none" opacity="0.24"/>
<path d="M 771.7 588.6 L 782.8 607.1 L 786.3 625.5 L 776.1 642.1 L 753.4 651.4 L 752.6 668.8 L 749.6 686.4 L 734.3 696.2 L 727.1 711.7 L 725.1 733.5 L 697.0 728.0 L 692.4 747.3 L 673.2 746.6 L 660.4 759.8 L 655.4 792.5 L 626.7 758.0 L 618.2 795.3 L 598.8 774.3 L 581.1 793.0 L 563.2 794.3 L 549.1 776.3 L 532.5 768.4 L 505.6 796.5 L 499.5 763.6 L 476.3 769.0 L 471.0 746.0 L 449.9 747.2 L 442.7 726.9 L 412.6 731.3 L 407.5 710.7 L 407.5 688.5 L 398.9 674.4 L 413.2 651.2 L 380.1 642.6 L 382.1 625.0 L 399.2 606.1 L 400.4 588.7 L 388.3 573.5 L 381.6 555.9 L 399.9 541.3 L 395.2 521.0 L 419.2 514.7 L 411.0 490.4 L 411.1 470.1 L 449.6 479.0 L 438.8 446.9 L 446.6 428.8 L 470.9 432.2 L 483.9 421.3 L 493.5 402.1 L 512.9 402.3 L 533.5 415.2 L 546.7 393.5 L 561.8 375.5 L 581.8 390.2 L 596.4 412.9 L 612.8 408.5 L 634.6 389.7 L 645.3 410.8 L 662.1 415.7 L 688.3 403.7 L 681.0 447.2 L 700.1 448.6 L 715.8 456.3 L 726.7 466.9 L 750.6 470.3 L 743.5 496.3 L 764.3 503.0 L 755.0 526.0 L 754.5 544.3 L 789.8 552.9 L 772.5 574.5 L 783.6 589.3 Z" stroke="#412bee" stroke-width="0.8" fill="none" opacity="0.30"/>
<path d="M 794.9 591.9 L 807.9 609.6 L 782.4 624.5 L 756.7 635.5 L 770.8 656.9 L 750.9 669.4 L 758.7 691.3 L 754.4 713.6 L 745.0 726.5 L 733.7 742.3 L 712.5 747.9 L 693.6 750.4 L 698.3 792.6 L 669.7 780.6 L 658.2 794.6 L 631.7 781.1 L 622.3 805.7 L 600.6 809.1 L 582.4 818.7 L 561.7 798.2 L 546.3 790.3 L 528.5 782.9 L 516.9 770.8 L 498.6 764.0 L 472.3 776.7 L 454.8 768.6 L 451.3 743.6 L 424.9 743.8 L 411.1 734.6 L 408.2 708.7 L 408.7 689.5 L 402.6 671.7 L 412.1 649.9 L 383.3 641.5 L 385.4 623.3 L 398.6 605.8 L 366.6 591.3 L 391.4 575.7 L 381.8 556.6 L 391.8 539.7 L 396.3 521.6 L 407.0 507.3 L 391.2 480.0 L 405.2 466.9 L 423.0 454.4 L 426.0 430.8 L 445.2 430.1 L 452.1 402.2 L 473.9 402.8 L 494.7 403.4 L 518.1 413.8 L 520.7 364.9 L 546.2 396.7 L 564.9 379.4 L 582.0 377.9 L 603.3 376.3 L 612.9 406.3 L 633.7 390.4 L 652.7 401.1 L 663.4 413.8 L 685.7 409.3 L 700.6 419.7 L 706.6 441.1 L 716.2 456.1 L 758.7 445.4 L 749.7 472.9 L 762.0 484.3 L 766.1 501.8 L 751.7 526.7 L 759.1 543.5 L 781.7 556.0 L 786.7 571.1 L 809.6 591.0 Z" stroke="#412bee" stroke-width="0.8" fill="none" opacity="0.26"/>
<path d="M 816.8 588.5 L 801.2 609.0 L 794.9 627.1 L 776.4 640.5 L 779.9 664.1 L 773.6 679.6 L 775.8 698.9 L 769.6 722.7 L 738.1 718.9 L 730.3 738.0 L 714.5 751.4 L 705.2 766.2 L 692.4 781.7 L 682.7 807.1 L 660.9 794.5 L 643.3 805.5 L 616.6 796.3 L 601.0 833.3 L 579.8 829.7 L 562.6 806.1 L 544.8 790.7 L 525.4 794.0 L 507.3 793.2 L 496.4 780.4 L 482.8 768.0 L 457.3 769.7 L 437.4 763.3 L 430.2 743.1 L 422.3 730.2 L 415.1 708.9 L 388.7 698.8 L 391.9 676.2 L 398.1 659.8 L 380.8 641.5 L 371.9 625.8 L 384.8 608.0 L 349.1 588.1 L 386.5 575.5 L 378.0 553.7 L 375.4 534.1 L 384.5 519.5 L 371.2 488.2 L 392.3 476.4 L 408.5 466.9 L 419.9 453.8 L 417.1 427.6 L 439.3 420.0 L 462.1 416.3 L 467.1 382.1 L 488.4 391.4 L 503.7 363.7 L 526.5 382.9 L 546.4 389.4 L 560.9 355.8 L 583.3 375.9 L 605.1 383.9 L 625.4 370.3 L 637.9 395.1 L 654.4 386.5 L 670.6 394.9 L 686.5 416.6 L 719.1 392.3 L 729.8 416.2 L 732.1 444.1 L 765.7 440.4 L 762.9 464.1 L 784.3 472.7 L 764.6 505.8 L 801.4 509.3 L 767.3 541.8 L 820.0 552.5 L 789.2 575.3 L 806.4 589.9 Z" stroke="#412bee" stroke-width="0.8" fill="none" opacity="0.34"/>
<path d="M 796.2 589.7 L 820.1 611.3 L 811.4 632.6 L 816.9 649.7 L 794.8 668.7 L 797.5 691.2 L 783.3 707.3 L 784.5 725.1 L 761.4 736.0 L 732.5 741.4 L 720.1 759.6 L 698.8 757.6 L 700.2 785.2 L 691.9 822.9 L 659.6 793.5 L 646.1 829.9 L 628.0 834.5 L 601.2 828.4 L 584.9 818.7 L 563.7 801.2 L 538.9 826.0 L 530.9 807.9 L 499.7 828.8 L 488.7 802.6 L 463.1 798.0 L 449.2 783.8 L 443.7 760.0 L 409.2 760.9 L 398.2 745.0 L 391.7 721.6 L 386.5 708.4 L 373.0 690.2 L 355.6 672.6 L 365.9 647.9 L 345.4 635.0 L 342.0 613.8 L 353.4 590.0 L 351.8 571.7 L 336.2 547.6 L 360.0 534.3 L 379.0 519.3 L 381.9 498.8 L 393.1 486.8 L 407.2 470.1 L 423.1 455.0 L 437.6 442.2 L 426.4 398.2 L 457.3 409.4 L 470.0 390.2 L 491.0 384.0 L 504.3 361.6 L 516.4 344.9 L 542.8 370.8 L 568.0 365.2 L 583.0 365.3 L 609.4 342.1 L 618.0 389.3 L 650.3 361.2 L 668.4 369.2 L 682.5 389.9 L 690.4 415.5 L 710.2 403.7 L 730.5 413.6 L 739.3 433.7 L 758.7 440.7 L 785.2 452.0 L 777.5 480.4 L 787.8 493.2 L 804.9 511.4 L 809.3 529.4 L 831.4 549.8 L 791.5 574.2 L 795.7 588.8 Z" stroke="#8e1fad" stroke-width="1.5" fill="none" opacity="0.50"/>
<path d="M 846.5 591.3 L 824.1 608.7 L 821.0 633.1 L 827.0 651.6 L 791.3 666.6 L 812.7 691.4 L 793.1 711.8 L 802.2 741.2 L 768.7 736.4 L 752.1 763.0 L 733.4 770.3 L 725.9 788.5 L 706.7 808.6 L 683.8 807.4 L 668.8 825.5 L 654.0 834.6 L 624.6 828.4 L 604.9 830.5 L 582.4 850.0 L 567.6 841.0 L 543.9 835.2 L 512.1 853.3 L 504.9 813.3 L 495.1 799.8 L 475.7 791.6 L 442.9 806.9 L 433.3 782.3 L 400.3 772.5 L 399.6 748.9 L 395.4 730.0 L 364.2 716.0 L 374.0 694.9 L 340.3 684.3 L 343.5 654.2 L 344.4 632.0 L 345.3 611.8 L 337.7 590.0 L 345.0 575.5 L 353.2 550.2 L 358.8 532.2 L 358.7 510.5 L 358.7 483.3 L 364.1 462.8 L 409.7 470.9 L 394.2 426.0 L 411.8 408.5 L 449.5 425.8 L 450.8 393.3 L 455.2 376.3 L 482.7 370.4 L 506.8 363.2 L 527.8 367.4 L 542.9 366.0 L 560.2 348.6 L 583.9 375.6 L 612.8 363.5 L 623.7 376.5 L 648.3 383.6 L 671.6 376.9 L 693.6 362.0 L 695.9 399.4 L 717.6 409.6 L 743.8 400.3 L 738.5 434.2 L 762.8 446.6 L 790.5 456.9 L 805.5 464.0 L 836.3 476.9 L 825.4 507.5 L 833.6 524.9 L 848.9 546.7 L 848.6 567.9 L 802.9 591.0 Z" stroke="#412bee" stroke-width="0.8" fill="none" opacity="0.33"/>
<path d="M 857.5 596.7 L 858.4 618.6 L 827.2 630.3 L 837.5 654.1 L 841.6 687.1 L 826.4 703.4 L 804.6 716.1 L 786.9 729.8 L 783.6 757.6 L 785.9 784.0 L 751.5 779.4 L 742.8 810.1 L 709.3 795.5 L 695.9 812.1 L 668.0 823.7 L 662.7 856.0 L 628.6 834.9 L 615.8 825.8 L 591.6 834.7 L 568.5 844.1 L 548.7 836.9 L 523.0 851.9 L 510.3 828.6 L 480.5 825.5 L 476.3 800.8 L 440.1 806.2 L 420.8 791.0 L 411.7 771.1 L 382.1 758.9 L 395.0 730.6 L 381.4 721.8 L 370.1 697.5 L 332.9 690.1 L 354.4 663.1 L 347.2 639.8 L 333.7 616.9 L 365.9 592.3 L 316.8 565.9 L 353.1 548.9 L 351.2 528.2 L 334.3 503.0 L 349.3 483.3 L 392.8 472.0 L 386.7 458.4 L 386.5 428.5 L 399.0 411.3 L 423.6 405.1 L 446.5 392.9 L 460.6 381.0 L 488.9 374.3 L 501.3 360.6 L 538.5 375.3 L 550.6 335.4 L 568.2 338.3 L 586.5 326.3 L 609.0 350.8 L 631.7 354.1 L 651.1 363.5 L 671.5 352.1 L 687.0 374.5 L 713.7 377.9 L 735.6 401.6 L 743.5 411.5 L 771.0 414.5 L 781.6 428.6 L 808.6 439.8 L 816.3 471.9 L 820.4 486.8 L 850.5 507.2 L 827.5 528.5 L 852.1 545.5 L 843.6 569.1 L 838.8 599.2 Z" stroke="#412bee" stroke-width="0.8" fill="none" opacity="0.24"/>
<path d="M 875.4 590.4 L 846.7 612.0 L 873.8 649.5 L 821.1 653.5 L 853.3 693.4 L 849.7 709.1 L 830.6 725.6 L 820.1 753.9 L 794.5 763.7 L 786.6 789.8 L 762.9 797.4 L 740.9 805.8 L 713.6 805.6 L 702.0 828.5 L 678.0 827.4 L 665.7 870.3 L 637.7 871.9 L 614.4 852.4 L 600.9 852.4 L 575.9 870.6 L 547.4 872.6 L 515.4 873.4 L 510.4 840.7 L 482.9 840.4 L 461.1 814.4 L 442.7 799.5 L 423.1 805.4 L 425.7 774.2 L 404.3 749.9 L 367.1 748.3 L 368.9 724.6 L 366.2 705.8 L 330.8 694.8 L 352.5 657.6 L 343.6 638.7 L 359.3 614.7 L 334.3 592.9 L 337.9 572.6 L 343.1 546.2 L 321.6 524.2 L 334.3 501.3 L 341.5 481.8 L 358.1 462.4 L 377.2 451.5 L 403.4 437.0 L 421.8 412.7 L 432.7 411.2 L 440.9 364.0 L 456.1 367.6 L 472.2 339.0 L 503.5 351.0 L 519.0 328.4 L 544.2 327.7 L 576.4 336.4 L 587.8 306.4 L 619.4 354.3 L 639.7 350.5 L 658.7 330.0 L 672.8 365.1 L 709.2 352.2 L 733.5 367.0 L 734.9 384.1 L 763.5 400.9 L 775.0 418.8 L 790.9 435.7 L 827.4 438.1 L 802.4 473.4 L 825.4 486.6 L 835.8 506.4 L 825.7 536.3 L 857.8 544.5 L 850.4 577.3 L 830.8 597.7 Z" stroke="#412bee" stroke-width="0.8" fill="none" opacity="0.28"/>
<path d="M 883.4 602.5 L 855.3 623.1 L 892.3 647.5 L 847.5 660.5 L 869.8 700.6 L 863.6 725.0 L 836.5 736.1 L 819.4 758.2 L 791.3 758.3 L 805.2 798.1 L 776.7 808.9 L 755.6 821.4 L 734.7 825.0 L 705.4 830.9 L 688.5 869.1 L 671.4 857.7 L 638.4 857.2 L 615.6 848.0 L 592.2 868.1 L 576.2 885.9 L 550.3 878.8 L 528.1 863.4 L 505.3 856.3 L 473.0 852.6 L 456.4 848.8 L 449.0 812.5 L 412.5 824.1 L 404.6 786.6 L 380.8 782.9 L 386.0 746.6 L 370.1 732.6 L 342.2 714.9 L 325.8 699.1 L 338.1 669.8 L 326.1 643.4 L 331.5 625.3 L 318.5 603.1 L 333.6 579.8 L 327.6 545.5 L 326.7 526.7 L 330.5 495.1 L 344.4 473.1 L 339.8 450.3 L 390.5 447.4 L 376.5 420.8 L 391.4 394.0 L 432.1 394.0 L 432.3 359.7 L 461.8 357.9 L 489.7 363.1 L 497.2 336.1 L 530.6 352.1 L 550.0 325.6 L 568.6 338.7 L 600.9 310.0 L 614.5 326.3 L 640.2 315.1 L 674.6 325.7 L 699.5 330.8 L 702.9 367.9 L 737.1 359.8 L 760.7 360.5 L 786.6 370.3 L 790.2 410.0 L 814.8 406.4 L 840.1 428.3 L 849.2 454.7 L 845.6 486.3 L 839.8 508.7 L 874.9 524.5 L 865.9 552.9 L 890.3 569.4 L 870.3 599.0 Z" stroke="#412bee" stroke-width="0.8" fill="none" opacity="0.26"/>
<path d="M 873.4 594.9 L 865.3 619.1 L 873.2 646.6 L 871.9 675.9 L 898.6 711.2 L 871.7 728.0 L 855.5 744.0 L 830.2 757.6 L 821.0 783.7 L 796.2 785.0 L 781.6 810.9 L 761.7 819.5 L 740.6 844.4 L 711.0 846.6 L 701.5 883.0 L 676.5 862.4 L 651.0 909.0 L 631.6 891.5 L 605.1 888.5 L 574.3 878.1 L 554.7 891.2 L 524.8 866.5 L 499.9 861.0 L 474.0 879.4 L 453.0 844.2 L 435.1 838.4 L 423.6 814.4 L 389.8 801.6 L 372.1 799.9 L 351.3 771.4 L 332.4 755.8 L 333.5 728.7 L 345.4 690.0 L 325.9 673.2 L 295.9 654.7 L 313.4 627.6 L 330.4 601.4 L 320.4 580.2 L 310.2 549.7 L 331.0 529.2 L 332.7 496.9 L 320.0 468.7 L 353.8 457.7 L 387.9 453.7 L 403.6 431.6 L 407.9 402.9 L 414.0 368.4 L 432.0 361.7 L 456.5 352.5 L 470.1 317.1 L 505.4 335.3 L 520.2 313.2 L 552.1 321.1 L 579.4 309.2 L 604.7 297.0 L 623.5 322.9 L 655.9 309.4 L 681.4 323.2 L 697.9 318.6 L 731.8 313.5 L 739.6 354.0 L 756.5 366.8 L 775.3 384.6 L 801.4 403.6 L 828.0 414.3 L 837.2 434.0 L 838.4 466.1 L 884.3 465.6 L 880.7 500.1 L 890.5 525.4 L 880.2 551.8 L 881.1 570.4 L 884.9 605.1 Z" stroke="#8e1fad" stroke-width="1.5" fill="none" opacity="0.50"/>
<path d="M 901.6 603.0 L 893.9 628.6 L 908.2 659.1 L 884.8 676.0 L 853.2 694.6 L 848.3 715.3 L 868.4 759.9 L 835.1 761.1 L 845.3 801.4 L 805.9 804.5 L 802.1 834.9 L 784.7 852.1 L 748.2 850.2 L 726.9 853.6 L 703.0 866.1 L 685.8 896.4 L 659.1 893.7 L 628.4 919.4 L 607.2 877.8 L 579.8 909.6 L 558.3 882.6 L 527.8 898.8 L 509.4 872.0 L 482.4 867.1 L 464.8 851.2 L 428.3 863.2 L 390.5 849.9 L 395.4 814.3 L 380.3 779.9 L 373.3 758.8 L 338.8 761.0 L 346.4 720.4 L 335.5 703.5 L 301.6 684.6 L 323.0 651.5 L 308.6 633.6 L 286.1 602.0 L 298.6 568.5 L 296.2 553.5 L 301.3 516.4 L 317.2 495.1 L 337.0 480.7 L 350.9 458.8 L 341.5 415.7 L 376.7 411.3 L 398.3 403.0 L 410.8 373.9 L 418.8 331.1 L 455.0 337.8 L 476.6 337.6 L 506.0 323.9 L 526.4 295.5 L 555.9 305.2 L 581.8 292.9 L 605.9 289.6 L 625.5 290.2 L 657.3 326.5 L 685.5 291.0 L 705.5 332.2 L 731.4 313.6 L 751.7 346.4 L 784.3 347.2 L 809.2 366.1 L 831.2 376.9 L 825.5 416.3 L 837.3 433.9 L 856.7 458.0 L 885.5 471.4 L 885.2 498.3 L 907.6 520.6 L 898.0 551.3 L 895.8 570.4 L 930.2 599.0 Z" stroke="#412bee" stroke-width="0.8" fill="none" opacity="0.20"/>
<path d="M 915.3 604.9 L 931.5 629.0 L 904.6 660.2 L 889.0 681.7 L 903.5 715.5 L 878.1 726.3 L 892.2 772.6 L 869.4 784.6 L 840.2 805.7 L 839.1 842.9 L 813.2 853.6 L 796.9 875.4 L 764.5 881.0 L 736.5 882.4 L 713.7 893.0 L 687.4 896.1 L 660.0 894.7 L 634.0 894.8 L 609.0 938.9 L 575.1 921.0 L 555.5 895.6 L 531.6 890.8 L 505.7 885.9 L 469.5 900.6 L 459.9 859.3 L 427.3 863.0 L 413.4 830.0 L 381.1 834.2 L 365.8 809.3 L 349.1 780.3 L 347.7 758.4 L 315.6 741.3 L 324.4 706.9 L 316.4 682.5 L 282.3 664.9 L 315.9 628.1 L 301.6 598.0 L 299.9 580.7 L 288.6 542.2 L 309.6 522.2 L 294.0 484.5 L 330.8 471.4 L 343.1 448.6 L 351.8 426.6 L 362.4 399.1 L 386.6 386.3 L 398.6 352.6 L 435.8 359.3 L 443.4 330.0 L 482.3 329.3 L 490.7 299.2 L 523.6 282.5 L 551.0 293.3 L 581.1 279.9 L 604.8 270.4 L 635.6 298.7 L 660.9 298.1 L 684.9 308.5 L 706.6 316.3 L 731.7 334.6 L 755.3 350.3 L 772.6 362.8 L 802.8 370.3 L 820.3 388.5 L 848.8 405.4 L 859.4 423.3 L 880.5 441.4 L 878.8 476.3 L 894.8 502.0 L 917.4 525.2 L 904.5 556.3 L 919.6 576.9 L 906.6 602.2 Z" stroke="#412bee" stroke-width="0.8" fill="none" opacity="0.28"/>
<path d="M 947.4 600.9 L 930.5 638.9 L 915.1 664.1 L 906.2 688.2 L 915.5 714.7 L 915.1 752.1 L 899.4 778.7 L 874.6 793.3 L 867.4 819.6 L 833.5 834.2 L 808.0 838.2 L 786.6 868.3 L 775.2 890.1 L 734.7 879.4 L 720.8 912.0 L 686.0 896.3 L 668.6 940.5 L 639.1 950.1 L 607.8 920.1 L 580.6 927.7 L 552.3 919.4 L 526.6 908.5 L 500.0 901.0 L 469.9 903.2 L 451.5 881.6 L 432.9 854.7 L 409.5 839.7 L 373.5 842.0 L 345.6 822.1 L 365.6 773.6 L 346.8 761.2 L 310.7 739.3 L 302.1 714.5 L 293.3 692.5 L 309.4 661.8 L 280.5 639.1 L 300.5 607.7 L 298.6 576.3 L 288.7 547.7 L 301.2 526.1 L 310.7 500.9 L 321.0 466.5 L 331.9 449.1 L 363.4 431.4 L 357.0 394.2 L 386.7 386.1 L 394.0 351.4 L 422.3 340.1 L 439.6 321.5 L 478.3 333.9 L 500.6 317.7 L 525.9 296.3 L 555.2 299.0 L 580.6 276.4 L 608.4 291.4 L 632.0 311.6 L 665.2 290.6 L 694.5 285.2 L 723.2 294.4 L 737.4 326.9 L 763.3 335.7 L 794.6 336.6 L 805.5 374.8 L 835.7 372.4 L 847.0 405.1 L 860.4 429.4 L 873.7 458.1 L 898.6 465.0 L 901.8 504.4 L 925.5 521.2 L 935.9 545.2 L 933.3 579.2 L 942.7 606.2 Z" stroke="#412bee" stroke-width="0.8" fill="none" opacity="0.25"/>
<path d="M 951.1 611.2 L 943.6 641.0 L 941.1 668.8 L 921.3 694.2 L 901.9 713.1 L 902.1 746.0 L 920.6 787.3 L 898.0 806.8 L 873.4 826.4 L 832.1 825.9 L 812.2 846.7 L 796.7 877.6 L 776.1 895.2 L 753.4 921.3 L 716.6 902.4 L 699.0 943.4 L 668.1 944.6 L 639.9 951.6 L 610.0 955.9 L 579.7 942.1 L 552.5 925.1 L 521.6 940.4 L 496.1 924.9 L 470.3 901.4 L 434.3 913.3 L 409.9 897.0 L 397.5 855.7 L 359.3 856.4 L 343.0 830.0 L 333.5 804.9 L 332.5 765.4 L 309.0 749.6 L 301.8 719.1 L 295.7 695.2 L 287.5 661.2 L 290.1 640.3 L 283.7 606.2 L 293.7 582.9 L 269.1 550.1 L 277.9 515.4 L 276.6 483.5 L 292.2 462.9 L 336.9 453.1 L 348.2 419.3 L 346.5 387.7 L 368.9 368.7 L 390.0 346.9 L 423.4 346.7 L 433.9 310.1 L 471.2 311.6 L 499.8 299.9 L 525.1 304.0 L 551.2 283.0 L 580.2 267.1 L 609.0 290.9 L 637.4 293.8 L 666.7 289.6 L 690.5 308.9 L 719.9 304.9 L 749.7 306.2 L 774.3 318.0 L 803.4 333.5 L 832.2 340.7 L 842.3 374.5 L 844.7 406.2 L 884.5 411.9 L 886.5 447.3 L 915.9 462.0 L 900.9 502.5 L 959.5 509.3 L 925.3 556.3 L 949.9 578.7 L 924.9 608.0 Z" stroke="#412bee" stroke-width="0.8" fill="none" opacity="0.34"/>
<path d="M 979.5 612.3 L 962.4 636.7 L 949.6 673.3 L 927.3 697.4 L 921.6 724.8 L 914.3 752.1 L 909.5 785.2 L 884.0 801.6 L 859.5 819.6 L 846.8 847.1 L 835.7 879.5 L 805.6 892.2 L 774.7 900.7 L 759.6 927.3 L 728.4 942.0 L 693.6 935.5 L 669.1 942.6 L 640.9 964.9 L 609.3 957.5 L 574.7 975.9 L 550.0 948.0 L 517.9 950.8 L 490.5 936.2 L 473.6 901.1 L 444.2 895.3 L 408.5 901.4 L 385.3 870.0 L 374.8 844.3 L 333.0 841.8 L 340.3 794.6 L 294.0 787.1 L 285.1 764.2 L 290.4 724.9 L 289.5 698.0 L 279.2 667.4 L 272.3 641.7 L 257.5 606.1 L 279.7 584.4 L 278.5 554.3 L 275.2 522.6 L 286.1 494.6 L 284.5 460.1 L 300.0 428.5 L 323.8 412.2 L 340.2 385.9 L 354.4 360.9 L 373.9 332.0 L 406.9 328.3 L 435.3 301.5 L 458.0 283.8 L 493.3 285.7 L 515.3 264.0 L 548.0 265.5 L 581.3 278.8 L 610.0 256.0 L 634.3 275.8 L 667.3 271.6 L 698.4 278.8 L 726.2 295.3 L 756.8 294.9 L 787.0 302.7 L 798.2 342.6 L 824.0 358.9 L 861.1 361.2 L 868.4 395.0 L 894.3 411.2 L 900.9 443.2 L 941.1 455.6 L 919.3 495.9 L 951.6 519.3 L 946.9 553.9 L 954.7 582.2 L 969.9 613.2 Z" stroke="#8e1fad" stroke-width="1.5" fill="none" opacity="0.50"/>
<path d="M 969.3 613.9 L 952.8 643.7 L 968.5 670.7 L 965.6 710.6 L 936.7 730.9 L 923.6 759.7 L 904.5 780.5 L 916.6 822.1 L 894.6 852.2 L 862.8 864.0 L 831.2 881.2 L 814.8 905.2 L 773.3 903.9 L 752.3 934.4 L 730.3 942.6 L 704.6 977.3 L 669.8 949.1 L 635.9 944.2 L 610.6 969.5 L 576.7 992.3 L 549.7 942.6 L 515.9 954.9 L 486.7 950.7 L 456.2 936.3 L 435.7 916.5 L 398.7 909.9 L 366.8 894.3 L 355.8 855.5 L 323.9 853.6 L 308.5 820.5 L 287.6 794.5 L 274.8 768.0 L 267.0 737.1 L 267.3 703.9 L 248.2 677.2 L 258.6 644.1 L 257.6 613.6 L 253.5 577.2 L 251.1 544.5 L 267.9 519.9 L 254.5 486.1 L 270.6 457.8 L 301.1 436.3 L 321.8 411.5 L 319.5 375.9 L 363.5 363.2 L 387.0 355.0 L 412.3 335.2 L 423.0 300.3 L 458.3 293.5 L 489.0 290.9 L 510.9 248.9 L 543.1 229.3 L 576.7 272.6 L 610.9 238.4 L 640.5 271.3 L 668.9 274.1 L 701.1 275.4 L 735.6 267.8 L 758.6 293.1 L 777.2 312.4 L 824.3 304.9 L 839.0 327.8 L 866.0 356.4 L 887.5 379.8 L 896.3 411.6 L 923.2 430.2 L 928.5 464.4 L 936.8 492.4 L 959.9 519.3 L 973.8 542.6 L 979.5 580.5 L 943.9 613.2 Z" stroke="#412bee" stroke-width="0.8" fill="none" opacity="0.33"/>
<path d="M 987.8 611.4 L 965.5 644.5 L 959.1 673.5 L 953.1 704.9 L 965.7 743.2 L 932.6 764.8 L 937.1 802.8 L 919.3 830.5 L 886.8 850.2 L 854.8 864.7 L 842.4 904.4 L 807.0 907.1 L 790.6 933.0 L 771.8 960.0 L 727.5 943.3 L 687.0 946.6 L 666.7 978.5 L 638.6 967.1 L 608.9 974.2 L 567.7 971.1 L 547.1 970.6 L 502.9 980.2 L 480.4 946.2 L 445.9 940.9 L 421.5 933.5 L 394.3 906.8 L 362.5 901.9 L 336.2 879.8 L 305.7 863.0 L 306.7 822.0 L 258.3 807.6 L 259.7 773.0 L 278.3 733.2 L 261.6 704.7 L 258.8 672.0 L 232.1 646.7 L 215.5 614.2 L 253.3 583.1 L 238.0 549.5 L 252.1 518.5 L 263.2 487.4 L 282.2 461.4 L 280.1 423.6 L 321.7 413.5 L 321.8 379.5 L 348.2 357.9 L 362.2 315.6 L 403.5 321.1 L 421.5 289.3 L 455.4 298.6 L 478.9 262.0 L 506.8 235.7 L 548.4 261.4 L 568.6 266.4 L 609.2 249.5 L 640.1 235.2 L 675.0 236.8 L 700.3 265.4 L 717.6 288.4 L 774.1 260.0 L 776.0 311.4 L 812.5 314.1 L 838.7 330.0 L 864.8 356.7 L 898.0 368.0 L 917.3 398.8 L 908.8 435.7 L 916.2 467.6 L 963.8 479.7 L 979.0 512.2 L 973.7 544.6 L 958.2 578.2 L 972.0 614.0 Z" stroke="#412bee" stroke-width="0.8" fill="none" opacity="0.23"/>
<path d="M 983.3 614.2 L 971.4 643.2 L 961.9 676.8 L 959.7 709.4 L 971.6 747.1 L 931.6 768.6 L 923.0 795.8 L 907.3 824.5 L 907.1 866.9 L 875.2 889.3 L 842.0 892.8 L 817.4 917.3 L 784.1 938.8 L 760.6 941.2 L 718.7 956.4 L 695.4 955.8 L 654.5 963.8 L 637.8 992.7 L 605.7 1003.0 L 568.3 973.7 L 534.4 983.3 L 496.3 994.3 L 466.0 982.5 L 441.0 957.9 L 414.9 947.1 L 384.1 918.1 L 370.9 886.8 L 337.0 877.8 L 300.4 870.6 L 295.9 829.7 L 269.3 805.9 L 250.2 775.1 L 239.7 743.4 L 244.5 710.1 L 218.6 679.3 L 237.2 646.6 L 237.5 613.8 L 198.4 578.8 L 233.4 550.8 L 237.8 513.5 L 241.8 482.5 L 239.1 444.4 L 285.4 430.4 L 279.3 387.9 L 323.8 383.2 L 336.4 353.8 L 353.4 325.4 L 375.7 297.4 L 411.7 277.4 L 428.2 257.2 L 458.2 238.6 L 494.4 235.3 L 537.1 238.9 L 571.6 222.6 L 605.3 221.8 L 634.9 235.3 L 660.6 245.2 L 691.8 249.3 L 737.6 247.1 L 768.2 264.0 L 773.8 301.9 L 815.0 308.6 L 845.1 326.1 L 855.6 358.2 L 868.4 384.2 L 908.7 398.3 L 915.6 430.7 L 966.0 443.4 L 961.8 484.0 L 976.7 514.3 L 963.3 551.4 L 1003.8 578.9 L 984.6 613.9 Z" stroke="#412bee" stroke-width="0.8" fill="none" opacity="0.34"/>
<path d="M 983.6 613.7 L 992.4 649.3 L 980.3 680.8 L 952.8 711.5 L 950.6 744.0 L 950.4 777.1 L 928.4 803.3 L 915.6 842.1 L 900.1 868.6 L 875.1 901.3 L 840.4 895.5 L 828.0 948.8 L 779.3 944.3 L 777.0 982.6 L 735.0 987.6 L 697.5 1002.0 L 668.4 977.7 L 634.4 1006.0 L 598.8 1029.8 L 560.6 1022.9 L 530.9 1017.6 L 500.5 983.9 L 450.2 999.5 L 424.3 967.8 L 397.7 958.0 L 376.8 923.6 L 338.4 930.6 L 315.8 898.4 L 289.5 870.0 L 275.7 839.4 L 248.8 811.3 L 234.2 786.4 L 244.0 739.1 L 239.0 712.4 L 221.7 679.7 L 224.2 647.8 L 216.1 614.9 L 208.8 579.8 L 218.3 549.5 L 209.7 508.8 L 225.8 479.2 L 227.1 441.7 L 249.3 408.1 L 268.0 386.8 L 292.1 351.6 L 322.7 343.0 L 365.4 333.8 L 372.8 301.3 L 410.7 294.5 L 426.8 245.0 L 465.5 254.2 L 504.6 250.7 L 519.6 221.4 L 562.5 233.8 L 593.8 203.1 L 637.1 242.2 L 657.7 218.6 L 702.4 231.2 L 732.7 236.3 L 777.3 246.6 L 792.2 267.0 L 841.0 273.0 L 832.8 326.8 L 884.5 327.5 L 879.4 373.6 L 937.5 379.4 L 924.5 429.9 L 939.3 455.5 L 940.1 485.6 L 977.9 512.1 L 994.1 544.5 L 983.3 580.7 L 985.4 613.9 Z" stroke="#412bee" stroke-width="0.8" fill="none" opacity="0.28"/>
<path d="M 996.1 613.6 L 981.7 649.2 L 1010.8 687.2 L 995.5 722.1 L 974.5 751.4 L 951.1 786.4 L 946.3 811.3 L 923.3 843.7 L 900.7 875.6 L 889.0 908.0 L 840.7 909.6 L 828.9 940.9 L 794.0 949.2 L 760.4 980.8 L 742.5 1008.3 L 689.7 1005.6 L 670.5 1003.6 L 620.0 1020.2 L 583.7 1036.7 L 549.9 1032.5 L 516.8 1004.3 L 491.8 1020.0 L 446.7 990.6 L 413.9 988.6 L 381.9 967.1 L 359.3 943.2 L 319.3 936.9 L 303.1 907.2 L 276.8 878.8 L 268.6 843.6 L 238.4 818.1 L 242.2 781.1 L 241.0 743.4 L 207.9 716.5 L 220.9 680.6 L 191.9 649.4 L 198.0 614.7 L 190.2 579.3 L 198.5 544.8 L 213.3 514.8 L 197.8 472.3 L 219.7 440.0 L 228.6 406.9 L 252.1 376.8 L 271.3 346.6 L 314.4 329.3 L 321.5 286.5 L 366.0 279.4 L 374.4 252.4 L 428.5 250.0 L 438.8 214.0 L 491.4 238.7 L 524.1 215.7 L 562.8 202.5 L 584.7 221.1 L 623.8 216.3 L 660.5 224.8 L 690.2 244.4 L 723.0 235.1 L 769.9 242.6 L 789.5 265.3 L 840.1 274.7 L 844.8 307.1 L 865.5 342.9 L 907.1 356.4 L 909.9 388.3 L 963.4 405.5 L 965.0 438.2 L 972.7 472.1 L 992.4 506.7 L 995.0 543.6 L 992.3 580.1 L 1015.0 614.2 Z" stroke="#8e1fad" stroke-width="1.5" fill="none" opacity="0.50"/>
<path d="M 1017.2 613.8 L 1009.3 651.5 L 989.2 683.9 L 1001.9 723.8 L 970.4 754.3 L 940.2 779.3 L 946.8 820.4 L 918.7 849.8 L 898.8 877.6 L 861.4 896.9 L 850.9 932.0 L 810.4 945.0 L 807.2 984.4 L 748.5 964.0 L 738.5 1006.2 L 690.1 1001.6 L 653.4 1009.8 L 630.7 1026.6 L 594.9 1033.7 L 544.1 1020.4 L 521.8 1029.8 L 483.9 998.3 L 444.4 991.5 L 398.8 1011.5 L 385.4 978.7 L 357.6 949.6 L 334.8 919.9 L 307.6 892.0 L 267.0 879.9 L 222.3 862.3 L 237.2 818.7 L 218.7 788.5 L 189.7 756.7 L 185.8 718.2 L 174.1 689.2 L 202.4 647.7 L 181.9 615.5 L 182.1 578.2 L 165.5 535.4 L 167.5 502.1 L 187.8 465.3 L 198.9 433.6 L 215.8 396.6 L 249.6 379.3 L 277.1 349.3 L 288.3 309.4 L 336.8 307.0 L 343.6 259.3 L 388.4 267.3 L 405.9 227.3 L 439.2 220.5 L 474.2 211.7 L 508.7 207.1 L 549.2 204.2 L 584.2 193.5 L 615.9 196.7 L 657.3 175.9 L 703.0 214.5 L 728.0 244.1 L 762.8 233.9 L 785.7 265.8 L 825.1 281.5 L 859.3 278.2 L 880.3 317.4 L 888.7 355.7 L 919.2 385.2 L 938.4 412.4 L 963.6 439.2 L 1004.8 462.4 L 994.6 504.4 L 984.3 542.2 L 991.7 580.1 L 992.0 615.5 Z" stroke="#412bee" stroke-width="0.8" fill="none" opacity="0.32"/>
<path d="M 996.9 611.1 L 985.2 649.1 L 1001.7 689.9 L 996.2 724.5 L 971.5 753.6 L 968.2 795.2 L 950.4 829.5 L 924.6 854.0 L 899.0 878.7 L 881.3 908.3 L 862.0 941.6 L 833.6 969.3 L 804.8 994.9 L 767.0 1019.4 L 726.2 1006.7 L 683.3 1014.1 L 654.0 1042.5 L 614.9 1019.8 L 577.5 1032.2 L 539.4 1053.9 L 504.6 1050.5 L 480.7 1011.2 L 436.1 996.6 L 400.3 1010.7 L 379.0 984.6 L 338.9 966.7 L 324.6 927.6 L 288.3 904.8 L 266.6 874.7 L 221.9 864.0 L 217.1 829.2 L 180.7 794.8 L 208.6 749.8 L 192.6 716.3 L 163.6 684.7 L 174.6 650.3 L 157.8 609.8 L 145.2 577.4 L 150.2 533.5 L 168.2 504.1 L 189.1 464.2 L 178.3 428.5 L 231.1 414.5 L 250.4 376.6 L 245.8 333.7 L 270.8 307.3 L 302.1 271.4 L 341.5 265.5 L 371.3 249.7 L 404.8 216.7 L 427.5 201.7 L 462.8 189.0 L 503.6 203.3 L 542.6 188.0 L 581.6 202.4 L 617.3 182.8 L 663.4 185.6 L 693.3 194.6 L 729.1 194.5 L 771.7 203.4 L 802.9 233.0 L 836.1 260.6 L 854.3 294.5 L 885.2 316.3 L 891.5 355.5 L 947.9 361.4 L 966.0 392.8 L 969.8 427.1 L 991.6 458.0 L 986.0 509.1 L 1008.3 540.1 L 1025.4 576.7 L 994.9 615.8 Z" stroke="#412bee" stroke-width="0.8" fill="none" opacity="0.24"/>
<path d="M 1019.2 614.5 L 1007.2 644.9 L 992.3 687.5 L 977.1 714.2 L 990.9 758.7 L 976.8 796.3 L 950.8 823.6 L 959.8 872.6 L 913.8 886.4 L 885.1 918.6 L 857.9 932.8 L 834.3 963.1 L 789.7 975.7 L 756.5 993.4 L 729.0 1043.5 L 691.9 1038.9 L 647.1 1027.9 L 615.4 1049.7 L 581.5 1066.2 L 547.0 1058.9 L 497.1 1054.1 L 465.1 1029.4 L 416.7 1035.4 L 389.9 1014.1 L 372.8 979.3 L 338.5 963.9 L 292.7 951.1 L 282.8 908.2 L 238.5 890.1 L 204.0 873.4 L 183.3 845.1 L 172.2 802.2 L 176.6 758.1 L 173.8 723.6 L 151.8 682.2 L 168.0 643.5 L 123.2 610.0 L 124.4 573.8 L 162.5 539.7 L 142.6 498.0 L 173.0 461.0 L 157.5 413.6 L 206.8 400.8 L 209.7 347.5 L 246.5 336.0 L 277.9 304.6 L 313.7 289.9 L 340.6 266.2 L 345.2 217.7 L 399.4 225.1 L 428.0 197.6 L 476.8 205.8 L 500.3 201.1 L 539.9 191.9 L 576.8 167.8 L 612.3 172.3 L 654.2 177.6 L 691.3 190.3 L 727.0 210.1 L 767.4 220.5 L 788.6 234.0 L 823.5 248.4 L 866.6 268.0 L 873.2 315.3 L 917.5 326.4 L 947.9 347.2 L 977.5 389.3 L 986.6 418.2 L 959.0 468.1 L 978.7 505.2 L 1018.5 537.9 L 1023.0 576.4 L 1008.0 615.1 Z" stroke="#412bee" stroke-width="0.8" fill="none" opacity="0.28"/>
<path d="M 1029.4 603.7 L 1011.4 651.5 L 1010.6 683.4 L 1013.0 725.7 L 989.3 766.8 L 973.9 793.2 L 964.8 836.8 L 955.9 874.6 L 932.3 911.3 L 898.5 923.3 L 864.8 956.2 L 828.2 967.9 L 808.5 1007.5 L 759.6 1006.2 L 735.7 1048.0 L 693.0 1053.2 L 647.0 1032.7 L 609.9 1044.3 L 581.0 1054.2 L 532.6 1045.8 L 500.9 1069.8 L 452.4 1052.0 L 422.2 1037.6 L 385.2 1013.6 L 348.1 1006.6 L 311.5 980.3 L 269.7 964.4 L 265.2 915.0 L 243.7 880.1 L 193.9 876.1 L 188.1 840.6 L 153.2 806.5 L 154.3 765.9 L 164.8 715.5 L 146.9 690.6 L 131.7 649.8 L 134.7 613.8 L 160.4 567.5 L 132.0 531.1 L 131.0 491.7 L 145.6 447.5 L 170.9 424.0 L 189.4 393.0 L 188.9 346.9 L 240.3 325.8 L 242.7 278.0 L 285.0 260.9 L 330.6 252.1 L 351.4 227.6 L 382.7 208.5 L 414.7 175.0 L 452.9 159.7 L 488.6 142.5 L 537.5 182.4 L 578.8 171.0 L 619.6 166.9 L 645.7 194.5 L 693.7 194.5 L 721.2 194.4 L 765.7 198.7 L 801.1 232.9 L 824.3 243.3 L 873.6 250.1 L 882.9 303.0 L 920.1 323.4 L 930.2 361.8 L 970.4 377.7 L 981.7 426.0 L 985.9 458.5 L 1008.2 487.6 L 1020.6 536.2 L 1034.0 573.7 L 1038.5 614.0 Z" stroke="#412bee" stroke-width="0.8" fill="none" opacity="0.30"/>
<path d="M 1009.2 604.6 L 1016.8 643.1 L 1011.8 682.5 L 1010.8 718.9 L 1008.3 763.7 L 985.2 800.8 L 978.6 839.6 L 956.3 872.4 L 929.0 911.8 L 907.7 939.9 L 877.7 964.2 L 832.6 977.3 L 801.1 1011.9 L 770.4 1038.0 L 721.3 1021.3 L 691.6 1052.0 L 648.1 1030.4 L 614.3 1084.3 L 570.7 1058.5 L 534.4 1044.4 L 495.5 1060.7 L 451.9 1059.7 L 410.5 1061.7 L 382.6 1016.8 L 346.4 1009.9 L 313.4 976.7 L 271.5 967.1 L 257.7 930.3 L 232.9 893.9 L 204.6 870.9 L 182.9 829.5 L 161.6 797.3 L 134.5 773.0 L 144.4 725.0 L 103.6 697.5 L 105.3 652.6 L 121.7 602.4 L 123.1 574.2 L 129.1 522.0 L 140.0 485.6 L 134.0 442.4 L 139.5 408.7 L 189.1 390.0 L 181.5 329.4 L 240.8 337.4 L 260.6 301.7 L 284.0 261.9 L 312.4 238.7 L 333.8 196.5 L 371.9 175.1 L 412.6 169.0 L 451.4 167.9 L 500.1 186.9 L 529.2 135.0 L 571.3 155.4 L 611.8 136.6 L 651.7 162.3 L 694.5 153.8 L 728.2 171.1 L 765.7 184.5 L 802.7 203.7 L 834.0 225.0 L 864.0 252.4 L 910.5 265.5 L 938.5 293.1 L 926.5 356.3 L 985.6 373.7 L 966.6 418.9 L 991.3 458.2 L 1000.0 495.8 L 1021.3 531.3 L 1028.1 566.7 L 1027.9 601.5 Z" stroke="#8e1fad" stroke-width="1.5" fill="none" opacity="0.50"/>
<path d="M 1027.6 607.9 L 1041.2 644.0 L 1040.7 687.7 L 1025.7 720.8 L 1019.9 761.8 L 997.3 807.6 L 956.0 835.2 L 956.2 870.7 L 936.8 908.4 L 911.3 951.5 L 882.4 974.6 L 837.5 990.6 L 796.5 999.8 L 762.9 1009.3 L 725.3 1024.4 L 695.4 1076.3 L 655.8 1068.2 L 612.8 1080.5 L 573.3 1073.1 L 528.8 1083.7 L 489.2 1075.7 L 450.2 1053.2 L 409.0 1045.0 L 373.0 1027.8 L 330.2 1030.0 L 308.3 982.5 L 258.4 984.2 L 240.6 944.1 L 204.4 906.5 L 183.3 872.6 L 150.3 855.3 L 157.1 796.2 L 135.9 755.8 L 121.2 733.0 L 97.7 693.3 L 105.1 639.2 L 82.1 599.1 L 102.9 561.5 L 109.1 526.2 L 113.1 489.2 L 138.2 445.7 L 136.9 403.1 L 167.1 369.8 L 178.8 326.9 L 208.4 299.1 L 244.8 273.9 L 280.1 266.3 L 300.3 218.5 L 336.4 204.6 L 373.3 182.6 L 412.1 159.8 L 446.4 127.5 L 489.5 133.2 L 531.5 151.8 L 570.3 165.8 L 612.7 114.8 L 654.8 141.9 L 692.6 151.7 L 732.1 157.4 L 775.4 173.4 L 812.1 191.6 L 849.7 212.2 L 890.7 226.2 L 907.2 275.2 L 920.4 319.9 L 948.0 345.5 L 974.5 380.2 L 980.1 415.9 L 1037.3 433.9 L 1049.6 474.6 L 1044.8 520.1 L 1040.8 563.5 L 1055.6 598.8 Z" stroke="#412bee" stroke-width="0.8" fill="none" opacity="0.33"/>
<path d="M 1046.7 594.0 L 1056.9 638.9 L 1048.6 692.7 L 1040.9 733.5 L 1031.7 762.6 L 1014.5 803.1 L 987.2 839.6 L 972.4 876.6 L 936.7 917.8 L 904.3 940.9 L 874.4 955.3 L 855.0 1001.7 L 809.6 1016.3 L 766.6 1025.1 L 733.3 1045.5 L 691.5 1061.7 L 655.9 1082.9 L 613.7 1104.6 L 572.9 1076.7 L 531.8 1087.0 L 482.8 1089.5 L 448.2 1076.1 L 401.5 1067.0 L 360.5 1059.5 L 327.0 1031.2 L 293.1 1003.2 L 241.6 990.3 L 226.2 940.5 L 187.4 928.6 L 167.6 879.2 L 157.1 838.9 L 140.0 800.9 L 123.0 757.2 L 108.7 734.4 L 95.4 690.5 L 90.8 642.1 L 90.5 597.4 L 97.7 560.2 L 83.9 519.1 L 107.5 479.5 L 113.9 432.9 L 120.2 384.8 L 154.6 365.4 L 180.3 323.9 L 212.1 290.6 L 222.0 252.0 L 259.9 239.3 L 285.9 198.8 L 324.2 183.7 L 370.2 161.6 L 399.9 143.0 L 446.6 133.9 L 485.2 128.4 L 533.2 116.5 L 574.1 144.2 L 613.5 104.5 L 654.0 135.9 L 690.9 152.9 L 744.0 147.6 L 780.0 145.8 L 819.9 169.6 L 851.6 199.2 L 874.9 245.7 L 925.0 255.8 L 934.8 293.1 L 943.8 346.5 L 977.6 363.2 L 1014.9 392.0 L 1041.4 431.3 L 1047.9 471.2 L 1051.6 515.6 L 1046.9 561.1 L 1058.9 609.2 Z" stroke="#412bee" stroke-width="0.8" fill="none" opacity="0.23"/>
<path d="M 1076.9 601.7 L 1072.1 643.8 L 1069.3 680.8 L 1035.8 730.3 L 1019.3 758.8 L 1013.0 800.7 L 1000.3 843.2 L 980.5 890.0 L 954.6 924.6 L 910.0 941.2 L 908.2 993.8 L 842.5 989.8 L 825.3 1033.7 L 777.5 1052.7 L 739.5 1062.2 L 704.6 1090.8 L 664.9 1099.9 L 612.3 1090.1 L 569.6 1071.9 L 529.1 1100.2 L 489.9 1097.0 L 447.3 1064.7 L 404.3 1064.6 L 379.9 1021.6 L 333.1 1012.3 L 282.8 1004.0 L 245.5 988.6 L 235.1 939.2 L 197.3 917.2 L 170.3 887.1 L 150.8 850.7 L 119.6 813.0 L 109.9 770.1 L 108.6 723.0 L 99.3 676.9 L 95.4 639.6 L 66.1 605.4 L 61.3 560.5 L 73.8 504.9 L 85.9 464.8 L 100.9 426.5 L 126.5 392.7 L 142.4 351.5 L 169.3 313.4 L 186.9 275.6 L 218.9 246.4 L 259.6 219.4 L 294.8 215.6 L 325.8 183.0 L 361.1 132.2 L 404.2 123.5 L 437.8 99.8 L 483.1 96.4 L 534.9 86.1 L 570.0 116.5 L 617.7 127.9 L 652.0 141.8 L 704.0 101.2 L 733.6 148.6 L 775.2 152.1 L 816.6 169.6 L 857.6 195.7 L 890.3 235.6 L 938.6 241.9 L 934.3 302.0 L 981.3 320.0 L 988.8 353.9 L 1015.9 397.6 L 1051.6 419.1 L 1061.8 465.6 L 1081.9 517.8 L 1072.3 564.3 L 1091.5 595.5 Z" stroke="#412bee" stroke-width="0.8" fill="none" opacity="0.20"/>
<path d="M 1094.9 598.1 L 1086.6 643.4 L 1076.0 686.2 L 1052.7 723.5 L 1029.4 768.3 L 1013.6 807.4 L 1012.2 841.5 L 992.3 877.7 L 962.0 914.8 L 937.2 947.0 L 920.4 998.6 L 861.4 992.0 L 836.3 1046.5 L 795.7 1048.1 L 745.5 1064.4 L 700.9 1094.9 L 657.5 1070.5 L 627.3 1101.5 L 571.3 1109.1 L 536.5 1082.2 L 484.1 1112.4 L 442.1 1094.8 L 389.3 1100.2 L 362.8 1074.3 L 328.1 1025.2 L 270.1 1026.1 L 248.9 994.8 L 222.0 948.8 L 189.7 931.6 L 156.1 889.2 L 118.8 860.1 L 116.5 801.3 L 100.7 774.6 L 79.4 735.0 L 73.0 682.5 L 82.6 644.1 L 72.3 600.9 L 84.6 559.5 L 69.1 512.9 L 83.3 455.6 L 121.4 424.6 L 129.0 397.8 L 122.8 329.5 L 156.4 289.7 L 171.6 253.3 L 239.1 250.9 L 228.9 187.7 L 275.6 179.3 L 333.7 157.4 L 350.8 125.0 L 393.3 95.9 L 441.4 115.5 L 492.7 104.1 L 537.3 89.3 L 575.7 91.9 L 612.7 96.5 L 670.8 95.9 L 709.8 109.4 L 751.3 137.5 L 782.5 144.4 L 820.2 166.0 L 871.9 160.7 L 895.0 219.7 L 930.4 240.3 L 960.8 283.6 L 989.0 295.1 L 1024.6 350.2 L 1036.4 380.0 L 1035.0 433.0 L 1065.3 458.1 L 1072.2 513.4 L 1058.1 547.7 L 1097.2 590.6 Z" stroke="#412bee" stroke-width="0.8" fill="none" opacity="0.31"/>
<path d="M 1088.9 601.2 L 1099.6 638.6 L 1114.2 690.2 L 1077.9 731.1 L 1075.4 770.5 L 1034.1 808.0 L 1038.8 854.1 L 1007.9 904.9 L 974.4 927.2 L 942.2 955.5 L 912.3 987.2 L 877.1 1037.7 L 828.9 1032.7 L 799.4 1063.5 L 768.1 1088.6 L 712.0 1102.2 L 669.0 1103.4 L 637.5 1131.0 L 589.8 1121.7 L 527.3 1111.0 L 488.6 1094.0 L 436.4 1103.4 L 403.8 1075.7 L 363.2 1044.8 L 327.9 1042.9 L 283.9 1024.9 L 223.5 1016.3 L 223.2 956.4 L 183.4 927.4 L 141.3 900.9 L 131.7 856.9 L 124.0 810.4 L 79.5 773.9 L 93.7 730.4 L 77.9 682.8 L 80.0 646.6 L 59.9 587.7 L 66.5 539.8 L 82.5 502.3 L 104.2 464.6 L 99.2 417.8 L 107.5 377.4 L 121.3 326.8 L 175.5 316.4 L 176.1 246.3 L 224.3 222.7 L 239.2 202.7 L 276.7 163.5 L 318.3 149.0 L 351.4 113.1 L 394.5 108.2 L 438.2 74.3 L 503.6 92.6 L 530.0 73.3 L 579.6 67.9 L 615.0 99.1 L 673.7 95.2 L 718.8 103.9 L 754.4 126.7 L 802.3 114.0 L 836.4 139.8 L 880.1 163.2 L 918.0 198.0 L 933.1 243.4 L 975.0 267.8 L 1008.7 293.4 L 1016.0 344.0 L 1047.3 364.9 L 1052.9 413.1 L 1093.5 462.9 L 1111.0 495.2 L 1126.6 546.6 L 1089.6 589.5 Z" stroke="#8e1fad" stroke-width="1.5" fill="none" opacity="0.50"/>
<path d="M 1122.8 590.7 L 1100.9 632.8 L 1120.8 690.3 L 1081.9 724.0 L 1077.6 772.4 L 1076.9 827.9 L 1034.4 861.8 L 1030.6 903.6 L 980.5 939.5 L 951.9 958.6 L 928.4 994.2 L 890.0 1024.6 L 860.3 1054.1 L 814.1 1063.2 L 768.2 1093.5 L 724.8 1086.0 L 686.5 1127.4 L 628.0 1094.5 L 591.0 1114.2 L 539.2 1127.0 L 484.3 1115.5 L 458.8 1106.3 L 391.2 1103.6 L 363.9 1074.5 L 337.3 1023.5 L 287.8 1009.6 L 233.2 992.8 L 224.2 956.4 L 187.0 929.9 L 168.3 884.2 L 139.4 853.0 L 111.0 815.9 L 95.5 770.0 L 92.8 722.3 L 78.5 686.2 L 70.2 636.5 L 65.8 596.8 L 44.6 551.7 L 85.2 505.1 L 76.4 448.6 L 99.4 408.3 L 109.8 357.3 L 110.7 315.4 L 130.2 272.6 L 182.5 251.1 L 220.8 233.5 L 237.3 167.9 L 258.1 132.1 L 313.1 123.0 L 345.4 87.9 L 415.3 101.9 L 446.9 89.6 L 495.3 68.8 L 543.6 96.9 L 578.9 54.3 L 630.9 59.6 L 675.2 74.0 L 712.7 96.5 L 753.2 104.2 L 814.3 118.6 L 849.6 139.7 L 875.4 167.1 L 941.5 174.5 L 939.2 230.7 L 1001.3 234.8 L 1034.4 270.3 L 1026.3 334.4 L 1077.1 354.5 L 1086.3 411.8 L 1069.1 466.3 L 1119.1 491.4 L 1112.3 541.0 L 1145.8 584.5 Z" stroke="#412bee" stroke-width="0.8" fill="none" opacity="0.29"/>

  </g>

  <!-- Vignette -->
  <defs>
    <radialGradient id="vignette-paris-texas" cx="50%" cy="50%" r="70%">
      <stop offset="0%" stop-color="transparent"/>
      <stop offset="100%" stop-color="rgba(10,10,10,0.7)"/>
    </radialGradient>
  </defs>
  <rect width="1200" height="1200" fill="url(#vignette-paris-texas)"/>

  <!-- Card number watermark -->
  <text x="40" y="1170" font-family="monospace" font-size="48" fill="rgba(255,255,255,0.06)">003</text>
</svg>